<?xml version="1.0" encoding="UTF-8" standalone="no"?>
<!-- Created with Inkscape (http://www.inkscape.org/) -->

<svg
   xmlns:dc="http://purl.org/dc/elements/1.1/"
   xmlns:cc="http://creativecommons.org/ns#"
   xmlns:rdf="http://www.w3.org/1999/02/22-rdf-syntax-ns#"
   xmlns:svg="http://www.w3.org/2000/svg"
   xmlns="http://www.w3.org/2000/svg"
   xmlns:sodipodi="http://sodipodi.sourceforge.net/DTD/sodipodi-0.dtd"
   xmlns:inkscape="http://www.inkscape.org/namespaces/inkscape"
   id="svg2837"
   version="1.1"
   inkscape:version="0.47 r22583"
   width="412.55203"
   height="589.71844"
   xml:space="preserve"
   sodipodi:docname="ccollision2.svg"><metadata
     id="metadata2843"><rdf:RDF><cc:Work
         rdf:about=""><dc:format>image/svg+xml</dc:format><dc:type
           rdf:resource="http://purl.org/dc/dcmitype/StillImage" /><dc:title></dc:title></cc:Work></rdf:RDF></metadata><defs
     id="defs2841"><inkscape:perspective
   sodipodi:type="inkscape:persp3d"
   inkscape:vp_x="0 : 0.5 : 1"
   inkscape:vp_y="0 : 1000 : 0"
   inkscape:vp_z="1 : 0.5 : 1"
   inkscape:persp3d-origin="0.5 : 0.33333333 : 1"
   id="perspective2845" /><clipPath
   clipPathUnits="userSpaceOnUse"
   id="clipPath2855"><path
     d="m 229,507.922 0,5999.998 4500,0 0,-5999.998 -4500,0 z"
     clip-rule="evenodd"
     id="path2857" /></clipPath><clipPath
   clipPathUnits="userSpaceOnUse"
   id="clipPath2903"><path
     d="m 229,507.922 0,5999.998 4500,0 0,-5999.998 -4500,0 z"
     clip-rule="evenodd"
     id="path2905" /></clipPath><inkscape:perspective
   id="perspective4078"
   inkscape:persp3d-origin="0.5 : 0.33333333 : 1"
   inkscape:vp_z="1 : 0.5 : 1"
   inkscape:vp_y="0 : 1000 : 0"
   inkscape:vp_x="0 : 0.5 : 1"
   sodipodi:type="inkscape:persp3d" /><inkscape:perspective
   id="perspective4078-2"
   inkscape:persp3d-origin="0.5 : 0.33333333 : 1"
   inkscape:vp_z="1 : 0.5 : 1"
   inkscape:vp_y="0 : 1000 : 0"
   inkscape:vp_x="0 : 0.5 : 1"
   sodipodi:type="inkscape:persp3d" /><inkscape:perspective
   id="perspective4624"
   inkscape:persp3d-origin="0.5 : 0.33333333 : 1"
   inkscape:vp_z="1 : 0.5 : 1"
   inkscape:vp_y="0 : 1000 : 0"
   inkscape:vp_x="0 : 0.5 : 1"
   sodipodi:type="inkscape:persp3d" /><inkscape:perspective
   id="perspective4699"
   inkscape:persp3d-origin="0.5 : 0.33333333 : 1"
   inkscape:vp_z="1 : 0.5 : 1"
   inkscape:vp_y="0 : 1000 : 0"
   inkscape:vp_x="0 : 0.5 : 1"
   sodipodi:type="inkscape:persp3d" /><inkscape:perspective
   id="perspective4721"
   inkscape:persp3d-origin="0.5 : 0.33333333 : 1"
   inkscape:vp_z="1 : 0.5 : 1"
   inkscape:vp_y="0 : 1000 : 0"
   inkscape:vp_x="0 : 0.5 : 1"
   sodipodi:type="inkscape:persp3d" /><inkscape:perspective
   id="perspective4743"
   inkscape:persp3d-origin="0.5 : 0.33333333 : 1"
   inkscape:vp_z="1 : 0.5 : 1"
   inkscape:vp_y="0 : 1000 : 0"
   inkscape:vp_x="0 : 0.5 : 1"
   sodipodi:type="inkscape:persp3d" /><inkscape:perspective
   id="perspective4765"
   inkscape:persp3d-origin="0.5 : 0.33333333 : 1"
   inkscape:vp_z="1 : 0.5 : 1"
   inkscape:vp_y="0 : 1000 : 0"
   inkscape:vp_x="0 : 0.5 : 1"
   sodipodi:type="inkscape:persp3d" /><inkscape:perspective
   id="perspective4787"
   inkscape:persp3d-origin="0.5 : 0.33333333 : 1"
   inkscape:vp_z="1 : 0.5 : 1"
   inkscape:vp_y="0 : 1000 : 0"
   inkscape:vp_x="0 : 0.5 : 1"
   sodipodi:type="inkscape:persp3d" /><inkscape:perspective
   id="perspective4849"
   inkscape:persp3d-origin="0.5 : 0.33333333 : 1"
   inkscape:vp_z="1 : 0.5 : 1"
   inkscape:vp_y="0 : 1000 : 0"
   inkscape:vp_x="0 : 0.5 : 1"
   sodipodi:type="inkscape:persp3d" /><inkscape:perspective
   id="perspective4849-7"
   inkscape:persp3d-origin="0.5 : 0.33333333 : 1"
   inkscape:vp_z="1 : 0.5 : 1"
   inkscape:vp_y="0 : 1000 : 0"
   inkscape:vp_x="0 : 0.5 : 1"
   sodipodi:type="inkscape:persp3d" /><inkscape:perspective
   id="perspective5152"
   inkscape:persp3d-origin="0.5 : 0.33333333 : 1"
   inkscape:vp_z="1 : 0.5 : 1"
   inkscape:vp_y="0 : 1000 : 0"
   inkscape:vp_x="0 : 0.5 : 1"
   sodipodi:type="inkscape:persp3d" /><inkscape:perspective
   id="perspective5460"
   inkscape:persp3d-origin="0.5 : 0.33333333 : 1"
   inkscape:vp_z="1 : 0.5 : 1"
   inkscape:vp_y="0 : 1000 : 0"
   inkscape:vp_x="0 : 0.5 : 1"
   sodipodi:type="inkscape:persp3d" /><inkscape:perspective
   id="perspective5482"
   inkscape:persp3d-origin="0.5 : 0.33333333 : 1"
   inkscape:vp_z="1 : 0.5 : 1"
   inkscape:vp_y="0 : 1000 : 0"
   inkscape:vp_x="0 : 0.5 : 1"
   sodipodi:type="inkscape:persp3d" /><inkscape:perspective
   id="perspective5522"
   inkscape:persp3d-origin="0.5 : 0.33333333 : 1"
   inkscape:vp_z="1 : 0.5 : 1"
   inkscape:vp_y="0 : 1000 : 0"
   inkscape:vp_x="0 : 0.5 : 1"
   sodipodi:type="inkscape:persp3d" /><inkscape:perspective
   id="perspective5544"
   inkscape:persp3d-origin="0.5 : 0.33333333 : 1"
   inkscape:vp_z="1 : 0.5 : 1"
   inkscape:vp_y="0 : 1000 : 0"
   inkscape:vp_x="0 : 0.5 : 1"
   sodipodi:type="inkscape:persp3d" />

</defs><sodipodi:namedview
     pagecolor="#ffffff"
     bordercolor="#666666"
     borderopacity="1"
     objecttolerance="10"
     gridtolerance="10"
     guidetolerance="10"
     inkscape:pageopacity="0"
     inkscape:pageshadow="2"
     inkscape:window-width="1680"
     inkscape:window-height="1000"
     id="namedview2839"
     showgrid="false"
     inkscape:zoom="0.90889961"
     inkscape:cx="-126.15255"
     inkscape:cy="264.484"
     inkscape:window-x="-4"
     inkscape:window-y="-3"
     inkscape:window-maximized="1"
     inkscape:current-layer="g2847" /><g
     id="g2847"
     inkscape:groupmode="layer"
     inkscape:label="RDMN08-10"
     transform="matrix(0,1.25,1.25,0,213.99689,-211.82103)"><text
   xml:space="preserve"
   style="font-size:14.39999962px;font-style:normal;font-weight:normal;fill:#ff00ff;fill-opacity:1;stroke:none;font-family:Bitstream Vera Sans"
   x="91.948303"
   y="335.89304"
   id="text3174"
   transform="matrix(0,1,1,0,0,0)"><tspan
     sodipodi:role="line"
     x="91.948303"
     y="335.89304"
     style="font-size:16px;font-style:normal;font-variant:normal;font-weight:normal;font-stretch:normal;text-align:center;text-anchor:middle;font-family:Arial;-inkscape-font-specification:Arial"
     id="tspan3950">wird beantwortet</tspan></text>

<text
   xml:space="preserve"
   style="font-size:14.39999962px;font-style:normal;font-weight:normal;fill:#000000;fill-opacity:1;stroke:none;font-family:Bitstream Vera Sans"
   x="-37.036076"
   y="204.38541"
   id="text3952"
   transform="matrix(0,1,1,0,0,0)"><tspan
     sodipodi:role="line"
     id="tspan3954"
     x="-37.036076"
     y="204.38541"
     style="font-size:16px;font-style:normal;font-variant:normal;font-weight:bold;font-stretch:normal;font-family:Arial;-inkscape-font-specification:Arial Bold">Runde 1</tspan></text>

<text
   xml:space="preserve"
   style="font-size:14.39999962px;font-style:normal;font-weight:normal;fill:#ff00ff;fill-opacity:1;stroke:none;font-family:Bitstream Vera Sans"
   x="588.66907"
   y="383.83179"
   id="text3174-1"
   transform="matrix(0,1,1,0,0,0)"><tspan
     sodipodi:role="line"
     id="tspan3176-0"
     x="590.96124"
     y="383.83179"
     style="font-weight:normal;text-align:center;text-anchor:middle;-inkscape-font-specification:Andale Mono">wird </tspan><tspan
     sodipodi:role="line"
     x="588.66907"
     y="401.83179"
     style="font-weight:normal;text-align:center;text-anchor:middle;-inkscape-font-specification:Andale Mono"
     id="tspan3950-4">beantwortet</tspan></text>

<text
   xml:space="preserve"
   style="font-size:14.39999962px;font-style:normal;font-weight:normal;fill:#000000;fill-opacity:1;stroke:none;font-family:Bitstream Vera Sans"
   x="-37.934513"
   y="368.79529"
   id="text3952-2"
   transform="matrix(0,1,1,0,0,0)"><tspan
     sodipodi:role="line"
     id="tspan3954-2"
     x="-37.934513"
     y="368.79529"
     style="font-size:16px;font-style:normal;font-variant:normal;font-weight:bold;font-stretch:normal;font-family:Arial;-inkscape-font-specification:Arial Bold">Runde 2</tspan></text>

<text
   xml:space="preserve"
   style="font-size:14.39999962px;font-style:normal;font-weight:normal;fill:#ff00ff;fill-opacity:1;stroke:none;font-family:Bitstream Vera Sans"
   x="588.66907"
   y="531.70288"
   id="text3174-3"
   transform="matrix(0,1,1,0,0,0)"><tspan
     sodipodi:role="line"
     id="tspan3176-8"
     x="590.96124"
     y="531.70288"
     style="font-weight:normal;text-align:center;text-anchor:middle;-inkscape-font-specification:Andale Mono">wird </tspan><tspan
     sodipodi:role="line"
     x="588.66907"
     y="549.70288"
     style="font-weight:normal;text-align:center;text-anchor:middle;-inkscape-font-specification:Andale Mono"
     id="tspan3950-3">beantwortet</tspan></text>

<text
   xml:space="preserve"
   style="font-size:14.39999962px;font-style:normal;font-weight:normal;fill:#000000;fill-opacity:1;stroke:none;font-family:Bitstream Vera Sans"
   x="-37.993107"
   y="522.26678"
   id="text3952-3"
   transform="matrix(0,1,1,0,0,0)"><tspan
     sodipodi:role="line"
     id="tspan3954-3"
     x="-37.993107"
     y="522.26678"
     style="font-size:16px;font-style:normal;font-variant:normal;font-weight:bold;font-stretch:normal;font-family:Arial;-inkscape-font-specification:Arial Bold">Runde 3</tspan></text>

<g
   id="g5697"><path
     d="m 532.48158,-150.1767 83.28,0"
     style="fill:none;stroke:#000000;stroke-width:0.75;stroke-linecap:round;stroke-linejoin:round;stroke-miterlimit:10;stroke-opacity:1;stroke-dasharray:none"
     id="path2957-5" /><path
     d="m 542.68158,-145.9767 73.08,139.8"
     style="fill:none;stroke:#000000;stroke-width:0.75;stroke-linecap:round;stroke-linejoin:round;stroke-miterlimit:10;stroke-opacity:1;stroke-dasharray:none"
     id="path2959-2" /><path
     d="m 538.48158,-114.1767 77.28,36"
     style="fill:none;stroke:#000000;stroke-width:0.75;stroke-linecap:round;stroke-linejoin:round;stroke-miterlimit:10;stroke-opacity:1;stroke-dasharray:none"
     id="path2961-9" /><path
     d="m 545.20158,-78.1767 70.56,0"
     style="fill:none;stroke:#000000;stroke-width:0.75;stroke-linecap:round;stroke-linejoin:round;stroke-miterlimit:10;stroke-opacity:1;stroke-dasharray:none"
     id="path2963-0" /><path
     d="m 533.44158,-73.9767 82.32,-76.2"
     style="fill:none;stroke:#000000;stroke-width:0.75;stroke-linecap:round;stroke-linejoin:round;stroke-miterlimit:10;stroke-opacity:1;stroke-dasharray:none"
     id="path2965-2" /><path
     d="m 616.48158,89.8233 24,0 0,24 -24,0 0,-24 z"
     style="fill:none;stroke:#000000;stroke-width:1.5;stroke-linecap:round;stroke-linejoin:miter;stroke-miterlimit:8;stroke-opacity:1;stroke-dasharray:none"
     id="path2967-8" /><path
     d="m 616.48158,17.8233 24,0 0,24 -24,0 0,-24 z"
     style="fill:#ff00ff;fill-opacity:1;stroke:#000000;stroke-width:1.5;stroke-linecap:round;stroke-linejoin:miter;stroke-miterlimit:8;stroke-opacity:1;stroke-dasharray:none"
     id="path2969-3" /><path
     d="m 616.48158,-18.1767 24,0 0,24 -24,0 0,-24 z"
     style="fill:none;stroke:#000000;stroke-width:1.5;stroke-linecap:round;stroke-linejoin:miter;stroke-miterlimit:8;stroke-opacity:1;stroke-dasharray:none"
     id="path2971-8" /><path
     d="m 616.48158,-54.1767 24,0 0,24 -24,0 0,-24 z"
     style="fill:none;stroke:#000000;stroke-width:1.5;stroke-linecap:round;stroke-linejoin:miter;stroke-miterlimit:8;stroke-opacity:1;stroke-dasharray:none"
     id="path2973-04" /><path
     d="m 616.48158,-90.1767 24,0 0,24 -24,0 0,-24 z"
     style="fill:none;stroke:#000000;stroke-width:1.5;stroke-linecap:round;stroke-linejoin:miter;stroke-miterlimit:8;stroke-opacity:1;stroke-dasharray:none"
     id="path2975-0" /><path
     d="m 616.48158,-126.1767 24,0 0,24 -24,0 0,-24 z"
     style="fill:none;stroke:#000000;stroke-width:1.5;stroke-linecap:round;stroke-linejoin:miter;stroke-miterlimit:8;stroke-opacity:1;stroke-dasharray:none"
     id="path2977-9" /><path
     d="m 616.48158,-162.1767 24,0 0,24 -24,0 0,-24 z"
     style="fill:#ff00ff;fill-opacity:1;stroke:#000000;stroke-width:1.5;stroke-linecap:round;stroke-linejoin:miter;stroke-miterlimit:8;stroke-opacity:1;stroke-dasharray:none"
     id="path2979-1" /><path
     d="m 616.48158,53.8233 24,0 0,24 -24,0 0,-24 z"
     style="fill:none;stroke:#000000;stroke-width:1.5;stroke-linecap:round;stroke-linejoin:miter;stroke-miterlimit:8;stroke-opacity:1;stroke-dasharray:none"
     id="path2981-9" /><path
     d="m 616.48158,125.8233 24,0 0,24 -24,0 0,-24 z"
     style="fill:none;stroke:#000000;stroke-width:1.5;stroke-linecap:round;stroke-linejoin:miter;stroke-miterlimit:8;stroke-opacity:1;stroke-dasharray:none"
     id="path2983-6" /><path
     d="m 532.48158,101.8233 c 0,-3.36 2.64,-6 6,-6 3.36,0 6,2.64 6,6 0,3.36 -2.64,6 -6,6 -3.36,0 -6,-2.64 -6,-6"
     style="fill:#0046a0;fill-opacity:1;fill-rule:evenodd;stroke:#000000;stroke-width:1.5;stroke-miterlimit:10;stroke-opacity:1;stroke-dasharray:none"
     id="path3013-3" /><path
     d="m 532.48158,137.8233 c 0,-3.36 2.64,-6 6,-6 3.36,0 6,2.64 6,6 0,3.36 -2.64,6 -6,6 -3.36,0 -6,-2.64 -6,-6"
     style="fill:#0046a0;fill-opacity:1;fill-rule:evenodd;stroke:#000000;stroke-width:1.5;stroke-miterlimit:4;stroke-opacity:1;stroke-dasharray:none"
     id="path3017-1" /><path
     d="m 543.52158,-109.9767 72.24,139.8"
     style="fill:none;stroke:#000000;stroke-width:0.75;stroke-linecap:round;stroke-linejoin:round;stroke-miterlimit:10;stroke-opacity:1;stroke-dasharray:none"
     id="path3021-4" /><path
     d="m 545.20158,-6.1767 70.56,0"
     style="fill:none;stroke:#000000;stroke-width:0.75;stroke-linecap:round;stroke-linejoin:round;stroke-miterlimit:10;stroke-opacity:1;stroke-dasharray:none"
     id="path3027-4" /><path
     d="m 543.52158,-1.9767 72.24,31.8"
     style="fill:none;stroke:#000000;stroke-width:0.75;stroke-linecap:round;stroke-linejoin:round;stroke-miterlimit:10;stroke-opacity:1;stroke-dasharray:none"
     id="path3029-6" /><path
     d="m 545.20158,65.8233 70.56,-72"
     style="fill:none;stroke:#000000;stroke-width:0.75;stroke-linecap:round;stroke-linejoin:round;stroke-miterlimit:10;stroke-opacity:1;stroke-dasharray:none"
     id="path3035-2" /><path
     d="m 543.52158,61.6233 72.24,-139.8"
     style="fill:none;stroke:#000000;stroke-width:0.75;stroke-linecap:round;stroke-linejoin:round;stroke-miterlimit:10;stroke-opacity:1;stroke-dasharray:none"
     id="path3037-2" /><path
     d="m 616.00158,89.8233 24,0 0,24 -24,0 0,-24 z"
     style="fill:none;stroke:none"
     id="path3047-8" /><path
     d="m 616.00158,89.8233 24,0 0,24 -24,0 0,-24 z"
     style="fill:none;stroke:#000000;stroke-width:1.5;stroke-linecap:round;stroke-linejoin:miter;stroke-miterlimit:8;stroke-opacity:1;stroke-dasharray:none"
     id="path3049-8" /><path
     d="m 543.52158,-1.9767 72.24,31.8"
     style="fill:none;stroke:#ff00ff;stroke-width:0.75;stroke-linecap:round;stroke-linejoin:round;stroke-miterlimit:10;stroke-opacity:1;stroke-dasharray:none"
     id="path3029-6-2" /><path
     d="m 543.52158,-109.9767 72.24,139.8"
     style="fill:none;stroke:#ff00ff;stroke-width:0.75;stroke-linecap:round;stroke-linejoin:round;stroke-miterlimit:10;stroke-opacity:1;stroke-dasharray:none"
     id="path3021-4-1" /><path
     d="m 532.48158,-150.1767 83.28,0"
     style="fill:none;stroke:#ff00ff;stroke-width:0.75;stroke-linecap:round;stroke-linejoin:round;stroke-miterlimit:10;stroke-opacity:1;stroke-dasharray:none"
     id="path2957-5-5" /><path
     d="m 533.44158,-73.9767 82.32,-76.2"
     style="fill:none;stroke:#ff00ff;stroke-width:0.75;stroke-linecap:round;stroke-linejoin:round;stroke-miterlimit:10;stroke-opacity:1;stroke-dasharray:none"
     id="path2965-2-0" /><path
     d="m 532.48158,-114.1767 c 0,-3.36 2.64,-6 6,-6 3.36,0 6,2.64 6,6 0,3.36 -2.64,6 -6,6 -3.36,0 -6,-2.64 -6,-6"
     style="fill:#0046a0;fill-opacity:1;fill-rule:evenodd;stroke:#000000;stroke-width:1.5;stroke-miterlimit:4;stroke-opacity:1;stroke-dasharray:none"
     id="path2989-4" /><path
     d="m 532.48158,-42.1767 c 0,-3.36 2.64,-6 6,-6 3.36,0 6,2.64 6,6 0,3.36 -2.64,6 -6,6 -3.36,0 -6,-2.64 -6,-6"
     style="fill:#0046a0;fill-opacity:1;fill-rule:evenodd;stroke:#000000;stroke-width:1.5;stroke-miterlimit:10;stroke-opacity:1;stroke-dasharray:none"
     id="path2997-3" /><path
     d="m 532.48158,-6.1767 c 0,-3.36 2.64,-6 6,-6 3.36,0 6,2.64 6,6 0,3.36 -2.64,6 -6,6 -3.36,0 -6,-2.64 -6,-6"
     style="fill:#0046a0;fill-opacity:1;fill-rule:evenodd;stroke:#000000;stroke-width:1.5;stroke-miterlimit:4;stroke-opacity:1;stroke-dasharray:none"
     id="path3001-0" /><path
     d="m 532.48158,29.8233 c 0,-3.36 2.64,-6 6,-6 3.36,0 6,2.64 6,6 0,3.36 -2.64,6 -6,6 -3.36,0 -6,-2.64 -6,-6"
     style="fill:#0046a0;fill-opacity:1;fill-rule:evenodd;stroke:#000000;stroke-width:1.5;stroke-miterlimit:4;stroke-opacity:1;stroke-dasharray:none"
     id="path3005-0" /><path
     d="m 532.48158,65.8233 c 0,-3.36 2.64,-6 6,-6 3.36,0 6,2.64 6,6 0,3.36 -2.64,6 -6,6 -3.36,0 -6,-2.64 -6,-6"
     style="fill:#0046a0;fill-opacity:1;fill-rule:evenodd;stroke:#000000;stroke-width:1.5;stroke-miterlimit:10;stroke-opacity:1;stroke-dasharray:none"
     id="path3009-9" /><path
     d="m 532.48158,-78.1767 c 0,-3.36 2.64,-6 6,-6 3.36,0 6,2.64 6,6 0,3.36 -2.64,6 -6,6 -3.36,0 -6,-2.64 -6,-6"
     style="fill:#0046a0;fill-opacity:1;fill-rule:evenodd;stroke:#000000;stroke-width:1.5;stroke-miterlimit:4;stroke-opacity:1;stroke-dasharray:none"
     id="path2993-9" /><path
     d="m 532.48158,-150.1767 c 0,-3.36 2.64,-6 6,-6 3.36,0 6,2.64 6,6 0,3.36 -2.64,6 -6,6 -3.36,0 -6,-2.64 -6,-6"
     style="fill:#0046a0;fill-opacity:1;fill-rule:evenodd;stroke:#000000;stroke-width:1.5;stroke-miterlimit:4;stroke-opacity:1;stroke-dasharray:none"
     id="path2985-2" /></g><g
   id="g5733"><path
     d="m 379.00902,-150.1767 83.28001,0"
     style="fill:none;stroke:#000000;stroke-width:0.75;stroke-linecap:round;stroke-linejoin:round;stroke-miterlimit:10;stroke-opacity:1;stroke-dasharray:none"
     id="path2957-3" /><path
     d="m 389.20902,-145.9767 73.08,139.8"
     style="fill:none;stroke:#000000;stroke-width:0.75;stroke-linecap:round;stroke-linejoin:round;stroke-miterlimit:10;stroke-opacity:1;stroke-dasharray:none"
     id="path2959-8" /><path
     d="m 385.00902,-114.1767 77.28001,36"
     style="fill:none;stroke:#000000;stroke-width:0.75;stroke-linecap:round;stroke-linejoin:round;stroke-miterlimit:10;stroke-opacity:1;stroke-dasharray:none"
     id="path2961-0" /><path
     d="m 391.72903,-78.1767 70.56,0"
     style="fill:none;stroke:#000000;stroke-width:0.75;stroke-linecap:round;stroke-linejoin:round;stroke-miterlimit:10;stroke-opacity:1;stroke-dasharray:none"
     id="path2963-5" /><path
     d="m 379.96902,-73.9767 82.32,-76.2"
     style="fill:none;stroke:#000000;stroke-width:0.75;stroke-linecap:round;stroke-linejoin:round;stroke-miterlimit:10;stroke-opacity:1;stroke-dasharray:none"
     id="path2965-6" /><path
     d="m 463.00902,89.8233 24,0 0,24 -24,0 0,-24 z"
     style="fill:none;stroke:#000000;stroke-width:1.5;stroke-linecap:round;stroke-linejoin:miter;stroke-miterlimit:8;stroke-opacity:1;stroke-dasharray:none"
     id="path2967-6" /><path
     d="m 463.00902,17.8233 24,0 0,24 -24,0 0,-24 z"
     style="fill:none;stroke:#000000;stroke-width:1.5;stroke-linecap:round;stroke-linejoin:miter;stroke-miterlimit:8;stroke-opacity:1;stroke-dasharray:none"
     id="path2969-4" /><path
     d="m 463.00902,-18.1767 24,0 0,24 -24,0 0,-24 z"
     style="fill:none;stroke:#000000;stroke-width:1.5;stroke-linecap:round;stroke-linejoin:miter;stroke-miterlimit:8;stroke-opacity:1;stroke-dasharray:none"
     id="path2971-0" /><path
     d="m 463.00902,-54.1767 24,0 0,24 -24,0 0,-24 z"
     style="fill:none;stroke:#000000;stroke-width:1.5;stroke-linecap:round;stroke-linejoin:miter;stroke-miterlimit:8;stroke-opacity:1;stroke-dasharray:none"
     id="path2973-0" /><path
     d="m 463.00902,-90.1767 24,0 0,24 -24,0 0,-24 z"
     style="fill:none;stroke:#000000;stroke-width:1.5;stroke-linecap:round;stroke-linejoin:miter;stroke-miterlimit:8;stroke-opacity:1;stroke-dasharray:none"
     id="path2975-4" /><path
     d="m 463.00902,-126.1767 24,0 0,24 -24,0 0,-24 z"
     style="fill:none;stroke:#000000;stroke-width:1.5;stroke-linecap:round;stroke-linejoin:miter;stroke-miterlimit:8;stroke-opacity:1;stroke-dasharray:none"
     id="path2977-6" /><path
     d="m 463.00902,-162.1767 24,0 0,24 -24,0 0,-24 z"
     style="fill:none;stroke:#000000;stroke-width:1.5;stroke-linecap:round;stroke-linejoin:miter;stroke-miterlimit:8;stroke-opacity:1;stroke-dasharray:none"
     id="path2979-2" /><path
     d="m 463.00902,53.8233 24,0 0,24 -24,0 0,-24 z"
     style="fill:#ff00ff;fill-opacity:1;stroke:#000000;stroke-width:1.5;stroke-linecap:round;stroke-linejoin:miter;stroke-miterlimit:8;stroke-opacity:1;stroke-dasharray:none"
     id="path2981-6" /><path
     d="m 463.00902,125.8233 24,0 0,24 -24,0 0,-24 z"
     style="fill:none;stroke:#000000;stroke-width:1.5;stroke-linecap:round;stroke-linejoin:miter;stroke-miterlimit:8;stroke-opacity:1;stroke-dasharray:none"
     id="path2983-7" /><path
     d="m 390.04903,-109.9767 72.24,139.8"
     style="fill:none;stroke:#000000;stroke-width:0.75;stroke-linecap:round;stroke-linejoin:round;stroke-miterlimit:10;stroke-opacity:1;stroke-dasharray:none"
     id="path3021-1" /><path
     d="m 390.04903,-46.3767 72.24,-103.8"
     style="fill:none;stroke:#000000;stroke-width:0.75;stroke-linecap:round;stroke-linejoin:round;stroke-miterlimit:10;stroke-opacity:1;stroke-dasharray:none"
     id="path3023-5" /><path
     d="m 390.04903,-37.9767 72.24,103.8"
     style="fill:none;stroke:#000000;stroke-width:0.75;stroke-linecap:round;stroke-linejoin:round;stroke-miterlimit:10;stroke-opacity:1;stroke-dasharray:none"
     id="path3025-9" /><path
     d="m 391.72903,-6.1767 70.56,0"
     style="fill:none;stroke:#000000;stroke-width:0.75;stroke-linecap:round;stroke-linejoin:round;stroke-miterlimit:10;stroke-opacity:1;stroke-dasharray:none"
     id="path3027-9" /><path
     d="m 390.04903,-1.9767 72.24,31.8"
     style="fill:none;stroke:#000000;stroke-width:0.75;stroke-linecap:round;stroke-linejoin:round;stroke-miterlimit:10;stroke-opacity:1;stroke-dasharray:none"
     id="path3029-1" /><path
     d="m 391.72903,65.8233 70.56,-72"
     style="fill:none;stroke:#000000;stroke-width:0.75;stroke-linecap:round;stroke-linejoin:round;stroke-miterlimit:10;stroke-opacity:1;stroke-dasharray:none"
     id="path3035-1" /><path
     d="m 390.04903,61.6233 72.24,-139.8"
     style="fill:none;stroke:#000000;stroke-width:0.75;stroke-linecap:round;stroke-linejoin:round;stroke-miterlimit:10;stroke-opacity:1;stroke-dasharray:none"
     id="path3037-0" /><path
     d="m 391.72903,101.8233 70.56,-36"
     style="fill:none;stroke:#000000;stroke-width:0.75;stroke-linecap:round;stroke-linejoin:round;stroke-miterlimit:10;stroke-opacity:1;stroke-dasharray:none"
     id="path3039-7" /><path
     d="m 390.04903,97.6233 72.24,-67.8"
     style="fill:none;stroke:#000000;stroke-width:0.75;stroke-linecap:round;stroke-linejoin:round;stroke-miterlimit:10;stroke-opacity:1;stroke-dasharray:none"
     id="path3041-5" /><path
     d="m 462.52902,89.8233 24,0 0,24 -24,0 0,-24 z"
     style="fill:none;stroke:none"
     id="path3047-0" /><path
     d="m 462.52902,89.8233 24,0 0,24 -24,0 0,-24 z"
     style="fill:none;stroke:#000000;stroke-width:1.5;stroke-linecap:round;stroke-linejoin:miter;stroke-miterlimit:8;stroke-opacity:1;stroke-dasharray:none"
     id="path3049-4" /><path
     d="m 391.72903,101.8233 70.56,-36"
     style="fill:none;stroke:#ff00ff;stroke-width:0.75;stroke-linecap:round;stroke-linejoin:round;stroke-miterlimit:10;stroke-opacity:1;stroke-dasharray:none"
     id="path3039-7-8" /><path
     d="m 390.04903,-37.9767 72.24,103.8"
     style="fill:none;stroke:#ff00ff;stroke-width:0.75;stroke-linecap:round;stroke-linejoin:round;stroke-miterlimit:10;stroke-opacity:1;stroke-dasharray:none"
     id="path3025-9-1" /><path
     d="m 378.74587,101.61711 c 0,-3.36 2.64,-6 6,-6 3.36,0 6,2.64 6,6 0,3.36 -2.64,6 -6,6 -3.36,0 -6,-2.64 -6,-6"
     style="fill:#0046a0;fill-opacity:1;fill-rule:evenodd;stroke:#000000;stroke-width:1.5;stroke-miterlimit:10;stroke-opacity:1;stroke-dasharray:none"
     id="path3013-3-3" /><path
     d="m 378.74587,137.61711 c 0,-3.36 2.64,-6 6,-6 3.36,0 6,2.64 6,6 0,3.36 -2.64,6 -6,6 -3.36,0 -6,-2.64 -6,-6"
     style="fill:#0046a0;fill-opacity:1;fill-rule:evenodd;stroke:#000000;stroke-width:1.5;stroke-miterlimit:4;stroke-opacity:1;stroke-dasharray:none"
     id="path3017-1-4" /><path
     d="m 378.74587,-114.38289 c 0,-3.36 2.64,-6 6,-6 3.36,0 6,2.64 6,6 0,3.36 -2.64,6 -6,6 -3.36,0 -6,-2.64 -6,-6"
     style="fill:#0046a0;fill-opacity:1;fill-rule:evenodd;stroke:#000000;stroke-width:1.5;stroke-miterlimit:4;stroke-opacity:1;stroke-dasharray:none"
     id="path2989-4-6" /><path
     d="m 378.74587,-42.38289 c 0,-3.36 2.64,-6 6,-6 3.36,0 6,2.64 6,6 0,3.36 -2.64,6 -6,6 -3.36,0 -6,-2.64 -6,-6"
     style="fill:#0046a0;fill-opacity:1;fill-rule:evenodd;stroke:#000000;stroke-width:1.5;stroke-miterlimit:10;stroke-opacity:1;stroke-dasharray:none"
     id="path2997-3-6" /><path
     d="m 378.74587,-6.38289 c 0,-3.36 2.64,-6 6,-6 3.36,0 6,2.64 6,6 0,3.36 -2.64,6 -6,6 -3.36,0 -6,-2.64 -6,-6"
     style="fill:#0046a0;fill-opacity:1;fill-rule:evenodd;stroke:#000000;stroke-width:1.5;stroke-miterlimit:4;stroke-opacity:1;stroke-dasharray:none"
     id="path3001-0-0" /><path
     d="m 378.74587,29.61711 c 0,-3.36 2.64,-6 6,-6 3.36,0 6,2.64 6,6 0,3.36 -2.64,6 -6,6 -3.36,0 -6,-2.64 -6,-6"
     style="fill:#0046a0;fill-opacity:1;fill-rule:evenodd;stroke:#000000;stroke-width:1.5;stroke-miterlimit:4;stroke-opacity:1;stroke-dasharray:none"
     id="path3005-0-2" /><path
     d="m 378.74587,65.61711 c 0,-3.36 2.64,-6 6,-6 3.36,0 6,2.64 6,6 0,3.36 -2.64,6 -6,6 -3.36,0 -6,-2.64 -6,-6"
     style="fill:#0046a0;fill-opacity:1;fill-rule:evenodd;stroke:#000000;stroke-width:1.5;stroke-miterlimit:10;stroke-opacity:1;stroke-dasharray:none"
     id="path3009-9-5" /><path
     d="m 378.74587,-78.38289 c 0,-3.36 2.64,-6 6,-6 3.36,0 6,2.64 6,6 0,3.36 -2.64,6 -6,6 -3.36,0 -6,-2.64 -6,-6"
     style="fill:#0046a0;fill-opacity:1;fill-rule:evenodd;stroke:#000000;stroke-width:1.5;stroke-miterlimit:4;stroke-opacity:1;stroke-dasharray:none"
     id="path2993-9-8" /><path
     d="m 378.74587,-150.38289 c 0,-3.36 2.64,-6 6,-6 3.36,0 6,2.64 6,6 0,3.36 -2.64,6 -6,6 -3.36,0 -6,-2.64 -6,-6"
     style="fill:#0046a0;fill-opacity:1;fill-rule:evenodd;stroke:#000000;stroke-width:1.5;stroke-miterlimit:4;stroke-opacity:1;stroke-dasharray:none"
     id="path2985-2-9" /></g><path
   style="fill:none;stroke:#000000;stroke-width:0.80000001px;stroke-linecap:butt;stroke-linejoin:miter;stroke-opacity:1"
   d="m 341.80346,-170.79751 -0.62238,329.24163"
   id="path5142" /><path
   style="fill:none;stroke:#000000;stroke-width:0.80000001px;stroke-linecap:butt;stroke-linejoin:miter;stroke-opacity:1"
   d="m 494.53643,-170.79751 -0.62238,329.24163"
   id="path5142-4" /><g
   id="g3196"
   transform="translate(0.16797581,0)"><path
     d="m 171.63792,-150.89556 c 0,-3.36 2.64,-6 6,-6 3.36,0 6,2.64 6,6 0,3.36 -2.64,6 -6,6 -3.36,0 -6,-2.64 -6,-6"
     style="fill:#0046a0;fill-opacity:1;fill-rule:evenodd;stroke:#000000;stroke-width:1.5;stroke-miterlimit:4;stroke-opacity:1;stroke-dasharray:none"
     id="path2985-2-7-3" /><text
     transform="matrix(0,1,1,0,0,0)"
     id="text5496"
     y="181.77855"
     x="-129.77112"
     style="font-size:14.39999962px;font-style:normal;font-weight:normal;fill:#000000;fill-opacity:1;stroke:none;font-family:Bitstream Vera Sans"
     xml:space="preserve"><tspan
       style="font-size:16px;font-style:normal;font-variant:normal;font-weight:normal;font-stretch:normal;font-family:Arial;-inkscape-font-specification:Arial"
       y="181.77855"
       x="-129.77112"
       id="tspan5498"
       sodipodi:role="line">Anfrage</tspan></text>
</g><g
   id="g3201"><path
     d="m 169.92129,49.60771 15.76922,0 0,14.00884 -15.76922,0 0,-14.00884 z"
     style="fill:none;stroke:#000000;stroke-width:0.92893666;stroke-linecap:round;stroke-linejoin:miter;stroke-miterlimit:8;stroke-opacity:1;stroke-dasharray:none"
     id="path2979-3" /><text
     transform="matrix(0,1,1,0,0,0)"
     id="text5500"
     y="183.43871"
     x="77.736588"
     style="font-size:14.39999962px;font-style:normal;font-weight:normal;fill:#000000;fill-opacity:1;stroke:none;font-family:Bitstream Vera Sans"
     xml:space="preserve"><tspan
       y="183.43871"
       x="77.736588"
       id="tspan5502"
       sodipodi:role="line"
       style="font-size:16px;font-style:normal;font-variant:normal;font-weight:normal;font-stretch:normal;font-family:Arial;-inkscape-font-specification:Arial">Ressource</tspan></text>
</g><g
   id="g5583"><path
     d="m 210.86494,-150.1767 83.28,0"
     style="fill:none;stroke:#000000;stroke-width:0.75;stroke-linecap:round;stroke-linejoin:round;stroke-miterlimit:10;stroke-opacity:1;stroke-dasharray:none"
     id="path2957" /><path
     d="m 221.06494,-145.9767 73.08,139.8"
     style="fill:none;stroke:#000000;stroke-width:0.75;stroke-linecap:round;stroke-linejoin:round;stroke-miterlimit:10;stroke-opacity:1;stroke-dasharray:none"
     id="path2959" /><path
     d="m 216.86494,-114.1767 77.28,36"
     style="fill:none;stroke:#000000;stroke-width:0.75;stroke-linecap:round;stroke-linejoin:round;stroke-miterlimit:10;stroke-opacity:1;stroke-dasharray:none"
     id="path2961" /><path
     d="m 223.58494,-78.1767 70.56,0"
     style="fill:none;stroke:#000000;stroke-width:0.75;stroke-linecap:round;stroke-linejoin:round;stroke-miterlimit:10;stroke-opacity:1;stroke-dasharray:none"
     id="path2963" /><path
     d="m 211.82494,-73.9767 82.32,-76.2"
     style="fill:none;stroke:#000000;stroke-width:0.75;stroke-linecap:round;stroke-linejoin:round;stroke-miterlimit:10;stroke-opacity:1;stroke-dasharray:none"
     id="path2965" /><path
     d="m 294.86494,89.8233 24,0 0,24 -24,0 0,-24 z"
     style="fill:none;stroke:#000000;stroke-width:1.5;stroke-linecap:round;stroke-linejoin:miter;stroke-miterlimit:8;stroke-opacity:1;stroke-dasharray:none"
     id="path2967" /><path
     d="m 294.86494,17.8233 24,0 0,24 -24,0 0,-24 z"
     style="fill:none;stroke:#000000;stroke-width:1.5;stroke-linecap:round;stroke-linejoin:miter;stroke-miterlimit:8;stroke-opacity:1;stroke-dasharray:none"
     id="path2969" /><path
     d="m 294.86494,-18.1767 24,0 0,24 -24,0 0,-24 z"
     style="fill:none;stroke:#000000;stroke-width:1.5;stroke-linecap:round;stroke-linejoin:miter;stroke-miterlimit:8;stroke-opacity:1;stroke-dasharray:none"
     id="path2971" /><path
     d="m 294.86494,-54.1767 24,0 0,24 -24,0 0,-24 z"
     style="fill:none;stroke:#000000;stroke-width:1.5;stroke-linecap:round;stroke-linejoin:miter;stroke-miterlimit:8;stroke-opacity:1;stroke-dasharray:none"
     id="path2973" /><path
     d="m 294.86494,-90.1767 24,0 0,24 -24,0 0,-24 z"
     style="fill:none;stroke:#000000;stroke-width:1.5;stroke-linecap:round;stroke-linejoin:miter;stroke-miterlimit:8;stroke-opacity:1;stroke-dasharray:none"
     id="path2975" /><path
     d="m 294.86494,-126.1767 24,0 0,24 -24,0 0,-24 z"
     style="fill:none;stroke:#000000;stroke-width:1.5;stroke-linecap:round;stroke-linejoin:miter;stroke-miterlimit:8;stroke-opacity:1;stroke-dasharray:none"
     id="path2977" /><path
     d="m 294.86494,-162.1767 24,0 0,24 -24,0 0,-24 z"
     style="fill:none;stroke:#000000;stroke-width:1.5;stroke-linecap:round;stroke-linejoin:miter;stroke-miterlimit:8;stroke-opacity:1;stroke-dasharray:none"
     id="path2979" /><path
     d="m 294.86494,53.8233 24,0 0,24 -24,0 0,-24 z"
     style="fill:none;stroke:#000000;stroke-width:1.5;stroke-linecap:round;stroke-linejoin:miter;stroke-miterlimit:8;stroke-opacity:1;stroke-dasharray:none"
     id="path2981" /><path
     d="m 294.86494,125.8233 24,0 0,24 -24,0 0,-24 z"
     style="fill:none;stroke:#000000;stroke-width:1.5;stroke-linecap:round;stroke-linejoin:miter;stroke-miterlimit:8;stroke-opacity:1;stroke-dasharray:none"
     id="path2983" /><path
     d="m 221.90494,-109.9767 72.24,139.8"
     style="fill:none;stroke:#000000;stroke-width:0.75;stroke-linecap:round;stroke-linejoin:round;stroke-miterlimit:10;stroke-opacity:1;stroke-dasharray:none"
     id="path3021" /><path
     d="m 221.90494,-46.3767 72.24,-103.8"
     style="fill:none;stroke:#000000;stroke-width:0.75;stroke-linecap:round;stroke-linejoin:round;stroke-miterlimit:10;stroke-opacity:1;stroke-dasharray:none"
     id="path3023" /><path
     d="m 221.90494,-37.9767 72.24,103.8"
     style="fill:none;stroke:#000000;stroke-width:0.75;stroke-linecap:round;stroke-linejoin:round;stroke-miterlimit:10;stroke-opacity:1;stroke-dasharray:none"
     id="path3025" /><path
     d="m 223.58494,-6.1767 70.56,0"
     style="fill:none;stroke:#000000;stroke-width:0.75;stroke-linecap:round;stroke-linejoin:round;stroke-miterlimit:10;stroke-opacity:1;stroke-dasharray:none"
     id="path3027" /><path
     d="m 221.90494,-1.9767 72.24,31.8"
     style="fill:none;stroke:#000000;stroke-width:0.75;stroke-linecap:round;stroke-linejoin:round;stroke-miterlimit:10;stroke-opacity:1;stroke-dasharray:none"
     id="path3029" /><path
     d="m 223.58494,29.8233 70.56,36"
     style="fill:none;stroke:#000000;stroke-width:0.75;stroke-linecap:round;stroke-linejoin:round;stroke-miterlimit:10;stroke-opacity:1;stroke-dasharray:none"
     id="path3031" /><path
     d="m 221.90494,34.0233 72.24,67.8"
     style="fill:none;stroke:#000000;stroke-width:0.75;stroke-linecap:round;stroke-linejoin:round;stroke-miterlimit:10;stroke-opacity:1;stroke-dasharray:none"
     id="path3033" /><path
     d="m 223.58494,65.8233 70.56,-72"
     style="fill:none;stroke:#000000;stroke-width:0.75;stroke-linecap:round;stroke-linejoin:round;stroke-miterlimit:10;stroke-opacity:1;stroke-dasharray:none"
     id="path3035" /><path
     d="m 221.90494,61.6233 72.24,-139.8"
     style="fill:none;stroke:#000000;stroke-width:0.75;stroke-linecap:round;stroke-linejoin:round;stroke-miterlimit:10;stroke-opacity:1;stroke-dasharray:none"
     id="path3037" /><path
     d="m 223.58494,101.8233 70.56,-36"
     style="fill:none;stroke:#000000;stroke-width:0.75;stroke-linecap:round;stroke-linejoin:round;stroke-miterlimit:10;stroke-opacity:1;stroke-dasharray:none"
     id="path3039" /><path
     d="m 221.90494,97.6233 72.24,-67.8"
     style="fill:none;stroke:#000000;stroke-width:0.75;stroke-linecap:round;stroke-linejoin:round;stroke-miterlimit:10;stroke-opacity:1;stroke-dasharray:none"
     id="path3041" /><path
     d="m 221.90494,133.6233 72.24,-67.8"
     style="fill:none;stroke:#000000;stroke-width:0.75;stroke-linecap:round;stroke-linejoin:round;stroke-miterlimit:10;stroke-opacity:1;stroke-dasharray:none"
     id="path3043" /><path
     d="m 223.58494,137.8233 70.56,-36"
     style="fill:none;stroke:#000000;stroke-width:0.75;stroke-linecap:round;stroke-linejoin:round;stroke-miterlimit:10;stroke-opacity:1;stroke-dasharray:none"
     id="path3045" /><path
     d="m 294.38494,89.8233 24,0 0,24 -24,0 0,-24 z"
     style="fill:#ff00ff;fill-opacity:1;fill-rule:evenodd;stroke:none"
     id="path3047" /><path
     d="m 294.38494,89.8233 24,0 0,24 -24,0 0,-24 z"
     style="fill:none;stroke:#000000;stroke-width:1.5;stroke-linecap:round;stroke-linejoin:miter;stroke-miterlimit:8;stroke-opacity:1;stroke-dasharray:none"
     id="path3049" /><path
     d="m 221.30494,34.0233 72.36,67.8"
     style="fill:none;stroke:#ff00ff;stroke-width:0.75;stroke-linecap:round;stroke-linejoin:round;stroke-miterlimit:10;stroke-opacity:1;stroke-dasharray:none"
     id="path3059" /><path
     d="m 223.10494,137.8233 70.56,-36"
     style="fill:none;stroke:#ff00ff;stroke-width:0.75;stroke-linecap:round;stroke-linejoin:round;stroke-miterlimit:10;stroke-opacity:1;stroke-dasharray:none"
     id="path3061" /><path
     d="m 211.45281,102.71587 c 0,-3.36 2.64,-6 6,-6 3.36,0 6,2.64 6,6 0,3.36 -2.64,6 -6,6 -3.36,0 -6,-2.64 -6,-6"
     style="fill:#0046a0;fill-opacity:1;fill-rule:evenodd;stroke:#000000;stroke-width:1.5;stroke-miterlimit:10;stroke-opacity:1;stroke-dasharray:none"
     id="path3013-3-8" /><path
     d="m 211.45281,138.71587 c 0,-3.36 2.64,-6 6,-6 3.36,0 6,2.64 6,6 0,3.36 -2.64,6 -6,6 -3.36,0 -6,-2.64 -6,-6"
     style="fill:#0046a0;fill-opacity:1;fill-rule:evenodd;stroke:#000000;stroke-width:1.5;stroke-miterlimit:4;stroke-opacity:1;stroke-dasharray:none"
     id="path3017-1-2" /><path
     d="m 211.45281,-113.28413 c 0,-3.36 2.64,-6 6,-6 3.36,0 6,2.64 6,6 0,3.36 -2.64,6 -6,6 -3.36,0 -6,-2.64 -6,-6"
     style="fill:#0046a0;fill-opacity:1;fill-rule:evenodd;stroke:#000000;stroke-width:1.5;stroke-miterlimit:4;stroke-opacity:1;stroke-dasharray:none"
     id="path2989-4-1" /><path
     d="m 211.45281,-41.28413 c 0,-3.36 2.64,-6 6,-6 3.36,0 6,2.64 6,6 0,3.36 -2.64,6 -6,6 -3.36,0 -6,-2.64 -6,-6"
     style="fill:#0046a0;fill-opacity:1;fill-rule:evenodd;stroke:#000000;stroke-width:1.5;stroke-miterlimit:10;stroke-opacity:1;stroke-dasharray:none"
     id="path2997-3-0" /><path
     d="m 211.45281,-5.28413 c 0,-3.36 2.64,-6 6,-6 3.36,0 6,2.64 6,6 0,3.36 -2.64,6 -6,6 -3.36,0 -6,-2.64 -6,-6"
     style="fill:#0046a0;fill-opacity:1;fill-rule:evenodd;stroke:#000000;stroke-width:1.5;stroke-miterlimit:4;stroke-opacity:1;stroke-dasharray:none"
     id="path3001-0-5" /><path
     d="m 211.45281,30.71587 c 0,-3.36 2.64,-6 6,-6 3.36,0 6,2.64 6,6 0,3.36 -2.64,6 -6,6 -3.36,0 -6,-2.64 -6,-6"
     style="fill:#0046a0;fill-opacity:1;fill-rule:evenodd;stroke:#000000;stroke-width:1.5;stroke-miterlimit:4;stroke-opacity:1;stroke-dasharray:none"
     id="path3005-0-8" /><path
     d="m 211.45281,66.71587 c 0,-3.36 2.64,-6 6,-6 3.36,0 6,2.64 6,6 0,3.36 -2.64,6 -6,6 -3.36,0 -6,-2.64 -6,-6"
     style="fill:#0046a0;fill-opacity:1;fill-rule:evenodd;stroke:#000000;stroke-width:1.5;stroke-miterlimit:10;stroke-opacity:1;stroke-dasharray:none"
     id="path3009-9-55" /><path
     d="m 211.45281,-77.28413 c 0,-3.36 2.64,-6 6,-6 3.36,0 6,2.64 6,6 0,3.36 -2.64,6 -6,6 -3.36,0 -6,-2.64 -6,-6"
     style="fill:#0046a0;fill-opacity:1;fill-rule:evenodd;stroke:#000000;stroke-width:1.5;stroke-miterlimit:4;stroke-opacity:1;stroke-dasharray:none"
     id="path2993-9-0" /><path
     d="m 221.06494,-145.9767 73.08,139.800004"
     style="fill:none;stroke:#00e900;stroke-width:0.75;stroke-linecap:round;stroke-linejoin:round;stroke-miterlimit:10;stroke-opacity:1;stroke-dasharray:none"
     id="path2959-4" /><path
     d="m 210.86494,-150.1767 83.28,0"
     style="fill:none;stroke:#00ec00;stroke-width:0.75;stroke-linecap:round;stroke-linejoin:round;stroke-miterlimit:10;stroke-opacity:1;stroke-dasharray:none"
     id="path2957-8" /><path
     d="m 211.45281,-149.28413 c 0,-3.36 2.64,-6 6,-6 3.36,0 6,2.64 6,6 0,3.36 -2.64,6 -6,6 -3.36,0 -6,-2.64 -6,-6"
     style="fill:#0046a0;fill-opacity:1;fill-rule:evenodd;stroke:#000000;stroke-width:1.5;stroke-miterlimit:4;stroke-opacity:1;stroke-dasharray:none"
     id="path2985-2-7" /></g><text
   xml:space="preserve"
   style="font-size:14.39999962px;font-style:normal;font-weight:normal;fill:#00b900;fill-opacity:1;stroke:none;font-family:Bitstream Vera Sans"
   x="-163.96576"
   y="335.89304"
   id="text5558"
   transform="matrix(0,1,1,0,0,0)"><tspan
     sodipodi:role="line"
     id="tspan5560"
     x="-163.96576"
     y="335.89304"
     style="font-size:16px;font-style:normal;font-variant:normal;font-weight:normal;font-stretch:normal;fill:#00b900;fill-opacity:1;font-family:Arial;-inkscape-font-specification:Arial">redundant</tspan></text>

</g></svg>