<?xml version="1.0" encoding="UTF-8" standalone="no"?>
<!-- Created with Inkscape (http://www.inkscape.org/) -->

<svg
   xmlns:dc="http://purl.org/dc/elements/1.1/"
   xmlns:cc="http://creativecommons.org/ns#"
   xmlns:rdf="http://www.w3.org/1999/02/22-rdf-syntax-ns#"
   xmlns:svg="http://www.w3.org/2000/svg"
   xmlns="http://www.w3.org/2000/svg"
   xmlns:sodipodi="http://sodipodi.sourceforge.net/DTD/sodipodi-0.dtd"
   xmlns:inkscape="http://www.inkscape.org/namespaces/inkscape"
   id="svg2837"
   version="1.1"
   inkscape:version="0.47 r22583"
   width="548.83356"
   height="185.08652"
   xml:space="preserve"
   sodipodi:docname="RDMN08-10.pdf"><metadata
     id="metadata2843"><rdf:RDF><cc:Work
         rdf:about=""><dc:format>image/svg+xml</dc:format><dc:type
           rdf:resource="http://purl.org/dc/dcmitype/StillImage" /><dc:title></dc:title></cc:Work></rdf:RDF></metadata><defs
     id="defs2841"><marker
       inkscape:stockid="Arrow1Mend"
       orient="auto"
       refY="0"
       refX="0"
       id="Arrow1Mend"
       style="overflow:visible"><path
         id="path4025"
         d="M 0,0 5,-5 -12.5,0 5,5 0,0 z"
         style="fill-rule:evenodd;stroke:#000000;stroke-width:1pt;marker-start:none"
         transform="matrix(-0.4,0,0,-0.4,-4,0)" /></marker><inkscape:perspective
       sodipodi:type="inkscape:persp3d"
       inkscape:vp_x="0 : 0.5 : 1"
       inkscape:vp_y="0 : 1000 : 0"
       inkscape:vp_z="1 : 0.5 : 1"
       inkscape:persp3d-origin="0.5 : 0.33333333 : 1"
       id="perspective2845" /><clipPath
       clipPathUnits="userSpaceOnUse"
       id="clipPath2855"><path
         d="m 229,507.922 0,5999.998 4500,0 0,-5999.998 -4500,0 z"
         clip-rule="evenodd"
         id="path2857" /></clipPath><clipPath
       clipPathUnits="userSpaceOnUse"
       id="clipPath2903"><path
         d="m 229,507.922 0,5999.998 4500,0 0,-5999.998 -4500,0 z"
         clip-rule="evenodd"
         id="path2905" /></clipPath></defs><sodipodi:namedview
     pagecolor="#ffffff"
     bordercolor="#666666"
     borderopacity="1"
     objecttolerance="10"
     gridtolerance="10"
     guidetolerance="10"
     inkscape:pageopacity="0"
     inkscape:pageshadow="2"
     inkscape:window-width="1680"
     inkscape:window-height="1000"
     id="namedview2839"
     showgrid="false"
     inkscape:zoom="1.2853781"
     inkscape:cx="263.37962"
     inkscape:cy="80.230767"
     inkscape:window-x="-4"
     inkscape:window-y="-3"
     inkscape:window-maximized="1"
     inkscape:current-layer="g2847" /><g
     id="g2847"
     inkscape:groupmode="layer"
     inkscape:label="RDMN08-10"
     transform="matrix(0,1.25,1.25,0,-57.041932,-185.48739)"><g
       id="g3191"><path
         d="m 170.52,153.9504 c 0,-4.2 3.48,-7.56 7.8,-7.56 4.44,0 7.92,3.36 7.92,7.56 0,4.08 -3.48,7.44 -7.92,7.44 -4.32,0 -7.8,-3.36 -7.8,-7.44"
         style="fill:#0046a0;fill-opacity:1;fill-rule:evenodd;stroke:none"
         id="path2983" /><path
         d="m 170.52,153.9504 c 0,-4.2 3.48,-7.56 7.8,-7.56 4.44,0 7.92,3.36 7.92,7.56 0,4.08 -3.48,7.44 -7.92,7.44 -4.32,0 -7.8,-3.36 -7.8,-7.44 z"
         style="fill:none;stroke:#000000;stroke-width:0.75;stroke-linecap:round;stroke-linejoin:round;stroke-miterlimit:10;stroke-opacity:1;stroke-dasharray:none"
         id="path2985" /><path
         d="m 170.52,198.9504 c 0,-4.2 3.48,-7.56 7.8,-7.56 4.44,0 7.92,3.36 7.92,7.56 0,4.08 -3.48,7.44 -7.92,7.44 -4.32,0 -7.8,-3.36 -7.8,-7.44"
         style="fill:#0046a0;fill-opacity:1;fill-rule:evenodd;stroke:none"
         id="path2987" /><path
         d="m 170.52,198.9504 c 0,-4.2 3.48,-7.56 7.8,-7.56 4.44,0 7.92,3.36 7.92,7.56 0,4.08 -3.48,7.44 -7.92,7.44 -4.32,0 -7.8,-3.36 -7.8,-7.44 z"
         style="fill:none;stroke:#000000;stroke-width:1.5;stroke-linecap:round;stroke-linejoin:round;stroke-miterlimit:10;stroke-opacity:1;stroke-dasharray:none"
         id="path2989" /><path
         d="m 170.52,243.9504 c 0,-4.2 3.48,-7.56 7.8,-7.56 4.44,0 7.92,3.36 7.92,7.56 0,4.08 -3.48,7.44 -7.92,7.44 -4.32,0 -7.8,-3.36 -7.8,-7.44"
         style="fill:#0046a0;fill-opacity:1;fill-rule:evenodd;stroke:none"
         id="path2991" /><path
         d="m 170.52,243.9504 c 0,-4.2 3.48,-7.56 7.8,-7.56 4.44,0 7.92,3.36 7.92,7.56 0,4.08 -3.48,7.44 -7.92,7.44 -4.32,0 -7.8,-3.36 -7.8,-7.44 z"
         style="fill:none;stroke:#000000;stroke-width:1.5;stroke-linecap:round;stroke-linejoin:round;stroke-miterlimit:10;stroke-opacity:1;stroke-dasharray:none"
         id="path2993" /><path
         d="m 170.52,288.9504 c 0,-4.2 3.48,-7.56 7.8,-7.56 4.44,0 7.92,3.36 7.92,7.56 0,4.08 -3.48,7.44 -7.92,7.44 -4.32,0 -7.8,-3.36 -7.8,-7.44"
         style="fill:#0046a0;fill-opacity:1;fill-rule:evenodd;stroke:none"
         id="path2995" /><path
         d="m 170.52,288.9504 c 0,-4.2 3.48,-7.56 7.8,-7.56 4.44,0 7.92,3.36 7.92,7.56 0,4.08 -3.48,7.44 -7.92,7.44 -4.32,0 -7.8,-3.36 -7.8,-7.44 z"
         style="fill:none;stroke:#000000;stroke-width:1.5;stroke-linecap:round;stroke-linejoin:round;stroke-miterlimit:10;stroke-opacity:1;stroke-dasharray:none"
         id="path2997" /><path
         d="m 170.52,333.9504 c 0,-4.2 3.48,-7.56 7.8,-7.56 4.44,0 7.92,3.36 7.92,7.56 0,4.08 -3.48,7.44 -7.92,7.44 -4.32,0 -7.8,-3.36 -7.8,-7.44"
         style="fill:#0046a0;fill-opacity:1;fill-rule:evenodd;stroke:none"
         id="path2999" /><path
         d="m 170.52,333.9504 c 0,-4.2 3.48,-7.56 7.8,-7.56 4.44,0 7.92,3.36 7.92,7.56 0,4.08 -3.48,7.44 -7.92,7.44 -4.32,0 -7.8,-3.36 -7.8,-7.44 z"
         style="fill:none;stroke:#000000;stroke-width:1.5;stroke-linecap:round;stroke-linejoin:round;stroke-miterlimit:10;stroke-opacity:1;stroke-dasharray:none"
         id="path3001" /><path
         d="m 170.52,378.9504 c 0,-4.2 3.48,-7.56 7.8,-7.56 4.44,0 7.92,3.36 7.92,7.56 0,4.08 -3.48,7.44 -7.92,7.44 -4.32,0 -7.8,-3.36 -7.8,-7.44"
         style="fill:#0046a0;fill-opacity:1;fill-rule:evenodd;stroke:none"
         id="path3003" /><path
         d="m 170.52,378.9504 c 0,-4.2 3.48,-7.56 7.8,-7.56 4.44,0 7.92,3.36 7.92,7.56 0,4.08 -3.48,7.44 -7.92,7.44 -4.32,0 -7.8,-3.36 -7.8,-7.44 z"
         style="fill:none;stroke:#000000;stroke-width:1.5;stroke-linecap:round;stroke-linejoin:round;stroke-miterlimit:10;stroke-opacity:1;stroke-dasharray:none"
         id="path3005" /><path
         d="m 170.52,423.9504 c 0,-4.2 3.48,-7.56 7.8,-7.56 4.44,0 7.92,3.36 7.92,7.56 0,4.08 -3.48,7.44 -7.92,7.44 -4.32,0 -7.8,-3.36 -7.8,-7.44"
         style="fill:#0046a0;fill-opacity:1;fill-rule:evenodd;stroke:none"
         id="path3007" /><path
         d="m 170.52,423.9504 c 0,-4.2 3.48,-7.56 7.8,-7.56 4.44,0 7.92,3.36 7.92,7.56 0,4.08 -3.48,7.44 -7.92,7.44 -4.32,0 -7.8,-3.36 -7.8,-7.44 z"
         style="fill:none;stroke:#000000;stroke-width:1.5;stroke-linecap:round;stroke-linejoin:round;stroke-miterlimit:10;stroke-opacity:1;stroke-dasharray:none"
         id="path3009" /><path
         d="m 170.52,468.9504 c 0,-4.2 3.48,-7.56 7.8,-7.56 4.44,0 7.92,3.36 7.92,7.56 0,4.08 -3.48,7.44 -7.92,7.44 -4.32,0 -7.8,-3.36 -7.8,-7.44"
         style="fill:#0046a0;fill-opacity:1;fill-rule:evenodd;stroke:none"
         id="path3011" /><path
         d="m 170.52,468.9504 c 0,-4.2 3.48,-7.56 7.8,-7.56 4.44,0 7.92,3.36 7.92,7.56 0,4.08 -3.48,7.44 -7.92,7.44 -4.32,0 -7.8,-3.36 -7.8,-7.44 z"
         style="fill:none;stroke:#000000;stroke-width:1.5;stroke-linecap:round;stroke-linejoin:round;stroke-miterlimit:10;stroke-opacity:1;stroke-dasharray:none"
         id="path3013" /><path
         d="m 241.08,453.9504 31.44,0 0,30 -31.44,0 0,-30 z"
         style="fill:none;stroke:#000000;stroke-width:1.5;stroke-linecap:round;stroke-linejoin:miter;stroke-miterlimit:8;stroke-opacity:1;stroke-dasharray:none"
         id="path3015" /><path
         d="m 241.08,363.9504 31.44,0 0,30 -31.44,0 0,-30 z"
         style="fill:none;stroke:#000000;stroke-width:1.5;stroke-linecap:round;stroke-linejoin:miter;stroke-miterlimit:8;stroke-opacity:1;stroke-dasharray:none"
         id="path3017" /><path
         d="m 241.08,318.9504 31.44,0 0,30 -31.44,0 0,-30 z"
         style="fill:none;stroke:#000000;stroke-width:1.5;stroke-linecap:round;stroke-linejoin:miter;stroke-miterlimit:8;stroke-opacity:1;stroke-dasharray:none"
         id="path3019" /><path
         d="m 241.08,273.9504 31.44,0 0,30 -31.44,0 0,-30 z"
         style="fill:none;stroke:#000000;stroke-width:1.5;stroke-linecap:round;stroke-linejoin:miter;stroke-miterlimit:8;stroke-opacity:1;stroke-dasharray:none"
         id="path3021" /><path
         d="m 241.08,228.9504 31.44,0 0,30 -31.44,0 0,-30 z"
         style="fill:none;stroke:#000000;stroke-width:1.5;stroke-linecap:round;stroke-linejoin:miter;stroke-miterlimit:8;stroke-opacity:1;stroke-dasharray:none"
         id="path3023" /><path
         d="m 241.08,183.9504 31.44,0 0,30 -31.44,0 0,-30 z"
         style="fill:none;stroke:#000000;stroke-width:1.5;stroke-linecap:round;stroke-linejoin:miter;stroke-miterlimit:8;stroke-opacity:1;stroke-dasharray:none"
         id="path3025" /><path
         d="m 241.08,138.9504 31.44,0 0,30 -31.44,0 0,-30 z"
         style="fill:none;stroke:#000000;stroke-width:1.5;stroke-linecap:round;stroke-linejoin:miter;stroke-miterlimit:8;stroke-opacity:1;stroke-dasharray:none"
         id="path3027" /><path
         d="m 241.08,408.9504 31.44,0 0,30 -31.44,0 0,-30 z"
         style="fill:none;stroke:#000000;stroke-width:1.5;stroke-linecap:round;stroke-linejoin:miter;stroke-miterlimit:8;stroke-opacity:1;stroke-dasharray:none"
         id="path3029" /><path
         d="m 186.24,153.9504 53.88,0"
         style="fill:none;stroke:#000000;stroke-width:1.5;stroke-linecap:butt;stroke-linejoin:round;stroke-miterlimit:10;stroke-opacity:1;stroke-dasharray:none"
         id="path3031" /><path
         d="m 186.24,153.9504 53.88,45"
         style="fill:none;stroke:#0046a0;stroke-width:1.5;stroke-linecap:butt;stroke-linejoin:round;stroke-miterlimit:10;stroke-opacity:1;stroke-dasharray:none"
         id="path3033" /><path
         d="m 187.08,288.9504 53.04,-135"
         style="fill:none;stroke:#0046a0;stroke-width:1.5;stroke-linecap:butt;stroke-linejoin:round;stroke-miterlimit:10;stroke-opacity:1;stroke-dasharray:none"
         id="path3035" /><path
         d="m 187.08,198.9504 53.04,45"
         style="fill:none;stroke:#000000;stroke-width:1.5;stroke-linecap:butt;stroke-linejoin:round;stroke-miterlimit:10;stroke-opacity:1;stroke-dasharray:none"
         id="path3037" /><path
         d="m 187.08,198.9504 53.04,180"
         style="fill:none;stroke:#0046a0;stroke-width:1.5;stroke-linecap:butt;stroke-linejoin:round;stroke-miterlimit:10;stroke-opacity:1;stroke-dasharray:none"
         id="path3039" /><path
         d="m 187.08,243.9504 53.04,0"
         style="fill:none;stroke:#0046a0;stroke-width:1.5;stroke-linecap:butt;stroke-linejoin:round;stroke-miterlimit:10;stroke-opacity:1;stroke-dasharray:none"
         id="path3041" /><path
         d="m 187.08,243.9504 53.04,90"
         style="fill:none;stroke:#000000;stroke-width:1.5;stroke-linecap:butt;stroke-linejoin:round;stroke-miterlimit:10;stroke-opacity:1;stroke-dasharray:none"
         id="path3043" /><path
         d="m 187.08,288.9504 53.04,90"
         style="fill:none;stroke:#000000;stroke-width:1.5;stroke-linecap:butt;stroke-linejoin:round;stroke-miterlimit:10;stroke-opacity:1;stroke-dasharray:none"
         id="path3045" /><path
         d="m 187.08,333.9504 53.04,-90"
         style="fill:none;stroke:#000000;stroke-width:1.5;stroke-linecap:butt;stroke-linejoin:round;stroke-miterlimit:10;stroke-opacity:1;stroke-dasharray:none"
         id="path3047" /><path
         d="m 187.08,333.9504 53.04,135"
         style="fill:none;stroke:#0046a0;stroke-width:1.5;stroke-linecap:butt;stroke-linejoin:round;stroke-miterlimit:10;stroke-opacity:1;stroke-dasharray:none"
         id="path3049" /><path
         d="m 187.08,378.9504 53.04,-135"
         style="fill:none;stroke:#000000;stroke-width:1.5;stroke-linecap:butt;stroke-linejoin:round;stroke-miterlimit:10;stroke-opacity:1;stroke-dasharray:none"
         id="path3051" /><path
         d="m 187.08,378.9504 53.04,45"
         style="fill:none;stroke:#0046a0;stroke-width:1.5;stroke-linecap:butt;stroke-linejoin:round;stroke-miterlimit:10;stroke-opacity:1;stroke-dasharray:none"
         id="path3053" /><path
         d="m 187.08,423.9504 53.04,-135"
         style="fill:none;stroke:#000000;stroke-width:1.5;stroke-linecap:butt;stroke-linejoin:round;stroke-miterlimit:10;stroke-opacity:1;stroke-dasharray:none"
         id="path3055" /><path
         d="m 187.08,423.9504 53.04,-45"
         style="fill:none;stroke:#0046a0;stroke-width:1.5;stroke-linecap:butt;stroke-linejoin:round;stroke-miterlimit:10;stroke-opacity:1;stroke-dasharray:none"
         id="path3057" /><path
         d="m 187.08,468.9504 53.04,-135"
         style="fill:none;stroke:#000000;stroke-width:1.5;stroke-linecap:butt;stroke-linejoin:round;stroke-miterlimit:10;stroke-opacity:1;stroke-dasharray:none"
         id="path3059" /><path
         d="m 187.08,468.9504 53.04,0"
         style="fill:none;stroke:#0046a0;stroke-width:1.5;stroke-linecap:butt;stroke-linejoin:round;stroke-miterlimit:10;stroke-opacity:1;stroke-dasharray:none"
         id="path3061" /></g><text
       xml:space="preserve"
       style="font-size:32px;font-style:normal;font-weight:normal;fill:#000000;fill-opacity:1;stroke:none;font-family:Bitstream Vera Sans"
       x="279.03635"
       y="159.33054"
       id="text3183"
       transform="matrix(0,1,1,0,0,0)"><tspan
         sodipodi:role="line"
         id="tspan3185"
         x="279.03635"
         y="159.33054"
         style="font-size:14.39999962px">Anfragen</tspan></text>
<text
       xml:space="preserve"
       style="font-size:32px;font-style:normal;font-weight:normal;fill:#000000;fill-opacity:1;stroke:none;font-family:Bitstream Vera Sans"
       x="264.60471"
       y="296.25522"
       id="text3187"
       transform="matrix(0,1,1,0,0,0)"><tspan
         sodipodi:role="line"
         id="tspan3189"
         x="264.60471"
         y="296.25522"
         style="font-size:14.39999962px">Datenknoten</tspan></text>
<text
       xml:space="preserve"
       style="font-size:14.39999962px;font-style:normal;font-weight:normal;fill:#000000;fill-opacity:1;stroke:none;font-family:Bitstream Vera Sans"
       x="44.220264"
       y="199.36707"
       id="text3233"
       transform="matrix(0,1,1,0,0,0)"><tspan
         sodipodi:role="line"
         id="tspan3235"
         x="44.220264"
         y="199.36707">Redundanz</tspan></text>
<path
       style="fill:none;stroke:#000000;stroke-width:0.96432078px;stroke-linecap:butt;stroke-linejoin:miter;stroke-opacity:1;marker-mid:none;marker-end:url(#Arrow1Mend)"
       d="m 205.0507,89.736535 10.41833,83.574455"
       id="path3237" /><path
       style="fill:none;stroke:#000000;stroke-width:0.85827011px;stroke-linecap:butt;stroke-linejoin:miter;stroke-opacity:1;marker-end:url(#Arrow1Mend)"
       d="m 209.97675,87.19397 12.96766,64.01835"
       id="path4829" /></g></svg>