<?xml version="1.0" encoding="UTF-8" standalone="no"?>
<!-- Created with Inkscape (http://www.inkscape.org/) -->
<svg
   xmlns:dc="http://purl.org/dc/elements/1.1/"
   xmlns:cc="http://creativecommons.org/ns#"
   xmlns:rdf="http://www.w3.org/1999/02/22-rdf-syntax-ns#"
   xmlns:svg="http://www.w3.org/2000/svg"
   xmlns="http://www.w3.org/2000/svg"
   xmlns:sodipodi="http://sodipodi.sourceforge.net/DTD/sodipodi-0.dtd"
   xmlns:inkscape="http://www.inkscape.org/namespaces/inkscape"
   width="299.85471"
   height="220.89925"
   id="svg2"
   sodipodi:version="0.32"
   inkscape:version="0.46"
   sodipodi:docname="sort-first.svg"
   inkscape:output_extension="org.inkscape.output.svg.inkscape"
   version="1.0">
  <defs
     id="defs4">
    <inkscape:perspective
       sodipodi:type="inkscape:persp3d"
       inkscape:vp_x="0 : 526.18109 : 1"
       inkscape:vp_y="0 : 1000 : 0"
       inkscape:vp_z="744.09448 : 526.18109 : 1"
       inkscape:persp3d-origin="372.04724 : 350.78739 : 1"
       id="perspective10" />
    <clipPath
       id="clipPath3619"
       clipPathUnits="userSpaceOnUse">
      <path
         id="path3621"
         d="M 300,7610 L 5820,7610 L 5820,310 L 300,310 L 300,7610 z" />
    </clipPath>
    <clipPath
       id="clipPath3599"
       clipPathUnits="userSpaceOnUse">
      <path
         id="path3601"
         d="M 3330,4420 L 5450,4420 L 5450,2630 L 3330,2630 L 3330,4420 z" />
    </clipPath>
    <clipPath
       id="clipPath3585"
       clipPathUnits="userSpaceOnUse">
      <path
         id="path3587"
         d="M 4570,3910 L 4660,3910 L 4660,3800 L 4570,3800 L 4570,3910 z" />
    </clipPath>
    <clipPath
       id="clipPath3571"
       clipPathUnits="userSpaceOnUse">
      <path
         id="path3573"
         d="M 4300,3910 L 4390,3910 L 4390,3800 L 4300,3800 L 4300,3910 z" />
    </clipPath>
    <clipPath
       id="clipPath3557"
       clipPathUnits="userSpaceOnUse">
      <path
         id="path3559"
         d="M 3760,3910 L 3850,3910 L 3850,3800 L 3760,3800 L 3760,3910 z" />
    </clipPath>
    <clipPath
       id="clipPath3543"
       clipPathUnits="userSpaceOnUse">
      <path
         id="path3545"
         d="M 3490,3910 L 3580,3910 L 3580,3800 L 3490,3800 L 3490,3910 z" />
    </clipPath>
    <clipPath
       id="clipPath3507"
       clipPathUnits="userSpaceOnUse">
      <path
         id="path3509"
         d="M 3330,4420 L 5450,4420 L 5450,2630 L 3330,2630 L 3330,4420 z" />
    </clipPath>
    <clipPath
       id="clipPath3493"
       clipPathUnits="userSpaceOnUse">
      <path
         id="path3495"
         d="M 4830,3120 L 5440,3120 L 5440,3000 L 4830,3000 L 4830,3120 z" />
    </clipPath>
    <clipPath
       id="clipPath3477"
       clipPathUnits="userSpaceOnUse">
      <path
         id="path3479"
         d="M 4830,3970 L 5390,3970 L 5390,3730 L 4830,3730 L 4830,3970 z" />
    </clipPath>
    <clipPath
       id="clipPath3463"
       clipPathUnits="userSpaceOnUse">
      <path
         id="path3465"
         d="M 3930,2760 L 4270,2760 L 4270,2640 L 3930,2640 L 3930,2760 z" />
    </clipPath>
    <clipPath
       id="clipPath3439"
       clipPathUnits="userSpaceOnUse">
      <path
         id="path3441"
         d="M 3330,4420 L 5450,4420 L 5450,2630 L 3330,2630 L 3330,4420 z" />
    </clipPath>
    <clipPath
       id="clipPath3425"
       clipPathUnits="userSpaceOnUse">
      <path
         id="path3427"
         d="M 4570,3120 L 4650,3120 L 4650,3010 L 4570,3010 L 4570,3120 z" />
    </clipPath>
    <clipPath
       id="clipPath3411"
       clipPathUnits="userSpaceOnUse">
      <path
         id="path3413"
         d="M 4300,3120 L 4380,3120 L 4380,3010 L 4300,3010 L 4300,3120 z" />
    </clipPath>
    <clipPath
       id="clipPath3397"
       clipPathUnits="userSpaceOnUse">
      <path
         id="path3399"
         d="M 3760,3120 L 3840,3120 L 3840,3010 L 3760,3010 L 3760,3120 z" />
    </clipPath>
    <clipPath
       id="clipPath3383"
       clipPathUnits="userSpaceOnUse">
      <path
         id="path3385"
         d="M 3490,3120 L 3570,3120 L 3570,3010 L 3490,3010 L 3490,3120 z" />
    </clipPath>
    <clipPath
       id="clipPath3359"
       clipPathUnits="userSpaceOnUse">
      <path
         id="path3361"
         d="M 3330,4420 L 5450,4420 L 5450,2630 L 3330,2630 L 3330,4420 z" />
    </clipPath>
    <clipPath
       id="clipPath3343"
       clipPathUnits="userSpaceOnUse">
      <path
         id="path3345"
         d="M 3590,4410 L 4580,4410 L 4580,4170 L 3590,4170 L 3590,4410 z" />
    </clipPath>
    <clipPath
       id="clipPath3319"
       clipPathUnits="userSpaceOnUse">
      <path
         id="path3321"
         d="M 3330,4420 L 5450,4420 L 5450,2630 L 3330,2630 L 3330,4420 z" />
    </clipPath>
    <clipPath
       id="clipPath3303"
       clipPathUnits="userSpaceOnUse">
      <path
         id="path3305"
         d="M 3480,3570 L 4660,3570 L 4660,3330 L 3480,3330 L 3480,3570 z" />
    </clipPath>
    <clipPath
       id="clipPath3289"
       clipPathUnits="userSpaceOnUse">
      <path
         id="path3291"
         d="M 300,7610 L 5820,7610 L 5820,310 L 300,310 L 300,7610 z" />
    </clipPath>
    <clipPath
       id="clipPath3265"
       clipPathUnits="userSpaceOnUse">
      <path
         id="path3267"
         d="M 3330,4420 L 5450,4420 L 5450,2630 L 3330,2630 L 3330,4420 z" />
    </clipPath>
    <clipPath
       id="clipPath3119"
       clipPathUnits="userSpaceOnUse">
      <path
         id="path3121"
         d="M 300,7610 L 5820,7610 L 5820,310 L 300,310 L 300,7610 z" />
    </clipPath>
    <clipPath
       id="clipPath3063"
       clipPathUnits="userSpaceOnUse">
      <path
         id="path3065"
         d="M 750,7250 L 2940,7250 L 2940,5450 L 750,5450 L 750,7250 z" />
    </clipPath>
    <clipPath
       id="clipPath3031"
       clipPathUnits="userSpaceOnUse">
      <path
         id="path3033"
         d="M 300,7610 L 5820,7610 L 5820,310 L 300,310 L 300,7610 z" />
    </clipPath>
    <clipPath
       id="clipPath3005"
       clipPathUnits="userSpaceOnUse">
      <path
         id="path3007"
         d="M 750,7250 L 2940,7250 L 2940,5450 L 750,5450 L 750,7250 z" />
    </clipPath>
    <clipPath
       id="clipPath2991"
       clipPathUnits="userSpaceOnUse">
      <path
         id="path2993"
         d="M 900,6210 L 990,6210 L 990,6100 L 900,6100 L 900,6210 z" />
    </clipPath>
    <clipPath
       id="clipPath2977"
       clipPathUnits="userSpaceOnUse">
      <path
         id="path2979"
         d="M 300,7610 L 5820,7610 L 5820,310 L 300,310 L 300,7610 z" />
    </clipPath>
    <clipPath
       id="clipPath2951"
       clipPathUnits="userSpaceOnUse">
      <path
         id="path2953"
         d="M 750,7250 L 2940,7250 L 2940,5450 L 750,5450 L 750,7250 z" />
    </clipPath>
    <clipPath
       id="clipPath2937"
       clipPathUnits="userSpaceOnUse">
      <path
         id="path2939"
         d="M 1170,6210 L 1260,6210 L 1260,6100 L 1170,6100 L 1170,6210 z" />
    </clipPath>
    <clipPath
       id="clipPath2923"
       clipPathUnits="userSpaceOnUse">
      <path
         id="path2925"
         d="M 300,7610 L 5820,7610 L 5820,310 L 300,310 L 300,7610 z" />
    </clipPath>
    <clipPath
       id="clipPath2897"
       clipPathUnits="userSpaceOnUse">
      <path
         id="path2899"
         d="M 750,7250 L 2940,7250 L 2940,5450 L 750,5450 L 750,7250 z" />
    </clipPath>
    <clipPath
       id="clipPath2883"
       clipPathUnits="userSpaceOnUse">
      <path
         id="path2885"
         d="M 1710,6210 L 1800,6210 L 1800,6100 L 1710,6100 L 1710,6210 z" />
    </clipPath>
    <clipPath
       id="clipPath2869"
       clipPathUnits="userSpaceOnUse">
      <path
         id="path2871"
         d="M 300,7610 L 5820,7610 L 5820,310 L 300,310 L 300,7610 z" />
    </clipPath>
    <clipPath
       id="clipPath2825"
       clipPathUnits="userSpaceOnUse">
      <path
         id="path2827"
         d="M 750,7250 L 2940,7250 L 2940,5450 L 750,5450 L 750,7250 z" />
    </clipPath>
    <clipPath
       id="clipPath2811"
       clipPathUnits="userSpaceOnUse">
      <path
         id="path2813"
         d="M 2250,5950 L 2860,5950 L 2860,5830 L 2250,5830 L 2250,5950 z" />
    </clipPath>
    <clipPath
       id="clipPath2797"
       clipPathUnits="userSpaceOnUse">
      <path
         id="path2799"
         d="M 2240,6840 L 2930,6840 L 2930,6720 L 2240,6720 L 2240,6840 z" />
    </clipPath>
    <clipPath
       id="clipPath2781"
       clipPathUnits="userSpaceOnUse">
      <path
         id="path2783"
         d="M 2250,6280 L 2810,6280 L 2810,6040 L 2250,6040 L 2250,6280 z" />
    </clipPath>
    <clipPath
       id="clipPath2767"
       clipPathUnits="userSpaceOnUse">
      <path
         id="path2769"
         d="M 1350,5580 L 1690,5580 L 1690,5460 L 1350,5460 L 1350,5580 z" />
    </clipPath>
    <clipPath
       id="clipPath2743"
       clipPathUnits="userSpaceOnUse">
      <path
         id="path2745"
         d="M 750,7250 L 2940,7250 L 2940,5450 L 750,5450 L 750,7250 z" />
    </clipPath>
    <clipPath
       id="clipPath2729"
       clipPathUnits="userSpaceOnUse">
      <path
         id="path2731"
         d="M 1990,5950 L 2070,5950 L 2070,5840 L 1990,5840 L 1990,5950 z" />
    </clipPath>
    <clipPath
       id="clipPath2715"
       clipPathUnits="userSpaceOnUse">
      <path
         id="path2717"
         d="M 1720,5950 L 1800,5950 L 1800,5840 L 1720,5840 L 1720,5950 z" />
    </clipPath>
    <clipPath
       id="clipPath2701"
       clipPathUnits="userSpaceOnUse">
      <path
         id="path2703"
         d="M 1180,5950 L 1260,5950 L 1260,5840 L 1180,5840 L 1180,5950 z" />
    </clipPath>
    <clipPath
       id="clipPath2687"
       clipPathUnits="userSpaceOnUse">
      <path
         id="path2689"
         d="M 910,5950 L 990,5950 L 990,5840 L 910,5840 L 910,5950 z" />
    </clipPath>
    <clipPath
       id="clipPath2573"
       clipPathUnits="userSpaceOnUse">
      <path
         id="path2575"
         d="M 750,7250 L 2940,7250 L 2940,5450 L 750,5450 L 750,7250 z" />
    </clipPath>
    <clipPath
       id="clipPath2559"
       clipPathUnits="userSpaceOnUse">
      <path
         id="path2561"
         d="M 1980,6210 L 2070,6210 L 2070,6100 L 1980,6100 L 1980,6210 z" />
    </clipPath>
    <clipPath
       id="clipPath2545"
       clipPathUnits="userSpaceOnUse">
      <path
         id="path2547"
         d="M 300,7610 L 5820,7610 L 5820,310 L 300,310 L 300,7610 z" />
    </clipPath>
    <clipPath
       id="clipPath2529"
       clipPathUnits="userSpaceOnUse">
      <path
         id="path2531"
         d="M 1010,7240 L 2000,7240 L 2000,7000 L 1010,7000 L 1010,7240 z" />
    </clipPath>
    <clipPath
       id="clipPath2505"
       clipPathUnits="userSpaceOnUse">
      <path
         id="path2507"
         d="M 750,7250 L 2940,7250 L 2940,5450 L 750,5450 L 750,7250 z" />
    </clipPath>
    <clipPath
       id="clipPath2489"
       clipPathUnits="userSpaceOnUse">
      <path
         id="path2491"
         d="M 900,6620 L 2080,6620 L 2080,6380 L 900,6380 L 900,6620 z" />
    </clipPath>
    <clipPath
       id="clipPath2475"
       clipPathUnits="userSpaceOnUse">
      <path
         id="path2477"
         d="M 300,7610 L 5820,7610 L 5820,310 L 300,310 L 300,7610 z" />
    </clipPath>
    <clipPath
       id="clipPath2451"
       clipPathUnits="userSpaceOnUse">
      <path
         id="path2453"
         d="M 750,7250 L 2940,7250 L 2940,5450 L 750,5450 L 750,7250 z" />
    </clipPath>
    <clipPath
       id="clipPath2437"
       clipPathUnits="userSpaceOnUse">
      <path
         id="path2439"
         d="M 300,7610 L 5820,7610 L 5820,310 L 300,310 L 300,7610 z" />
    </clipPath>
    <inkscape:perspective
       id="perspective2427"
       inkscape:persp3d-origin="372.04724 : 350.78739 : 1"
       inkscape:vp_z="744.09448 : 526.18109 : 1"
       inkscape:vp_y="0 : 1000 : 0"
       inkscape:vp_x="0 : 526.18109 : 1"
       sodipodi:type="inkscape:persp3d" />
  </defs>
  <sodipodi:namedview
     id="base"
     pagecolor="#ffffff"
     bordercolor="#666666"
     borderopacity="1.0"
     gridtolerance="10000"
     guidetolerance="10"
     objecttolerance="10"
     inkscape:pageopacity="0.0"
     inkscape:pageshadow="2"
     inkscape:zoom="3.959798"
     inkscape:cx="96.464306"
     inkscape:cy="68.182633"
     inkscape:document-units="px"
     inkscape:current-layer="layer1"
     showgrid="false"
     inkscape:window-width="1051"
     inkscape:window-height="922"
     inkscape:window-x="483"
     inkscape:window-y="163" />
  <metadata
     id="metadata7">
    <rdf:RDF>
      <cc:Work
         rdf:about="">
        <dc:format>image/svg+xml</dc:format>
        <dc:type
           rdf:resource="http://purl.org/dc/dcmitype/StillImage" />
      </cc:Work>
    </rdf:RDF>
  </metadata>
  <g
     inkscape:label="Layer 1"
     inkscape:groupmode="layer"
     id="layer1"
     transform="translate(-77.198348,-79.576309)">
    <path
       id="path2455"
       style="fill:#000000;fill-opacity:1;fill-rule:nonzero;stroke:none"
       d="M 97.677674,136.01306 L 98.927674,136.01306 L 98.927674,153.51306 L 97.677674,153.51306 L 97.677674,152.26306" />
    <path
       id="path2457"
       style="fill:#000000;fill-opacity:1;fill-rule:nonzero;stroke:none"
       d="M 131.42767,136.01306 L 132.67767,136.01306 L 132.67767,148.51306 L 131.42767,148.51306 L 131.42767,147.26306" />
    <path
       id="path2459"
       style="fill:#000000;fill-opacity:1;fill-rule:nonzero;stroke:none"
       d="M 198.92767,136.01306 L 200.17767,136.01306 L 200.17767,148.51306 L 198.92767,148.51306 L 198.92767,147.26306" />
    <path
       id="path2461"
       style="fill:#000000;fill-opacity:1;fill-rule:nonzero;stroke:none"
       d="M 232.67767,136.01306 L 233.92767,136.01306 L 233.92767,153.51306 L 232.67767,153.51306 L 232.67767,152.26306" />
    <path
       id="path2463"
       style="fill:#000000;fill-opacity:1;fill-rule:nonzero;stroke:none"
       d="M 97.677674,186.01306 L 98.927674,186.01306 L 98.927674,202.26306 L 97.677674,202.26306 L 97.677674,201.01306" />
    <path
       id="path2465"
       style="fill:#000000;fill-opacity:1;fill-rule:nonzero;stroke:none"
       d="M 131.42767,186.01306 L 132.67767,186.01306 L 132.67767,202.26306 L 131.42767,202.26306 L 131.42767,201.01306" />
    <path
       id="path2467"
       style="fill:#000000;fill-opacity:1;fill-rule:nonzero;stroke:none"
       d="M 198.92767,186.01306 L 200.17767,186.01306 L 200.17767,202.26306 L 198.92767,202.26306 L 198.92767,201.01306" />
    <path
       id="path2469"
       style="fill:#000000;fill-opacity:1;fill-rule:nonzero;stroke:none"
       d="M 232.67767,186.01306 L 233.92767,186.01306 L 233.92767,202.26306 L 232.67767,202.26306 L 232.67767,201.01306" />
    <path
       id="path2479"
       style="fill:#000000;fill-opacity:1;fill-rule:evenodd;stroke:none"
       d="M 80.177674,151.01306 L 81.427674,149.76306 L 83.927674,148.51306 L 87.677674,147.26306 L 88.927674,148.51306 L 88.927674,148.51306 L 90.177674,149.76306 L 97.677674,149.76306 L 100.17767,148.51306 L 101.42767,148.51306 L 106.42767,147.26306 L 108.92767,147.26306 L 111.42767,148.51306 L 111.42767,148.51306 L 112.67767,149.76306 L 120.17767,149.76306 L 122.67767,148.51306 L 123.92767,148.51306 L 128.92767,147.26306 L 131.42767,147.26306 L 133.92767,148.51306 L 133.92767,148.51306 L 135.17767,149.76306 L 142.67767,149.76306 L 145.17767,148.51306 L 146.42767,148.51306 L 151.42767,147.26306 L 153.92767,147.26306 L 156.42767,148.51306 L 156.42767,148.51306 L 157.67767,149.76306 L 165.17767,149.76306 L 167.67767,148.51306 L 168.92767,148.51306 L 173.92767,147.26306 L 176.42767,147.26306 L 178.92767,148.51306 L 178.92767,148.51306 L 180.17767,149.76306 L 187.67767,149.76306 L 190.17767,148.51306 L 191.42767,148.51306 L 196.42767,147.26306 L 198.92767,147.26306 L 201.42767,148.51306 L 201.42767,148.51306 L 202.67767,149.76306 L 210.17767,149.76306 L 212.67767,148.51306 L 213.92767,148.51306 L 218.92767,147.26306 L 221.42767,147.26306 L 223.92767,148.51306 L 223.92767,148.51306 L 225.17767,149.76306 L 232.67767,149.76306 L 235.17767,148.51306 L 236.42767,148.51306 L 241.42767,147.26306 L 243.92767,147.26306 L 246.42767,148.51306 L 246.42767,148.51306 L 247.67767,149.76306 L 247.67767,153.51306 L 246.42767,154.76306 L 245.17767,156.01306 L 245.17767,157.26306 L 246.42767,158.51306 L 247.67767,159.76306 L 248.92767,159.76306 L 248.92767,159.76306 L 251.42767,161.01306 L 251.42767,161.01306 L 252.67767,162.26306 L 252.67767,162.26306 L 251.42767,164.76306 L 251.42767,163.51306 L 248.92767,166.01306 L 248.92767,166.01306 L 247.67767,167.26306 L 246.42767,168.51306 L 246.42767,169.76306 L 247.67767,171.01306 L 248.92767,171.01306 L 248.92767,171.01306 L 251.42767,172.26306 L 251.42767,173.51306 L 250.17767,176.01306 L 248.92767,176.01306 L 246.42767,177.26306 L 246.42767,177.26306 L 242.67767,178.51306 L 242.67767,178.51306 L 241.42767,179.76306 L 241.42767,181.01306 L 243.92767,182.26306 L 243.92767,182.26306 L 246.42767,183.51306 L 245.17767,183.51306 L 245.17767,184.76306 L 243.92767,186.01306 L 243.92767,186.01306 L 240.17767,187.26306 L 238.92767,188.51306 L 237.67767,188.51306 L 233.92767,189.76306 L 225.17767,189.76306 L 223.92767,188.51306 L 223.92767,188.51306 L 221.42767,187.26306 L 215.17767,187.26306 L 212.67767,188.51306 L 210.17767,189.76306 L 202.67767,189.76306 L 201.42767,188.51306 L 201.42767,188.51306 L 198.92767,187.26306 L 192.67767,187.26306 L 190.17767,188.51306 L 187.67767,189.76306 L 180.17767,189.76306 L 178.92767,188.51306 L 178.92767,188.51306 L 176.42767,187.26306 L 170.17767,187.26306 L 167.67767,188.51306 L 165.17767,189.76306 L 157.67767,189.76306 L 156.42767,188.51306 L 156.42767,188.51306 L 153.92767,187.26306 L 147.67767,187.26306 L 145.17767,188.51306 L 142.67767,189.76306 L 135.17767,189.76306 L 133.92767,188.51306 L 133.92767,188.51306 L 131.42767,187.26306 L 125.17767,187.26306 L 122.67767,188.51306 L 120.17767,189.76306 L 112.67767,189.76306 L 111.42767,188.51306 L 111.42767,188.51306 L 108.92767,187.26306 L 102.67767,187.26306 L 100.17767,188.51306 L 97.677674,189.76306 L 90.177674,189.76306 L 88.927674,188.51306 L 88.927674,188.51306 L 86.427674,186.01306 L 83.927674,184.76306 L 77.677674,184.76306 L 77.677674,183.51306 L 78.927674,181.01306 L 80.177674,179.76306 L 81.427674,178.51306 L 82.677674,177.26306 L 82.677674,177.26306 L 83.927674,174.76306 L 83.927674,174.76306 L 82.677674,172.26306 L 82.677674,172.26306 L 80.177674,171.01306 L 78.927674,171.01306 L 77.677674,169.76306 L 77.677674,168.51306 L 78.927674,167.26306 L 80.177674,166.01306 L 80.177674,166.01306 L 81.427674,164.76306 L 82.677674,164.76306 L 83.927674,162.26306 L 83.927674,162.26306 L 82.677674,161.01306 L 82.677674,161.01306 L 80.177674,159.76306 L 78.927674,159.76306 L 77.677674,157.26306 L 77.677674,154.76306 L 78.927674,152.26306 L 80.177674,151.01306" />
    <path
       id="path2481"
       style="fill:#f8f8f8;fill-opacity:1;fill-rule:evenodd;stroke:none"
       d="M 80.177674,151.01306 C 84.342174,147.67681 87.258674,146.84431 88.927674,148.51306 C 90.592174,150.17681 94.342174,150.17681 100.17767,148.51306 C 106.00892,146.84431 109.75892,146.84431 111.42767,148.51306 C 113.09267,150.17681 116.84267,150.17681 122.67767,148.51306 C 128.50892,146.84431 132.25892,146.84431 133.92767,148.51306 C 135.59142,150.17681 139.34142,150.17681 145.17767,148.51306 C 151.00892,146.84431 154.75767,146.84431 156.42767,148.51306 C 158.09142,150.17681 161.84142,150.17681 167.67767,148.51306 C 173.50767,146.84431 177.25767,146.84431 178.92767,148.51306 C 180.59142,150.17681 184.34142,150.17681 190.17767,148.51306 C 196.00767,146.84431 199.75767,146.84431 201.42767,148.51306 C 203.09142,150.17681 206.84017,150.17681 212.67767,148.51306 C 218.50767,146.84431 222.25767,146.84431 223.92767,148.51306 C 225.59017,150.17681 229.34017,150.17681 235.17767,148.51306 C 241.00767,146.84431 244.75642,146.84431 246.42767,148.51306 C 248.09017,150.17681 248.09017,152.05181 246.42767,154.13806 C 244.75642,156.21931 245.79892,158.09431 249.55267,159.76306 C 253.29892,161.42681 253.29892,163.30181 249.55267,165.38806 C 245.79892,167.46931 245.79892,169.34306 249.55267,171.01306 C 253.29892,172.67681 252.25642,174.55181 246.42767,176.63806 C 240.59017,178.71806 239.54892,180.59306 243.30267,182.26306 C 247.04892,183.92681 245.17392,185.80181 237.67767,187.88806 C 230.17392,189.96806 225.59017,189.96806 223.92767,187.88806 C 222.25767,185.80181 218.50767,185.80181 212.67767,187.88806 C 206.84017,189.96806 203.09142,189.96806 201.42767,187.88806 C 199.75767,185.80181 196.00767,185.80181 190.17767,187.88806 C 184.34142,189.96806 180.59142,189.96806 178.92767,187.88806 C 177.25767,185.80181 173.50767,185.80181 167.67767,187.88806 C 161.84142,189.96806 158.09142,189.96806 156.42767,187.88806 C 154.75767,185.80181 151.00892,185.80181 145.17767,187.88806 C 139.34142,189.96806 135.59142,189.96806 133.92767,187.88806 C 132.25892,185.80181 128.50892,185.80181 122.67767,187.88806 C 116.84267,189.96806 113.09267,189.96806 111.42767,187.88806 C 109.75892,185.80181 106.00892,185.80181 100.17767,187.88806 C 94.342174,189.96806 90.592174,189.96806 88.927674,187.88806 C 87.258674,185.80181 84.551174,184.76306 80.802674,184.76306 C 77.051174,184.76306 77.051174,182.88556 80.802674,179.13806 C 84.551174,175.38556 84.551174,172.67681 80.802674,171.01306 C 77.051174,169.34306 77.051174,167.46931 80.802674,165.38806 C 84.551174,163.30181 84.551174,161.42681 80.802674,159.76306 C 77.051174,158.09431 76.842174,155.17681 80.177674,151.01306" />
    <path
       id="path2483"
       style="fill:none;stroke:#000000;stroke-width:1.25;stroke-linecap:butt;stroke-linejoin:miter;stroke-miterlimit:10;stroke-dasharray:none;stroke-opacity:1"
       d="M 80.177674,151.01306 C 84.342174,147.67681 87.258674,146.84431 88.927674,148.51306 C 90.592174,150.17681 94.342174,150.17681 100.17767,148.51306 C 106.00892,146.84431 109.75892,146.84431 111.42767,148.51306 C 113.09267,150.17681 116.84267,150.17681 122.67767,148.51306 C 128.50892,146.84431 132.25892,146.84431 133.92767,148.51306 C 135.59142,150.17681 139.34142,150.17681 145.17767,148.51306 C 151.00892,146.84431 154.75767,146.84431 156.42767,148.51306 C 158.09142,150.17681 161.84142,150.17681 167.67767,148.51306 C 173.50767,146.84431 177.25767,146.84431 178.92767,148.51306 C 180.59142,150.17681 184.34142,150.17681 190.17767,148.51306 C 196.00767,146.84431 199.75767,146.84431 201.42767,148.51306 C 203.09142,150.17681 206.84017,150.17681 212.67767,148.51306 C 218.50767,146.84431 222.25767,146.84431 223.92767,148.51306 C 225.59017,150.17681 229.34017,150.17681 235.17767,148.51306 C 241.00767,146.84431 244.75642,146.84431 246.42767,148.51306 C 248.09017,150.17681 248.09017,152.05181 246.42767,154.13806 C 244.75642,156.21931 245.79892,158.09431 249.55267,159.76306 C 253.29892,161.42681 253.29892,163.30181 249.55267,165.38806 C 245.79892,167.46931 245.79892,169.34306 249.55267,171.01306 C 253.29892,172.67681 252.25642,174.55181 246.42767,176.63806 C 240.59017,178.71806 239.54892,180.59306 243.30267,182.26306 C 247.04892,183.92681 245.17392,185.80181 237.67767,187.88806 C 230.17392,189.96806 225.59017,189.96806 223.92767,187.88806 C 222.25767,185.80181 218.50767,185.80181 212.67767,187.88806 C 206.84017,189.96806 203.09142,189.96806 201.42767,187.88806 C 199.75767,185.80181 196.00767,185.80181 190.17767,187.88806 C 184.34142,189.96806 180.59142,189.96806 178.92767,187.88806 C 177.25767,185.80181 173.50767,185.80181 167.67767,187.88806 C 161.84142,189.96806 158.09142,189.96806 156.42767,187.88806 C 154.75767,185.80181 151.00892,185.80181 145.17767,187.88806 C 139.34142,189.96806 135.59142,189.96806 133.92767,187.88806 C 132.25892,185.80181 128.50892,185.80181 122.67767,187.88806 C 116.84267,189.96806 113.09267,189.96806 111.42767,187.88806 C 109.75892,185.80181 106.00892,185.80181 100.17767,187.88806 C 94.342174,189.96806 90.592174,189.96806 88.927674,187.88806 C 87.258674,185.80181 84.551174,184.76306 80.802674,184.76306 C 77.051174,184.76306 77.051174,182.88556 80.802674,179.13806 C 84.551174,175.38556 84.551174,172.67681 80.802674,171.01306 C 77.051174,169.34306 77.051174,167.46931 80.802674,165.38806 C 84.551174,163.30181 84.551174,161.42681 80.802674,159.76306 C 77.051174,158.09431 76.842174,155.17681 80.177674,151.01306" />
    <path
       id="path2509"
       style="fill:#000000;fill-opacity:1;fill-rule:evenodd;stroke:none"
       d="M 97.677674,127.26306 L 92.677674,118.51306 L 101.42767,118.51306 L 97.677674,127.26306" />
    <path
       id="path2511"
       style="fill:#000000;fill-opacity:1;fill-rule:nonzero;stroke:none"
       d="M 96.92006,111.01306 L 98.17006,111.01306 L 98.17006,119.76306 L 96.92006,119.76306 L 96.92006,118.51306" />
    <path
       id="path2513"
       style="fill:#000000;fill-opacity:1;fill-rule:evenodd;stroke:none"
       d="M 131.42767,127.26306 L 126.42767,118.51306 L 135.17767,118.51306 L 131.42767,127.26306" />
    <path
       id="path2515"
       style="fill:#000000;fill-opacity:1;fill-rule:nonzero;stroke:none"
       d="M 130.67005,111.01306 L 131.92005,111.01306 L 131.92005,119.76306 L 130.67005,119.76306 L 130.67005,118.51306" />
    <path
       id="path2517"
       style="fill:#000000;fill-opacity:1;fill-rule:evenodd;stroke:none"
       d="M 198.92767,127.26306 L 193.92767,118.51306 L 202.67767,118.51306 L 198.92767,127.26306" />
    <path
       id="path2519"
       style="fill:#000000;fill-opacity:1;fill-rule:nonzero;stroke:none"
       d="M 198.17005,111.01306 L 199.42005,111.01306 L 199.42005,119.76306 L 198.17005,119.76306 L 198.17005,118.51306" />
    <path
       id="path2521"
       style="fill:#000000;fill-opacity:1;fill-rule:evenodd;stroke:none"
       d="M 232.67767,127.26306 L 227.67767,118.51306 L 236.42767,118.51306 L 232.67767,127.26306" />
    <path
       id="path2523"
       style="fill:#000000;fill-opacity:1;fill-rule:nonzero;stroke:none"
       d="M 231.92005,111.01306 L 233.17005,111.01306 L 233.17005,119.76306 L 231.92005,119.76306 L 231.92005,118.51306" />
    <path
       id="path2549"
       style="fill:#000000;fill-opacity:1;fill-rule:evenodd;stroke:none"
       d="M 221.42767,199.76306 L 222.67767,197.26306 L 225.17767,201.01306 L 227.67767,197.26306 L 230.17767,201.01306 L 233.92767,197.26306 L 236.42767,201.01306 L 238.92767,197.26306 L 241.42767,201.01306 L 243.92767,199.76306 L 243.92767,227.26306 L 221.42767,227.26306 L 221.42767,199.76306" />
    <path
       id="path2551"
       style="fill:#ffffff;fill-opacity:1;fill-rule:evenodd;stroke:none"
       d="M 222.05267,198.51306 C 222.46517,197.67681 222.67767,197.26306 222.67767,197.26306 C 222.67767,197.26306 223.09017,197.88431 223.92767,199.13806 C 224.75767,200.38431 225.17767,201.01306 225.17767,201.01306 C 225.17767,201.01306 225.59017,200.38431 226.42767,199.13806 C 227.25767,197.88431 227.67767,197.26306 227.67767,197.26306 C 227.67767,197.26306 228.09017,197.88431 228.92767,199.13806 C 229.75767,200.38431 230.17767,201.01306 230.17767,201.01306 C 230.17767,201.01306 230.79892,200.38431 232.05267,199.13806 C 233.29892,197.88431 233.92767,197.26306 233.92767,197.26306 C 233.92767,197.26306 234.34017,197.88431 235.17767,199.13806 C 236.00767,200.38431 236.42767,201.01306 236.42767,201.01306 C 236.42767,201.01306 236.84017,200.38431 237.67767,199.13806 C 238.50767,197.88431 238.92767,197.26306 238.92767,197.26306 C 238.92767,197.26306 239.34017,197.88431 240.17767,199.13806 C 241.00642,200.38431 241.42767,201.01306 241.42767,201.01306 C 241.42767,201.01306 241.84017,200.80181 242.67767,200.38806 C 243.50642,199.96806 243.92767,199.76306 243.92767,199.76306 C 243.92767,199.76306 243.92767,204.34306 243.92767,213.51306 C 243.92767,222.67681 243.92767,227.26306 243.92767,227.26306 C 243.92767,227.26306 240.17392,227.26306 232.67767,227.26306 C 225.17392,227.26306 221.42767,227.26306 221.42767,227.26306 C 221.42767,227.26306 221.42767,222.67681 221.42767,213.51306 C 221.42767,204.34306 221.42767,199.76306 221.42767,199.76306 C 221.42767,199.76306 221.63267,199.34306 222.05267,198.51306" />
    <path
       id="path2553"
       style="fill:none;stroke:#000000;stroke-width:0.625;stroke-linecap:butt;stroke-linejoin:miter;stroke-miterlimit:10;stroke-dasharray:none;stroke-opacity:1"
       d="M 222.05267,198.51306 C 222.46517,197.67681 222.67767,197.26306 222.67767,197.26306 C 222.67767,197.26306 223.09017,197.88431 223.92767,199.13806 C 224.75767,200.38431 225.17767,201.01306 225.17767,201.01306 C 225.17767,201.01306 225.59017,200.38431 226.42767,199.13806 C 227.25767,197.88431 227.67767,197.26306 227.67767,197.26306 C 227.67767,197.26306 228.09017,197.88431 228.92767,199.13806 C 229.75767,200.38431 230.17767,201.01306 230.17767,201.01306 C 230.17767,201.01306 230.79892,200.38431 232.05267,199.13806 C 233.29892,197.88431 233.92767,197.26306 233.92767,197.26306 C 233.92767,197.26306 234.34017,197.88431 235.17767,199.13806 C 236.00767,200.38431 236.42767,201.01306 236.42767,201.01306 C 236.42767,201.01306 236.84017,200.38431 237.67767,199.13806 C 238.50767,197.88431 238.92767,197.26306 238.92767,197.26306 C 238.92767,197.26306 239.34017,197.88431 240.17767,199.13806 C 241.00642,200.38431 241.42767,201.01306 241.42767,201.01306 C 241.42767,201.01306 241.84017,200.80181 242.67767,200.38806 C 243.50642,199.96806 243.92767,199.76306 243.92767,199.76306 C 243.92767,199.76306 243.92767,204.34306 243.92767,213.51306 C 243.92767,222.67681 243.92767,227.26306 243.92767,227.26306 C 243.92767,227.26306 240.17392,227.26306 232.67767,227.26306 C 225.17392,227.26306 221.42767,227.26306 221.42767,227.26306 C 221.42767,227.26306 221.42767,222.67681 221.42767,213.51306 C 221.42767,204.34306 221.42767,199.76306 221.42767,199.76306 C 221.42767,199.76306 221.63267,199.34306 222.05267,198.51306 z" />
    <text
       id="text2565"
       x="227.67767"
       y="216.01306"
       style="font-size:15px">
      <tspan
         style="font-size:11.25px;font-variant:normal;font-weight:bold;writing-mode:lr-tb;fill:#000000;fill-opacity:1;fill-rule:nonzero;stroke:none;font-family:Helvetica;-inkscape-font-specification:Helvetica-Bold"
         x="227.67767"
         y="216.01306"
         id="tspan2567">G</tspan>
    </text>
    <path
       id="path2577"
       style="fill:#000000;fill-opacity:1;fill-rule:nonzero;stroke:none"
       d="M 227.67767,197.26306 L 228.30267,197.26306 L 230.80267,201.01306 L 230.80267,201.63806 L 230.17767,201.63806 L 227.67767,197.88806" />
    <path
       id="path2579"
       style="fill:#000000;fill-opacity:1;fill-rule:nonzero;stroke:none"
       d="M 227.67767,197.26306 L 228.30267,197.26306 L 228.30267,197.88806 L 225.80267,201.63806 L 225.17767,201.63806 L 225.17767,201.01306" />
    <path
       id="path2581"
       style="fill:#000000;fill-opacity:1;fill-rule:nonzero;stroke:none"
       d="M 222.67767,197.26306 L 223.30267,197.26306 L 225.80267,201.01306 L 225.80267,201.63806 L 225.17767,201.63806 L 222.67767,197.88806" />
    <path
       id="path2583"
       style="fill:#000000;fill-opacity:1;fill-rule:nonzero;stroke:none"
       d="M 222.67767,197.26306 L 223.30267,197.26306 L 223.30267,197.88806 L 222.05267,200.38806 L 221.42767,200.38806 L 221.42767,199.76306" />
    <path
       id="path2585"
       style="fill:#000000;fill-opacity:1;fill-rule:nonzero;stroke:none"
       d="M 233.92767,197.26306 L 234.55267,197.26306 L 234.55267,197.88806 L 230.80267,201.63806 L 230.17767,201.63806 L 230.17767,201.01306" />
    <path
       id="path2587"
       style="fill:#000000;fill-opacity:1;fill-rule:nonzero;stroke:none"
       d="M 233.92767,197.26306 L 234.55267,197.26306 L 237.05267,201.01306 L 237.05267,201.63806 L 236.42767,201.63806 L 233.92767,197.88806" />
    <path
       id="path2589"
       style="fill:#000000;fill-opacity:1;fill-rule:nonzero;stroke:none"
       d="M 238.92767,197.26306 L 239.55267,197.26306 L 239.55267,197.88806 L 237.05267,201.63806 L 236.42767,201.63806 L 236.42767,201.01306" />
    <path
       id="path2591"
       style="fill:#000000;fill-opacity:1;fill-rule:nonzero;stroke:none"
       d="M 238.92767,197.26306 L 239.55267,197.26306 L 242.05267,201.01306 L 242.05267,201.63806 L 241.42767,201.63806 L 238.92767,197.88806" />
    <path
       id="path2593"
       style="fill:#000000;fill-opacity:1;fill-rule:nonzero;stroke:none"
       d="M 243.92767,199.76306 L 244.55267,199.76306 L 244.55267,200.38806 L 242.05267,201.63806 L 241.42767,201.63806 L 241.42767,201.01306" />
    <path
       id="path2595"
       style="fill:#000000;fill-opacity:1;fill-rule:nonzero;stroke:none"
       d="M 227.67767,136.01306 L 228.30267,136.01306 L 230.80267,138.51306 L 230.80267,139.13806 L 230.17767,139.13806 L 227.67767,136.63806" />
    <path
       id="path2597"
       style="fill:#000000;fill-opacity:1;fill-rule:nonzero;stroke:none"
       d="M 227.67767,136.01306 L 228.30267,136.01306 L 228.30267,136.63806 L 225.80267,139.13806 L 225.17767,139.13806 L 225.17767,138.51306" />
    <path
       id="path2599"
       style="fill:#000000;fill-opacity:1;fill-rule:nonzero;stroke:none"
       d="M 222.67767,136.01306 L 223.30267,136.01306 L 225.80267,138.51306 L 225.80267,139.13806 L 225.17767,139.13806 L 222.67767,136.63806" />
    <path
       id="path2601"
       style="fill:#000000;fill-opacity:1;fill-rule:nonzero;stroke:none"
       d="M 222.67767,136.01306 L 223.30267,136.01306 L 223.30267,136.63806 L 222.05267,137.88806 L 221.42767,137.88806 L 221.42767,137.26306" />
    <path
       id="path2603"
       style="fill:#000000;fill-opacity:1;fill-rule:nonzero;stroke:none"
       d="M 233.92767,136.01306 L 234.55267,136.01306 L 234.55267,136.63806 L 230.80267,139.13806 L 230.17767,139.13806 L 230.17767,138.51306" />
    <path
       id="path2605"
       style="fill:#000000;fill-opacity:1;fill-rule:nonzero;stroke:none"
       d="M 233.92767,136.01306 L 234.55267,136.01306 L 237.05267,138.51306 L 237.05267,139.13806 L 236.42767,139.13806 L 233.92767,136.63806" />
    <path
       id="path2607"
       style="fill:#000000;fill-opacity:1;fill-rule:nonzero;stroke:none"
       d="M 238.92767,136.01306 L 239.55267,136.01306 L 239.55267,136.63806 L 237.05267,139.13806 L 236.42767,139.13806 L 236.42767,138.51306" />
    <path
       id="path2609"
       style="fill:#000000;fill-opacity:1;fill-rule:nonzero;stroke:none"
       d="M 238.92767,136.01306 L 239.55267,136.01306 L 242.05267,138.51306 L 242.05267,139.13806 L 241.42767,139.13806 L 238.92767,136.63806" />
    <path
       id="path2611"
       style="fill:#000000;fill-opacity:1;fill-rule:nonzero;stroke:none"
       d="M 243.92767,137.26306 L 244.55267,137.26306 L 244.55267,137.88806 L 242.05267,139.13806 L 241.42767,139.13806 L 241.42767,138.51306" />
    <path
       id="path2613"
       style="fill:#000000;fill-opacity:1;fill-rule:nonzero;stroke:none"
       d="M 193.92767,136.01306 L 194.55267,136.01306 L 197.05267,138.51306 L 197.05267,139.13806 L 196.42767,139.13806 L 193.92767,136.63806" />
    <path
       id="path2615"
       style="fill:#000000;fill-opacity:1;fill-rule:nonzero;stroke:none"
       d="M 193.92767,136.01306 L 194.55267,136.01306 L 194.55267,136.63806 L 192.05267,139.13806 L 191.42767,139.13806 L 191.42767,138.51306" />
    <path
       id="path2617"
       style="fill:#000000;fill-opacity:1;fill-rule:nonzero;stroke:none"
       d="M 188.92767,136.01306 L 189.55267,136.01306 L 192.05267,138.51306 L 192.05267,139.13806 L 191.42767,139.13806 L 188.92767,136.63806" />
    <path
       id="path2619"
       style="fill:#000000;fill-opacity:1;fill-rule:nonzero;stroke:none"
       d="M 188.92767,136.01306 L 189.55267,136.01306 L 189.55267,136.63806 L 188.30267,137.88806 L 187.67767,137.88806 L 187.67767,137.26306" />
    <path
       id="path2621"
       style="fill:#000000;fill-opacity:1;fill-rule:nonzero;stroke:none"
       d="M 200.17767,136.01306 L 200.80267,136.01306 L 200.80267,136.63806 L 197.05267,139.13806 L 196.42767,139.13806 L 196.42767,138.51306" />
    <path
       id="path2623"
       style="fill:#000000;fill-opacity:1;fill-rule:nonzero;stroke:none"
       d="M 200.17767,136.01306 L 200.80267,136.01306 L 203.30267,138.51306 L 203.30267,139.13806 L 202.67767,139.13806 L 200.17767,136.63806" />
    <path
       id="path2625"
       style="fill:#000000;fill-opacity:1;fill-rule:nonzero;stroke:none"
       d="M 205.17767,136.01306 L 205.80267,136.01306 L 205.80267,136.63806 L 203.30267,139.13806 L 202.67767,139.13806 L 202.67767,138.51306" />
    <path
       id="path2627"
       style="fill:#000000;fill-opacity:1;fill-rule:nonzero;stroke:none"
       d="M 205.17767,136.01306 L 205.80267,136.01306 L 208.30267,138.51306 L 208.30267,139.13806 L 207.67767,139.13806 L 205.17767,136.63806" />
    <path
       id="path2629"
       style="fill:#000000;fill-opacity:1;fill-rule:nonzero;stroke:none"
       d="M 210.17767,137.26306 L 210.80267,137.26306 L 210.80267,137.88806 L 208.30267,139.13806 L 207.67767,139.13806 L 207.67767,138.51306" />
    <path
       id="path2631"
       style="fill:#000000;fill-opacity:1;fill-rule:nonzero;stroke:none"
       d="M 126.42767,136.01306 L 127.05267,136.01306 L 129.55267,138.51306 L 129.55267,139.13806 L 128.92767,139.13806 L 126.42767,136.63806" />
    <path
       id="path2633"
       style="fill:#000000;fill-opacity:1;fill-rule:nonzero;stroke:none"
       d="M 126.42767,136.01306 L 127.05267,136.01306 L 127.05267,136.63806 L 124.55267,139.13806 L 123.92767,139.13806 L 123.92767,138.51306" />
    <path
       id="path2635"
       style="fill:#000000;fill-opacity:1;fill-rule:nonzero;stroke:none"
       d="M 121.42767,136.01306 L 122.05267,136.01306 L 124.55267,138.51306 L 124.55267,139.13806 L 123.92767,139.13806 L 121.42767,136.63806" />
    <path
       id="path2637"
       style="fill:#000000;fill-opacity:1;fill-rule:nonzero;stroke:none"
       d="M 121.42767,136.01306 L 122.05267,136.01306 L 122.05267,136.63806 L 120.80267,137.88806 L 120.17767,137.88806 L 120.17767,137.26306" />
    <path
       id="path2639"
       style="fill:#000000;fill-opacity:1;fill-rule:nonzero;stroke:none"
       d="M 132.67767,136.01306 L 133.30267,136.01306 L 133.30267,136.63806 L 129.55267,139.13806 L 128.92767,139.13806 L 128.92767,138.51306" />
    <path
       id="path2641"
       style="fill:#000000;fill-opacity:1;fill-rule:nonzero;stroke:none"
       d="M 132.67767,136.01306 L 133.30267,136.01306 L 135.80267,138.51306 L 135.80267,139.13806 L 135.17767,139.13806 L 132.67767,136.63806" />
    <path
       id="path2643"
       style="fill:#000000;fill-opacity:1;fill-rule:nonzero;stroke:none"
       d="M 137.67767,136.01306 L 138.30267,136.01306 L 138.30267,136.63806 L 135.80267,139.13806 L 135.17767,139.13806 L 135.17767,138.51306" />
    <path
       id="path2645"
       style="fill:#000000;fill-opacity:1;fill-rule:nonzero;stroke:none"
       d="M 137.67767,136.01306 L 138.30267,136.01306 L 140.80267,138.51306 L 140.80267,139.13806 L 140.17767,139.13806 L 137.67767,136.63806" />
    <path
       id="path2647"
       style="fill:#000000;fill-opacity:1;fill-rule:nonzero;stroke:none"
       d="M 142.67767,137.26306 L 143.30267,137.26306 L 143.30267,137.88806 L 140.80267,139.13806 L 140.17767,139.13806 L 140.17767,138.51306" />
    <path
       id="path2649"
       style="fill:#000000;fill-opacity:1;fill-rule:nonzero;stroke:none"
       d="M 92.677674,136.01306 L 93.302674,136.01306 L 95.802674,138.51306 L 95.802674,139.13806 L 95.177674,139.13806 L 92.677674,136.63806" />
    <path
       id="path2651"
       style="fill:#000000;fill-opacity:1;fill-rule:nonzero;stroke:none"
       d="M 92.677674,136.01306 L 93.302674,136.01306 L 93.302674,136.63806 L 90.802674,139.13806 L 90.177674,139.13806 L 90.177674,138.51306" />
    <path
       id="path2653"
       style="fill:#000000;fill-opacity:1;fill-rule:nonzero;stroke:none"
       d="M 87.677674,136.01306 L 88.302674,136.01306 L 90.802674,138.51306 L 90.802674,139.13806 L 90.177674,139.13806 L 87.677674,136.63806" />
    <path
       id="path2655"
       style="fill:#000000;fill-opacity:1;fill-rule:nonzero;stroke:none"
       d="M 87.677674,136.01306 L 88.302674,136.01306 L 88.302674,136.63806 L 87.052674,137.88806 L 86.427674,137.88806 L 86.427674,137.26306" />
    <path
       id="path2657"
       style="fill:#000000;fill-opacity:1;fill-rule:nonzero;stroke:none"
       d="M 98.927674,136.01306 L 99.552674,136.01306 L 99.552674,136.63806 L 95.802674,139.13806 L 95.177674,139.13806 L 95.177674,138.51306" />
    <path
       id="path2659"
       style="fill:#000000;fill-opacity:1;fill-rule:nonzero;stroke:none"
       d="M 98.927674,136.01306 L 99.552674,136.01306 L 102.05267,138.51306 L 102.05267,139.13806 L 101.42767,139.13806 L 98.927674,136.63806" />
    <path
       id="path2661"
       style="fill:#000000;fill-opacity:1;fill-rule:nonzero;stroke:none"
       d="M 103.92767,136.01306 L 104.55267,136.01306 L 104.55267,136.63806 L 102.05267,139.13806 L 101.42767,139.13806 L 101.42767,138.51306" />
    <path
       id="path2663"
       style="fill:#000000;fill-opacity:1;fill-rule:nonzero;stroke:none"
       d="M 103.92767,136.01306 L 104.55267,136.01306 L 107.05267,138.51306 L 107.05267,139.13806 L 106.42767,139.13806 L 103.92767,136.63806" />
    <path
       id="path2665"
       style="fill:#000000;fill-opacity:1;fill-rule:nonzero;stroke:none"
       d="M 108.92767,137.26306 L 109.55267,137.26306 L 109.55267,137.88806 L 107.05267,139.13806 L 106.42767,139.13806 L 106.42767,138.51306" />
    <path
       id="path2667"
       style="fill:#ffffff;fill-opacity:1;fill-rule:nonzero;stroke:none"
       d="M 86.427674,264.76306 L 110.17767,264.76306 L 110.17767,227.26306 L 86.427674,227.26306 L 86.427674,264.76306 z" />
    <path
       id="path2669"
       style="fill:none;stroke:#000000;stroke-width:1.25;stroke-linecap:butt;stroke-linejoin:miter;stroke-miterlimit:10;stroke-dasharray:none;stroke-opacity:1"
       d="M 87.052674,264.13806 L 109.55267,264.13806 L 109.55267,227.88806 L 87.052674,227.88806 L 87.052674,264.13806 z" />
    <path
       id="path2671"
       style="fill:#ffffff;fill-opacity:1;fill-rule:nonzero;stroke:none"
       d="M 120.17767,264.76306 L 143.92767,264.76306 L 143.92767,227.26306 L 120.17767,227.26306 L 120.17767,264.76306 z" />
    <path
       id="path2673"
       style="fill:none;stroke:#000000;stroke-width:1.25;stroke-linecap:butt;stroke-linejoin:miter;stroke-miterlimit:10;stroke-dasharray:none;stroke-opacity:1"
       d="M 120.80267,264.13806 L 143.30267,264.13806 L 143.30267,227.88806 L 120.80267,227.88806 L 120.80267,264.13806 z" />
    <path
       id="path2675"
       style="fill:#ffffff;fill-opacity:1;fill-rule:nonzero;stroke:none"
       d="M 187.67767,264.76306 L 211.42767,264.76306 L 211.42767,227.26306 L 187.67767,227.26306 L 187.67767,264.76306 z" />
    <path
       id="path2677"
       style="fill:none;stroke:#000000;stroke-width:1.25;stroke-linecap:butt;stroke-linejoin:miter;stroke-miterlimit:10;stroke-dasharray:none;stroke-opacity:1"
       d="M 188.30267,264.13806 L 210.80267,264.13806 L 210.80267,227.88806 L 188.30267,227.88806 L 188.30267,264.13806 z" />
    <path
       id="path2679"
       style="fill:#ffffff;fill-opacity:1;fill-rule:nonzero;stroke:none"
       d="M 221.42767,264.76306 L 245.17767,264.76306 L 245.17767,227.26306 L 221.42767,227.26306 L 221.42767,264.76306 z" />
    <path
       id="path2681"
       style="fill:none;stroke:#000000;stroke-width:1.25;stroke-linecap:butt;stroke-linejoin:miter;stroke-miterlimit:10;stroke-dasharray:none;stroke-opacity:1"
       d="M 222.05267,264.13806 L 244.55267,264.13806 L 244.55267,227.88806 L 222.05267,227.88806 L 222.05267,264.13806 z" />
    <text
       id="text2693"
       x="93.927673"
       y="248.51306"
       style="font-size:15px">
      <tspan
         style="font-size:11.25px;font-variant:normal;font-weight:bold;writing-mode:lr-tb;fill:#000000;fill-opacity:1;fill-rule:nonzero;stroke:none;font-family:Helvetica;-inkscape-font-specification:Helvetica-Bold"
         x="93.927673"
         y="248.51306"
         id="tspan2695">R</tspan>
    </text>
    <text
       id="text2707"
       x="127.67767"
       y="248.51306"
       style="font-size:15px">
      <tspan
         style="font-size:11.25px;font-variant:normal;font-weight:bold;writing-mode:lr-tb;fill:#000000;fill-opacity:1;fill-rule:nonzero;stroke:none;font-family:Helvetica;-inkscape-font-specification:Helvetica-Bold"
         x="127.67767"
         y="248.51306"
         id="tspan2709">R</tspan>
    </text>
    <text
       id="text2721"
       x="195.17767"
       y="248.51306"
       style="font-size:15px">
      <tspan
         style="font-size:11.25px;font-variant:normal;font-weight:bold;writing-mode:lr-tb;fill:#000000;fill-opacity:1;fill-rule:nonzero;stroke:none;font-family:Helvetica;-inkscape-font-specification:Helvetica-Bold"
         x="195.17767"
         y="248.51306"
         id="tspan2723">R</tspan>
    </text>
    <text
       id="text2735"
       x="228.92767"
       y="248.51306"
       style="font-size:15px">
      <tspan
         style="font-size:11.25px;font-variant:normal;font-weight:bold;writing-mode:lr-tb;fill:#000000;fill-opacity:1;fill-rule:nonzero;stroke:none;font-family:Helvetica;-inkscape-font-specification:Helvetica-Bold"
         x="228.92767"
         y="248.51306"
         id="tspan2737">R</tspan>
    </text>
    <path
       id="path2747"
       style="fill:#000000;fill-opacity:1;fill-rule:evenodd;stroke:none"
       d="M 98.435288,281.01306 L 93.435288,272.26306 L 102.18529,272.26306 L 98.435288,281.01306" />
    <path
       id="path2749"
       style="fill:#000000;fill-opacity:1;fill-rule:nonzero;stroke:none"
       d="M 97.677674,263.51306 L 98.927674,263.51306 L 98.927674,273.51306 L 97.677674,273.51306 L 97.677674,272.26306" />
    <path
       id="path2751"
       style="fill:#000000;fill-opacity:1;fill-rule:evenodd;stroke:none"
       d="M 132.18529,281.01306 L 127.18529,272.26306 L 135.93529,272.26306 L 132.18529,281.01306" />
    <path
       id="path2753"
       style="fill:#000000;fill-opacity:1;fill-rule:nonzero;stroke:none"
       d="M 131.42767,263.51306 L 132.67767,263.51306 L 132.67767,273.51306 L 131.42767,273.51306 L 131.42767,272.26306" />
    <path
       id="path2755"
       style="fill:#000000;fill-opacity:1;fill-rule:evenodd;stroke:none"
       d="M 199.68529,281.01306 L 194.68529,272.26306 L 203.43529,272.26306 L 199.68529,281.01306" />
    <path
       id="path2757"
       style="fill:#000000;fill-opacity:1;fill-rule:nonzero;stroke:none"
       d="M 198.92767,263.51306 L 200.17767,263.51306 L 200.17767,273.51306 L 198.92767,273.51306 L 198.92767,272.26306" />
    <path
       id="path2759"
       style="fill:#000000;fill-opacity:1;fill-rule:evenodd;stroke:none"
       d="M 233.43529,281.01306 L 228.43529,272.26306 L 237.18529,272.26306 L 233.43529,281.01306" />
    <path
       id="path2761"
       style="fill:#000000;fill-opacity:1;fill-rule:nonzero;stroke:none"
       d="M 232.67767,263.51306 L 233.92767,263.51306 L 233.92767,273.51306 L 232.67767,273.51306 L 232.67767,272.26306" />
    <text
       id="text2773"
       x="148.92767"
       y="296.01306"
       style="font-size:15px">
      <tspan
         style="font-size:12.5px;font-variant:normal;font-weight:normal;writing-mode:lr-tb;fill:#000000;fill-opacity:1;fill-rule:nonzero;stroke:none;font-family:Helvetica;-inkscape-font-specification:Helvetica"
         sodipodi:role="line"
         id="tspan2775"
         x="148.92767"
         y="296.01306">Anzeige</tspan>
    </text>
    <text
       id="text2787"
       x="295.42767"
       y="208.51306"
       style="font-size:15px;text-align:center;text-anchor:middle">
      <tspan
         style="font-size:12.5px;font-variant:normal;font-weight:normal;text-align:center;writing-mode:lr-tb;text-anchor:middle;fill:#000000;fill-opacity:1;fill-rule:nonzero;stroke:none;font-family:Helvetica;-inkscape-font-specification:Helvetica"
         sodipodi:role="line"
         id="tspan2791"
         x="295.42767"
         y="208.51306">Geometrie-</tspan>
      <tspan
         style="font-size:12.5px;font-variant:normal;font-weight:normal;text-align:center;writing-mode:lr-tb;text-anchor:middle;fill:#000000;fill-opacity:1;fill-rule:nonzero;stroke:none;font-family:Helvetica;-inkscape-font-specification:Helvetica"
         sodipodi:role="line"
         x="295.42767"
         y="224.13806"
         id="tspan12639">verarbeitung</tspan>
    </text>
    <text
       id="text2803"
       x="260.17767"
       y="138.51306"
       style="font-size:15px">
      <tspan
         style="font-size:12.5px;font-variant:normal;font-weight:normal;writing-mode:lr-tb;fill:#000000;fill-opacity:1;fill-rule:nonzero;stroke:none;font-family:Helvetica;-inkscape-font-specification:Helvetica"
         sodipodi:role="line"
         id="tspan2805"
         x="260.17767"
         y="138.51306">(Pre-Transformation)</tspan>
    </text>
    <text
       id="text2817"
       x="261.42767"
       y="249.76306"
       style="font-size:15px">
      <tspan
         style="font-size:12.5px;font-variant:normal;font-weight:normal;writing-mode:lr-tb;fill:#000000;fill-opacity:1;fill-rule:nonzero;stroke:none;font-family:Helvetica;-inkscape-font-specification:Helvetica"
         sodipodi:role="line"
         id="tspan2819"
         x="261.42767"
         y="249.76306">Rasterisierung</tspan>
    </text>
    <path
       id="path2829"
       style="fill:#000000;fill-opacity:1;fill-rule:nonzero;stroke:none"
       d="M 156.42767,212.26306 C 156.42767,213.64306 155.30767,214.76306 153.92767,214.76306 C 152.54767,214.76306 151.42767,213.64306 151.42767,212.26306 C 151.42767,210.88306 152.54767,209.76306 153.92767,209.76306 C 155.30767,209.76306 156.42767,210.88306 156.42767,212.26306" />
    <path
       id="path2831"
       style="fill:none;stroke:#000000;stroke-width:1.25;stroke-linecap:butt;stroke-linejoin:miter;stroke-miterlimit:10;stroke-dasharray:none;stroke-opacity:1"
       d="M 155.80267,212.26306 C 155.80267,213.29806 154.96267,214.13806 153.92767,214.13806 C 152.89267,214.13806 152.05267,213.29806 152.05267,212.26306 C 152.05267,211.22806 152.89267,210.38806 153.92767,210.38806 C 154.96267,210.38806 155.80267,211.22806 155.80267,212.26306 z" />
    <path
       id="path2833"
       style="fill:#000000;fill-opacity:1;fill-rule:nonzero;stroke:none"
       d="M 167.67767,212.26306 C 167.67767,213.64306 166.55767,214.76306 165.17767,214.76306 C 163.79767,214.76306 162.67767,213.64306 162.67767,212.26306 C 162.67767,210.88306 163.79767,209.76306 165.17767,209.76306 C 166.55767,209.76306 167.67767,210.88306 167.67767,212.26306" />
    <path
       id="path2835"
       style="fill:none;stroke:#000000;stroke-width:1.25;stroke-linecap:butt;stroke-linejoin:miter;stroke-miterlimit:10;stroke-dasharray:none;stroke-opacity:1"
       d="M 167.05267,212.26306 C 167.05267,213.29806 166.21267,214.13806 165.17767,214.13806 C 164.14267,214.13806 163.30267,213.29806 163.30267,212.26306 C 163.30267,211.22806 164.14267,210.38806 165.17767,210.38806 C 166.21267,210.38806 167.05267,211.22806 167.05267,212.26306 z" />
    <path
       id="path2837"
       style="fill:#000000;fill-opacity:1;fill-rule:nonzero;stroke:none"
       d="M 178.92767,212.26306 C 178.92767,213.64306 177.80767,214.76306 176.42767,214.76306 C 175.04767,214.76306 173.92767,213.64306 173.92767,212.26306 C 173.92767,210.88306 175.04767,209.76306 176.42767,209.76306 C 177.80767,209.76306 178.92767,210.88306 178.92767,212.26306" />
    <path
       id="path2839"
       style="fill:none;stroke:#000000;stroke-width:1.25;stroke-linecap:butt;stroke-linejoin:miter;stroke-miterlimit:10;stroke-dasharray:none;stroke-opacity:1"
       d="M 178.30267,212.26306 C 178.30267,213.29806 177.46267,214.13806 176.42767,214.13806 C 175.39267,214.13806 174.55267,213.29806 174.55267,212.26306 C 174.55267,211.22806 175.39267,210.38806 176.42767,210.38806 C 177.46267,210.38806 178.30267,211.22806 178.30267,212.26306 z" />
    <path
       id="path2841"
       style="fill:#000000;fill-opacity:1;fill-rule:nonzero;stroke:none"
       d="M 156.42767,246.01306 C 156.42767,247.39306 155.30767,248.51306 153.92767,248.51306 C 152.54767,248.51306 151.42767,247.39306 151.42767,246.01306 C 151.42767,244.63306 152.54767,243.51306 153.92767,243.51306 C 155.30767,243.51306 156.42767,244.63306 156.42767,246.01306" />
    <path
       id="path2843"
       style="fill:none;stroke:#000000;stroke-width:1.25;stroke-linecap:butt;stroke-linejoin:miter;stroke-miterlimit:10;stroke-dasharray:none;stroke-opacity:1"
       d="M 155.80267,246.01306 C 155.80267,247.04806 154.96267,247.88806 153.92767,247.88806 C 152.89267,247.88806 152.05267,247.04806 152.05267,246.01306 C 152.05267,244.97806 152.89267,244.13806 153.92767,244.13806 C 154.96267,244.13806 155.80267,244.97806 155.80267,246.01306 z" />
    <path
       id="path2845"
       style="fill:#000000;fill-opacity:1;fill-rule:nonzero;stroke:none"
       d="M 167.67767,246.01306 C 167.67767,247.39306 166.55767,248.51306 165.17767,248.51306 C 163.79767,248.51306 162.67767,247.39306 162.67767,246.01306 C 162.67767,244.63306 163.79767,243.51306 165.17767,243.51306 C 166.55767,243.51306 167.67767,244.63306 167.67767,246.01306" />
    <path
       id="path2847"
       style="fill:none;stroke:#000000;stroke-width:1.25;stroke-linecap:butt;stroke-linejoin:miter;stroke-miterlimit:10;stroke-dasharray:none;stroke-opacity:1"
       d="M 167.05267,246.01306 C 167.05267,247.04806 166.21267,247.88806 165.17767,247.88806 C 164.14267,247.88806 163.30267,247.04806 163.30267,246.01306 C 163.30267,244.97806 164.14267,244.13806 165.17767,244.13806 C 166.21267,244.13806 167.05267,244.97806 167.05267,246.01306 z" />
    <path
       id="path2849"
       style="fill:#000000;fill-opacity:1;fill-rule:nonzero;stroke:none"
       d="M 178.92767,246.01306 C 178.92767,247.39306 177.80767,248.51306 176.42767,248.51306 C 175.04767,248.51306 173.92767,247.39306 173.92767,246.01306 C 173.92767,244.63306 175.04767,243.51306 176.42767,243.51306 C 177.80767,243.51306 178.92767,244.63306 178.92767,246.01306" />
    <path
       id="path2851"
       style="fill:none;stroke:#000000;stroke-width:1.25;stroke-linecap:butt;stroke-linejoin:miter;stroke-miterlimit:10;stroke-dasharray:none;stroke-opacity:1"
       d="M 178.30267,246.01306 C 178.30267,247.04806 177.46267,247.88806 176.42767,247.88806 C 175.39267,247.88806 174.55267,247.04806 174.55267,246.01306 C 174.55267,244.97806 175.39267,244.13806 176.42767,244.13806 C 177.46267,244.13806 178.30267,244.97806 178.30267,246.01306 z" />
    <path
       id="path2853"
       style="fill:#000000;fill-opacity:1;fill-rule:nonzero;stroke:none"
       d="M 156.42767,133.51306 C 156.42767,134.89306 155.30767,136.01306 153.92767,136.01306 C 152.54767,136.01306 151.42767,134.89306 151.42767,133.51306 C 151.42767,132.13306 152.54767,131.01306 153.92767,131.01306 C 155.30767,131.01306 156.42767,132.13306 156.42767,133.51306" />
    <path
       id="path2855"
       style="fill:none;stroke:#000000;stroke-width:1.25;stroke-linecap:butt;stroke-linejoin:miter;stroke-miterlimit:10;stroke-dasharray:none;stroke-opacity:1"
       d="M 155.80267,133.51306 C 155.80267,134.54806 154.96267,135.38806 153.92767,135.38806 C 152.89267,135.38806 152.05267,134.54806 152.05267,133.51306 C 152.05267,132.47806 152.89267,131.63806 153.92767,131.63806 C 154.96267,131.63806 155.80267,132.47806 155.80267,133.51306 z" />
    <path
       id="path2857"
       style="fill:#000000;fill-opacity:1;fill-rule:nonzero;stroke:none"
       d="M 167.67767,133.51306 C 167.67767,134.89306 166.55767,136.01306 165.17767,136.01306 C 163.79767,136.01306 162.67767,134.89306 162.67767,133.51306 C 162.67767,132.13306 163.79767,131.01306 165.17767,131.01306 C 166.55767,131.01306 167.67767,132.13306 167.67767,133.51306" />
    <path
       id="path2859"
       style="fill:none;stroke:#000000;stroke-width:1.25;stroke-linecap:butt;stroke-linejoin:miter;stroke-miterlimit:10;stroke-dasharray:none;stroke-opacity:1"
       d="M 167.05267,133.51306 C 167.05267,134.54806 166.21267,135.38806 165.17767,135.38806 C 164.14267,135.38806 163.30267,134.54806 163.30267,133.51306 C 163.30267,132.47806 164.14267,131.63806 165.17767,131.63806 C 166.21267,131.63806 167.05267,132.47806 167.05267,133.51306 z" />
    <path
       id="path2861"
       style="fill:#000000;fill-opacity:1;fill-rule:nonzero;stroke:none"
       d="M 178.92767,133.51306 C 178.92767,134.89306 177.80767,136.01306 176.42767,136.01306 C 175.04767,136.01306 173.92767,134.89306 173.92767,133.51306 C 173.92767,132.13306 175.04767,131.01306 176.42767,131.01306 C 177.80767,131.01306 178.92767,132.13306 178.92767,133.51306" />
    <path
       id="path2863"
       style="fill:none;stroke:#000000;stroke-width:1.25;stroke-linecap:butt;stroke-linejoin:miter;stroke-miterlimit:10;stroke-dasharray:none;stroke-opacity:1"
       d="M 178.30267,133.51306 C 178.30267,134.54806 177.46267,135.38806 176.42767,135.38806 C 175.39267,135.38806 174.55267,134.54806 174.55267,133.51306 C 174.55267,132.47806 175.39267,131.63806 176.42767,131.63806 C 177.46267,131.63806 178.30267,132.47806 178.30267,133.51306 z" />
    <path
       id="path2873"
       style="fill:#000000;fill-opacity:1;fill-rule:evenodd;stroke:none"
       d="M 187.67767,199.76306 L 188.92767,197.26306 L 191.42767,201.01306 L 193.92767,197.26306 L 196.42767,201.01306 L 200.17767,197.26306 L 202.67767,201.01306 L 205.17767,197.26306 L 207.67767,201.01306 L 210.17767,199.76306 L 210.17767,227.26306 L 187.67767,227.26306 L 187.67767,199.76306" />
    <path
       id="path2875"
       style="fill:#ffffff;fill-opacity:1;fill-rule:evenodd;stroke:none"
       d="M 188.30267,198.51306 C 188.71642,197.67681 188.92767,197.26306 188.92767,197.26306 C 188.92767,197.26306 189.34142,197.88431 190.17767,199.13806 C 191.00767,200.38431 191.42767,201.01306 191.42767,201.01306 C 191.42767,201.01306 191.84142,200.38431 192.67767,199.13806 C 193.50767,197.88431 193.92767,197.26306 193.92767,197.26306 C 193.92767,197.26306 194.34142,197.88431 195.17767,199.13806 C 196.00767,200.38431 196.42767,201.01306 196.42767,201.01306 C 196.42767,201.01306 197.04892,200.38431 198.30267,199.13806 C 199.54892,197.88431 200.17767,197.26306 200.17767,197.26306 C 200.17767,197.26306 200.59142,197.88431 201.42767,199.13806 C 202.25767,200.38431 202.67767,201.01306 202.67767,201.01306 C 202.67767,201.01306 203.09142,200.38431 203.92767,199.13806 C 204.75767,197.88431 205.17767,197.26306 205.17767,197.26306 C 205.17767,197.26306 205.59142,197.88431 206.42767,199.13806 C 207.25767,200.38431 207.67767,201.01306 207.67767,201.01306 C 207.67767,201.01306 208.09142,200.80181 208.92767,200.38806 C 209.75767,199.96806 210.17767,199.76306 210.17767,199.76306 C 210.17767,199.76306 210.17767,204.34306 210.17767,213.51306 C 210.17767,222.67681 210.17767,227.26306 210.17767,227.26306 C 210.17767,227.26306 206.42392,227.26306 198.92767,227.26306 C 191.42392,227.26306 187.67767,227.26306 187.67767,227.26306 C 187.67767,227.26306 187.67767,222.67681 187.67767,213.51306 C 187.67767,204.34306 187.67767,199.76306 187.67767,199.76306 C 187.67767,199.76306 187.88267,199.34306 188.30267,198.51306" />
    <path
       id="path2877"
       style="fill:none;stroke:#000000;stroke-width:0.625;stroke-linecap:butt;stroke-linejoin:miter;stroke-miterlimit:10;stroke-dasharray:none;stroke-opacity:1"
       d="M 188.30267,198.51306 C 188.71642,197.67681 188.92767,197.26306 188.92767,197.26306 C 188.92767,197.26306 189.34142,197.88431 190.17767,199.13806 C 191.00767,200.38431 191.42767,201.01306 191.42767,201.01306 C 191.42767,201.01306 191.84142,200.38431 192.67767,199.13806 C 193.50767,197.88431 193.92767,197.26306 193.92767,197.26306 C 193.92767,197.26306 194.34142,197.88431 195.17767,199.13806 C 196.00767,200.38431 196.42767,201.01306 196.42767,201.01306 C 196.42767,201.01306 197.04892,200.38431 198.30267,199.13806 C 199.54892,197.88431 200.17767,197.26306 200.17767,197.26306 C 200.17767,197.26306 200.59142,197.88431 201.42767,199.13806 C 202.25767,200.38431 202.67767,201.01306 202.67767,201.01306 C 202.67767,201.01306 203.09142,200.38431 203.92767,199.13806 C 204.75767,197.88431 205.17767,197.26306 205.17767,197.26306 C 205.17767,197.26306 205.59142,197.88431 206.42767,199.13806 C 207.25767,200.38431 207.67767,201.01306 207.67767,201.01306 C 207.67767,201.01306 208.09142,200.80181 208.92767,200.38806 C 209.75767,199.96806 210.17767,199.76306 210.17767,199.76306 C 210.17767,199.76306 210.17767,204.34306 210.17767,213.51306 C 210.17767,222.67681 210.17767,227.26306 210.17767,227.26306 C 210.17767,227.26306 206.42392,227.26306 198.92767,227.26306 C 191.42392,227.26306 187.67767,227.26306 187.67767,227.26306 C 187.67767,227.26306 187.67767,222.67681 187.67767,213.51306 C 187.67767,204.34306 187.67767,199.76306 187.67767,199.76306 C 187.67767,199.76306 187.88267,199.34306 188.30267,198.51306 z" />
    <text
       id="text2889"
       x="193.92767"
       y="216.01306"
       style="font-size:15px">
      <tspan
         style="font-size:11.25px;font-variant:normal;font-weight:bold;writing-mode:lr-tb;fill:#000000;fill-opacity:1;fill-rule:nonzero;stroke:none;font-family:Helvetica;-inkscape-font-specification:Helvetica-Bold"
         x="193.92767"
         y="216.01306"
         id="tspan2891">G</tspan>
    </text>
    <path
       id="path2901"
       style="fill:#000000;fill-opacity:1;fill-rule:nonzero;stroke:none"
       d="M 193.92767,197.26306 L 194.55267,197.26306 L 197.05267,201.01306 L 197.05267,201.63806 L 196.42767,201.63806 L 193.92767,197.88806" />
    <path
       id="path2903"
       style="fill:#000000;fill-opacity:1;fill-rule:nonzero;stroke:none"
       d="M 193.92767,197.26306 L 194.55267,197.26306 L 194.55267,197.88806 L 192.05267,201.63806 L 191.42767,201.63806 L 191.42767,201.01306" />
    <path
       id="path2905"
       style="fill:#000000;fill-opacity:1;fill-rule:nonzero;stroke:none"
       d="M 188.92767,197.26306 L 189.55267,197.26306 L 192.05267,201.01306 L 192.05267,201.63806 L 191.42767,201.63806 L 188.92767,197.88806" />
    <path
       id="path2907"
       style="fill:#000000;fill-opacity:1;fill-rule:nonzero;stroke:none"
       d="M 188.92767,197.26306 L 189.55267,197.26306 L 189.55267,197.88806 L 188.30267,200.38806 L 187.67767,200.38806 L 187.67767,199.76306" />
    <path
       id="path2909"
       style="fill:#000000;fill-opacity:1;fill-rule:nonzero;stroke:none"
       d="M 200.17767,197.26306 L 200.80267,197.26306 L 200.80267,197.88806 L 197.05267,201.63806 L 196.42767,201.63806 L 196.42767,201.01306" />
    <path
       id="path2911"
       style="fill:#000000;fill-opacity:1;fill-rule:nonzero;stroke:none"
       d="M 200.17767,197.26306 L 200.80267,197.26306 L 203.30267,201.01306 L 203.30267,201.63806 L 202.67767,201.63806 L 200.17767,197.88806" />
    <path
       id="path2913"
       style="fill:#000000;fill-opacity:1;fill-rule:nonzero;stroke:none"
       d="M 205.17767,197.26306 L 205.80267,197.26306 L 205.80267,197.88806 L 203.30267,201.63806 L 202.67767,201.63806 L 202.67767,201.01306" />
    <path
       id="path2915"
       style="fill:#000000;fill-opacity:1;fill-rule:nonzero;stroke:none"
       d="M 205.17767,197.26306 L 205.80267,197.26306 L 208.30267,201.01306 L 208.30267,201.63806 L 207.67767,201.63806 L 205.17767,197.88806" />
    <path
       id="path2917"
       style="fill:#000000;fill-opacity:1;fill-rule:nonzero;stroke:none"
       d="M 210.17767,199.76306 L 210.80267,199.76306 L 210.80267,200.38806 L 208.30267,201.63806 L 207.67767,201.63806 L 207.67767,201.01306" />
    <path
       id="path2927"
       style="fill:#000000;fill-opacity:1;fill-rule:evenodd;stroke:none"
       d="M 120.17767,199.76306 L 121.42767,197.26306 L 123.92767,201.01306 L 126.42767,197.26306 L 128.92767,201.01306 L 132.67767,197.26306 L 135.17767,201.01306 L 137.67767,197.26306 L 140.17767,201.01306 L 142.67767,199.76306 L 142.67767,227.26306 L 120.17767,227.26306 L 120.17767,199.76306" />
    <path
       id="path2929"
       style="fill:#ffffff;fill-opacity:1;fill-rule:evenodd;stroke:none"
       d="M 120.80267,198.51306 C 121.21767,197.67681 121.42767,197.26306 121.42767,197.26306 C 121.42767,197.26306 121.84267,197.88431 122.67767,199.13806 C 123.50892,200.38431 123.92767,201.01306 123.92767,201.01306 C 123.92767,201.01306 124.34267,200.38431 125.17767,199.13806 C 126.00892,197.88431 126.42767,197.26306 126.42767,197.26306 C 126.42767,197.26306 126.84267,197.88431 127.67767,199.13806 C 128.50892,200.38431 128.92767,201.01306 128.92767,201.01306 C 128.92767,201.01306 129.55017,200.38431 130.80267,199.13806 C 132.05017,197.88431 132.67767,197.26306 132.67767,197.26306 C 132.67767,197.26306 133.09142,197.88431 133.92767,199.13806 C 134.75892,200.38431 135.17767,201.01306 135.17767,201.01306 C 135.17767,201.01306 135.59142,200.38431 136.42767,199.13806 C 137.25892,197.88431 137.67767,197.26306 137.67767,197.26306 C 137.67767,197.26306 138.09142,197.88431 138.92767,199.13806 C 139.75892,200.38431 140.17767,201.01306 140.17767,201.01306 C 140.17767,201.01306 140.59142,200.80181 141.42767,200.38806 C 142.25892,199.96806 142.67767,199.76306 142.67767,199.76306 C 142.67767,199.76306 142.67767,204.34306 142.67767,213.51306 C 142.67767,222.67681 142.67767,227.26306 142.67767,227.26306 C 142.67767,227.26306 138.92517,227.26306 131.42767,227.26306 C 123.92517,227.26306 120.17767,227.26306 120.17767,227.26306 C 120.17767,227.26306 120.17767,222.67681 120.17767,213.51306 C 120.17767,204.34306 120.17767,199.76306 120.17767,199.76306 C 120.17767,199.76306 120.38392,199.34306 120.80267,198.51306" />
    <path
       id="path2931"
       style="fill:none;stroke:#000000;stroke-width:0.625;stroke-linecap:butt;stroke-linejoin:miter;stroke-miterlimit:10;stroke-dasharray:none;stroke-opacity:1"
       d="M 120.80267,198.51306 C 121.21767,197.67681 121.42767,197.26306 121.42767,197.26306 C 121.42767,197.26306 121.84267,197.88431 122.67767,199.13806 C 123.50892,200.38431 123.92767,201.01306 123.92767,201.01306 C 123.92767,201.01306 124.34267,200.38431 125.17767,199.13806 C 126.00892,197.88431 126.42767,197.26306 126.42767,197.26306 C 126.42767,197.26306 126.84267,197.88431 127.67767,199.13806 C 128.50892,200.38431 128.92767,201.01306 128.92767,201.01306 C 128.92767,201.01306 129.55017,200.38431 130.80267,199.13806 C 132.05017,197.88431 132.67767,197.26306 132.67767,197.26306 C 132.67767,197.26306 133.09142,197.88431 133.92767,199.13806 C 134.75892,200.38431 135.17767,201.01306 135.17767,201.01306 C 135.17767,201.01306 135.59142,200.38431 136.42767,199.13806 C 137.25892,197.88431 137.67767,197.26306 137.67767,197.26306 C 137.67767,197.26306 138.09142,197.88431 138.92767,199.13806 C 139.75892,200.38431 140.17767,201.01306 140.17767,201.01306 C 140.17767,201.01306 140.59142,200.80181 141.42767,200.38806 C 142.25892,199.96806 142.67767,199.76306 142.67767,199.76306 C 142.67767,199.76306 142.67767,204.34306 142.67767,213.51306 C 142.67767,222.67681 142.67767,227.26306 142.67767,227.26306 C 142.67767,227.26306 138.92517,227.26306 131.42767,227.26306 C 123.92517,227.26306 120.17767,227.26306 120.17767,227.26306 C 120.17767,227.26306 120.17767,222.67681 120.17767,213.51306 C 120.17767,204.34306 120.17767,199.76306 120.17767,199.76306 C 120.17767,199.76306 120.38392,199.34306 120.80267,198.51306 z" />
    <text
       id="text2943"
       x="126.42767"
       y="216.01306"
       style="font-size:15px">
      <tspan
         style="font-size:11.25px;font-variant:normal;font-weight:bold;writing-mode:lr-tb;fill:#000000;fill-opacity:1;fill-rule:nonzero;stroke:none;font-family:Helvetica;-inkscape-font-specification:Helvetica-Bold"
         x="126.42767"
         y="216.01306"
         id="tspan2945">G</tspan>
    </text>
    <path
       id="path2955"
       style="fill:#000000;fill-opacity:1;fill-rule:nonzero;stroke:none"
       d="M 126.42767,197.26306 L 127.05267,197.26306 L 129.55267,201.01306 L 129.55267,201.63806 L 128.92767,201.63806 L 126.42767,197.88806" />
    <path
       id="path2957"
       style="fill:#000000;fill-opacity:1;fill-rule:nonzero;stroke:none"
       d="M 126.42767,197.26306 L 127.05267,197.26306 L 127.05267,197.88806 L 124.55267,201.63806 L 123.92767,201.63806 L 123.92767,201.01306" />
    <path
       id="path2959"
       style="fill:#000000;fill-opacity:1;fill-rule:nonzero;stroke:none"
       d="M 121.42767,197.26306 L 122.05267,197.26306 L 124.55267,201.01306 L 124.55267,201.63806 L 123.92767,201.63806 L 121.42767,197.88806" />
    <path
       id="path2961"
       style="fill:#000000;fill-opacity:1;fill-rule:nonzero;stroke:none"
       d="M 121.42767,197.26306 L 122.05267,197.26306 L 122.05267,197.88806 L 120.80267,200.38806 L 120.17767,200.38806 L 120.17767,199.76306" />
    <path
       id="path2963"
       style="fill:#000000;fill-opacity:1;fill-rule:nonzero;stroke:none"
       d="M 132.67767,197.26306 L 133.30267,197.26306 L 133.30267,197.88806 L 129.55267,201.63806 L 128.92767,201.63806 L 128.92767,201.01306" />
    <path
       id="path2965"
       style="fill:#000000;fill-opacity:1;fill-rule:nonzero;stroke:none"
       d="M 132.67767,197.26306 L 133.30267,197.26306 L 135.80267,201.01306 L 135.80267,201.63806 L 135.17767,201.63806 L 132.67767,197.88806" />
    <path
       id="path2967"
       style="fill:#000000;fill-opacity:1;fill-rule:nonzero;stroke:none"
       d="M 137.67767,197.26306 L 138.30267,197.26306 L 138.30267,197.88806 L 135.80267,201.63806 L 135.17767,201.63806 L 135.17767,201.01306" />
    <path
       id="path2969"
       style="fill:#000000;fill-opacity:1;fill-rule:nonzero;stroke:none"
       d="M 137.67767,197.26306 L 138.30267,197.26306 L 140.80267,201.01306 L 140.80267,201.63806 L 140.17767,201.63806 L 137.67767,197.88806" />
    <path
       id="path2971"
       style="fill:#000000;fill-opacity:1;fill-rule:nonzero;stroke:none"
       d="M 142.67767,199.76306 L 143.30267,199.76306 L 143.30267,200.38806 L 140.80267,201.63806 L 140.17767,201.63806 L 140.17767,201.01306" />
    <path
       id="path2981"
       style="fill:#000000;fill-opacity:1;fill-rule:evenodd;stroke:none"
       d="M 86.427674,199.76306 L 87.677674,197.26306 L 90.177674,201.01306 L 92.677674,197.26306 L 95.177674,201.01306 L 98.927674,197.26306 L 101.42767,201.01306 L 103.92767,197.26306 L 106.42767,201.01306 L 108.92767,199.76306 L 108.92767,227.26306 L 86.427674,227.26306 L 86.427674,199.76306" />
    <path
       id="path2983"
       style="fill:#ffffff;fill-opacity:1;fill-rule:evenodd;stroke:none"
       d="M 87.052674,198.51306 C 87.467174,197.67681 87.677674,197.26306 87.677674,197.26306 C 87.677674,197.26306 88.092174,197.88431 88.927674,199.13806 C 89.758674,200.38431 90.177674,201.01306 90.177674,201.01306 C 90.177674,201.01306 90.592174,200.38431 91.427674,199.13806 C 92.258674,197.88431 92.677674,197.26306 92.677674,197.26306 C 92.677674,197.26306 93.092174,197.88431 93.927674,199.13806 C 94.758674,200.38431 95.177674,201.01306 95.177674,201.01306 C 95.177674,201.01306 95.801174,200.38431 97.052674,199.13806 C 98.301174,197.88431 98.927674,197.26306 98.927674,197.26306 C 98.927674,197.26306 99.342174,197.88431 100.17767,199.13806 C 101.00867,200.38431 101.42767,201.01306 101.42767,201.01306 C 101.42767,201.01306 101.84217,200.38431 102.67767,199.13806 C 103.50867,197.88431 103.92767,197.26306 103.92767,197.26306 C 103.92767,197.26306 104.34267,197.88431 105.17767,199.13806 C 106.00892,200.38431 106.42767,201.01306 106.42767,201.01306 C 106.42767,201.01306 106.84267,200.80181 107.67767,200.38806 C 108.50892,199.96806 108.92767,199.76306 108.92767,199.76306 C 108.92767,199.76306 108.92767,204.34306 108.92767,213.51306 C 108.92767,222.67681 108.92767,227.26306 108.92767,227.26306 C 108.92767,227.26306 105.17642,227.26306 97.677674,227.26306 C 90.176174,227.26306 86.427674,227.26306 86.427674,227.26306 C 86.427674,227.26306 86.427674,222.67681 86.427674,213.51306 C 86.427674,204.34306 86.427674,199.76306 86.427674,199.76306 C 86.427674,199.76306 86.633674,199.34306 87.052674,198.51306" />
    <path
       id="path2985"
       style="fill:none;stroke:#000000;stroke-width:0.625;stroke-linecap:butt;stroke-linejoin:miter;stroke-miterlimit:10;stroke-dasharray:none;stroke-opacity:1"
       d="M 87.052674,198.51306 C 87.467174,197.67681 87.677674,197.26306 87.677674,197.26306 C 87.677674,197.26306 88.092174,197.88431 88.927674,199.13806 C 89.758674,200.38431 90.177674,201.01306 90.177674,201.01306 C 90.177674,201.01306 90.592174,200.38431 91.427674,199.13806 C 92.258674,197.88431 92.677674,197.26306 92.677674,197.26306 C 92.677674,197.26306 93.092174,197.88431 93.927674,199.13806 C 94.758674,200.38431 95.177674,201.01306 95.177674,201.01306 C 95.177674,201.01306 95.801174,200.38431 97.052674,199.13806 C 98.301174,197.88431 98.927674,197.26306 98.927674,197.26306 C 98.927674,197.26306 99.342174,197.88431 100.17767,199.13806 C 101.00867,200.38431 101.42767,201.01306 101.42767,201.01306 C 101.42767,201.01306 101.84217,200.38431 102.67767,199.13806 C 103.50867,197.88431 103.92767,197.26306 103.92767,197.26306 C 103.92767,197.26306 104.34267,197.88431 105.17767,199.13806 C 106.00892,200.38431 106.42767,201.01306 106.42767,201.01306 C 106.42767,201.01306 106.84267,200.80181 107.67767,200.38806 C 108.50892,199.96806 108.92767,199.76306 108.92767,199.76306 C 108.92767,199.76306 108.92767,204.34306 108.92767,213.51306 C 108.92767,222.67681 108.92767,227.26306 108.92767,227.26306 C 108.92767,227.26306 105.17642,227.26306 97.677674,227.26306 C 90.176174,227.26306 86.427674,227.26306 86.427674,227.26306 C 86.427674,227.26306 86.427674,222.67681 86.427674,213.51306 C 86.427674,204.34306 86.427674,199.76306 86.427674,199.76306 C 86.427674,199.76306 86.633674,199.34306 87.052674,198.51306 z" />
    <text
       id="text2997"
       x="92.677673"
       y="216.01306"
       style="font-size:15px">
      <tspan
         style="font-size:11.25px;font-variant:normal;font-weight:bold;writing-mode:lr-tb;fill:#000000;fill-opacity:1;fill-rule:nonzero;stroke:none;font-family:Helvetica;-inkscape-font-specification:Helvetica-Bold"
         x="92.677673"
         y="216.01306"
         id="tspan2999">G</tspan>
    </text>
    <path
       id="path3009"
       style="fill:#000000;fill-opacity:1;fill-rule:nonzero;stroke:none"
       d="M 92.677674,197.26306 L 93.302674,197.26306 L 95.802674,201.01306 L 95.802674,201.63806 L 95.177674,201.63806 L 92.677674,197.88806" />
    <path
       id="path3011"
       style="fill:#000000;fill-opacity:1;fill-rule:nonzero;stroke:none"
       d="M 92.677674,197.26306 L 93.302674,197.26306 L 93.302674,197.88806 L 90.802674,201.63806 L 90.177674,201.63806 L 90.177674,201.01306" />
    <path
       id="path3013"
       style="fill:#000000;fill-opacity:1;fill-rule:nonzero;stroke:none"
       d="M 87.677674,197.26306 L 88.302674,197.26306 L 90.802674,201.01306 L 90.802674,201.63806 L 90.177674,201.63806 L 87.677674,197.88806" />
    <path
       id="path3015"
       style="fill:#000000;fill-opacity:1;fill-rule:nonzero;stroke:none"
       d="M 87.677674,197.26306 L 88.302674,197.26306 L 88.302674,197.88806 L 87.052674,200.38806 L 86.427674,200.38806 L 86.427674,199.76306" />
    <path
       id="path3017"
       style="fill:#000000;fill-opacity:1;fill-rule:nonzero;stroke:none"
       d="M 98.927674,197.26306 L 99.552674,197.26306 L 99.552674,197.88806 L 95.802674,201.63806 L 95.177674,201.63806 L 95.177674,201.01306" />
    <path
       id="path3019"
       style="fill:#000000;fill-opacity:1;fill-rule:nonzero;stroke:none"
       d="M 98.927674,197.26306 L 99.552674,197.26306 L 102.05267,201.01306 L 102.05267,201.63806 L 101.42767,201.63806 L 98.927674,197.88806" />
    <path
       id="path3021"
       style="fill:#000000;fill-opacity:1;fill-rule:nonzero;stroke:none"
       d="M 103.92767,197.26306 L 104.55267,197.26306 L 104.55267,197.88806 L 102.05267,201.63806 L 101.42767,201.63806 L 101.42767,201.01306" />
    <path
       id="path3023"
       style="fill:#000000;fill-opacity:1;fill-rule:nonzero;stroke:none"
       d="M 103.92767,197.26306 L 104.55267,197.26306 L 107.05267,201.01306 L 107.05267,201.63806 L 106.42767,201.63806 L 103.92767,197.88806" />
    <path
       id="path3025"
       style="fill:#000000;fill-opacity:1;fill-rule:nonzero;stroke:none"
       d="M 108.92767,199.76306 L 109.55267,199.76306 L 109.55267,200.38806 L 107.05267,201.63806 L 106.42767,201.63806 L 106.42767,201.01306" />
    <path
       id="path3035"
       style="fill:#000000;fill-opacity:1;fill-rule:evenodd;stroke:none"
       d="M 187.67767,137.26306 L 188.92767,136.01306 L 191.42767,138.51306 L 193.92767,136.01306 L 196.42767,138.51306 L 200.17767,136.01306 L 202.67767,138.51306 L 205.17767,136.01306 L 207.67767,138.51306 L 210.17767,137.26306 L 210.17767,128.51306 L 187.67767,128.51306 L 187.67767,137.26306" />
    <path
       id="path3037"
       style="fill:#ffffff;fill-opacity:1;fill-rule:evenodd;stroke:none"
       d="M 188.30267,136.63806 C 188.71642,136.21931 188.92767,136.01306 188.92767,136.01306 C 188.92767,136.01306 189.34142,136.42806 190.17767,137.26306 C 191.00767,138.09431 191.42767,138.51306 191.42767,138.51306 C 191.42767,138.51306 191.84142,138.09431 192.67767,137.26306 C 193.50767,136.42806 193.92767,136.01306 193.92767,136.01306 C 193.92767,136.01306 194.34142,136.42806 195.17767,137.26306 C 196.00767,138.09431 196.42767,138.51306 196.42767,138.51306 C 196.42767,138.51306 197.04892,138.09431 198.30267,137.26306 C 199.54892,136.42806 200.17767,136.01306 200.17767,136.01306 C 200.17767,136.01306 200.59142,136.42806 201.42767,137.26306 C 202.25767,138.09431 202.67767,138.51306 202.67767,138.51306 C 202.67767,138.51306 203.09142,138.09431 203.92767,137.26306 C 204.75767,136.42806 205.17767,136.01306 205.17767,136.01306 C 205.17767,136.01306 205.59142,136.42806 206.42767,137.26306 C 207.25767,138.09431 207.67767,138.51306 207.67767,138.51306 C 207.67767,138.51306 208.09142,138.30306 208.92767,137.88806 C 209.75767,137.46931 210.17767,137.26306 210.17767,137.26306 C 210.17767,137.26306 210.17767,135.80306 210.17767,132.88806 C 210.17767,129.96931 210.17767,128.51306 210.17767,128.51306 C 210.17767,128.51306 206.42392,128.51306 198.92767,128.51306 C 191.42392,128.51306 187.67767,128.51306 187.67767,128.51306 C 187.67767,128.51306 187.67767,129.96931 187.67767,132.88806 C 187.67767,135.80306 187.67767,137.26306 187.67767,137.26306 C 187.67767,137.26306 187.88267,137.05306 188.30267,136.63806" />
    <path
       id="path3039"
       style="fill:none;stroke:#000000;stroke-width:0.625;stroke-linecap:butt;stroke-linejoin:miter;stroke-miterlimit:10;stroke-dasharray:none;stroke-opacity:1"
       d="M 188.30267,136.63806 C 188.71642,136.21931 188.92767,136.01306 188.92767,136.01306 C 188.92767,136.01306 189.34142,136.42806 190.17767,137.26306 C 191.00767,138.09431 191.42767,138.51306 191.42767,138.51306 C 191.42767,138.51306 191.84142,138.09431 192.67767,137.26306 C 193.50767,136.42806 193.92767,136.01306 193.92767,136.01306 C 193.92767,136.01306 194.34142,136.42806 195.17767,137.26306 C 196.00767,138.09431 196.42767,138.51306 196.42767,138.51306 C 196.42767,138.51306 197.04892,138.09431 198.30267,137.26306 C 199.54892,136.42806 200.17767,136.01306 200.17767,136.01306 C 200.17767,136.01306 200.59142,136.42806 201.42767,137.26306 C 202.25767,138.09431 202.67767,138.51306 202.67767,138.51306 C 202.67767,138.51306 203.09142,138.09431 203.92767,137.26306 C 204.75767,136.42806 205.17767,136.01306 205.17767,136.01306 C 205.17767,136.01306 205.59142,136.42806 206.42767,137.26306 C 207.25767,138.09431 207.67767,138.51306 207.67767,138.51306 C 207.67767,138.51306 208.09142,138.30306 208.92767,137.88806 C 209.75767,137.46931 210.17767,137.26306 210.17767,137.26306 C 210.17767,137.26306 210.17767,135.80306 210.17767,132.88806 C 210.17767,129.96931 210.17767,128.51306 210.17767,128.51306 C 210.17767,128.51306 206.42392,128.51306 198.92767,128.51306 C 191.42392,128.51306 187.67767,128.51306 187.67767,128.51306 C 187.67767,128.51306 187.67767,129.96931 187.67767,132.88806 C 187.67767,135.80306 187.67767,137.26306 187.67767,137.26306 C 187.67767,137.26306 187.88267,137.05306 188.30267,136.63806 z" />
    <path
       id="path3041"
       style="fill:#000000;fill-opacity:1;fill-rule:evenodd;stroke:none"
       d="M 221.42767,137.26306 L 222.67767,136.01306 L 225.17767,138.51306 L 227.67767,136.01306 L 230.17767,138.51306 L 233.92767,136.01306 L 236.42767,138.51306 L 238.92767,136.01306 L 241.42767,138.51306 L 243.92767,137.26306 L 243.92767,128.51306 L 221.42767,128.51306 L 221.42767,137.26306" />
    <path
       id="path3043"
       style="fill:#ffffff;fill-opacity:1;fill-rule:evenodd;stroke:none"
       d="M 222.05267,136.63806 C 222.46517,136.21931 222.67767,136.01306 222.67767,136.01306 C 222.67767,136.01306 223.09017,136.42806 223.92767,137.26306 C 224.75767,138.09431 225.17767,138.51306 225.17767,138.51306 C 225.17767,138.51306 225.59017,138.09431 226.42767,137.26306 C 227.25767,136.42806 227.67767,136.01306 227.67767,136.01306 C 227.67767,136.01306 228.09017,136.42806 228.92767,137.26306 C 229.75767,138.09431 230.17767,138.51306 230.17767,138.51306 C 230.17767,138.51306 230.79892,138.09431 232.05267,137.26306 C 233.29892,136.42806 233.92767,136.01306 233.92767,136.01306 C 233.92767,136.01306 234.34017,136.42806 235.17767,137.26306 C 236.00767,138.09431 236.42767,138.51306 236.42767,138.51306 C 236.42767,138.51306 236.84017,138.09431 237.67767,137.26306 C 238.50767,136.42806 238.92767,136.01306 238.92767,136.01306 C 238.92767,136.01306 239.34017,136.42806 240.17767,137.26306 C 241.00642,138.09431 241.42767,138.51306 241.42767,138.51306 C 241.42767,138.51306 241.84017,138.30306 242.67767,137.88806 C 243.50642,137.46931 243.92767,137.26306 243.92767,137.26306 C 243.92767,137.26306 243.92767,135.80306 243.92767,132.88806 C 243.92767,129.96931 243.92767,128.51306 243.92767,128.51306 C 243.92767,128.51306 240.17392,128.51306 232.67767,128.51306 C 225.17392,128.51306 221.42767,128.51306 221.42767,128.51306 C 221.42767,128.51306 221.42767,129.96931 221.42767,132.88806 C 221.42767,135.80306 221.42767,137.26306 221.42767,137.26306 C 221.42767,137.26306 221.63267,137.05306 222.05267,136.63806" />
    <path
       id="path3045"
       style="fill:none;stroke:#000000;stroke-width:0.625;stroke-linecap:butt;stroke-linejoin:miter;stroke-miterlimit:10;stroke-dasharray:none;stroke-opacity:1"
       d="M 222.05267,136.63806 C 222.46517,136.21931 222.67767,136.01306 222.67767,136.01306 C 222.67767,136.01306 223.09017,136.42806 223.92767,137.26306 C 224.75767,138.09431 225.17767,138.51306 225.17767,138.51306 C 225.17767,138.51306 225.59017,138.09431 226.42767,137.26306 C 227.25767,136.42806 227.67767,136.01306 227.67767,136.01306 C 227.67767,136.01306 228.09017,136.42806 228.92767,137.26306 C 229.75767,138.09431 230.17767,138.51306 230.17767,138.51306 C 230.17767,138.51306 230.79892,138.09431 232.05267,137.26306 C 233.29892,136.42806 233.92767,136.01306 233.92767,136.01306 C 233.92767,136.01306 234.34017,136.42806 235.17767,137.26306 C 236.00767,138.09431 236.42767,138.51306 236.42767,138.51306 C 236.42767,138.51306 236.84017,138.09431 237.67767,137.26306 C 238.50767,136.42806 238.92767,136.01306 238.92767,136.01306 C 238.92767,136.01306 239.34017,136.42806 240.17767,137.26306 C 241.00642,138.09431 241.42767,138.51306 241.42767,138.51306 C 241.42767,138.51306 241.84017,138.30306 242.67767,137.88806 C 243.50642,137.46931 243.92767,137.26306 243.92767,137.26306 C 243.92767,137.26306 243.92767,135.80306 243.92767,132.88806 C 243.92767,129.96931 243.92767,128.51306 243.92767,128.51306 C 243.92767,128.51306 240.17392,128.51306 232.67767,128.51306 C 225.17392,128.51306 221.42767,128.51306 221.42767,128.51306 C 221.42767,128.51306 221.42767,129.96931 221.42767,132.88806 C 221.42767,135.80306 221.42767,137.26306 221.42767,137.26306 C 221.42767,137.26306 221.63267,137.05306 222.05267,136.63806 z" />
    <path
       id="path3047"
       style="fill:#000000;fill-opacity:1;fill-rule:evenodd;stroke:none"
       d="M 120.17767,137.26306 L 121.42767,136.01306 L 123.92767,138.51306 L 126.42767,136.01306 L 128.92767,138.51306 L 132.67767,136.01306 L 135.17767,138.51306 L 137.67767,136.01306 L 140.17767,138.51306 L 142.67767,137.26306 L 142.67767,128.51306 L 120.17767,128.51306 L 120.17767,137.26306" />
    <path
       id="path3049"
       style="fill:#ffffff;fill-opacity:1;fill-rule:evenodd;stroke:none"
       d="M 120.80267,136.63806 C 121.21767,136.21931 121.42767,136.01306 121.42767,136.01306 C 121.42767,136.01306 121.84267,136.42806 122.67767,137.26306 C 123.50892,138.09431 123.92767,138.51306 123.92767,138.51306 C 123.92767,138.51306 124.34267,138.09431 125.17767,137.26306 C 126.00892,136.42806 126.42767,136.01306 126.42767,136.01306 C 126.42767,136.01306 126.84267,136.42806 127.67767,137.26306 C 128.50892,138.09431 128.92767,138.51306 128.92767,138.51306 C 128.92767,138.51306 129.55017,138.09431 130.80267,137.26306 C 132.05017,136.42806 132.67767,136.01306 132.67767,136.01306 C 132.67767,136.01306 133.09142,136.42806 133.92767,137.26306 C 134.75892,138.09431 135.17767,138.51306 135.17767,138.51306 C 135.17767,138.51306 135.59142,138.09431 136.42767,137.26306 C 137.25892,136.42806 137.67767,136.01306 137.67767,136.01306 C 137.67767,136.01306 138.09142,136.42806 138.92767,137.26306 C 139.75892,138.09431 140.17767,138.51306 140.17767,138.51306 C 140.17767,138.51306 140.59142,138.30306 141.42767,137.88806 C 142.25892,137.46931 142.67767,137.26306 142.67767,137.26306 C 142.67767,137.26306 142.67767,135.80306 142.67767,132.88806 C 142.67767,129.96931 142.67767,128.51306 142.67767,128.51306 C 142.67767,128.51306 138.92517,128.51306 131.42767,128.51306 C 123.92517,128.51306 120.17767,128.51306 120.17767,128.51306 C 120.17767,128.51306 120.17767,129.96931 120.17767,132.88806 C 120.17767,135.80306 120.17767,137.26306 120.17767,137.26306 C 120.17767,137.26306 120.38392,137.05306 120.80267,136.63806" />
    <path
       id="path3051"
       style="fill:none;stroke:#000000;stroke-width:0.625;stroke-linecap:butt;stroke-linejoin:miter;stroke-miterlimit:10;stroke-dasharray:none;stroke-opacity:1"
       d="M 120.80267,136.63806 C 121.21767,136.21931 121.42767,136.01306 121.42767,136.01306 C 121.42767,136.01306 121.84267,136.42806 122.67767,137.26306 C 123.50892,138.09431 123.92767,138.51306 123.92767,138.51306 C 123.92767,138.51306 124.34267,138.09431 125.17767,137.26306 C 126.00892,136.42806 126.42767,136.01306 126.42767,136.01306 C 126.42767,136.01306 126.84267,136.42806 127.67767,137.26306 C 128.50892,138.09431 128.92767,138.51306 128.92767,138.51306 C 128.92767,138.51306 129.55017,138.09431 130.80267,137.26306 C 132.05017,136.42806 132.67767,136.01306 132.67767,136.01306 C 132.67767,136.01306 133.09142,136.42806 133.92767,137.26306 C 134.75892,138.09431 135.17767,138.51306 135.17767,138.51306 C 135.17767,138.51306 135.59142,138.09431 136.42767,137.26306 C 137.25892,136.42806 137.67767,136.01306 137.67767,136.01306 C 137.67767,136.01306 138.09142,136.42806 138.92767,137.26306 C 139.75892,138.09431 140.17767,138.51306 140.17767,138.51306 C 140.17767,138.51306 140.59142,138.30306 141.42767,137.88806 C 142.25892,137.46931 142.67767,137.26306 142.67767,137.26306 C 142.67767,137.26306 142.67767,135.80306 142.67767,132.88806 C 142.67767,129.96931 142.67767,128.51306 142.67767,128.51306 C 142.67767,128.51306 138.92517,128.51306 131.42767,128.51306 C 123.92517,128.51306 120.17767,128.51306 120.17767,128.51306 C 120.17767,128.51306 120.17767,129.96931 120.17767,132.88806 C 120.17767,135.80306 120.17767,137.26306 120.17767,137.26306 C 120.17767,137.26306 120.38392,137.05306 120.80267,136.63806 z" />
    <path
       id="path3053"
       style="fill:#000000;fill-opacity:1;fill-rule:evenodd;stroke:none"
       d="M 86.427674,137.26306 L 87.677674,136.01306 L 90.177674,138.51306 L 92.677674,136.01306 L 95.177674,138.51306 L 98.927674,136.01306 L 101.42767,138.51306 L 103.92767,136.01306 L 106.42767,138.51306 L 108.92767,137.26306 L 108.92767,128.51306 L 86.427674,128.51306 L 86.427674,137.26306" />
    <path
       id="path3055"
       style="fill:#ffffff;fill-opacity:1;fill-rule:evenodd;stroke:none"
       d="M 87.052674,136.63806 C 87.467174,136.21931 87.677674,136.01306 87.677674,136.01306 C 87.677674,136.01306 88.092174,136.42806 88.927674,137.26306 C 89.758674,138.09431 90.177674,138.51306 90.177674,138.51306 C 90.177674,138.51306 90.592174,138.09431 91.427674,137.26306 C 92.258674,136.42806 92.677674,136.01306 92.677674,136.01306 C 92.677674,136.01306 93.092174,136.42806 93.927674,137.26306 C 94.758674,138.09431 95.177674,138.51306 95.177674,138.51306 C 95.177674,138.51306 95.801174,138.09431 97.052674,137.26306 C 98.301174,136.42806 98.927674,136.01306 98.927674,136.01306 C 98.927674,136.01306 99.342174,136.42806 100.17767,137.26306 C 101.00867,138.09431 101.42767,138.51306 101.42767,138.51306 C 101.42767,138.51306 101.84217,138.09431 102.67767,137.26306 C 103.50867,136.42806 103.92767,136.01306 103.92767,136.01306 C 103.92767,136.01306 104.34267,136.42806 105.17767,137.26306 C 106.00892,138.09431 106.42767,138.51306 106.42767,138.51306 C 106.42767,138.51306 106.84267,138.30306 107.67767,137.88806 C 108.50892,137.46931 108.92767,137.26306 108.92767,137.26306 C 108.92767,137.26306 108.92767,135.80306 108.92767,132.88806 C 108.92767,129.96931 108.92767,128.51306 108.92767,128.51306 C 108.92767,128.51306 105.17642,128.51306 97.677674,128.51306 C 90.176174,128.51306 86.427674,128.51306 86.427674,128.51306 C 86.427674,128.51306 86.427674,129.96931 86.427674,132.88806 C 86.427674,135.80306 86.427674,137.26306 86.427674,137.26306 C 86.427674,137.26306 86.633674,137.05306 87.052674,136.63806" />
    <path
       id="path3057"
       style="fill:none;stroke:#000000;stroke-width:0.625;stroke-linecap:butt;stroke-linejoin:miter;stroke-miterlimit:10;stroke-dasharray:none;stroke-opacity:1"
       d="M 87.052674,136.63806 C 87.467174,136.21931 87.677674,136.01306 87.677674,136.01306 C 87.677674,136.01306 88.092174,136.42806 88.927674,137.26306 C 89.758674,138.09431 90.177674,138.51306 90.177674,138.51306 C 90.177674,138.51306 90.592174,138.09431 91.427674,137.26306 C 92.258674,136.42806 92.677674,136.01306 92.677674,136.01306 C 92.677674,136.01306 93.092174,136.42806 93.927674,137.26306 C 94.758674,138.09431 95.177674,138.51306 95.177674,138.51306 C 95.177674,138.51306 95.801174,138.09431 97.052674,137.26306 C 98.301174,136.42806 98.927674,136.01306 98.927674,136.01306 C 98.927674,136.01306 99.342174,136.42806 100.17767,137.26306 C 101.00867,138.09431 101.42767,138.51306 101.42767,138.51306 C 101.42767,138.51306 101.84217,138.09431 102.67767,137.26306 C 103.50867,136.42806 103.92767,136.01306 103.92767,136.01306 C 103.92767,136.01306 104.34267,136.42806 105.17767,137.26306 C 106.00892,138.09431 106.42767,138.51306 106.42767,138.51306 C 106.42767,138.51306 106.84267,138.30306 107.67767,137.88806 C 108.50892,137.46931 108.92767,137.26306 108.92767,137.26306 C 108.92767,137.26306 108.92767,135.80306 108.92767,132.88806 C 108.92767,129.96931 108.92767,128.51306 108.92767,128.51306 C 108.92767,128.51306 105.17642,128.51306 97.677674,128.51306 C 90.176174,128.51306 86.427674,128.51306 86.427674,128.51306 C 86.427674,128.51306 86.427674,129.96931 86.427674,132.88806 C 86.427674,135.80306 86.427674,137.26306 86.427674,137.26306 C 86.427674,137.26306 86.633674,137.05306 87.052674,136.63806 z" />
    <path
       id="path3067"
       style="fill:#000000;fill-opacity:1;fill-rule:nonzero;stroke:none"
       d="M 221.42767,128.51306 L 222.67767,128.51306 L 222.67767,138.51306 L 221.42767,138.51306 L 221.42767,137.26306" />
    <path
       id="path3069"
       style="fill:#000000;fill-opacity:1;fill-rule:nonzero;stroke:none"
       d="M 221.42767,128.51306 L 245.17767,128.51306 L 245.17767,129.76306 L 221.42767,129.76306" />
    <path
       id="path3071"
       style="fill:#000000;fill-opacity:1;fill-rule:nonzero;stroke:none"
       d="M 243.92767,128.51306 L 245.17767,128.51306 L 245.17767,138.51306 L 243.92767,138.51306 L 243.92767,137.26306" />
    <path
       id="path3073"
       style="fill:#000000;fill-opacity:1;fill-rule:nonzero;stroke:none"
       d="M 187.67767,128.51306 L 188.92767,128.51306 L 188.92767,138.51306 L 187.67767,138.51306 L 187.67767,137.26306" />
    <path
       id="path3075"
       style="fill:#000000;fill-opacity:1;fill-rule:nonzero;stroke:none"
       d="M 187.67767,128.51306 L 211.42767,128.51306 L 211.42767,129.76306 L 187.67767,129.76306" />
    <path
       id="path3077"
       style="fill:#000000;fill-opacity:1;fill-rule:nonzero;stroke:none"
       d="M 210.17767,128.51306 L 211.42767,128.51306 L 211.42767,138.51306 L 210.17767,138.51306 L 210.17767,137.26306" />
    <path
       id="path3079"
       style="fill:#000000;fill-opacity:1;fill-rule:nonzero;stroke:none"
       d="M 120.17767,128.51306 L 121.42767,128.51306 L 121.42767,138.51306 L 120.17767,138.51306 L 120.17767,137.26306" />
    <path
       id="path3081"
       style="fill:#000000;fill-opacity:1;fill-rule:nonzero;stroke:none"
       d="M 120.17767,128.51306 L 143.92767,128.51306 L 143.92767,129.76306 L 120.17767,129.76306" />
    <path
       id="path3083"
       style="fill:#000000;fill-opacity:1;fill-rule:nonzero;stroke:none"
       d="M 86.427674,128.51306 L 87.677674,128.51306 L 87.677674,138.51306 L 86.427674,138.51306 L 86.427674,137.26306" />
    <path
       id="path3085"
       style="fill:#000000;fill-opacity:1;fill-rule:nonzero;stroke:none"
       d="M 86.427674,128.51306 L 110.17767,128.51306 L 110.17767,129.76306 L 86.427674,129.76306" />
    <path
       id="path3087"
       style="fill:#000000;fill-opacity:1;fill-rule:nonzero;stroke:none"
       d="M 108.92767,128.51306 L 110.17767,128.51306 L 110.17767,138.51306 L 108.92767,138.51306 L 108.92767,137.26306" />
    <path
       id="path3089"
       style="fill:#000000;fill-opacity:1;fill-rule:nonzero;stroke:none"
       d="M 142.67767,128.51306 L 143.92767,128.51306 L 143.92767,138.51306 L 142.67767,138.51306 L 142.67767,137.26306" />
    <path
       id="path3091"
       style="fill:#000000;fill-opacity:1;fill-rule:nonzero;stroke:none"
       d="M 221.42767,199.76306 L 222.67767,199.76306 L 222.67767,228.51306 L 221.42767,228.51306 L 221.42767,227.26306" />
    <path
       id="path3093"
       style="fill:#000000;fill-opacity:1;fill-rule:nonzero;stroke:none"
       d="M 243.92767,199.76306 L 245.17767,199.76306 L 245.17767,228.51306 L 243.92767,228.51306 L 243.92767,227.26306" />
    <path
       id="path3095"
       style="fill:#000000;fill-opacity:1;fill-rule:nonzero;stroke:none"
       d="M 221.42767,227.26306 L 245.17767,227.26306 L 245.17767,228.51306 L 221.42767,228.51306" />
    <path
       id="path3097"
       style="fill:#000000;fill-opacity:1;fill-rule:nonzero;stroke:none"
       d="M 187.67767,199.76306 L 188.92767,199.76306 L 188.92767,228.51306 L 187.67767,228.51306 L 187.67767,227.26306" />
    <path
       id="path3099"
       style="fill:#000000;fill-opacity:1;fill-rule:nonzero;stroke:none"
       d="M 210.17767,199.76306 L 211.42767,199.76306 L 211.42767,228.51306 L 210.17767,228.51306 L 210.17767,227.26306" />
    <path
       id="path3101"
       style="fill:#000000;fill-opacity:1;fill-rule:nonzero;stroke:none"
       d="M 187.67767,227.26306 L 211.42767,227.26306 L 211.42767,228.51306 L 187.67767,228.51306" />
    <path
       id="path3103"
       style="fill:#000000;fill-opacity:1;fill-rule:nonzero;stroke:none"
       d="M 120.17767,199.76306 L 121.42767,199.76306 L 121.42767,228.51306 L 120.17767,228.51306 L 120.17767,227.26306" />
    <path
       id="path3105"
       style="fill:#000000;fill-opacity:1;fill-rule:nonzero;stroke:none"
       d="M 142.67767,199.76306 L 143.92767,199.76306 L 143.92767,228.51306 L 142.67767,228.51306 L 142.67767,227.26306" />
    <path
       id="path3107"
       style="fill:#000000;fill-opacity:1;fill-rule:nonzero;stroke:none"
       d="M 120.17767,227.26306 L 143.92767,227.26306 L 143.92767,228.51306 L 120.17767,228.51306" />
    <path
       id="path3109"
       style="fill:#000000;fill-opacity:1;fill-rule:nonzero;stroke:none"
       d="M 86.427674,199.76306 L 87.677674,199.76306 L 87.677674,228.51306 L 86.427674,228.51306 L 86.427674,227.26306" />
    <path
       id="path3111"
       style="fill:#000000;fill-opacity:1;fill-rule:nonzero;stroke:none"
       d="M 108.92767,199.76306 L 110.17767,199.76306 L 110.17767,228.51306 L 108.92767,228.51306 L 108.92767,227.26306" />
    <path
       id="path3113"
       style="fill:#000000;fill-opacity:1;fill-rule:nonzero;stroke:none"
       d="M 86.427674,227.26306 L 110.17767,227.26306 L 110.17767,228.51306 L 86.427674,228.51306" />
    <text
       xml:space="preserve"
       style="font-size:12.5px;font-style:normal;font-variant:normal;font-weight:normal;font-stretch:normal;text-align:center;text-anchor:middle;fill:#000000;fill-opacity:1;stroke:none;stroke-width:1px;stroke-linecap:butt;stroke-linejoin:miter;stroke-opacity:1;font-family:Arial;-inkscape-font-specification:Arial"
       x="173.74625"
       y="88.676651"
       id="text12615"><tspan
         sodipodi:role="line"
         id="tspan12617"
         x="173.74625"
         y="88.676651">Grafische Datenbank</tspan><tspan
         sodipodi:role="line"
         x="173.74625"
         y="104.30165"
         id="tspan12619">(beliebig partitioniert)</tspan></text>
    <text
       xml:space="preserve"
       style="font-size:12.5px;font-style:normal;font-variant:normal;font-weight:normal;font-stretch:normal;text-align:center;text-anchor:middle;fill:#000000;fill-opacity:1;stroke:none;stroke-width:1px;stroke-linecap:butt;stroke-linejoin:miter;stroke-opacity:1;font-family:Arial;-inkscape-font-specification:Arial"
       x="162.98486"
       y="163.87209"
       id="text12641"><tspan
         sodipodi:role="line"
         id="tspan12643"
         x="164.71826"
         y="163.87209">Umverteilung von </tspan><tspan
         sodipodi:role="line"
         x="162.98486"
         y="179.49709"
         id="tspan12645">unbearbeiteten Primitiven</tspan></text>
  </g>
</svg>
