<?xml version="1.0" encoding="UTF-8" standalone="no"?>
<!-- Created with Inkscape (http://www.inkscape.org/) -->
<svg
   xmlns:svg="http://www.w3.org/2000/svg"
   xmlns="http://www.w3.org/2000/svg"
   xmlns:xlink="http://www.w3.org/1999/xlink"
   version="1.0"
   width="321.32587"
   height="22.0016"
   id="svg2">
  <defs
     id="defs4" />
  <g
     transform="translate(-9.3011302,-391.36239)"
     id="layer3"
     style="display:none">
    <image
       xlink:href="pastedpic_01082010_171653.png"
       x="7.7236099"
       y="372.82553"
       width="326.28766"
       height="218.90744"
       id="image3234" />
  </g>
  <g
     transform="translate(-9.3011302,-391.36239)"
     id="layer1"
     style="display:none">
    <rect
       width="728.57141"
       height="114.28571"
       x="8.5714283"
       y="360.93362"
       id="rect2383"
       style="fill:none;fill-rule:evenodd;stroke:#000000;stroke-width:1px;stroke-linecap:butt;stroke-linejoin:miter;stroke-opacity:1" />
  </g>
  <g
     transform="translate(-9.3011302,-391.36239)"
     id="layer2"
     style="display:inline">
    <g
       id="g2529">
      <path
         d="M 20,392.36218 L 20,412.46147"
         id="path3162"
         style="fill:none;fill-rule:evenodd;stroke:#000000;stroke-width:1px;stroke-linecap:butt;stroke-linejoin:miter;stroke-opacity:1" />
      <path
         d="M 30,392.36218 L 30,412.46147"
         id="path3164"
         style="fill:none;fill-rule:evenodd;stroke:#000000;stroke-width:1px;stroke-linecap:butt;stroke-linejoin:miter;stroke-opacity:1" />
      <path
         d="M 40,392.36218 L 40,412.36218"
         id="path3166"
         style="fill:none;fill-rule:evenodd;stroke:#000000;stroke-width:1px;stroke-linecap:butt;stroke-linejoin:miter;stroke-opacity:1" />
      <path
         d="M 50,392.36218 L 50,412.36218"
         id="path3168"
         style="fill:none;fill-rule:evenodd;stroke:#000000;stroke-width:1px;stroke-linecap:butt;stroke-linejoin:miter;stroke-opacity:1" />
      <path
         d="M 60,392.36218 L 60,412.46147"
         id="path3172"
         style="fill:none;fill-rule:evenodd;stroke:#000000;stroke-width:1px;stroke-linecap:butt;stroke-linejoin:miter;stroke-opacity:1" />
      <path
         d="M 70,392.36218 L 70,412.46147"
         id="path3174"
         style="fill:none;fill-rule:evenodd;stroke:#000000;stroke-width:1px;stroke-linecap:butt;stroke-linejoin:miter;stroke-opacity:1" />
      <path
         d="M 80,392.36218 L 80,412.36218"
         id="path3176"
         style="fill:none;fill-rule:evenodd;stroke:#000000;stroke-width:1px;stroke-linecap:butt;stroke-linejoin:miter;stroke-opacity:1" />
      <path
         d="M 90,392.36218 L 90,412.36218"
         id="path3178"
         style="fill:none;fill-rule:evenodd;stroke:#000000;stroke-width:1px;stroke-linecap:butt;stroke-linejoin:miter;stroke-opacity:1" />
      <path
         d="M 100,392.36218 L 100,412.46147"
         id="path3180"
         style="fill:none;fill-rule:evenodd;stroke:#000000;stroke-width:1px;stroke-linecap:butt;stroke-linejoin:miter;stroke-opacity:1" />
      <path
         d="M 110,392.36218 L 110,412.36218"
         id="path3182"
         style="fill:none;fill-rule:evenodd;stroke:#000000;stroke-width:1px;stroke-linecap:butt;stroke-linejoin:miter;stroke-opacity:1" />
      <path
         d="M 120,392.36218 L 120,412.36218"
         id="path3184"
         style="fill:none;fill-rule:evenodd;stroke:#000000;stroke-width:1px;stroke-linecap:butt;stroke-linejoin:miter;stroke-opacity:1" />
      <path
         d="M 130,392.36218 L 130,412.36218"
         id="path3186"
         style="fill:none;fill-rule:evenodd;stroke:#000000;stroke-width:1px;stroke-linecap:butt;stroke-linejoin:miter;stroke-opacity:1" />
      <path
         d="M 140,392.36218 L 140,412.36218"
         id="path3188"
         style="fill:none;fill-rule:evenodd;stroke:#000000;stroke-width:1px;stroke-linecap:butt;stroke-linejoin:miter;stroke-opacity:1" />
      <path
         d="M 150,392.36218 L 150,412.46147"
         id="path3190"
         style="fill:none;fill-rule:evenodd;stroke:#000000;stroke-width:1px;stroke-linecap:butt;stroke-linejoin:miter;stroke-opacity:1" />
      <path
         d="M 160,392.36218 L 160,412.36218"
         id="path3192"
         style="fill:none;fill-rule:evenodd;stroke:#000000;stroke-width:1px;stroke-linecap:butt;stroke-linejoin:miter;stroke-opacity:1" />
      <path
         d="M 170,392.36218 L 170,412.46147"
         id="path3194"
         style="fill:none;fill-rule:evenodd;stroke:#000000;stroke-width:1px;stroke-linecap:butt;stroke-linejoin:miter;stroke-opacity:1" />
      <path
         d="M 180,392.36218 L 180,412.46147"
         id="path3240"
         style="fill:none;fill-rule:evenodd;stroke:#000000;stroke-width:1px;stroke-linecap:butt;stroke-linejoin:miter;stroke-opacity:1;display:inline" />
      <path
         d="M 190,392.36218 L 190,412.46147"
         id="path3242"
         style="fill:none;fill-rule:evenodd;stroke:#000000;stroke-width:1px;stroke-linecap:butt;stroke-linejoin:miter;stroke-opacity:1;display:inline" />
      <path
         d="M 200,392.36218 L 200,412.46147"
         id="path3244"
         style="fill:none;fill-rule:evenodd;stroke:#000000;stroke-width:1px;stroke-linecap:butt;stroke-linejoin:miter;stroke-opacity:1;display:inline" />
      <path
         d="M 210,392.36218 L 210,412.46147"
         id="path3246"
         style="fill:none;fill-rule:evenodd;stroke:#000000;stroke-width:1px;stroke-linecap:butt;stroke-linejoin:miter;stroke-opacity:1;display:inline" />
      <path
         d="M 220,392.36218 L 220,412.46147"
         id="path3248"
         style="fill:none;fill-rule:evenodd;stroke:#000000;stroke-width:1px;stroke-linecap:butt;stroke-linejoin:miter;stroke-opacity:1;display:inline" />
      <path
         d="M 230,392.36218 L 230,412.46147"
         id="path3250"
         style="fill:none;fill-rule:evenodd;stroke:#000000;stroke-width:1px;stroke-linecap:butt;stroke-linejoin:miter;stroke-opacity:1;display:inline" />
      <path
         d="M 240,392.36218 L 240,412.36218"
         id="path3252"
         style="fill:none;fill-rule:evenodd;stroke:#000000;stroke-width:1px;stroke-linecap:butt;stroke-linejoin:miter;stroke-opacity:1;display:inline" />
      <path
         d="M 250,392.36218 L 250,412.36218"
         id="path3254"
         style="fill:none;fill-rule:evenodd;stroke:#000000;stroke-width:1px;stroke-linecap:butt;stroke-linejoin:miter;stroke-opacity:1;display:inline" />
      <path
         d="M 260,392.36218 L 260,412.46147"
         id="path3256"
         style="fill:none;fill-rule:evenodd;stroke:#000000;stroke-width:1px;stroke-linecap:butt;stroke-linejoin:miter;stroke-opacity:1;display:inline" />
      <path
         d="M 270,392.36218 L 270,412.36218"
         id="path3258"
         style="fill:none;fill-rule:evenodd;stroke:#000000;stroke-width:1px;stroke-linecap:butt;stroke-linejoin:miter;stroke-opacity:1;display:inline" />
      <path
         d="M 280,392.36218 L 280,412.36218"
         id="path3260"
         style="fill:none;fill-rule:evenodd;stroke:#000000;stroke-width:1px;stroke-linecap:butt;stroke-linejoin:miter;stroke-opacity:1;display:inline" />
      <path
         d="M 290,392.36218 L 290,412.36218"
         id="path3262"
         style="fill:none;fill-rule:evenodd;stroke:#000000;stroke-width:1px;stroke-linecap:butt;stroke-linejoin:miter;stroke-opacity:1;display:inline" />
      <path
         d="M 300,392.36218 L 300,412.36218"
         id="path3264"
         style="fill:none;fill-rule:evenodd;stroke:#000000;stroke-width:1px;stroke-linecap:butt;stroke-linejoin:miter;stroke-opacity:1;display:inline" />
      <path
         d="M 310,392.36218 L 310,412.46147"
         id="path3266"
         style="fill:none;fill-rule:evenodd;stroke:#000000;stroke-width:1px;stroke-linecap:butt;stroke-linejoin:miter;stroke-opacity:1;display:inline" />
      <path
         d="M 320,392.36218 L 320,412.36218"
         id="path3268"
         style="fill:none;fill-rule:evenodd;stroke:#000000;stroke-width:1px;stroke-linecap:butt;stroke-linejoin:miter;stroke-opacity:1;display:inline" />
      <path
         d="M 330.01178,391.87919 L 329.97644,412.60283"
         id="path3270"
         style="fill:none;fill-rule:evenodd;stroke:#000000;stroke-width:1px;stroke-linecap:butt;stroke-linejoin:miter;stroke-opacity:1;display:inline" />
      <path
         d="M 330.03421,392.36218 L 10,392.36218"
         id="path3502"
         style="fill:none;fill-rule:evenodd;stroke:#000000;stroke-width:1px;stroke-linecap:butt;stroke-linejoin:miter;stroke-opacity:1" />
      <path
         d="M 330.12701,412.09563 L 9.8011302,412.36218"
         id="path3276"
         style="fill:#a0a010;fill-opacity:1;fill-rule:evenodd;stroke:#000000;stroke-width:1px;stroke-linecap:butt;stroke-linejoin:miter;stroke-opacity:1" />
      <path
         d="M 10,391.86239 L 9.9941099,412.86399"
         id="path3377"
         style="fill:none;fill-rule:evenodd;stroke:#000000;stroke-width:1px;stroke-linecap:butt;stroke-linejoin:miter;stroke-opacity:1" />
      <path
         d="M 170.50972,402.30506 L 170.50972,392.90446 L 174.98619,392.90446 L 179.46267,392.90446 L 179.46267,402.30506 L 179.46267,411.70567 L 174.98619,411.70567 L 170.50972,411.70567 L 170.50972,402.30506 z"
         id="path3381"
         style="opacity:1;fill:#10f0f0;fill-opacity:1;stroke:none;stroke-width:3;stroke-miterlimit:4;stroke-dasharray:none;stroke-opacity:1" />
      <path
         d="M 160.5201,402.30506 L 160.5201,392.90446 L 164.99658,392.90446 L 169.47306,392.90446 L 169.47306,402.30506 L 169.47306,411.70567 L 164.99658,411.70567 L 160.5201,411.70567 L 160.5201,402.30506 z"
         id="path3383"
         style="opacity:1;fill:#f020d0;fill-opacity:1;stroke:none;stroke-width:3;stroke-miterlimit:4;stroke-dasharray:none;stroke-opacity:1" />
      <path
         d="M 180.5038,402.29518 L 180.5038,392.88244 L 185.00192,392.88244 L 189.50005,392.88244 L 189.50005,402.29518 L 189.50005,411.70793 L 185.00192,411.70793 L 180.5038,411.70793 L 180.5038,402.29518 z"
         id="path3387"
         style="opacity:1;fill:#a06010;fill-opacity:1;stroke:none;stroke-width:3;stroke-miterlimit:4;stroke-dasharray:none;stroke-opacity:1" />
      <path
         d="M 190.51629,402.29518 L 190.51629,392.88244 L 194.99776,392.88244 L 199.47922,392.88244 L 199.47922,402.29518 L 199.47922,411.70793 L 194.99776,411.70793 L 190.51629,411.70793 L 190.51629,402.29518 z"
         id="path3389"
         style="opacity:1;fill:#107010;fill-opacity:1;stroke:none;stroke-width:3;stroke-miterlimit:4;stroke-dasharray:none;stroke-opacity:1" />
      <path
         d="M 200.51213,402.29518 L 200.51213,392.88244 L 204.99359,392.88244 L 209.47506,392.88244 L 209.47506,402.27303 L 209.47506,411.66362 L 206.2514,411.68575 C 204.47839,411.69793 202.46173,411.7079 201.76994,411.70791 L 200.51213,411.70793 L 200.51213,402.29518 z"
         id="path3391"
         style="opacity:1;fill:#a0a0a0;fill-opacity:1;stroke:none;stroke-width:3;stroke-miterlimit:4;stroke-dasharray:none;stroke-opacity:1" />
      <path
         d="M 210.51069,402.29268 L 210.51069,392.89659 L 214.99216,392.89659 L 219.47362,392.89659 L 219.47362,402.29268 L 219.47362,411.68876 L 214.99216,411.68876 L 210.51069,411.68876 L 210.51069,402.29268 z"
         id="path3393"
         style="opacity:1;fill:#1070a0;fill-opacity:1;stroke:none;stroke-width:3;stroke-miterlimit:4;stroke-dasharray:none;stroke-opacity:1" />
      <path
         d="M 220.50653,402.29268 L 220.50653,392.89659 L 224.98799,392.89659 L 229.46946,392.89659 L 229.46946,402.29268 L 229.46946,411.68876 L 224.98799,411.68876 L 220.50653,411.68876 L 220.50653,402.29268 z"
         id="path3395"
         style="opacity:1;fill:#901020;fill-opacity:1;stroke:none;stroke-width:3;stroke-miterlimit:4;stroke-dasharray:none;stroke-opacity:1" />
      <path
         d="M 230.51902,402.27602 L 230.51902,392.89659 L 235.00049,392.89659 L 239.48195,392.89659 L 239.48195,402.27602 L 239.48195,411.65544 L 235.00049,411.65544 L 230.51902,411.65544 L 230.51902,402.27602 z"
         id="path3397"
         style="opacity:1;fill:#606060;fill-opacity:1;stroke:none;stroke-width:3;stroke-miterlimit:4;stroke-dasharray:none;stroke-opacity:1" />
      <path
         d="M 240.53152,402.27602 L 240.53152,392.89659 L 245.01298,392.89659 L 249.49445,392.89659 L 249.49445,402.27602 L 249.49445,411.65544 L 245.01298,411.65544 L 240.53152,411.65544 L 240.53152,402.27602 z"
         id="path3399"
         style="opacity:1;fill:#1010d0;fill-opacity:1;stroke:none;stroke-width:3;stroke-miterlimit:4;stroke-dasharray:none;stroke-opacity:1" />
      <path
         d="M 250.51069,402.27602 L 250.51069,392.89659 L 254.99216,392.89659 L 259.47362,392.89659 L 259.47362,402.27602 L 259.47362,411.65544 L 254.99216,411.65544 L 250.51069,411.65544 L 250.51069,402.27602 z"
         id="path3401"
         style="opacity:1;fill:#f0e0e0;fill-opacity:1;stroke:none;stroke-width:3;stroke-miterlimit:4;stroke-dasharray:none;stroke-opacity:1" />
      <path
         d="M 260.50653,402.27602 L 260.50653,392.89659 L 264.98799,392.89659 L 269.46946,392.89659 L 269.46946,402.27602 L 269.46946,411.65544 L 264.98799,411.65544 L 260.50653,411.65544 L 260.50653,402.27602 z"
         id="path3403"
         style="opacity:1;fill:#60d090;fill-opacity:1;stroke:none;stroke-width:3;stroke-miterlimit:4;stroke-dasharray:none;stroke-opacity:1" />
      <path
         d="M 270.52235,402.2814 L 270.52235,392.89659 L 275.00382,392.89659 L 279.48528,392.89659 L 279.48528,402.25936 L 279.48528,411.62212 L 276.07837,411.62218 C 274.20457,411.62221 272.18791,411.63213 271.5969,411.64422 L 270.52235,411.66621 L 270.52235,402.2814 z"
         id="path3405"
         style="opacity:1;fill:#106080;fill-opacity:1;stroke:none;stroke-width:3;stroke-miterlimit:4;stroke-dasharray:none;stroke-opacity:1" />
      <path
         d="M 280.51819,402.25936 L 280.51819,392.89659 L 284.99965,392.89659 L 289.48112,392.89659 L 289.48112,402.25936 L 289.48112,411.62212 L 284.99965,411.62212 L 280.51819,411.62212 L 280.51819,402.25936 z"
         id="path3407"
         style="opacity:1;fill:#107090;fill-opacity:1;stroke:none;stroke-width:3;stroke-miterlimit:4;stroke-dasharray:none;stroke-opacity:1" />
      <path
         d="M 290.50069,402.25936 L 290.50069,392.89659 L 294.99882,392.89659 L 299.49695,392.89659 L 299.49695,402.25936 L 299.49695,411.62212 L 294.99882,411.62212 L 290.50069,411.62212 L 290.50069,402.25936 z"
         id="path3409"
         style="opacity:1;fill:#901090;fill-opacity:1;stroke:none;stroke-width:3;stroke-miterlimit:4;stroke-dasharray:none;stroke-opacity:1" />
      <path
         d="M 300.52985,402.25936 L 300.52985,392.89659 L 305.01132,392.89659 L 309.49278,392.89659 L 309.49278,402.25936 L 309.49278,411.62212 L 305.01132,411.62212 L 300.52985,411.62212 L 300.52985,402.25936 z"
         id="path3411"
         style="opacity:1;fill:#901090;fill-opacity:1;stroke:none;stroke-width:3;stroke-miterlimit:4;stroke-dasharray:none;stroke-opacity:1" />
      <path
         d="M 310.52235,402.26484 L 310.52235,392.89659 L 315.00382,392.89659 L 319.48528,392.89659 L 319.48528,402.2427 L 319.48528,411.5888 L 317.47779,411.58883 C 316.37366,411.58884 314.357,411.5988 312.99632,411.61097 L 310.52235,411.63308 L 310.52235,402.26484 z"
         id="path3413"
         style="opacity:1;fill:#909010;fill-opacity:1;stroke:none;stroke-width:3;stroke-miterlimit:4;stroke-dasharray:none;stroke-opacity:1" />
      <path
         d="M 320.51819,402.2427 L 320.51819,392.89659 L 324.99965,392.89659 L 329.48112,392.89659 L 329.48112,402.2427 L 329.48112,411.5888 L 324.99965,411.5888 L 320.51819,411.5888 L 320.51819,402.2427 z"
         id="path3415"
         style="opacity:1;fill:#a0a010;fill-opacity:1;stroke:none;stroke-width:3;stroke-miterlimit:4;stroke-dasharray:none;stroke-opacity:1" />
      <path
         d="M 10.499043,402.35932 L 10.499043,392.86327 L 14.997169,392.86327 L 19.495295,392.86327 L 19.495295,402.35932 L 19.495295,411.85536 L 14.997169,411.85536 L 10.499043,411.85536 L 10.499043,402.35932 z"
         id="path3417"
         style="opacity:1;fill:#c7911c;fill-opacity:1;stroke:none;stroke-width:3;stroke-miterlimit:4;stroke-dasharray:none;stroke-opacity:1" />
      <path
         d="M 20.528197,402.36288 L 20.528197,392.86327 L 25.009664,392.86327 L 29.49113,392.86327 L 29.49113,402.34266 L 29.49113,411.82204 L 25.062368,411.82204 C 22.626549,411.82204 20.609889,411.83114 20.580902,411.84226 C 20.532918,411.86068 20.528197,411.01159 20.528197,402.36288 z"
         id="path3419"
         style="opacity:1;fill:#10f010;fill-opacity:1;stroke:none;stroke-width:3;stroke-miterlimit:4;stroke-dasharray:none;stroke-opacity:1" />
      <path
         d="M 30.530696,402.34266 L 30.530696,392.86327 L 35.012162,392.86327 L 39.493629,392.86327 L 39.493629,402.34266 L 39.493629,411.82204 L 35.012162,411.82204 L 30.530696,411.82204 L 30.530696,402.34266 z"
         id="path3421"
         style="opacity:1;fill:#1060f0;fill-opacity:1;stroke:none;stroke-width:3;stroke-miterlimit:4;stroke-dasharray:none;stroke-opacity:1" />
      <path
         d="M 40.519868,402.34266 L 40.519868,392.86327 L 45.001334,392.86327 L 49.4828,392.86327 L 49.4828,402.34266 L 49.4828,411.82204 L 45.001334,411.82204 L 40.519868,411.82204 L 40.519868,402.34266 z"
         id="path3423"
         style="opacity:1;fill:#f0f0f0;fill-opacity:1;stroke:none;stroke-width:3;stroke-miterlimit:4;stroke-dasharray:none;stroke-opacity:1" />
      <path
         d="M 50.499043,402.34266 L 50.499043,392.86327 L 54.997169,392.86327 L 59.495295,392.86327 L 59.495295,402.34266 L 59.495295,411.82204 L 54.997169,411.82204 L 50.499043,411.82204 L 50.499043,402.34266 z"
         id="path3425"
         style="opacity:1;fill:#f0f010;fill-opacity:1;stroke:none;stroke-width:3;stroke-miterlimit:4;stroke-dasharray:none;stroke-opacity:1" />
      <path
         d="M 60.528197,402.34809 L 60.528197,392.86327 L 65.009664,392.86327 L 69.49113,392.86327 L 69.49113,402.326 L 69.49113,411.78872 L 66.484049,411.78876 C 64.830155,411.78878 62.813495,411.79872 62.002583,411.81085 L 60.528197,411.8329 L 60.528197,402.34809 z"
         id="path3427"
         style="opacity:1;fill:#f06010;fill-opacity:1;stroke:none;stroke-width:3;stroke-miterlimit:4;stroke-dasharray:none;stroke-opacity:1" />
      <path
         d="M 70.500709,402.326 L 70.500709,392.86327 L 74.998835,392.86327 L 79.49696,392.86327 L 79.49696,402.326 L 79.49696,411.78872 L 74.998835,411.78872 L 70.500709,411.78872 L 70.500709,402.326 z"
         id="path3429"
         style="opacity:1;fill:#f01010;fill-opacity:1;stroke:none;stroke-width:3;stroke-miterlimit:4;stroke-dasharray:none;stroke-opacity:1" />
      <path
         d="M 80.529863,402.326 L 80.529863,392.86327 L 85.011329,392.86327 L 89.492796,392.86327 L 89.492796,402.326 L 89.492796,411.78872 L 85.011329,411.78872 L 80.529863,411.78872 L 80.529863,402.326 z"
         id="path3431"
         style="opacity:1;fill:#1070f0;fill-opacity:1;stroke:none;stroke-width:3;stroke-miterlimit:4;stroke-dasharray:none;stroke-opacity:1" />
      <path
         d="M 90.512371,402.326 L 90.512371,392.86327 L 94.993837,392.86327 L 99.475303,392.86327 L 99.475303,402.326 L 99.475303,411.78872 L 94.993837,411.78872 L 90.512371,411.78872 L 90.512371,402.326 z"
         id="path3433"
         style="opacity:1;fill:#808080;fill-opacity:1;stroke:none;stroke-width:3;stroke-miterlimit:4;stroke-dasharray:none;stroke-opacity:1" />
      <path
         d="M 100.50821,402.326 L 100.50821,392.85229 L 103.41251,392.87444 C 105.00987,392.88662 107.02653,392.89659 107.89397,392.89659 L 109.47114,392.89659 L 109.47114,402.326 L 109.47114,411.7554 L 107.89398,411.7554 C 107.02653,411.7554 105.00987,411.76537 103.41251,411.77755 L 100.50821,411.7997 L 100.50821,402.326 z"
         id="path3435"
         style="opacity:1;fill:#909090;fill-opacity:1;stroke:none;stroke-width:3;stroke-miterlimit:4;stroke-dasharray:none;stroke-opacity:1" />
      <path
         d="M 110.50071,402.326 L 110.50071,392.89659 L 114.99883,392.89659 L 119.49696,392.89659 L 119.49696,402.326 L 119.49696,411.7554 L 114.99883,411.7554 L 110.50071,411.7554 L 110.50071,402.326 z"
         id="path3437"
         style="opacity:1;fill:#10c010;fill-opacity:1;stroke:none;stroke-width:3;stroke-miterlimit:4;stroke-dasharray:none;stroke-opacity:1" />
      <path
         d="M 120.52986,402.326 L 120.52986,392.89659 L 125.01133,392.89659 L 129.4928,392.89659 L 129.4928,402.326 L 129.4928,411.7554 L 125.01133,411.7554 L 120.52986,411.7554 L 120.52986,402.326 z"
         id="path3439"
         style="opacity:1;fill:#10a0f0;fill-opacity:1;stroke:none;stroke-width:3;stroke-miterlimit:4;stroke-dasharray:none;stroke-opacity:1" />
      <path
         d="M 130.51237,402.326 L 130.51237,392.89659 L 134.99384,392.89659 L 139.4753,392.89659 L 139.4753,402.326 L 139.4753,411.7554 L 134.99384,411.7554 L 130.51237,411.7554 L 130.51237,402.326 z"
         id="path3441"
         style="opacity:1;fill:#703030;fill-opacity:1;stroke:none;stroke-width:3;stroke-miterlimit:4;stroke-dasharray:none;stroke-opacity:1" />
      <path
         d="M 140.50821,402.326 L 140.50821,392.89659 L 144.98967,392.89659 L 149.47114,392.89659 L 149.47114,402.30386 L 149.47114,411.71113 L 147.06664,411.73326 C 145.74416,411.74544 143.7275,411.7554 142.58517,411.7554 L 140.50821,411.7554 L 140.50821,402.326 z"
         id="path3443"
         style="opacity:1;fill:#f010f0;fill-opacity:1;stroke:none;stroke-width:3;stroke-miterlimit:4;stroke-dasharray:none;stroke-opacity:1" />
      <path
         d="M 150.50071,402.30934 L 150.50071,392.89659 L 154.99883,392.89659 L 159.49696,392.89659 L 159.49696,402.30934 L 159.49696,411.72208 L 154.99883,411.72208 L 150.50071,411.72208 L 150.50071,402.30934 z"
         id="path3445"
         style="opacity:1;fill:#1010f0;fill-opacity:1;stroke:none;stroke-width:3;stroke-miterlimit:4;stroke-dasharray:none;stroke-opacity:1" />
    </g>
  </g>
</svg>
