<?xml version="1.0" encoding="UTF-8" standalone="no"?>
<!-- Created with Inkscape (http://www.inkscape.org/) -->
<svg
   xmlns:dc="http://purl.org/dc/elements/1.1/"
   xmlns:cc="http://creativecommons.org/ns#"
   xmlns:rdf="http://www.w3.org/1999/02/22-rdf-syntax-ns#"
   xmlns:svg="http://www.w3.org/2000/svg"
   xmlns="http://www.w3.org/2000/svg"
   xmlns:xlink="http://www.w3.org/1999/xlink"
   xmlns:sodipodi="http://sodipodi.sourceforge.net/DTD/sodipodi-0.dtd"
   xmlns:inkscape="http://www.inkscape.org/namespaces/inkscape"
   width="744.09448819"
   height="1052.3622047"
   id="svg2"
   sodipodi:version="0.32"
   inkscape:version="0.46"
   sodipodi:docname="texture.svg"
   inkscape:output_extension="org.inkscape.output.svg.inkscape">
  <sodipodi:namedview
     id="base"
     pagecolor="#ffffff"
     bordercolor="#666666"
     borderopacity="1.0"
     gridtolerance="10000"
     guidetolerance="10"
     objecttolerance="10"
     inkscape:pageopacity="0.0"
     inkscape:pageshadow="2"
     inkscape:zoom="1.3263776"
     inkscape:cx="232.94231"
     inkscape:cy="620.72684"
     inkscape:document-units="px"
     inkscape:current-layer="svg2"
     showgrid="true"
     inkscape:snap-global="true"
     showguides="true"
     inkscape:guide-bbox="true"
     inkscape:window-width="1238"
     inkscape:window-height="891"
     inkscape:window-x="54"
     inkscape:window-y="23">
    <inkscape:grid
       id="grid3158"
       type="xygrid" />
    <sodipodi:guide
       id="guide3371"
       position="-9.0471971,659.87994"
       orientation="0,1" />
    <sodipodi:guide
       id="guide3373"
       position="-7.9162975,639.90071"
       orientation="0,1" />
    <sodipodi:guide
       id="guide3375"
       position="9.8011302,639.71223"
       orientation="1,0" />
    <sodipodi:guide
       id="guide3447"
       position="330.03421,664.21506"
       orientation="1,0" />
  </sodipodi:namedview>
  <defs
     id="defs4">
    <inkscape:perspective
       id="perspective10"
       inkscape:persp3d-origin="372.04724 : 350.78739 : 1"
       inkscape:vp_z="744.09448 : 526.18109 : 1"
       inkscape:vp_y="0 : 1000 : 0"
       inkscape:vp_x="0 : 526.18109 : 1"
       sodipodi:type="inkscape:persp3d" />
    <inkscape:perspective
       sodipodi:type="inkscape:persp3d"
       inkscape:vp_x="0 : 526.18109 : 1"
       inkscape:vp_y="0 : 1000 : 0"
       inkscape:vp_z="744.09448 : 526.18109 : 1"
       inkscape:persp3d-origin="372.04724 : 350.78739 : 1"
       id="perspective3205" />
    <inkscape:perspective
       sodipodi:type="inkscape:persp3d"
       inkscape:vp_x="0 : 526.18109 : 1"
       inkscape:vp_y="0 : 1000 : 0"
       inkscape:vp_z="744.09448 : 526.18109 : 1"
       inkscape:persp3d-origin="372.04724 : 350.78739 : 1"
       id="perspective3232" />
  </defs>
  <metadata
     id="metadata7">
    <rdf:RDF>
      <cc:Work
         rdf:about="">
        <dc:format>image/svg+xml</dc:format>
        <dc:type
           rdf:resource="http://purl.org/dc/dcmitype/StillImage" />
      </cc:Work>
    </rdf:RDF>
  </metadata>
  <g
     style="display:none"
     sodipodi:insensitive="true"
     inkscape:label="bild"
     id="layer3"
     inkscape:groupmode="layer">
    <image
       xlink:href="pastedpic_01082010_171653.png"
       sodipodi:absref="/home/ava/workspace5/Diploma-Thesis/images/pastedpic_01082010_171653.png"
       width="326.28766"
       height="218.90744"
       id="image3234"
       x="7.7236099"
       y="372.82553" />
  </g>
  <g
     sodipodi:insensitive="true"
     style="display:none"
     id="layer1"
     inkscape:groupmode="layer"
     inkscape:label="Layer 1">
    <rect
       y="360.93362"
       x="8.5714283"
       height="114.28571"
       width="728.57141"
       id="rect2383"
       style="fill:none;fill-rule:evenodd;stroke:#000000;stroke-width:1px;stroke-linecap:butt;stroke-linejoin:miter;stroke-opacity:1" />
  </g>
  <g
     style="display:inline"
     inkscape:label="v"
     id="layer2"
     inkscape:groupmode="layer">
    <path
       sodipodi:nodetypes="cc"
       id="path3162"
       d="M 20,392.36218 L 20,412.46147"
       style="fill:none;fill-rule:evenodd;stroke:#000000;stroke-width:1px;stroke-linecap:butt;stroke-linejoin:miter;stroke-opacity:1" />
    <path
       sodipodi:nodetypes="cc"
       id="path3164"
       d="M 30,392.36218 L 30,412.46147"
       style="fill:none;fill-rule:evenodd;stroke:#000000;stroke-width:1px;stroke-linecap:butt;stroke-linejoin:miter;stroke-opacity:1" />
    <path
       sodipodi:nodetypes="cc"
       id="path3166"
       d="M 40,392.36218 L 40,412.36218"
       style="fill:none;fill-rule:evenodd;stroke:#000000;stroke-width:1px;stroke-linecap:butt;stroke-linejoin:miter;stroke-opacity:1" />
    <path
       sodipodi:nodetypes="cc"
       id="path3168"
       d="M 50,392.36218 L 50,412.36218"
       style="fill:none;fill-rule:evenodd;stroke:#000000;stroke-width:1px;stroke-linecap:butt;stroke-linejoin:miter;stroke-opacity:1" />
    <path
       sodipodi:nodetypes="cc"
       id="path3172"
       d="M 60,392.36218 L 60,412.46147"
       style="fill:none;fill-rule:evenodd;stroke:#000000;stroke-width:1px;stroke-linecap:butt;stroke-linejoin:miter;stroke-opacity:1" />
    <path
       sodipodi:nodetypes="cc"
       id="path3174"
       d="M 70,392.36218 L 70,412.46147"
       style="fill:none;fill-rule:evenodd;stroke:#000000;stroke-width:1px;stroke-linecap:butt;stroke-linejoin:miter;stroke-opacity:1" />
    <path
       sodipodi:nodetypes="cc"
       id="path3176"
       d="M 80,392.36218 L 80,412.36218"
       style="fill:none;fill-rule:evenodd;stroke:#000000;stroke-width:1px;stroke-linecap:butt;stroke-linejoin:miter;stroke-opacity:1" />
    <path
       sodipodi:nodetypes="cc"
       id="path3178"
       d="M 90,392.36218 L 90,412.36218"
       style="fill:none;fill-rule:evenodd;stroke:#000000;stroke-width:1px;stroke-linecap:butt;stroke-linejoin:miter;stroke-opacity:1" />
    <path
       sodipodi:nodetypes="cc"
       id="path3180"
       d="M 100,392.36218 L 100,412.46147"
       style="fill:none;fill-rule:evenodd;stroke:#000000;stroke-width:1px;stroke-linecap:butt;stroke-linejoin:miter;stroke-opacity:1" />
    <path
       sodipodi:nodetypes="cc"
       id="path3182"
       d="M 110,392.36218 L 110,412.36218"
       style="fill:none;fill-rule:evenodd;stroke:#000000;stroke-width:1px;stroke-linecap:butt;stroke-linejoin:miter;stroke-opacity:1" />
    <path
       sodipodi:nodetypes="cc"
       id="path3184"
       d="M 120,392.36218 L 120,412.36218"
       style="fill:none;fill-rule:evenodd;stroke:#000000;stroke-width:1px;stroke-linecap:butt;stroke-linejoin:miter;stroke-opacity:1" />
    <path
       sodipodi:nodetypes="cc"
       id="path3186"
       d="M 130,392.36218 L 130,412.36218"
       style="fill:none;fill-rule:evenodd;stroke:#000000;stroke-width:1px;stroke-linecap:butt;stroke-linejoin:miter;stroke-opacity:1" />
    <path
       sodipodi:nodetypes="cc"
       id="path3188"
       d="M 140,392.36218 L 140,412.36218"
       style="fill:none;fill-rule:evenodd;stroke:#000000;stroke-width:1px;stroke-linecap:butt;stroke-linejoin:miter;stroke-opacity:1" />
    <path
       sodipodi:nodetypes="cc"
       id="path3190"
       d="M 150,392.36218 L 150,412.46147"
       style="fill:none;fill-rule:evenodd;stroke:#000000;stroke-width:1px;stroke-linecap:butt;stroke-linejoin:miter;stroke-opacity:1" />
    <path
       sodipodi:nodetypes="cc"
       id="path3192"
       d="M 160,392.36218 L 160,412.36218"
       style="fill:none;fill-rule:evenodd;stroke:#000000;stroke-width:1px;stroke-linecap:butt;stroke-linejoin:miter;stroke-opacity:1" />
    <path
       sodipodi:nodetypes="cc"
       id="path3194"
       d="M 170,392.36218 L 170,412.46147"
       style="fill:none;fill-rule:evenodd;stroke:#000000;stroke-width:1px;stroke-linecap:butt;stroke-linejoin:miter;stroke-opacity:1" />
    <path
       sodipodi:nodetypes="cc"
       id="path3240"
       d="M 180,392.36218 L 180,412.46147"
       style="fill:none;fill-rule:evenodd;stroke:#000000;stroke-width:1px;stroke-linecap:butt;stroke-linejoin:miter;stroke-opacity:1;display:inline" />
    <path
       sodipodi:nodetypes="cc"
       id="path3242"
       d="M 190,392.36218 L 190,412.46147"
       style="fill:none;fill-rule:evenodd;stroke:#000000;stroke-width:1px;stroke-linecap:butt;stroke-linejoin:miter;stroke-opacity:1;display:inline" />
    <path
       sodipodi:nodetypes="cc"
       id="path3244"
       d="M 200,392.36218 L 200,412.46147"
       style="fill:none;fill-rule:evenodd;stroke:#000000;stroke-width:1px;stroke-linecap:butt;stroke-linejoin:miter;stroke-opacity:1;display:inline" />
    <path
       sodipodi:nodetypes="cc"
       id="path3246"
       d="M 210,392.36218 L 210,412.46147"
       style="fill:none;fill-rule:evenodd;stroke:#000000;stroke-width:1px;stroke-linecap:butt;stroke-linejoin:miter;stroke-opacity:1;display:inline" />
    <path
       sodipodi:nodetypes="cc"
       id="path3248"
       d="M 220,392.36218 L 220,412.46147"
       style="fill:none;fill-rule:evenodd;stroke:#000000;stroke-width:1px;stroke-linecap:butt;stroke-linejoin:miter;stroke-opacity:1;display:inline" />
    <path
       sodipodi:nodetypes="cc"
       id="path3250"
       d="M 230,392.36218 L 230,412.46147"
       style="fill:none;fill-rule:evenodd;stroke:#000000;stroke-width:1px;stroke-linecap:butt;stroke-linejoin:miter;stroke-opacity:1;display:inline" />
    <path
       sodipodi:nodetypes="cc"
       id="path3252"
       d="M 240,392.36218 L 240,412.36218"
       style="fill:none;fill-rule:evenodd;stroke:#000000;stroke-width:1px;stroke-linecap:butt;stroke-linejoin:miter;stroke-opacity:1;display:inline" />
    <path
       sodipodi:nodetypes="cc"
       id="path3254"
       d="M 250,392.36218 L 250,412.36218"
       style="fill:none;fill-rule:evenodd;stroke:#000000;stroke-width:1px;stroke-linecap:butt;stroke-linejoin:miter;stroke-opacity:1;display:inline" />
    <path
       sodipodi:nodetypes="cc"
       id="path3256"
       d="M 260,392.36218 L 260,412.46147"
       style="fill:none;fill-rule:evenodd;stroke:#000000;stroke-width:1px;stroke-linecap:butt;stroke-linejoin:miter;stroke-opacity:1;display:inline" />
    <path
       sodipodi:nodetypes="cc"
       id="path3258"
       d="M 270,392.36218 L 270,412.36218"
       style="fill:none;fill-rule:evenodd;stroke:#000000;stroke-width:1px;stroke-linecap:butt;stroke-linejoin:miter;stroke-opacity:1;display:inline" />
    <path
       sodipodi:nodetypes="cc"
       id="path3260"
       d="M 280,392.36218 L 280,412.36218"
       style="fill:none;fill-rule:evenodd;stroke:#000000;stroke-width:1px;stroke-linecap:butt;stroke-linejoin:miter;stroke-opacity:1;display:inline" />
    <path
       sodipodi:nodetypes="cc"
       id="path3262"
       d="M 290,392.36218 L 290,412.36218"
       style="fill:none;fill-rule:evenodd;stroke:#000000;stroke-width:1px;stroke-linecap:butt;stroke-linejoin:miter;stroke-opacity:1;display:inline" />
    <path
       sodipodi:nodetypes="cc"
       id="path3264"
       d="M 300,392.36218 L 300,412.36218"
       style="fill:none;fill-rule:evenodd;stroke:#000000;stroke-width:1px;stroke-linecap:butt;stroke-linejoin:miter;stroke-opacity:1;display:inline" />
    <path
       sodipodi:nodetypes="cc"
       id="path3266"
       d="M 310,392.36218 L 310,412.46147"
       style="fill:none;fill-rule:evenodd;stroke:#000000;stroke-width:1px;stroke-linecap:butt;stroke-linejoin:miter;stroke-opacity:1;display:inline" />
    <path
       sodipodi:nodetypes="cc"
       id="path3268"
       d="M 320,392.36218 L 320,412.36218"
       style="fill:none;fill-rule:evenodd;stroke:#000000;stroke-width:1px;stroke-linecap:butt;stroke-linejoin:miter;stroke-opacity:1;display:inline" />
    <path
       sodipodi:nodetypes="cc"
       id="path3270"
       d="M 330.01178,391.87919 L 329.97644,412.60283"
       style="fill:none;fill-rule:evenodd;stroke:#000000;stroke-width:1px;stroke-linecap:butt;stroke-linejoin:miter;stroke-opacity:1;display:inline" />
    <path
       id="path3502"
       sodipodi:nodetypes="cc"
       d="M 330.03421,392.36218 L 10,392.36218"
       style="fill:none;fill-rule:evenodd;stroke:#000000;stroke-width:1px;stroke-linecap:butt;stroke-linejoin:miter;stroke-opacity:1" />
    <path
       sodipodi:nodetypes="cc"
       id="path3276"
       d="M 330.12701,412.09563 L 9.8011302,412.36218"
       style="fill:#a0a010;fill-opacity:1;fill-rule:evenodd;stroke:#000000;stroke-width:1px;stroke-linecap:butt;stroke-linejoin:miter;stroke-opacity:1" />
    <path
       sodipodi:nodetypes="cc"
       id="path3377"
       d="M 10,391.86239 L 9.9941099,412.86399"
       style="fill:none;fill-rule:evenodd;stroke:#000000;stroke-width:1px;stroke-linecap:butt;stroke-linejoin:miter;stroke-opacity:1" />
    <path
       id="path3381"
       d="M 170.50972,402.30506 L 170.50972,392.90446 L 174.98619,392.90446 L 179.46267,392.90446 L 179.46267,402.30506 L 179.46267,411.70567 L 174.98619,411.70567 L 170.50972,411.70567 L 170.50972,402.30506 z"
       style="opacity:1;fill:#10f0f0;fill-opacity:1;stroke:none;stroke-width:3;stroke-miterlimit:4;stroke-dasharray:none;stroke-opacity:1" />
    <path
       id="path3383"
       d="M 160.5201,402.30506 L 160.5201,392.90446 L 164.99658,392.90446 L 169.47306,392.90446 L 169.47306,402.30506 L 169.47306,411.70567 L 164.99658,411.70567 L 160.5201,411.70567 L 160.5201,402.30506 z"
       style="opacity:1;fill:#f020d0;fill-opacity:1;stroke:none;stroke-width:3;stroke-miterlimit:4;stroke-dasharray:none;stroke-opacity:1" />
    <path
       id="path3387"
       d="M 180.5038,402.29518 L 180.5038,392.88244 L 185.00192,392.88244 L 189.50005,392.88244 L 189.50005,402.29518 L 189.50005,411.70793 L 185.00192,411.70793 L 180.5038,411.70793 L 180.5038,402.29518 z"
       style="opacity:1;fill:#a06010;fill-opacity:1;stroke:none;stroke-width:3;stroke-miterlimit:4;stroke-dasharray:none;stroke-opacity:1" />
    <path
       id="path3389"
       d="M 190.51629,402.29518 L 190.51629,392.88244 L 194.99776,392.88244 L 199.47922,392.88244 L 199.47922,402.29518 L 199.47922,411.70793 L 194.99776,411.70793 L 190.51629,411.70793 L 190.51629,402.29518 z"
       style="opacity:1;fill:#107010;fill-opacity:1;stroke:none;stroke-width:3;stroke-miterlimit:4;stroke-dasharray:none;stroke-opacity:1" />
    <path
       id="path3391"
       d="M 200.51213,402.29518 L 200.51213,392.88244 L 204.99359,392.88244 L 209.47506,392.88244 L 209.47506,402.27303 L 209.47506,411.66362 L 206.2514,411.68575 C 204.47839,411.69793 202.46173,411.7079 201.76994,411.70791 L 200.51213,411.70793 L 200.51213,402.29518 z"
       style="opacity:1;fill:#a0a0a0;fill-opacity:1;stroke:none;stroke-width:3;stroke-miterlimit:4;stroke-dasharray:none;stroke-opacity:1" />
    <path
       id="path3393"
       d="M 210.51069,402.29268 L 210.51069,392.89659 L 214.99216,392.89659 L 219.47362,392.89659 L 219.47362,402.29268 L 219.47362,411.68876 L 214.99216,411.68876 L 210.51069,411.68876 L 210.51069,402.29268 z"
       style="opacity:1;fill:#1070a0;fill-opacity:1;stroke:none;stroke-width:3;stroke-miterlimit:4;stroke-dasharray:none;stroke-opacity:1" />
    <path
       id="path3395"
       d="M 220.50653,402.29268 L 220.50653,392.89659 L 224.98799,392.89659 L 229.46946,392.89659 L 229.46946,402.29268 L 229.46946,411.68876 L 224.98799,411.68876 L 220.50653,411.68876 L 220.50653,402.29268 z"
       style="opacity:1;fill:#901020;fill-opacity:1;stroke:none;stroke-width:3;stroke-miterlimit:4;stroke-dasharray:none;stroke-opacity:1" />
    <path
       id="path3397"
       d="M 230.51902,402.27602 L 230.51902,392.89659 L 235.00049,392.89659 L 239.48195,392.89659 L 239.48195,402.27602 L 239.48195,411.65544 L 235.00049,411.65544 L 230.51902,411.65544 L 230.51902,402.27602 z"
       style="opacity:1;fill:#606060;fill-opacity:1;stroke:none;stroke-width:3;stroke-miterlimit:4;stroke-dasharray:none;stroke-opacity:1" />
    <path
       id="path3399"
       d="M 240.53152,402.27602 L 240.53152,392.89659 L 245.01298,392.89659 L 249.49445,392.89659 L 249.49445,402.27602 L 249.49445,411.65544 L 245.01298,411.65544 L 240.53152,411.65544 L 240.53152,402.27602 z"
       style="opacity:1;fill:#1010d0;fill-opacity:1;stroke:none;stroke-width:3;stroke-miterlimit:4;stroke-dasharray:none;stroke-opacity:1" />
    <path
       id="path3401"
       d="M 250.51069,402.27602 L 250.51069,392.89659 L 254.99216,392.89659 L 259.47362,392.89659 L 259.47362,402.27602 L 259.47362,411.65544 L 254.99216,411.65544 L 250.51069,411.65544 L 250.51069,402.27602 z"
       style="opacity:1;fill:#f0e0e0;fill-opacity:1;stroke:none;stroke-width:3;stroke-miterlimit:4;stroke-dasharray:none;stroke-opacity:1" />
    <path
       id="path3403"
       d="M 260.50653,402.27602 L 260.50653,392.89659 L 264.98799,392.89659 L 269.46946,392.89659 L 269.46946,402.27602 L 269.46946,411.65544 L 264.98799,411.65544 L 260.50653,411.65544 L 260.50653,402.27602 z"
       style="opacity:1;fill:#60d090;fill-opacity:1;stroke:none;stroke-width:3;stroke-miterlimit:4;stroke-dasharray:none;stroke-opacity:1" />
    <path
       id="path3405"
       d="M 270.52235,402.2814 L 270.52235,392.89659 L 275.00382,392.89659 L 279.48528,392.89659 L 279.48528,402.25936 L 279.48528,411.62212 L 276.07837,411.62218 C 274.20457,411.62221 272.18791,411.63213 271.5969,411.64422 L 270.52235,411.66621 L 270.52235,402.2814 z"
       style="opacity:1;fill:#106080;fill-opacity:1;stroke:none;stroke-width:3;stroke-miterlimit:4;stroke-dasharray:none;stroke-opacity:1" />
    <path
       id="path3407"
       d="M 280.51819,402.25936 L 280.51819,392.89659 L 284.99965,392.89659 L 289.48112,392.89659 L 289.48112,402.25936 L 289.48112,411.62212 L 284.99965,411.62212 L 280.51819,411.62212 L 280.51819,402.25936 z"
       style="opacity:1;fill:#107090;fill-opacity:1;stroke:none;stroke-width:3;stroke-miterlimit:4;stroke-dasharray:none;stroke-opacity:1" />
    <path
       id="path3409"
       d="M 290.50069,402.25936 L 290.50069,392.89659 L 294.99882,392.89659 L 299.49695,392.89659 L 299.49695,402.25936 L 299.49695,411.62212 L 294.99882,411.62212 L 290.50069,411.62212 L 290.50069,402.25936 z"
       style="opacity:1;fill:#901090;fill-opacity:1;stroke:none;stroke-width:3;stroke-miterlimit:4;stroke-dasharray:none;stroke-opacity:1" />
    <path
       id="path3411"
       d="M 300.52985,402.25936 L 300.52985,392.89659 L 305.01132,392.89659 L 309.49278,392.89659 L 309.49278,402.25936 L 309.49278,411.62212 L 305.01132,411.62212 L 300.52985,411.62212 L 300.52985,402.25936 z"
       style="opacity:1;fill:#901090;fill-opacity:1;stroke:none;stroke-width:3;stroke-miterlimit:4;stroke-dasharray:none;stroke-opacity:1" />
    <path
       id="path3413"
       d="M 310.52235,402.26484 L 310.52235,392.89659 L 315.00382,392.89659 L 319.48528,392.89659 L 319.48528,402.2427 L 319.48528,411.5888 L 317.47779,411.58883 C 316.37366,411.58884 314.357,411.5988 312.99632,411.61097 L 310.52235,411.63308 L 310.52235,402.26484 z"
       style="opacity:1;fill:#909010;fill-opacity:1;stroke:none;stroke-width:3;stroke-miterlimit:4;stroke-dasharray:none;stroke-opacity:1" />
    <path
       id="path3415"
       d="M 320.51819,402.2427 L 320.51819,392.89659 L 324.99965,392.89659 L 329.48112,392.89659 L 329.48112,402.2427 L 329.48112,411.5888 L 324.99965,411.5888 L 320.51819,411.5888 L 320.51819,402.2427 z"
       style="opacity:1;fill:#a0a010;fill-opacity:1;stroke:none;stroke-width:3;stroke-miterlimit:4;stroke-dasharray:none;stroke-opacity:1" />
    <path
       id="path3417"
       d="M 10.499043,402.35932 L 10.499043,392.86327 L 14.997169,392.86327 L 19.495295,392.86327 L 19.495295,402.35932 L 19.495295,411.85536 L 14.997169,411.85536 L 10.499043,411.85536 L 10.499043,402.35932 z"
       style="opacity:1;fill:#c7911c;fill-opacity:1;stroke:none;stroke-width:3;stroke-miterlimit:4;stroke-dasharray:none;stroke-opacity:1" />
    <path
       id="path3419"
       d="M 20.528197,402.36288 L 20.528197,392.86327 L 25.009664,392.86327 L 29.49113,392.86327 L 29.49113,402.34266 L 29.49113,411.82204 L 25.062368,411.82204 C 22.626549,411.82204 20.609889,411.83114 20.580902,411.84226 C 20.532918,411.86068 20.528197,411.01159 20.528197,402.36288 z"
       style="opacity:1;fill:#10f010;fill-opacity:1;stroke:none;stroke-width:3;stroke-miterlimit:4;stroke-dasharray:none;stroke-opacity:1" />
    <path
       id="path3421"
       d="M 30.530696,402.34266 L 30.530696,392.86327 L 35.012162,392.86327 L 39.493629,392.86327 L 39.493629,402.34266 L 39.493629,411.82204 L 35.012162,411.82204 L 30.530696,411.82204 L 30.530696,402.34266 z"
       style="opacity:1;fill:#1060f0;fill-opacity:1;stroke:none;stroke-width:3;stroke-miterlimit:4;stroke-dasharray:none;stroke-opacity:1" />
    <path
       id="path3423"
       d="M 40.519868,402.34266 L 40.519868,392.86327 L 45.001334,392.86327 L 49.4828,392.86327 L 49.4828,402.34266 L 49.4828,411.82204 L 45.001334,411.82204 L 40.519868,411.82204 L 40.519868,402.34266 z"
       style="opacity:1;fill:#f0f0f0;fill-opacity:1;stroke:none;stroke-width:3;stroke-miterlimit:4;stroke-dasharray:none;stroke-opacity:1" />
    <path
       id="path3425"
       d="M 50.499043,402.34266 L 50.499043,392.86327 L 54.997169,392.86327 L 59.495295,392.86327 L 59.495295,402.34266 L 59.495295,411.82204 L 54.997169,411.82204 L 50.499043,411.82204 L 50.499043,402.34266 z"
       style="opacity:1;fill:#f0f010;fill-opacity:1;stroke:none;stroke-width:3;stroke-miterlimit:4;stroke-dasharray:none;stroke-opacity:1" />
    <path
       id="path3427"
       d="M 60.528197,402.34809 L 60.528197,392.86327 L 65.009664,392.86327 L 69.49113,392.86327 L 69.49113,402.326 L 69.49113,411.78872 L 66.484049,411.78876 C 64.830155,411.78878 62.813495,411.79872 62.002583,411.81085 L 60.528197,411.8329 L 60.528197,402.34809 z"
       style="opacity:1;fill:#f06010;fill-opacity:1;stroke:none;stroke-width:3;stroke-miterlimit:4;stroke-dasharray:none;stroke-opacity:1" />
    <path
       id="path3429"
       d="M 70.500709,402.326 L 70.500709,392.86327 L 74.998835,392.86327 L 79.49696,392.86327 L 79.49696,402.326 L 79.49696,411.78872 L 74.998835,411.78872 L 70.500709,411.78872 L 70.500709,402.326 z"
       style="opacity:1;fill:#f01010;fill-opacity:1;stroke:none;stroke-width:3;stroke-miterlimit:4;stroke-dasharray:none;stroke-opacity:1" />
    <path
       id="path3431"
       d="M 80.529863,402.326 L 80.529863,392.86327 L 85.011329,392.86327 L 89.492796,392.86327 L 89.492796,402.326 L 89.492796,411.78872 L 85.011329,411.78872 L 80.529863,411.78872 L 80.529863,402.326 z"
       style="opacity:1;fill:#1070f0;fill-opacity:1;stroke:none;stroke-width:3;stroke-miterlimit:4;stroke-dasharray:none;stroke-opacity:1" />
    <path
       id="path3433"
       d="M 90.512371,402.326 L 90.512371,392.86327 L 94.993837,392.86327 L 99.475303,392.86327 L 99.475303,402.326 L 99.475303,411.78872 L 94.993837,411.78872 L 90.512371,411.78872 L 90.512371,402.326 z"
       style="opacity:1;fill:#808080;fill-opacity:1;stroke:none;stroke-width:3;stroke-miterlimit:4;stroke-dasharray:none;stroke-opacity:1" />
    <path
       id="path3435"
       d="M 100.50821,402.326 L 100.50821,392.85229 L 103.41251,392.87444 C 105.00987,392.88662 107.02653,392.89659 107.89397,392.89659 L 109.47114,392.89659 L 109.47114,402.326 L 109.47114,411.7554 L 107.89398,411.7554 C 107.02653,411.7554 105.00987,411.76537 103.41251,411.77755 L 100.50821,411.7997 L 100.50821,402.326 z"
       style="opacity:1;fill:#909090;fill-opacity:1;stroke:none;stroke-width:3;stroke-miterlimit:4;stroke-dasharray:none;stroke-opacity:1" />
    <path
       id="path3437"
       d="M 110.50071,402.326 L 110.50071,392.89659 L 114.99883,392.89659 L 119.49696,392.89659 L 119.49696,402.326 L 119.49696,411.7554 L 114.99883,411.7554 L 110.50071,411.7554 L 110.50071,402.326 z"
       style="opacity:1;fill:#10c010;fill-opacity:1;stroke:none;stroke-width:3;stroke-miterlimit:4;stroke-dasharray:none;stroke-opacity:1" />
    <path
       id="path3439"
       d="M 120.52986,402.326 L 120.52986,392.89659 L 125.01133,392.89659 L 129.4928,392.89659 L 129.4928,402.326 L 129.4928,411.7554 L 125.01133,411.7554 L 120.52986,411.7554 L 120.52986,402.326 z"
       style="opacity:1;fill:#10a0f0;fill-opacity:1;stroke:none;stroke-width:3;stroke-miterlimit:4;stroke-dasharray:none;stroke-opacity:1" />
    <path
       id="path3441"
       d="M 130.51237,402.326 L 130.51237,392.89659 L 134.99384,392.89659 L 139.4753,392.89659 L 139.4753,402.326 L 139.4753,411.7554 L 134.99384,411.7554 L 130.51237,411.7554 L 130.51237,402.326 z"
       style="opacity:1;fill:#703030;fill-opacity:1;stroke:none;stroke-width:3;stroke-miterlimit:4;stroke-dasharray:none;stroke-opacity:1" />
    <path
       id="path3443"
       d="M 140.50821,402.326 L 140.50821,392.89659 L 144.98967,392.89659 L 149.47114,392.89659 L 149.47114,402.30386 L 149.47114,411.71113 L 147.06664,411.73326 C 145.74416,411.74544 143.7275,411.7554 142.58517,411.7554 L 140.50821,411.7554 L 140.50821,402.326 z"
       style="opacity:1;fill:#f010f0;fill-opacity:1;stroke:none;stroke-width:3;stroke-miterlimit:4;stroke-dasharray:none;stroke-opacity:1" />
    <path
       id="path3445"
       d="M 150.50071,402.30934 L 150.50071,392.89659 L 154.99883,392.89659 L 159.49696,392.89659 L 159.49696,402.30934 L 159.49696,411.72208 L 154.99883,411.72208 L 150.50071,411.72208 L 150.50071,402.30934 z"
       style="opacity:1;fill:#1010f0;fill-opacity:1;stroke:none;stroke-width:3;stroke-miterlimit:4;stroke-dasharray:none;stroke-opacity:1" />
    <text
       id="text3449"
       y="526.11688"
       x="91.979836"
       style="font-size:40px;font-style:normal;font-weight:normal;fill:#000000;fill-opacity:1;stroke:none;stroke-width:1px;stroke-linecap:butt;stroke-linejoin:miter;stroke-opacity:1;font-family:Bitstream Vera Sans"
       xml:space="preserve"><tspan
         y="526.11688"
         x="91.979836"
         id="tspan3451"
         sodipodi:role="line">\lodts</tspan></text>
  </g>
</svg>
