<?xml version="1.0" encoding="UTF-8" standalone="no"?>
<!-- Created with Inkscape (http://www.inkscape.org/) -->
<svg
   xmlns:dc="http://purl.org/dc/elements/1.1/"
   xmlns:cc="http://creativecommons.org/ns#"
   xmlns:rdf="http://www.w3.org/1999/02/22-rdf-syntax-ns#"
   xmlns:svg="http://www.w3.org/2000/svg"
   xmlns="http://www.w3.org/2000/svg"
   xmlns:sodipodi="http://sodipodi.sourceforge.net/DTD/sodipodi-0.dtd"
   xmlns:inkscape="http://www.inkscape.org/namespaces/inkscape"
   id="svg2837"
   version="1.0"
   inkscape:version="0.46"
   width="676.31531"
   height="543.92914"
   xml:space="preserve"
   sodipodi:docname="ccollision3.svg"
   sodipodi:version="0.32"
   inkscape:output_extension="org.inkscape.output.svg.inkscape"><metadata
     id="metadata2843"><rdf:RDF><cc:Work
         rdf:about=""><dc:format>image/svg+xml</dc:format><dc:type
           rdf:resource="http://purl.org/dc/dcmitype/StillImage" /><dc:title /></cc:Work></rdf:RDF></metadata><defs
     id="defs2841"><inkscape:perspective
   sodipodi:type="inkscape:persp3d"
   inkscape:vp_x="0 : 0.5 : 1"
   inkscape:vp_y="0 : 1000 : 0"
   inkscape:vp_z="1 : 0.5 : 1"
   inkscape:persp3d-origin="0.5 : 0.33333333 : 1"
   id="perspective2845" /><clipPath
   clipPathUnits="userSpaceOnUse"
   id="clipPath2855"><path
     d="M 229,507.922 L 229,6507.92 L 4729,6507.92 L 4729,507.922 L 229,507.922 L 229,507.922 z"
     clip-rule="evenodd"
     id="path2857" /></clipPath><clipPath
   clipPathUnits="userSpaceOnUse"
   id="clipPath2903"><path
     d="M 229,507.922 L 229,6507.92 L 4729,6507.92 L 4729,507.922 L 229,507.922 L 229,507.922 z"
     clip-rule="evenodd"
     id="path2905" /></clipPath><inkscape:perspective
   id="perspective4078"
   inkscape:persp3d-origin="0.5 : 0.33333333 : 1"
   inkscape:vp_z="1 : 0.5 : 1"
   inkscape:vp_y="0 : 1000 : 0"
   inkscape:vp_x="0 : 0.5 : 1"
   sodipodi:type="inkscape:persp3d" /><inkscape:perspective
   id="perspective4078-2"
   inkscape:persp3d-origin="0.5 : 0.33333333 : 1"
   inkscape:vp_z="1 : 0.5 : 1"
   inkscape:vp_y="0 : 1000 : 0"
   inkscape:vp_x="0 : 0.5 : 1"
   sodipodi:type="inkscape:persp3d" /><inkscape:perspective
   id="perspective4624"
   inkscape:persp3d-origin="0.5 : 0.33333333 : 1"
   inkscape:vp_z="1 : 0.5 : 1"
   inkscape:vp_y="0 : 1000 : 0"
   inkscape:vp_x="0 : 0.5 : 1"
   sodipodi:type="inkscape:persp3d" /><inkscape:perspective
   id="perspective4699"
   inkscape:persp3d-origin="0.5 : 0.33333333 : 1"
   inkscape:vp_z="1 : 0.5 : 1"
   inkscape:vp_y="0 : 1000 : 0"
   inkscape:vp_x="0 : 0.5 : 1"
   sodipodi:type="inkscape:persp3d" /><inkscape:perspective
   id="perspective4721"
   inkscape:persp3d-origin="0.5 : 0.33333333 : 1"
   inkscape:vp_z="1 : 0.5 : 1"
   inkscape:vp_y="0 : 1000 : 0"
   inkscape:vp_x="0 : 0.5 : 1"
   sodipodi:type="inkscape:persp3d" /><inkscape:perspective
   id="perspective4743"
   inkscape:persp3d-origin="0.5 : 0.33333333 : 1"
   inkscape:vp_z="1 : 0.5 : 1"
   inkscape:vp_y="0 : 1000 : 0"
   inkscape:vp_x="0 : 0.5 : 1"
   sodipodi:type="inkscape:persp3d" /><inkscape:perspective
   id="perspective4765"
   inkscape:persp3d-origin="0.5 : 0.33333333 : 1"
   inkscape:vp_z="1 : 0.5 : 1"
   inkscape:vp_y="0 : 1000 : 0"
   inkscape:vp_x="0 : 0.5 : 1"
   sodipodi:type="inkscape:persp3d" /><inkscape:perspective
   id="perspective4787"
   inkscape:persp3d-origin="0.5 : 0.33333333 : 1"
   inkscape:vp_z="1 : 0.5 : 1"
   inkscape:vp_y="0 : 1000 : 0"
   inkscape:vp_x="0 : 0.5 : 1"
   sodipodi:type="inkscape:persp3d" /><inkscape:perspective
   id="perspective4849"
   inkscape:persp3d-origin="0.5 : 0.33333333 : 1"
   inkscape:vp_z="1 : 0.5 : 1"
   inkscape:vp_y="0 : 1000 : 0"
   inkscape:vp_x="0 : 0.5 : 1"
   sodipodi:type="inkscape:persp3d" /><inkscape:perspective
   id="perspective4849-7"
   inkscape:persp3d-origin="0.5 : 0.33333333 : 1"
   inkscape:vp_z="1 : 0.5 : 1"
   inkscape:vp_y="0 : 1000 : 0"
   inkscape:vp_x="0 : 0.5 : 1"
   sodipodi:type="inkscape:persp3d" /><inkscape:perspective
   id="perspective5152"
   inkscape:persp3d-origin="0.5 : 0.33333333 : 1"
   inkscape:vp_z="1 : 0.5 : 1"
   inkscape:vp_y="0 : 1000 : 0"
   inkscape:vp_x="0 : 0.5 : 1"
   sodipodi:type="inkscape:persp3d" /><inkscape:perspective
   id="perspective5460"
   inkscape:persp3d-origin="0.5 : 0.33333333 : 1"
   inkscape:vp_z="1 : 0.5 : 1"
   inkscape:vp_y="0 : 1000 : 0"
   inkscape:vp_x="0 : 0.5 : 1"
   sodipodi:type="inkscape:persp3d" /><inkscape:perspective
   id="perspective5482"
   inkscape:persp3d-origin="0.5 : 0.33333333 : 1"
   inkscape:vp_z="1 : 0.5 : 1"
   inkscape:vp_y="0 : 1000 : 0"
   inkscape:vp_x="0 : 0.5 : 1"
   sodipodi:type="inkscape:persp3d" /><inkscape:perspective
   id="perspective5522"
   inkscape:persp3d-origin="0.5 : 0.33333333 : 1"
   inkscape:vp_z="1 : 0.5 : 1"
   inkscape:vp_y="0 : 1000 : 0"
   inkscape:vp_x="0 : 0.5 : 1"
   sodipodi:type="inkscape:persp3d" /><inkscape:perspective
   id="perspective5544"
   inkscape:persp3d-origin="0.5 : 0.33333333 : 1"
   inkscape:vp_z="1 : 0.5 : 1"
   inkscape:vp_y="0 : 1000 : 0"
   inkscape:vp_x="0 : 0.5 : 1"
   sodipodi:type="inkscape:persp3d" />





</defs><sodipodi:namedview
     pagecolor="#ffffff"
     bordercolor="#666666"
     borderopacity="1"
     objecttolerance="10"
     gridtolerance="10"
     guidetolerance="10"
     inkscape:pageopacity="0"
     inkscape:pageshadow="2"
     inkscape:window-width="1680"
     inkscape:window-height="1002"
     id="namedview2839"
     showgrid="false"
     inkscape:zoom="0.90889961"
     inkscape:cx="186.89732"
     inkscape:cy="276.58112"
     inkscape:window-x="230"
     inkscape:window-y="0"
     inkscape:window-maximized="1"
     inkscape:current-layer="g2847"
     showguides="true"
     inkscape:guide-bbox="true"><sodipodi:guide
       orientation="1,0"
       position="762.46044,385.08103"
       id="guide3887" /><sodipodi:guide
       orientation="0,1"
       position="841.67711,114.42408"
       id="guide3889" /><sodipodi:guide
       orientation="1,0"
       position="-129.82732,699.74725"
       id="guide3895" /></sodipodi:namedview><g
     id="g2847"
     inkscape:groupmode="layer"
     inkscape:label="RDMN08-10"
     transform="matrix(0,1.25,1.25,0,213.99689,-241.10676)">


<text
   xml:space="preserve"
   style="font-size:14.39999962px;font-style:normal;font-weight:normal;fill:#000000;fill-opacity:1;stroke:none;font-family:Bitstream Vera Sans"
   x="-37.036076"
   y="204.38541"
   id="text3952"
   transform="matrix(0,1,1,0,0,0)"><tspan
     sodipodi:role="line"
     id="tspan3954"
     x="-37.036076"
     y="204.38541"
     style="font-size:16px;font-style:normal;font-variant:normal;font-weight:bold;font-stretch:normal;font-family:Arial;-inkscape-font-specification:Arial Bold">Runde 1</tspan></text>






<text
   xml:space="preserve"
   style="font-size:14.39999962px;font-style:normal;font-weight:normal;fill:#000000;fill-opacity:1;stroke:none;font-family:Bitstream Vera Sans"
   x="-37.934513"
   y="355.59247"
   id="text3952-2"
   transform="matrix(0,1,1,0,0,0)"><tspan
     sodipodi:role="line"
     id="tspan3954-2"
     x="-37.934513"
     y="355.59247"
     style="font-size:16px;font-style:normal;font-variant:normal;font-weight:bold;font-stretch:normal;font-family:Arial;-inkscape-font-specification:Arial Bold">Runde 2</tspan></text>






<text
   xml:space="preserve"
   style="font-size:14.39999962px;font-style:normal;font-weight:normal;fill:#000000;fill-opacity:1;stroke:none;font-family:Bitstream Vera Sans"
   x="-37.993107"
   y="509.06396"
   id="text3952-3"
   transform="matrix(0,1,1,0,0,0)"><tspan
     sodipodi:role="line"
     id="tspan3954-3"
     x="-37.993107"
     y="509.06396"
     style="font-size:16px;font-style:normal;font-variant:normal;font-weight:bold;font-stretch:normal;font-family:Arial;-inkscape-font-specification:Arial Bold">Runde 3</tspan></text>



<path
   id="path2957-5"
   style="fill:none;stroke:#ff00ff;stroke-width:1.60000002;stroke-linecap:round;stroke-linejoin:round;stroke-miterlimit:10;stroke-dasharray:none;stroke-opacity:1"
   d="M 519.27873,-150.1767 L 602.55873,-150.1767" /><path
   id="path2959-2"
   style="fill:none;stroke:#000000;stroke-width:0.75;stroke-linecap:round;stroke-linejoin:round;stroke-miterlimit:10;stroke-dasharray:none;stroke-opacity:1"
   d="M 529.47873,-145.9767 L 602.55873,-6.1767" /><path
   id="path2961-9"
   style="fill:none;stroke:#000000;stroke-width:0.75;stroke-linecap:round;stroke-linejoin:round;stroke-miterlimit:10;stroke-dasharray:none;stroke-opacity:1"
   d="M 525.27873,-114.1767 L 602.55873,-78.1767" /><path
   id="path2963-0"
   style="fill:none;stroke:#000000;stroke-width:0.75;stroke-linecap:round;stroke-linejoin:round;stroke-miterlimit:10;stroke-dasharray:none;stroke-opacity:1"
   d="M 531.99873,-78.1767 L 602.55873,-78.1767" /><path
   id="path2965-2"
   style="fill:none;stroke:#ff00ff;stroke-width:1.60000002;stroke-linecap:round;stroke-linejoin:round;stroke-miterlimit:10;stroke-dasharray:none;stroke-opacity:1"
   d="M 520.23873,-73.9767 L 602.55873,-150.1767" /><path
   id="path2967-8"
   style="fill:#acacac;fill-opacity:1;stroke:#000000;stroke-width:1.5;stroke-linecap:round;stroke-linejoin:miter;stroke-miterlimit:8;stroke-dasharray:none;stroke-opacity:1"
   d="M 603.27873,89.8233 L 627.27873,89.8233 L 627.27873,113.8233 L 603.27873,113.8233 L 603.27873,89.8233 z" /><path
   id="path2969-3"
   style="fill:#ff00ff;fill-opacity:1;stroke:#000000;stroke-width:1.5;stroke-linecap:round;stroke-linejoin:miter;stroke-miterlimit:8;stroke-dasharray:none;stroke-opacity:1"
   d="M 603.27873,17.8233 L 627.27873,17.8233 L 627.27873,41.8233 L 603.27873,41.8233 L 603.27873,17.8233 L 603.27873,17.8233 z" /><path
   id="path2971-8"
   style="fill:#00fff4;fill-opacity:0.7372549;stroke:#000000;stroke-width:1.5;stroke-linecap:round;stroke-linejoin:miter;stroke-miterlimit:8;stroke-dasharray:none;stroke-opacity:1"
   d="M 603.27873,-18.1767 L 627.27873,-18.1767 L 627.27873,5.8233 L 603.27873,5.8233 L 603.27873,-18.1767 z" /><path
   id="path2973-04"
   style="fill:none;fill-opacity:1;stroke:#828282;stroke-width:1.5;stroke-linecap:round;stroke-linejoin:miter;stroke-miterlimit:8;stroke-dasharray:none;stroke-opacity:1"
   d="M 603.27873,-54.1767 L 627.27873,-54.1767 L 627.27873,-30.1767 L 603.27873,-30.1767 L 603.27873,-54.1767 z" /><path
   id="path2975-0"
   style="fill:#00fff4;fill-opacity:0.7372549;stroke:#000000;stroke-width:1.5;stroke-linecap:round;stroke-linejoin:miter;stroke-miterlimit:8;stroke-dasharray:none;stroke-opacity:1"
   d="M 603.27873,-90.1767 L 627.27873,-90.1767 L 627.27873,-66.1767 L 603.27873,-66.1767 L 603.27873,-90.1767 z" /><path
   id="path2977-9"
   style="fill:none;fill-opacity:1;stroke:#828282;stroke-width:1.5;stroke-linecap:round;stroke-linejoin:miter;stroke-miterlimit:8;stroke-dasharray:none;stroke-opacity:1"
   d="M 603.27873,-126.1767 L 627.27873,-126.1767 L 627.27873,-102.1767 L 603.27873,-102.1767 L 603.27873,-126.1767 z" /><path
   id="path2979-1"
   style="fill:#ff00ff;fill-opacity:1;stroke:#000000;stroke-width:1.5;stroke-linecap:round;stroke-linejoin:miter;stroke-miterlimit:8;stroke-dasharray:none;stroke-opacity:1"
   d="M 603.27873,-162.1767 L 627.27873,-162.1767 L 627.27873,-138.1767 L 603.27873,-138.1767 L 603.27873,-162.1767 z" /><path
   id="path2981-9"
   style="fill:#acacac;fill-opacity:1;stroke:#000000;stroke-width:1.5;stroke-linecap:round;stroke-linejoin:miter;stroke-miterlimit:8;stroke-dasharray:none;stroke-opacity:1"
   d="M 603.27873,53.8233 L 627.27873,53.8233 L 627.27873,77.8233 L 603.27873,77.8233 L 603.27873,53.8233 z" /><path
   id="path2983-6"
   style="fill:none;stroke:#828282;stroke-width:1.5;stroke-linecap:round;stroke-linejoin:miter;stroke-miterlimit:8;stroke-dasharray:none;stroke-opacity:1"
   d="M 603.27873,125.8233 L 627.27873,125.8233 L 627.27873,149.8233 L 603.27873,149.8233 L 603.27873,125.8233 z" /><path
   id="path3013-3"
   style="fill:#0046a0;fill-opacity:1;fill-rule:evenodd;stroke:#000000;stroke-width:1.5;stroke-miterlimit:10;stroke-dasharray:none;stroke-opacity:1"
   d="M 519.27873,101.8233 C 519.27873,98.4633 521.91873,95.8233 525.27873,95.8233 C 528.63873,95.8233 531.27873,98.4633 531.27873,101.8233 C 531.27873,105.1833 528.63873,107.8233 525.27873,107.8233 C 521.91873,107.8233 519.27873,105.1833 519.27873,101.8233" /><path
   id="path3017-1"
   style="fill:#0046a0;fill-opacity:1;fill-rule:evenodd;stroke:#000000;stroke-width:1.5;stroke-miterlimit:4;stroke-dasharray:none;stroke-opacity:1"
   d="M 519.27873,137.8233 C 519.27873,134.4633 521.91873,131.8233 525.27873,131.8233 C 528.63873,131.8233 531.27873,134.4633 531.27873,137.8233 C 531.27873,141.1833 528.63873,143.8233 525.27873,143.8233 C 521.91873,143.8233 519.27873,141.1833 519.27873,137.8233" /><path
   id="path3021-4"
   style="fill:none;stroke:#ff00ff;stroke-width:1.60000002;stroke-linecap:round;stroke-linejoin:round;stroke-miterlimit:10;stroke-dasharray:none;stroke-opacity:1"
   d="M 530.31873,-109.9767 L 602.55873,29.8233" /><path
   id="path3027-4"
   style="fill:none;stroke:#000000;stroke-width:0.75;stroke-linecap:round;stroke-linejoin:round;stroke-miterlimit:10;stroke-dasharray:none;stroke-opacity:1"
   d="M 531.99873,-6.1767 L 602.55873,-6.1767" /><path
   id="path3029-6"
   style="fill:none;stroke:#ff00ff;stroke-width:1.60000002;stroke-linecap:round;stroke-linejoin:round;stroke-miterlimit:10;stroke-dasharray:none;stroke-opacity:1"
   d="M 530.31873,-1.9767 L 602.55873,29.8233" /><path
   id="path3035-2"
   style="fill:none;stroke:#000000;stroke-width:0.75;stroke-linecap:round;stroke-linejoin:round;stroke-miterlimit:10;stroke-dasharray:none;stroke-opacity:1"
   d="M 531.99873,65.8233 L 602.55873,-6.1767" /><path
   id="path3037-2"
   style="fill:none;stroke:#000000;stroke-width:0.75;stroke-linecap:round;stroke-linejoin:round;stroke-miterlimit:10;stroke-dasharray:none;stroke-opacity:1"
   d="M 530.31873,61.6233 L 602.55873,-78.1767" /><path
   id="path3047-8"
   style="fill:none;stroke:none"
   d="M 602.79873,89.8233 L 626.79873,89.8233 L 626.79873,113.8233 L 602.79873,113.8233 L 602.79873,89.8233 z" /><path
   id="path2989-4"
   style="fill:#0046a0;fill-opacity:1;fill-rule:evenodd;stroke:#000000;stroke-width:1.5;stroke-miterlimit:4;stroke-dasharray:none;stroke-opacity:1"
   d="M 519.27873,-114.1767 C 519.27873,-117.5367 521.91873,-120.1767 525.27873,-120.1767 C 528.63873,-120.1767 531.27873,-117.5367 531.27873,-114.1767 C 531.27873,-110.8167 528.63873,-108.1767 525.27873,-108.1767 C 521.91873,-108.1767 519.27873,-110.8167 519.27873,-114.1767" /><path
   id="path2997-3"
   style="fill:#0046a0;fill-opacity:1;fill-rule:evenodd;stroke:#000000;stroke-width:1.5;stroke-miterlimit:10;stroke-dasharray:none;stroke-opacity:1"
   d="M 519.27873,-42.1767 C 519.27873,-45.5367 521.91873,-48.1767 525.27873,-48.1767 C 528.63873,-48.1767 531.27873,-45.5367 531.27873,-42.1767 C 531.27873,-38.8167 528.63873,-36.1767 525.27873,-36.1767 C 521.91873,-36.1767 519.27873,-38.8167 519.27873,-42.1767" /><path
   id="path3001-0"
   style="fill:#0046a0;fill-opacity:1;fill-rule:evenodd;stroke:#000000;stroke-width:1.5;stroke-miterlimit:4;stroke-dasharray:none;stroke-opacity:1"
   d="M 519.27873,-6.1767 C 519.27873,-9.5367 521.91873,-12.1767 525.27873,-12.1767 C 528.63873,-12.1767 531.27873,-9.5367 531.27873,-6.1767 C 531.27873,-2.8167 528.63873,-0.1767 525.27873,-0.1767 C 521.91873,-0.1767 519.27873,-2.8167 519.27873,-6.1767" /><path
   id="path3005-0"
   style="fill:#0046a0;fill-opacity:1;fill-rule:evenodd;stroke:#000000;stroke-width:1.5;stroke-miterlimit:4;stroke-dasharray:none;stroke-opacity:1"
   d="M 519.27873,29.8233 C 519.27873,26.4633 521.91873,23.8233 525.27873,23.8233 C 528.63873,23.8233 531.27873,26.4633 531.27873,29.8233 C 531.27873,33.1833 528.63873,35.8233 525.27873,35.8233 C 521.91873,35.8233 519.27873,33.1833 519.27873,29.8233" /><path
   id="path3009-9"
   style="fill:#0046a0;fill-opacity:1;fill-rule:evenodd;stroke:#000000;stroke-width:1.5;stroke-miterlimit:10;stroke-dasharray:none;stroke-opacity:1"
   d="M 519.27873,65.8233 C 519.27873,62.4633 521.91873,59.8233 525.27873,59.8233 C 528.63873,59.8233 531.27873,62.4633 531.27873,65.8233 C 531.27873,69.1833 528.63873,71.8233 525.27873,71.8233 C 521.91873,71.8233 519.27873,69.1833 519.27873,65.8233" /><path
   id="path2993-9"
   style="fill:#0046a0;fill-opacity:1;fill-rule:evenodd;stroke:#000000;stroke-width:1.5;stroke-miterlimit:4;stroke-dasharray:none;stroke-opacity:1"
   d="M 519.27873,-78.1767 C 519.27873,-81.5367 521.91873,-84.1767 525.27873,-84.1767 C 528.63873,-84.1767 531.27873,-81.5367 531.27873,-78.1767 C 531.27873,-74.8167 528.63873,-72.1767 525.27873,-72.1767 C 521.91873,-72.1767 519.27873,-74.8167 519.27873,-78.1767" /><path
   id="path2985-2"
   style="fill:#0046a0;fill-opacity:1;fill-rule:evenodd;stroke:#000000;stroke-width:1.5;stroke-miterlimit:4;stroke-dasharray:none;stroke-opacity:1"
   d="M 519.27873,-150.1767 C 519.27873,-153.5367 521.91873,-156.1767 525.27873,-156.1767 C 528.63873,-156.1767 531.27873,-153.5367 531.27873,-150.1767 C 531.27873,-146.8167 528.63873,-144.1767 525.27873,-144.1767 C 521.91873,-144.1767 519.27873,-146.8167 519.27873,-150.1767" /><path
   id="path2957-3"
   style="fill:none;stroke:#000000;stroke-width:0.75;stroke-linecap:round;stroke-linejoin:round;stroke-miterlimit:10;stroke-dasharray:none;stroke-opacity:1"
   d="M 365.80617,-150.1767 L 449.08618,-150.1767" /><path
   id="path2959-8"
   style="fill:none;stroke:#000000;stroke-width:0.75;stroke-linecap:round;stroke-linejoin:round;stroke-miterlimit:10;stroke-dasharray:none;stroke-opacity:1"
   d="M 376.00617,-145.9767 L 449.08617,-6.1767" /><path
   id="path2961-0"
   style="fill:none;stroke:#000000;stroke-width:0.75;stroke-linecap:round;stroke-linejoin:round;stroke-miterlimit:10;stroke-dasharray:none;stroke-opacity:1"
   d="M 371.80617,-114.1767 L 449.08618,-78.1767" /><path
   id="path2963-5"
   style="fill:none;stroke:#000000;stroke-width:0.75;stroke-linecap:round;stroke-linejoin:round;stroke-miterlimit:10;stroke-dasharray:none;stroke-opacity:1"
   d="M 378.52618,-78.1767 L 449.08618,-78.1767" /><path
   id="path2965-6"
   style="fill:none;stroke:#000000;stroke-width:0.75;stroke-linecap:round;stroke-linejoin:round;stroke-miterlimit:10;stroke-dasharray:none;stroke-opacity:1"
   d="M 366.76617,-73.9767 L 449.08617,-150.1767" /><path
   id="path2967-6"
   style="fill:#acacac;fill-opacity:1;stroke:#000000;stroke-width:1.5;stroke-linecap:round;stroke-linejoin:miter;stroke-miterlimit:8;stroke-dasharray:none;stroke-opacity:1"
   d="M 449.80617,89.8233 L 473.80617,89.8233 L 473.80617,113.8233 L 449.80617,113.8233 L 449.80617,89.8233 z" /><path
   id="path2969-4"
   style="fill:#00fff4;fill-opacity:0.7372549;stroke:#000000;stroke-width:1.5;stroke-linecap:round;stroke-linejoin:miter;stroke-miterlimit:8;stroke-dasharray:none;stroke-opacity:1"
   d="M 449.80617,17.8233 L 473.80617,17.8233 L 473.80617,41.8233 L 449.80617,41.8233 L 449.80617,17.8233 L 449.80617,17.8233 z" /><path
   id="path2971-0"
   style="fill:#00fff4;fill-opacity:0.7372549;stroke:#000000;stroke-width:1.5;stroke-linecap:round;stroke-linejoin:miter;stroke-miterlimit:8;stroke-dasharray:none;stroke-opacity:1"
   d="M 449.80617,-18.1767 L 473.80617,-18.1767 L 473.80617,5.8233 L 449.80617,5.8233 L 449.80617,-18.1767 z" /><path
   id="path2973-0"
   style="fill:none;fill-opacity:1;stroke:#828282;stroke-width:1.5;stroke-linecap:round;stroke-linejoin:miter;stroke-miterlimit:8;stroke-dasharray:none;stroke-opacity:1"
   d="M 449.80617,-54.1767 L 473.80617,-54.1767 L 473.80617,-30.1767 L 449.80617,-30.1767 L 449.80617,-54.1767 z" /><path
   id="path2975-4"
   style="fill:#00fff4;fill-opacity:0.7372549;stroke:#000000;stroke-width:1.5;stroke-linecap:round;stroke-linejoin:miter;stroke-miterlimit:8;stroke-dasharray:none;stroke-opacity:1"
   d="M 449.80617,-90.1767 L 473.80617,-90.1767 L 473.80617,-66.1767 L 449.80617,-66.1767 L 449.80617,-90.1767 z" /><path
   id="path2977-6"
   style="fill:none;fill-opacity:1;stroke:#828282;stroke-width:1.5;stroke-linecap:round;stroke-linejoin:miter;stroke-miterlimit:8;stroke-dasharray:none;stroke-opacity:1"
   d="M 449.80617,-126.1767 L 473.80617,-126.1767 L 473.80617,-102.1767 L 449.80617,-102.1767 L 449.80617,-126.1767 z" /><path
   id="path2979-2"
   style="fill:#00fff4;fill-opacity:0.7372549;stroke:#000000;stroke-width:1.5;stroke-linecap:round;stroke-linejoin:miter;stroke-miterlimit:8;stroke-dasharray:none;stroke-opacity:1"
   d="M 449.80617,-162.1767 L 473.80617,-162.1767 L 473.80617,-138.1767 L 449.80617,-138.1767 L 449.80617,-162.1767 z" /><path
   id="path2981-6"
   style="fill:#ff00ff;fill-opacity:1;stroke:#000000;stroke-width:1.5;stroke-linecap:round;stroke-linejoin:miter;stroke-miterlimit:8;stroke-dasharray:none;stroke-opacity:1"
   d="M 449.80617,53.8233 L 473.80617,53.8233 L 473.80617,77.8233 L 449.80617,77.8233 L 449.80617,53.8233 z" /><path
   id="path2983-7"
   style="fill:none;stroke:#828282;stroke-width:1.5;stroke-linecap:round;stroke-linejoin:miter;stroke-miterlimit:8;stroke-dasharray:none;stroke-opacity:1"
   d="M 449.80617,125.8233 L 473.80617,125.8233 L 473.80617,149.8233 L 449.80617,149.8233 L 449.80617,125.8233 z" /><path
   id="path3021-1"
   style="fill:none;stroke:#000000;stroke-width:0.75;stroke-linecap:round;stroke-linejoin:round;stroke-miterlimit:10;stroke-dasharray:none;stroke-opacity:1"
   d="M 376.84618,-109.9767 L 449.08618,29.8233" /><path
   id="path3023-5"
   style="fill:none;stroke:#000000;stroke-width:0.75;stroke-linecap:round;stroke-linejoin:round;stroke-miterlimit:10;stroke-dasharray:none;stroke-opacity:1"
   d="M 376.84618,-46.3767 L 449.08618,-150.1767" /><path
   id="path3025-9"
   style="fill:none;stroke:#ff00ff;stroke-width:1.60000002;stroke-linecap:round;stroke-linejoin:round;stroke-miterlimit:10;stroke-dasharray:none;stroke-opacity:1"
   d="M 376.84618,-37.9767 L 449.08618,65.8233" /><path
   id="path3027-9"
   style="fill:none;stroke:#000000;stroke-width:0.75;stroke-linecap:round;stroke-linejoin:round;stroke-miterlimit:10;stroke-dasharray:none;stroke-opacity:1"
   d="M 378.52618,-6.1767 L 449.08618,-6.1767" /><path
   id="path3029-1"
   style="fill:none;stroke:#000000;stroke-width:0.75;stroke-linecap:round;stroke-linejoin:round;stroke-miterlimit:10;stroke-dasharray:none;stroke-opacity:1"
   d="M 376.84618,-1.9767 L 449.08618,29.8233" /><path
   id="path3035-1"
   style="fill:none;stroke:#000000;stroke-width:0.75;stroke-linecap:round;stroke-linejoin:round;stroke-miterlimit:10;stroke-dasharray:none;stroke-opacity:1"
   d="M 378.52618,65.8233 L 449.08618,-6.1767" /><path
   id="path3037-0"
   style="fill:none;stroke:#000000;stroke-width:0.75;stroke-linecap:round;stroke-linejoin:round;stroke-miterlimit:10;stroke-dasharray:none;stroke-opacity:1"
   d="M 376.84618,61.6233 L 449.08618,-78.1767" /><path
   id="path3039-7"
   style="fill:none;stroke:#ff00ff;stroke-width:1.60000002;stroke-linecap:round;stroke-linejoin:round;stroke-miterlimit:10;stroke-dasharray:none;stroke-opacity:1"
   d="M 378.52618,101.8233 L 449.08618,65.8233" /><path
   id="path3041-5"
   style="fill:none;stroke:#000000;stroke-width:0.75;stroke-linecap:round;stroke-linejoin:round;stroke-miterlimit:10;stroke-dasharray:none;stroke-opacity:1"
   d="M 376.84618,97.6233 L 449.08618,29.8233" /><path
   id="path3047-0"
   style="fill:none;stroke:none"
   d="M 449.32617,89.8233 L 473.32617,89.8233 L 473.32617,113.8233 L 449.32617,113.8233 L 449.32617,89.8233 z" /><path
   id="path3013-3-3"
   style="fill:#0046a0;fill-opacity:1;fill-rule:evenodd;stroke:#000000;stroke-width:1.5;stroke-miterlimit:10;stroke-dasharray:none;stroke-opacity:1"
   d="M 365.54302,101.61711 C 365.54302,98.25711 368.18302,95.61711 371.54302,95.61711 C 374.90302,95.61711 377.54302,98.25711 377.54302,101.61711 C 377.54302,104.97711 374.90302,107.61711 371.54302,107.61711 C 368.18302,107.61711 365.54302,104.97711 365.54302,101.61711" /><path
   id="path3017-1-4"
   style="fill:#0046a0;fill-opacity:1;fill-rule:evenodd;stroke:#000000;stroke-width:1.5;stroke-miterlimit:4;stroke-dasharray:none;stroke-opacity:1"
   d="M 365.54302,137.61711 C 365.54302,134.25711 368.18302,131.61711 371.54302,131.61711 C 374.90302,131.61711 377.54302,134.25711 377.54302,137.61711 C 377.54302,140.97711 374.90302,143.61711 371.54302,143.61711 C 368.18302,143.61711 365.54302,140.97711 365.54302,137.61711" /><path
   id="path2989-4-6"
   style="fill:#0046a0;fill-opacity:1;fill-rule:evenodd;stroke:#000000;stroke-width:1.5;stroke-miterlimit:4;stroke-dasharray:none;stroke-opacity:1"
   d="M 365.54302,-114.38289 C 365.54302,-117.74289 368.18302,-120.38289 371.54302,-120.38289 C 374.90302,-120.38289 377.54302,-117.74289 377.54302,-114.38289 C 377.54302,-111.02289 374.90302,-108.38289 371.54302,-108.38289 C 368.18302,-108.38289 365.54302,-111.02289 365.54302,-114.38289" /><path
   id="path2997-3-6"
   style="fill:#0046a0;fill-opacity:1;fill-rule:evenodd;stroke:#000000;stroke-width:1.5;stroke-miterlimit:10;stroke-dasharray:none;stroke-opacity:1"
   d="M 365.54302,-42.38289 C 365.54302,-45.74289 368.18302,-48.38289 371.54302,-48.38289 C 374.90302,-48.38289 377.54302,-45.74289 377.54302,-42.38289 C 377.54302,-39.02289 374.90302,-36.38289 371.54302,-36.38289 C 368.18302,-36.38289 365.54302,-39.02289 365.54302,-42.38289" /><path
   id="path3001-0-0"
   style="fill:#0046a0;fill-opacity:1;fill-rule:evenodd;stroke:#000000;stroke-width:1.5;stroke-miterlimit:4;stroke-dasharray:none;stroke-opacity:1"
   d="M 365.54302,-6.38289 C 365.54302,-9.74289 368.18302,-12.38289 371.54302,-12.38289 C 374.90302,-12.38289 377.54302,-9.74289 377.54302,-6.38289 C 377.54302,-3.02289 374.90302,-0.38289 371.54302,-0.38289 C 368.18302,-0.38289 365.54302,-3.02289 365.54302,-6.38289" /><path
   id="path3005-0-2"
   style="fill:#0046a0;fill-opacity:1;fill-rule:evenodd;stroke:#000000;stroke-width:1.5;stroke-miterlimit:4;stroke-dasharray:none;stroke-opacity:1"
   d="M 365.54302,29.61711 C 365.54302,26.25711 368.18302,23.61711 371.54302,23.61711 C 374.90302,23.61711 377.54302,26.25711 377.54302,29.61711 C 377.54302,32.97711 374.90302,35.61711 371.54302,35.61711 C 368.18302,35.61711 365.54302,32.97711 365.54302,29.61711" /><path
   id="path3009-9-5"
   style="fill:#0046a0;fill-opacity:1;fill-rule:evenodd;stroke:#000000;stroke-width:1.5;stroke-miterlimit:10;stroke-dasharray:none;stroke-opacity:1"
   d="M 365.54302,65.61711 C 365.54302,62.25711 368.18302,59.61711 371.54302,59.61711 C 374.90302,59.61711 377.54302,62.25711 377.54302,65.61711 C 377.54302,68.97711 374.90302,71.61711 371.54302,71.61711 C 368.18302,71.61711 365.54302,68.97711 365.54302,65.61711" /><path
   id="path2993-9-8"
   style="fill:#0046a0;fill-opacity:1;fill-rule:evenodd;stroke:#000000;stroke-width:1.5;stroke-miterlimit:4;stroke-dasharray:none;stroke-opacity:1"
   d="M 365.54302,-78.38289 C 365.54302,-81.74289 368.18302,-84.38289 371.54302,-84.38289 C 374.90302,-84.38289 377.54302,-81.74289 377.54302,-78.38289 C 377.54302,-75.02289 374.90302,-72.38289 371.54302,-72.38289 C 368.18302,-72.38289 365.54302,-75.02289 365.54302,-78.38289" /><path
   id="path2985-2-9"
   style="fill:#0046a0;fill-opacity:1;fill-rule:evenodd;stroke:#000000;stroke-width:1.5;stroke-miterlimit:4;stroke-dasharray:none;stroke-opacity:1"
   d="M 365.54302,-150.38289 C 365.54302,-153.74289 368.18302,-156.38289 371.54302,-156.38289 C 374.90302,-156.38289 377.54302,-153.74289 377.54302,-150.38289 C 377.54302,-147.02289 374.90302,-144.38289 371.54302,-144.38289 C 368.18302,-144.38289 365.54302,-147.02289 365.54302,-150.38289" /><path
   style="fill:none;stroke:#000000;stroke-width:0.80000001px;stroke-linecap:butt;stroke-linejoin:miter;stroke-opacity:1"
   d="M 328.60061,-170.79751 L 327.97823,158.44412"
   id="path5142" /><path
   style="fill:none;stroke:#000000;stroke-width:0.80000001px;stroke-linecap:butt;stroke-linejoin:miter;stroke-opacity:1"
   d="M 481.33358,-170.79751 L 480.7112,158.44412"
   id="path5142-4" /><path
   id="path2985-2-7-3"
   style="fill:#0046a0;fill-opacity:1;fill-rule:evenodd;stroke:#000000;stroke-width:1.5;stroke-miterlimit:4;stroke-dasharray:none;stroke-opacity:1"
   d="M 282.85849,193.19915 C 282.85849,189.83915 285.49849,187.19915 288.85849,187.19915 C 292.21849,187.19915 294.85849,189.83915 294.85849,193.19915 C 294.85849,196.55915 292.21849,199.19915 288.85849,199.19915 C 285.49849,199.19915 282.85849,196.55915 282.85849,193.19915" /><text
   xml:space="preserve"
   style="font-size:14.39999962px;font-style:normal;font-weight:normal;fill:#000000;fill-opacity:1;stroke:none;font-family:Bitstream Vera Sans"
   x="217.84435"
   y="292.9993"
   id="text5496"
   transform="matrix(0,1,1,0,0,0)"><tspan
     sodipodi:role="line"
     id="tspan5498"
     x="217.84435"
     y="292.9993"
     style="font-size:16px;font-style:normal;font-variant:normal;font-weight:normal;font-stretch:normal;font-family:Arial;-inkscape-font-specification:Arial">Anfrage</tspan></text>
<text
   xml:space="preserve"
   style="font-size:14.39999962px;font-style:normal;font-weight:normal;fill:#000000;fill-opacity:1;stroke:none;font-family:Bitstream Vera Sans"
   x="217.84435"
   y="322.65741"
   id="text5500"
   transform="matrix(0,1,1,0,0,0)"><tspan
     style="font-size:16px;font-style:normal;font-variant:normal;font-weight:normal;font-stretch:normal;font-family:Arial;-inkscape-font-specification:Arial"
     sodipodi:role="line"
     id="tspan5502"
     x="217.84435"
     y="322.65741">Ressource</tspan></text>
<path
   id="path2957"
   style="fill:none;stroke:#00e900;stroke-width:1.60000002;stroke-linecap:round;stroke-linejoin:round;stroke-miterlimit:10;stroke-dasharray:none;stroke-opacity:1"
   d="M 210.86494,-150.1767 L 294.14494,-150.1767" /><path
   id="path2959"
   style="fill:none;stroke:#00e900;stroke-width:1.60000002;stroke-linecap:round;stroke-linejoin:round;stroke-miterlimit:10;stroke-dasharray:none;stroke-opacity:1"
   d="M 221.06494,-145.9767 L 294.14494,-6.1767" /><path
   id="path2961"
   style="fill:none;stroke:#000000;stroke-width:0.75;stroke-linecap:round;stroke-linejoin:round;stroke-miterlimit:10;stroke-dasharray:none;stroke-opacity:1"
   d="M 216.86494,-114.1767 L 294.14494,-78.1767" /><path
   id="path2963"
   style="fill:none;stroke:#000000;stroke-width:0.75;stroke-linecap:round;stroke-linejoin:round;stroke-miterlimit:10;stroke-dasharray:none;stroke-opacity:1"
   d="M 223.58494,-78.1767 L 294.14494,-78.1767" /><path
   id="path2965"
   style="fill:none;stroke:#000000;stroke-width:0.75;stroke-linecap:round;stroke-linejoin:round;stroke-miterlimit:10;stroke-dasharray:none;stroke-opacity:1"
   d="M 211.82494,-73.9767 L 294.14494,-150.1767" /><path
   id="path2967"
   style="fill:#ff00ff;fill-opacity:1;stroke:#000000;stroke-width:1.5;stroke-linecap:round;stroke-linejoin:miter;stroke-miterlimit:8;stroke-dasharray:none;stroke-opacity:1"
   d="M 294.86494,89.8233 L 318.86494,89.8233 L 318.86494,113.8233 L 294.86494,113.8233 L 294.86494,89.8233 z" /><path
   id="path2969"
   style="fill:#00fff4;fill-opacity:0.7372549;stroke:#000000;stroke-width:1.5;stroke-linecap:round;stroke-linejoin:miter;stroke-miterlimit:8;stroke-dasharray:none;stroke-opacity:1"
   d="M 294.86494,17.8233 L 318.86494,17.8233 L 318.86494,41.8233 L 294.86494,41.8233 L 294.86494,17.8233 L 294.86494,17.8233 z" /><path
   id="path2971"
   style="fill:#00fff4;fill-opacity:0.7372549;stroke:#000000;stroke-width:1.5;stroke-linecap:round;stroke-linejoin:miter;stroke-miterlimit:8;stroke-dasharray:none;stroke-opacity:1"
   d="M 294.86494,-18.1767 L 318.86494,-18.1767 L 318.86494,5.8233 L 294.86494,5.8233 L 294.86494,-18.1767 z" /><path
   id="path2973"
   style="fill:none;fill-opacity:1;stroke:#828282;stroke-width:1.5;stroke-linecap:round;stroke-linejoin:miter;stroke-miterlimit:8;stroke-dasharray:none;stroke-opacity:1"
   d="M 294.86494,-54.1767 L 318.86494,-54.1767 L 318.86494,-30.1767 L 294.86494,-30.1767 L 294.86494,-54.1767 z" /><path
   id="path2975"
   style="fill:#00fff4;fill-opacity:0.7372549;stroke:#000000;stroke-width:1.5;stroke-linecap:round;stroke-linejoin:miter;stroke-miterlimit:8;stroke-dasharray:none;stroke-opacity:1"
   d="M 294.86494,-90.1767 L 318.86494,-90.1767 L 318.86494,-66.1767 L 294.86494,-66.1767 L 294.86494,-90.1767 z" /><path
   id="path2977"
   style="fill:none;fill-opacity:1;stroke:#828282;stroke-width:1.5;stroke-linecap:round;stroke-linejoin:miter;stroke-miterlimit:8;stroke-dasharray:none;stroke-opacity:1"
   d="M 294.86494,-126.1767 L 318.86494,-126.1767 L 318.86494,-102.1767 L 294.86494,-102.1767 L 294.86494,-126.1767 z" /><path
   id="path2979"
   style="fill:#00fff4;fill-opacity:0.7372549;stroke:#000000;stroke-width:1.5;stroke-linecap:round;stroke-linejoin:miter;stroke-miterlimit:8;stroke-dasharray:none;stroke-opacity:1"
   d="M 294.86494,-162.1767 L 318.86494,-162.1767 L 318.86494,-138.1767 L 294.86494,-138.1767 L 294.86494,-162.1767 z" /><path
   id="path2981"
   style="fill:#00fff4;fill-opacity:0.735426;stroke:#000000;stroke-width:1.5;stroke-linecap:round;stroke-linejoin:miter;stroke-miterlimit:8;stroke-dasharray:none;stroke-opacity:1"
   d="M 294.86494,53.8233 L 318.86494,53.8233 L 318.86494,77.8233 L 294.86494,77.8233 L 294.86494,53.8233 z" /><path
   id="path2983"
   style="fill:none;fill-opacity:1;stroke:#828282;stroke-width:1.5;stroke-linecap:round;stroke-linejoin:miter;stroke-miterlimit:8;stroke-dasharray:none;stroke-opacity:1"
   d="M 294.86494,125.8233 L 318.86494,125.8233 L 318.86494,149.8233 L 294.86494,149.8233 L 294.86494,125.8233 z" /><path
   id="path3021"
   style="fill:none;stroke:#000000;stroke-width:0.75;stroke-linecap:round;stroke-linejoin:round;stroke-miterlimit:10;stroke-dasharray:none;stroke-opacity:1"
   d="M 221.90494,-109.9767 L 294.14494,29.8233" /><path
   id="path3023"
   style="fill:none;stroke:#000000;stroke-width:0.75;stroke-linecap:round;stroke-linejoin:round;stroke-miterlimit:10;stroke-dasharray:none;stroke-opacity:1"
   d="M 221.90494,-46.3767 L 294.14494,-150.1767" /><path
   id="path3025"
   style="fill:none;stroke:#000000;stroke-width:0.75;stroke-linecap:round;stroke-linejoin:round;stroke-miterlimit:10;stroke-dasharray:none;stroke-opacity:1"
   d="M 221.90494,-37.9767 L 294.14494,65.8233" /><path
   id="path3027"
   style="fill:none;stroke:#000000;stroke-width:0.75;stroke-linecap:round;stroke-linejoin:round;stroke-miterlimit:10;stroke-dasharray:none;stroke-opacity:1"
   d="M 223.58494,-6.1767 L 294.14494,-6.1767" /><path
   id="path3029"
   style="fill:none;stroke:#000000;stroke-width:0.75;stroke-linecap:round;stroke-linejoin:round;stroke-miterlimit:10;stroke-dasharray:none;stroke-opacity:1"
   d="M 221.90494,-1.9767 L 294.14494,29.8233" /><path
   id="path3031"
   style="fill:none;stroke:#000000;stroke-width:0.75;stroke-linecap:round;stroke-linejoin:round;stroke-miterlimit:10;stroke-dasharray:none;stroke-opacity:1"
   d="M 223.58494,29.8233 L 294.14494,65.8233" /><path
   id="path3033"
   style="fill:none;stroke:#ff00ff;stroke-width:1.60000002;stroke-linecap:round;stroke-linejoin:round;stroke-miterlimit:10;stroke-dasharray:none;stroke-opacity:1"
   d="M 221.90494,34.0233 L 294.14494,101.8233" /><path
   id="path3035"
   style="fill:none;stroke:#000000;stroke-width:0.75;stroke-linecap:round;stroke-linejoin:round;stroke-miterlimit:10;stroke-dasharray:none;stroke-opacity:1"
   d="M 223.58494,65.8233 L 294.14494,-6.1767" /><path
   id="path3037"
   style="fill:none;stroke:#000000;stroke-width:0.75;stroke-linecap:round;stroke-linejoin:round;stroke-miterlimit:10;stroke-dasharray:none;stroke-opacity:1"
   d="M 221.90494,61.6233 L 294.14494,-78.1767" /><path
   id="path3039"
   style="fill:none;stroke:#000000;stroke-width:0.75;stroke-linecap:round;stroke-linejoin:round;stroke-miterlimit:10;stroke-dasharray:none;stroke-opacity:1"
   d="M 223.58494,101.8233 L 294.14494,65.8233" /><path
   id="path3041"
   style="fill:none;stroke:#000000;stroke-width:0.75;stroke-linecap:round;stroke-linejoin:round;stroke-miterlimit:10;stroke-dasharray:none;stroke-opacity:1"
   d="M 221.90494,97.6233 L 294.14494,29.8233" /><path
   id="path3043"
   style="fill:none;stroke:#000000;stroke-width:0.75;stroke-linecap:round;stroke-linejoin:round;stroke-miterlimit:10;stroke-dasharray:none;stroke-opacity:1"
   d="M 221.90494,133.6233 L 294.14494,65.8233" /><path
   id="path3045"
   style="fill:none;stroke:#ff00ff;stroke-width:1.60000002;stroke-linecap:round;stroke-linejoin:round;stroke-miterlimit:10;stroke-dasharray:none;stroke-opacity:1"
   d="M 223.58494,137.8233 L 294.14494,101.8233" /><path
   id="path3013-3-8"
   style="fill:#0046a0;fill-opacity:1;fill-rule:evenodd;stroke:#000000;stroke-width:1.5;stroke-miterlimit:10;stroke-dasharray:none;stroke-opacity:1"
   d="M 211.45281,102.71587 C 211.45281,99.35587 214.09281,96.71587 217.45281,96.71587 C 220.81281,96.71587 223.45281,99.35587 223.45281,102.71587 C 223.45281,106.07587 220.81281,108.71587 217.45281,108.71587 C 214.09281,108.71587 211.45281,106.07587 211.45281,102.71587" /><path
   id="path3017-1-2"
   style="fill:#0046a0;fill-opacity:1;fill-rule:evenodd;stroke:#000000;stroke-width:1.5;stroke-miterlimit:4;stroke-dasharray:none;stroke-opacity:1"
   d="M 211.45281,138.71587 C 211.45281,135.35587 214.09281,132.71587 217.45281,132.71587 C 220.81281,132.71587 223.45281,135.35587 223.45281,138.71587 C 223.45281,142.07587 220.81281,144.71587 217.45281,144.71587 C 214.09281,144.71587 211.45281,142.07587 211.45281,138.71587" /><path
   id="path2989-4-1"
   style="fill:#0046a0;fill-opacity:1;fill-rule:evenodd;stroke:#000000;stroke-width:1.5;stroke-miterlimit:4;stroke-dasharray:none;stroke-opacity:1"
   d="M 211.45281,-113.28413 C 211.45281,-116.64413 214.09281,-119.28413 217.45281,-119.28413 C 220.81281,-119.28413 223.45281,-116.64413 223.45281,-113.28413 C 223.45281,-109.92413 220.81281,-107.28413 217.45281,-107.28413 C 214.09281,-107.28413 211.45281,-109.92413 211.45281,-113.28413" /><path
   id="path2997-3-0"
   style="fill:#0046a0;fill-opacity:1;fill-rule:evenodd;stroke:#000000;stroke-width:1.5;stroke-miterlimit:10;stroke-dasharray:none;stroke-opacity:1"
   d="M 211.45281,-41.28413 C 211.45281,-44.64413 214.09281,-47.28413 217.45281,-47.28413 C 220.81281,-47.28413 223.45281,-44.64413 223.45281,-41.28413 C 223.45281,-37.92413 220.81281,-35.28413 217.45281,-35.28413 C 214.09281,-35.28413 211.45281,-37.92413 211.45281,-41.28413" /><path
   id="path3001-0-5"
   style="fill:#0046a0;fill-opacity:1;fill-rule:evenodd;stroke:#000000;stroke-width:1.5;stroke-miterlimit:4;stroke-dasharray:none;stroke-opacity:1"
   d="M 211.45281,-5.28413 C 211.45281,-8.64413 214.09281,-11.28413 217.45281,-11.28413 C 220.81281,-11.28413 223.45281,-8.64413 223.45281,-5.28413 C 223.45281,-1.92413 220.81281,0.71587 217.45281,0.71587 C 214.09281,0.71587 211.45281,-1.92413 211.45281,-5.28413" /><path
   id="path3005-0-8"
   style="fill:#0046a0;fill-opacity:1;fill-rule:evenodd;stroke:#000000;stroke-width:1.5;stroke-miterlimit:4;stroke-dasharray:none;stroke-opacity:1"
   d="M 211.45281,30.71587 C 211.45281,27.35587 214.09281,24.71587 217.45281,24.71587 C 220.81281,24.71587 223.45281,27.35587 223.45281,30.71587 C 223.45281,34.07587 220.81281,36.71587 217.45281,36.71587 C 214.09281,36.71587 211.45281,34.07587 211.45281,30.71587" /><path
   id="path3009-9-55"
   style="fill:#0046a0;fill-opacity:1;fill-rule:evenodd;stroke:#000000;stroke-width:1.5;stroke-miterlimit:10;stroke-dasharray:none;stroke-opacity:1"
   d="M 211.45281,66.71587 C 211.45281,63.35587 214.09281,60.71587 217.45281,60.71587 C 220.81281,60.71587 223.45281,63.35587 223.45281,66.71587 C 223.45281,70.07587 220.81281,72.71587 217.45281,72.71587 C 214.09281,72.71587 211.45281,70.07587 211.45281,66.71587" /><path
   id="path2993-9-0"
   style="fill:#0046a0;fill-opacity:1;fill-rule:evenodd;stroke:#000000;stroke-width:1.5;stroke-miterlimit:4;stroke-dasharray:none;stroke-opacity:1"
   d="M 211.45281,-77.28413 C 211.45281,-80.64413 214.09281,-83.28413 217.45281,-83.28413 C 220.81281,-83.28413 223.45281,-80.64413 223.45281,-77.28413 C 223.45281,-73.92413 220.81281,-71.28413 217.45281,-71.28413 C 214.09281,-71.28413 211.45281,-73.92413 211.45281,-77.28413" /><path
   id="path2985-2-7"
   style="fill:#0046a0;fill-opacity:1;fill-rule:evenodd;stroke:#000000;stroke-width:1.5;stroke-miterlimit:4;stroke-dasharray:none;stroke-opacity:1"
   d="M 211.45281,-149.28413 C 211.45281,-152.64413 214.09281,-155.28413 217.45281,-155.28413 C 220.81281,-155.28413 223.45281,-152.64413 223.45281,-149.28413 C 223.45281,-145.92413 220.81281,-143.28413 217.45281,-143.28413 C 214.09281,-143.28413 211.45281,-145.92413 211.45281,-149.28413" /><text
   xml:space="preserve"
   style="font-size:14.39999962px;font-style:normal;font-weight:normal;fill:#000000;fill-opacity:1;stroke:none;font-family:Bitstream Vera Sans"
   x="217.84435"
   y="383.90256"
   id="text5558"
   transform="matrix(0,1,1,0,0,0)"><tspan
     sodipodi:role="line"
     id="tspan5560"
     x="217.84435"
     y="383.90256"
     style="font-size:16px;font-style:normal;font-variant:normal;font-weight:normal;font-stretch:normal;fill:#000000;fill-opacity:1;font-family:Arial;-inkscape-font-specification:Arial"
     dy="-17.60371">Anfrage an </tspan><tspan
     sodipodi:role="line"
     x="217.84435"
     y="403.90256"
     style="font-size:16px;font-style:normal;font-variant:normal;font-weight:normal;font-stretch:normal;fill:#000000;fill-opacity:1;font-family:Arial;-inkscape-font-specification:Arial"
     id="tspan3897">alle Kopien</tspan></text>



<path
   id="path3861"
   style="fill:#00fff4;fill-opacity:0.7372549;stroke:#000000;stroke-width:0.96724653;stroke-linecap:round;stroke-linejoin:miter;stroke-miterlimit:8;stroke-dasharray:none;stroke-opacity:1"
   d="M 408.80039,184.45344 L 424.27633,184.45344 L 424.27633,199.92939 L 408.80039,199.92939 L 408.80039,184.45344 z" /><path
   id="path3863"
   style="fill:#ff00ff;fill-opacity:1;stroke:#000000;stroke-width:0.96724653;stroke-linecap:round;stroke-linejoin:miter;stroke-miterlimit:8;stroke-dasharray:none;stroke-opacity:1"
   d="M 437.7465,185.02102 L 453.22244,185.02102 L 453.22244,200.49696 L 437.7465,200.49696 L 437.7465,185.02102 z" /><path
   id="path3865"
   style="fill:none;fill-opacity:1;stroke:#828282;stroke-width:0.96724653;stroke-linecap:round;stroke-linejoin:miter;stroke-miterlimit:8;stroke-dasharray:none;stroke-opacity:1"
   d="M 466.12504,185.58858 L 481.60098,185.58858 L 481.60098,201.06453 L 466.12504,201.06453 L 466.12504,185.58858 z" /><path
   id="path3867"
   style="fill:#acacac;fill-opacity:1;stroke:#000000;stroke-width:0.96724653;stroke-linecap:round;stroke-linejoin:miter;stroke-miterlimit:8;stroke-dasharray:none;stroke-opacity:1"
   d="M 497.34142,185.58858 L 512.81737,185.58858 L 512.81737,201.06453 L 497.34142,201.06453 L 497.34142,185.58858 z" /><text
   xml:space="preserve"
   style="font-size:14.39999962px;font-style:normal;font-weight:normal;fill:#000000;fill-opacity:1;stroke:none;font-family:Bitstream Vera Sans"
   x="246.77661"
   y="420.45441"
   id="text3869"
   transform="matrix(0,1,1,0,0,0)"><tspan
     sodipodi:role="line"
     x="246.77661"
     y="420.45441"
     style="font-size:16px;font-style:normal;font-variant:normal;font-weight:normal;font-stretch:normal;text-align:center;text-anchor:middle;fill:#000000;fill-opacity:1;font-family:Arial;-inkscape-font-specification:Arial"
     id="tspan3871">blockiert</tspan></text>
<text
   xml:space="preserve"
   style="font-size:16px;font-style:normal;font-variant:normal;font-weight:normal;font-stretch:normal;text-align:center;text-anchor:middle;fill:#000000;fill-opacity:1;stroke:none;stroke-width:1px;stroke-linecap:butt;stroke-linejoin:miter;stroke-opacity:1;font-family:Arial;-inkscape-font-specification:Arial"
   x="265.90161"
   y="449.50052"
   id="text3873"
   transform="matrix(0,1,1,0,0,0)"><tspan
     sodipodi:role="line"
     id="tspan3875"
     x="265.90161"
     y="449.50052">blockiert nicht</tspan><tspan
     sodipodi:role="line"
     x="265.90161"
     y="469.50052"
     id="tspan3877" /></text>
<text
   xml:space="preserve"
   style="font-size:16px;font-style:normal;font-variant:normal;font-weight:normal;font-stretch:normal;text-align:center;text-anchor:middle;fill:#000000;fill-opacity:1;stroke:none;stroke-width:1px;stroke-linecap:butt;stroke-linejoin:miter;stroke-opacity:1;font-family:Arial;-inkscape-font-specification:Arial"
   x="270.38599"
   y="477.66644"
   id="text3879"
   transform="matrix(0,1,1,0,0,0)"><tspan
     sodipodi:role="line"
     id="tspan3881"
     x="270.38599"
     y="477.66644">keine Anfragen</tspan></text>
<text
   xml:space="preserve"
   style="font-size:16px;font-style:normal;font-variant:normal;font-weight:normal;font-stretch:normal;text-align:center;text-anchor:middle;fill:#000000;fill-opacity:1;stroke:none;stroke-width:1px;stroke-linecap:butt;stroke-linejoin:miter;stroke-opacity:1;font-family:Arial;-inkscape-font-specification:Arial"
   x="293.96411"
   y="510.23331"
   id="text3883"
   transform="matrix(0,1,1,0,0,0)"><tspan
     sodipodi:role="line"
     id="tspan3885"
     x="293.96411"
     y="510.23331">Anfragen zugewiesen</tspan></text>
<path
   style="fill:none;fill-rule:evenodd;stroke:#00e900;stroke-width:0.80000001px;stroke-linecap:butt;stroke-linejoin:miter;stroke-opacity:1"
   d="M 370.99798,182.74697 L 370.99798,202.99123"
   id="path3893" /><path
   id="path3899"
   style="fill:none;fill-opacity:1;stroke:#000000;stroke-width:0.96724653;stroke-linecap:round;stroke-linejoin:miter;stroke-miterlimit:8;stroke-dasharray:none;stroke-opacity:1"
   d="M 309.73471,185.4612 L 325.21065,185.4612 L 325.21065,200.93715 L 309.73471,200.93715 L 309.73471,185.4612 z" /></g></svg>