<?xml version="1.0" encoding="UTF-8" standalone="no"?>
<!-- Created with Inkscape (http://www.inkscape.org/) -->
<svg
   xmlns:dc="http://purl.org/dc/elements/1.1/"
   xmlns:cc="http://creativecommons.org/ns#"
   xmlns:rdf="http://www.w3.org/1999/02/22-rdf-syntax-ns#"
   xmlns:svg="http://www.w3.org/2000/svg"
   xmlns="http://www.w3.org/2000/svg"
   xmlns:sodipodi="http://sodipodi.sourceforge.net/DTD/sodipodi-0.dtd"
   xmlns:inkscape="http://www.inkscape.org/namespaces/inkscape"
   width="240.50076"
   height="105.29763"
   id="svg3645"
   sodipodi:version="0.32"
   inkscape:version="0.46"
   version="1.0"
   style="display:inline"
   sodipodi:docname="sampletree.svg"
   inkscape:output_extension="org.inkscape.output.svg.inkscape">
  <defs
     id="defs3647">
    <clipPath
       id="clipPath2439"
       clipPathUnits="userSpaceOnUse">
      <path
         id="path2441"
         d="M 0,0 L 226,0 L 226,99 L 0,99 L 0,0 z" />
    </clipPath>
    <inkscape:perspective
       sodipodi:type="inkscape:persp3d"
       inkscape:vp_x="0 : 526.18109 : 1"
       inkscape:vp_y="0 : 1000 : 0"
       inkscape:vp_z="744.09448 : 526.18109 : 1"
       inkscape:persp3d-origin="372.04724 : 350.78739 : 1"
       id="perspective3653" />
  </defs>
  <sodipodi:namedview
     id="base"
     pagecolor="#ffffff"
     bordercolor="#666666"
     borderopacity="1.0"
     gridtolerance="10000"
     guidetolerance="10"
     objecttolerance="10"
     inkscape:pageopacity="0.0"
     inkscape:pageshadow="2"
     inkscape:zoom="1.979899"
     inkscape:cx="138.0271"
     inkscape:cy="38.323835"
     inkscape:document-units="px"
     inkscape:current-layer="layer3"
     showgrid="false"
     inkscape:window-width="987"
     inkscape:window-height="845"
     inkscape:window-x="451"
     inkscape:window-y="134"
     showguides="true"
     inkscape:guide-bbox="true">
    <sodipodi:guide
       orientation="1,0"
       position="141.42136,87.883271"
       id="guide2719" />
    <sodipodi:guide
       orientation="1,0"
       position="234.35539,80.812204"
       id="guide2721" />
    <sodipodi:guide
       orientation="1,0"
       position="165.15994,124.24876"
       id="guide2723" />
    <sodipodi:guide
       orientation="1,0"
       position="211.12188,129.8046"
       id="guide2725" />
  </sodipodi:namedview>
  <metadata
     id="metadata3650">
    <rdf:RDF>
      <cc:Work
         rdf:about="">
        <dc:format>image/svg+xml</dc:format>
        <dc:type
           rdf:resource="http://purl.org/dc/dcmitype/StillImage" />
      </cc:Work>
    </rdf:RDF>
  </metadata>
  <g
     inkscape:label="Layer 1"
     inkscape:groupmode="layer"
     id="layer1"
     style="display:inline"
     transform="translate(-254.74963,-479.61941)" />
  <g
     inkscape:groupmode="layer"
     id="layer3"
     inkscape:label="newText"
     transform="translate(-254.74963,-479.61941)"
     style="display:inline">
    <path
       id="path2447"
       style="fill:none;stroke:#000000;stroke-width:0.03825;stroke-linecap:butt;stroke-linejoin:miter;stroke-miterlimit:10;stroke-dasharray:none;stroke-opacity:1;display:inline"
       d="M 426.1445,551.73007 L 420.13925,575.82752" />
    <path
       id="path2449"
       style="fill:none;stroke:#000000;stroke-width:0.03825;stroke-linecap:butt;stroke-linejoin:miter;stroke-miterlimit:10;stroke-dasharray:none;stroke-opacity:1;display:inline"
       d="M 426.1445,551.73007 L 429.16625,575.82752" />
    <path
       id="path2451"
       style="fill:none;stroke:#000000;stroke-width:0.03825;stroke-linecap:butt;stroke-linejoin:miter;stroke-miterlimit:10;stroke-dasharray:none;stroke-opacity:1;display:inline"
       d="M 411.11225,575.82754 L 426.1445,551.73007" />
    <path
       id="path2453"
       style="fill:none;stroke:#000000;stroke-width:0.03825;stroke-linecap:butt;stroke-linejoin:miter;stroke-miterlimit:10;stroke-dasharray:none;stroke-opacity:1;display:inline"
       d="M 426.1445,551.73007 L 441.215,521.62732 L 399.0635,551.73007" />
    <path
       id="path2455"
       style="fill:none;stroke:#000000;stroke-width:0.03825;stroke-linecap:butt;stroke-linejoin:miter;stroke-miterlimit:10;stroke-dasharray:none;stroke-opacity:1;display:inline"
       d="M 486.38825,551.73007 L 441.215,521.62732 L 462.29075,551.73007" />
    <path
       id="path2457"
       style="fill:none;stroke:#000000;stroke-width:0.03825;stroke-linecap:butt;stroke-linejoin:miter;stroke-miterlimit:10;stroke-dasharray:none;stroke-opacity:1;display:inline"
       d="M 426.1445,551.73007 L 438.19325,575.82752" />
    <path
       id="path2459"
       style="fill:none;stroke:#000000;stroke-width:0.03825;stroke-linecap:butt;stroke-linejoin:miter;stroke-miterlimit:10;stroke-dasharray:none;stroke-opacity:1;display:inline"
       d="M 450.242,575.82754 L 462.29075,551.73007 L 474.3395,575.82754" />
    <path
       id="path2461"
       style="fill:#ffff00;fill-opacity:1;fill-rule:evenodd;stroke:none;display:inline"
       d="M 441.215,518.60557 C 442.88419,518.60557 444.23675,519.95845 444.23675,521.62732 C 444.23675,523.29619 442.88419,524.64907 441.215,524.64907 C 439.54581,524.64907 438.19325,523.29619 438.19325,521.62732 C 438.19325,519.95845 439.54581,518.60557 441.215,518.60557" />
    <path
       id="path2463"
       style="fill:none;stroke:#000000;stroke-width:0.03825;stroke-linecap:butt;stroke-linejoin:miter;stroke-miterlimit:10;stroke-dasharray:none;stroke-opacity:1;display:inline"
       d="M 441.215,518.60557 C 442.88419,518.60557 444.23675,519.95845 444.23675,521.62732 C 444.23675,523.29619 442.88419,524.64907 441.215,524.64907 C 439.54581,524.64907 438.19325,523.29619 438.19325,521.62732 C 438.19325,519.95845 439.54581,518.60557 441.215,518.60557" />
    <path
       id="path2465"
       style="fill:#ff7f00;fill-opacity:1;fill-rule:evenodd;stroke:none;display:inline"
       d="M 450.242,572.80582 C 451.88994,572.80582 453.2255,574.1587 453.2255,575.82757 C 453.2255,577.49642 451.88994,578.84931 450.242,578.84931 C 448.59406,578.84931 447.2585,577.49642 447.2585,575.82757 C 447.2585,574.1587 448.59406,572.80582 450.242,572.80582" />
    <path
       id="path2467"
       style="fill:none;stroke:#000000;stroke-width:0.03825;stroke-linecap:butt;stroke-linejoin:miter;stroke-miterlimit:10;stroke-dasharray:none;stroke-opacity:1;display:inline"
       d="M 450.242,572.80582 C 451.88994,572.80582 453.2255,574.1587 453.2255,575.82757 C 453.2255,577.49642 451.88994,578.84931 450.242,578.84931 C 448.59406,578.84931 447.2585,577.49642 447.2585,575.82757 C 447.2585,574.1587 448.59406,572.80582 450.242,572.80582" />
    <path
       id="path2469"
       style="fill:#ff7f00;fill-opacity:1;fill-rule:evenodd;stroke:none;display:inline"
       d="M 474.3395,572.80582 C 476.00869,572.80582 477.36125,574.1587 477.36125,575.82757 C 477.36125,577.49642 476.00869,578.84931 474.3395,578.84931 C 472.67031,578.84931 471.31775,577.49642 471.31775,575.82757 C 471.31775,574.1587 472.67031,572.80582 474.3395,572.80582" />
    <path
       id="path2471"
       style="fill:none;stroke:#000000;stroke-width:0.03825;stroke-linecap:butt;stroke-linejoin:miter;stroke-miterlimit:10;stroke-dasharray:none;stroke-opacity:1;display:inline"
       d="M 474.3395,572.80582 C 476.00869,572.80582 477.36125,574.1587 477.36125,575.82757 C 477.36125,577.49642 476.00869,578.84931 474.3395,578.84931 C 472.67031,578.84931 471.31775,577.49642 471.31775,575.82757 C 471.31775,574.1587 472.67031,572.80582 474.3395,572.80582" />
    <path
       id="path2473"
       style="fill:#ff7f00;fill-opacity:1;fill-rule:evenodd;stroke:none;display:inline"
       d="M 411.074,572.80582 C 412.72194,572.80582 414.0575,574.1587 414.0575,575.82757 C 414.0575,577.49642 412.72194,578.84931 411.074,578.84931 C 409.42606,578.84931 408.0905,577.49642 408.0905,575.82757 C 408.0905,574.1587 409.42606,572.80582 411.074,572.80582" />
    <path
       id="path2475"
       style="fill:none;stroke:#000000;stroke-width:0.03825;stroke-linecap:butt;stroke-linejoin:miter;stroke-miterlimit:10;stroke-dasharray:none;stroke-opacity:1;display:inline"
       d="M 411.074,572.80582 C 412.72194,572.80582 414.0575,574.1587 414.0575,575.82757 C 414.0575,577.49642 412.72194,578.84931 411.074,578.84931 C 409.42606,578.84931 408.0905,577.49642 408.0905,575.82757 C 408.0905,574.1587 409.42606,572.80582 411.074,572.80582" />
    <path
       id="path2477"
       style="fill:#ff7f00;fill-opacity:1;fill-rule:evenodd;stroke:none;display:inline"
       d="M 438.19325,572.80582 C 439.84119,572.80582 441.17675,574.1587 441.17675,575.82757 C 441.17675,577.49642 439.84119,578.84931 438.19325,578.84931 C 436.54531,578.84931 435.20975,577.49642 435.20975,575.82757 C 435.20975,574.1587 436.54531,572.80582 438.19325,572.80582" />
    <path
       id="path2479"
       style="fill:none;stroke:#000000;stroke-width:0.03825;stroke-linecap:butt;stroke-linejoin:miter;stroke-miterlimit:10;stroke-dasharray:none;stroke-opacity:1;display:inline"
       d="M 438.19325,572.80582 C 439.84119,572.80582 441.17675,574.1587 441.17675,575.82757 C 441.17675,577.49642 439.84119,578.84931 438.19325,578.84931 C 436.54531,578.84931 435.20975,577.49642 435.20975,575.82757 C 435.20975,574.1587 436.54531,572.80582 438.19325,572.80582" />
    <path
       id="path2481"
       style="fill:#ff7f00;fill-opacity:1;fill-rule:evenodd;stroke:none;display:inline"
       d="M 420.13925,572.80582 C 421.80844,572.80582 423.161,574.1587 423.161,575.82757 C 423.161,577.49642 421.80844,578.84931 420.13925,578.84931 C 418.47006,578.84931 417.1175,577.49642 417.1175,575.82757 C 417.1175,574.1587 418.47006,572.80582 420.13925,572.80582" />
    <path
       id="path2483"
       style="fill:none;stroke:#000000;stroke-width:0.03825;stroke-linecap:butt;stroke-linejoin:miter;stroke-miterlimit:10;stroke-dasharray:none;stroke-opacity:1;display:inline"
       d="M 420.13925,572.80582 C 421.80844,572.80582 423.161,574.1587 423.161,575.82757 C 423.161,577.49642 421.80844,578.84931 420.13925,578.84931 C 418.47006,578.84931 417.1175,577.49642 417.1175,575.82757 C 417.1175,574.1587 418.47006,572.80582 420.13925,572.80582" />
    <path
       id="path2485"
       style="fill:#ff0000;fill-opacity:1;fill-rule:evenodd;stroke:none;display:inline"
       d="M 462.29075,548.74657 C 463.93869,548.74657 465.27425,550.08235 465.27425,551.73007 C 465.27425,553.37779 463.93869,554.71357 462.29075,554.71357 C 460.64281,554.71357 459.30725,553.37779 459.30725,551.73007 C 459.30725,550.08235 460.64281,548.74657 462.29075,548.74657" />
    <path
       id="path2487"
       style="fill:none;stroke:#000000;stroke-width:0.03825;stroke-linecap:butt;stroke-linejoin:miter;stroke-miterlimit:10;stroke-dasharray:none;stroke-opacity:1;display:inline"
       d="M 462.29075,548.74657 C 463.93869,548.74657 465.27425,550.08235 465.27425,551.73007 C 465.27425,553.37779 463.93869,554.71357 462.29075,554.71357 C 460.64281,554.71357 459.30725,553.37779 459.30725,551.73007 C 459.30725,550.08235 460.64281,548.74657 462.29075,548.74657" />
    <path
       id="path2489"
       style="fill:#ff0000;fill-opacity:1;fill-rule:evenodd;stroke:none;display:inline"
       d="M 426.1445,548.74657 C 427.79244,548.74657 429.128,550.08235 429.128,551.73007 C 429.128,553.37779 427.79244,554.71357 426.1445,554.71357 C 424.49656,554.71357 423.161,553.37779 423.161,551.73007 C 423.161,550.08235 424.49656,548.74657 426.1445,548.74657" />
    <path
       id="path2491"
       style="fill:none;stroke:#000000;stroke-width:0.03825;stroke-linecap:butt;stroke-linejoin:miter;stroke-miterlimit:10;stroke-dasharray:none;stroke-opacity:1;display:inline"
       d="M 426.1445,548.74657 C 427.79244,548.74657 429.128,550.08235 429.128,551.73007 C 429.128,553.37779 427.79244,554.71357 426.1445,554.71357 C 424.49656,554.71357 423.161,553.37779 423.161,551.73007 C 423.161,550.08235 424.49656,548.74657 426.1445,548.74657" />
    <path
       id="path2493"
       style="fill:#ff0000;fill-opacity:1;fill-rule:evenodd;stroke:none;display:inline"
       d="M 486.38825,548.74657 C 488.05744,548.74657 489.41,550.08235 489.41,551.73007 C 489.41,553.37779 488.05744,554.71357 486.38825,554.71357 C 484.71906,554.71357 483.3665,553.37779 483.3665,551.73007 C 483.3665,550.08235 484.71906,548.74657 486.38825,548.74657" />
    <path
       id="path2495"
       style="fill:none;stroke:#000000;stroke-width:0.03825;stroke-linecap:butt;stroke-linejoin:miter;stroke-miterlimit:10;stroke-dasharray:none;stroke-opacity:1;display:inline"
       d="M 486.38825,548.74657 C 488.05744,548.74657 489.41,550.08235 489.41,551.73007 C 489.41,553.37779 488.05744,554.71357 486.38825,554.71357 C 484.71906,554.71357 483.3665,553.37779 483.3665,551.73007 C 483.3665,550.08235 484.71906,548.74657 486.38825,548.74657" />
    <path
       id="path2497"
       style="fill:#ff0000;fill-opacity:1;fill-rule:evenodd;stroke:none;display:inline"
       d="M 399.02525,548.74657 C 400.67319,548.74657 402.00875,550.08235 402.00875,551.73007 C 402.00875,553.37779 400.67319,554.71357 399.02525,554.71357 C 397.37731,554.71357 396.04175,553.37779 396.04175,551.73007 C 396.04175,550.08235 397.37731,548.74657 399.02525,548.74657" />
    <path
       id="path2499"
       style="fill:none;stroke:#000000;stroke-width:0.03825;stroke-linecap:butt;stroke-linejoin:miter;stroke-miterlimit:10;stroke-dasharray:none;stroke-opacity:1;display:inline"
       d="M 399.02525,548.74657 C 400.67319,548.74657 402.00875,550.08235 402.00875,551.73007 C 402.00875,553.37779 400.67319,554.71357 399.02525,554.71357 C 397.37731,554.71357 396.04175,553.37779 396.04175,551.73007 C 396.04175,550.08235 397.37731,548.74657 399.02525,548.74657" />
    <path
       id="path2513"
       style="fill:none;stroke:#ffffff;stroke-width:0.03825;stroke-linecap:butt;stroke-linejoin:miter;stroke-miterlimit:10;stroke-dasharray:none;stroke-opacity:1;display:inline"
       d="M 254.81213,584.85454 L 495.18789,584.85454 L 495.18789,479.68191 L 254.81213,479.68191 L 254.81213,584.85454 z" />
    <path
       id="path2515"
       style="fill:none;stroke:#000000;stroke-width:0.03825;stroke-linecap:butt;stroke-linejoin:miter;stroke-miterlimit:10;stroke-dasharray:none;stroke-opacity:1;display:inline"
       d="M 257.50024,581.87103 L 356.87374,581.87103 L 356.87374,482.45928 L 257.50024,482.45928 L 257.50024,581.87103 z" />
    <path
       id="path2517"
       style="fill:none;stroke:#000000;stroke-width:0.03825;stroke-linecap:butt;stroke-linejoin:miter;stroke-miterlimit:10;stroke-dasharray:none;stroke-opacity:1;display:inline"
       d="M 307.187,482.45932 L 307.187,581.87103" />
    <path
       id="path2519"
       style="fill:none;stroke:#000000;stroke-width:0.03825;stroke-linecap:butt;stroke-linejoin:miter;stroke-miterlimit:10;stroke-dasharray:none;stroke-opacity:1;display:inline"
       d="M 257.50024,532.14607 L 356.87375,532.14607" />
    <path
       id="path2521"
       style="fill:none;stroke:#000000;stroke-width:0.03825;stroke-linecap:butt;stroke-linejoin:miter;stroke-miterlimit:10;stroke-dasharray:none;stroke-opacity:1;display:inline"
       d="M 332.0495,482.45932 L 332.0495,532.14607" />
    <path
       id="path2523"
       style="fill:none;stroke:#000000;stroke-width:0.03825;stroke-linecap:butt;stroke-linejoin:miter;stroke-miterlimit:10;stroke-dasharray:none;stroke-opacity:1;display:inline"
       d="M 307.187,507.32182 L 356.87375,507.32182" />
    <path
       id="path2525"
       style="fill:none;stroke:#000000;stroke-width:0.03825;stroke-linecap:butt;stroke-linejoin:miter;stroke-miterlimit:10;stroke-dasharray:none;stroke-opacity:1;display:inline"
       d="M 257.50024,557.00857 L 307.187,557.00857" />
    <path
       id="path2527"
       style="fill:none;stroke:#000000;stroke-width:0.03825;stroke-linecap:butt;stroke-linejoin:miter;stroke-miterlimit:10;stroke-dasharray:none;stroke-opacity:1;display:inline"
       d="M 282.36275,532.14607 L 282.36275,581.87101" />
    <path
       id="path2529"
       style="fill:#ff7f00;fill-opacity:1;fill-rule:evenodd;stroke:none;display:inline"
       d="M 429.16625,572.80582 C 430.83544,572.80582 432.188,574.1587 432.188,575.82757 C 432.188,577.49642 430.83544,578.84931 429.16625,578.84931 C 427.49706,578.84931 426.1445,577.49642 426.1445,575.82757 C 426.1445,574.1587 427.49706,572.80582 429.16625,572.80582" />
    <path
       id="path2531"
       style="fill:none;stroke:#000000;stroke-width:0.03825;stroke-linecap:butt;stroke-linejoin:miter;stroke-miterlimit:10;stroke-dasharray:none;stroke-opacity:1;display:inline"
       d="M 429.16625,572.80582 C 430.83544,572.80582 432.188,574.1587 432.188,575.82757 C 432.188,577.49642 430.83544,578.84931 429.16625,578.84931 C 427.49706,578.84931 426.1445,577.49642 426.1445,575.82757 C 426.1445,574.1587 427.49706,572.80582 429.16625,572.80582" />
    <path
       id="path2533"
       style="fill:#bfbfbf;fill-opacity:1;fill-rule:evenodd;stroke:none;display:inline"
       d="M 341.8415,569.82232 L 344.825,569.82232 L 344.825,560.75707 L 335.798,560.75707 L 335.798,575.82754 L 344.825,575.82754 L 344.825,572.80582 L 338.81975,572.80582 L 338.81975,569.82232 L 341.8415,569.82232" />
    <path
       id="path2535"
       style="fill:none;stroke:#000000;stroke-width:0.03825;stroke-linecap:butt;stroke-linejoin:miter;stroke-miterlimit:10;stroke-dasharray:none;stroke-opacity:1;display:inline"
       d="M 341.8415,569.82232 L 344.825,569.82232 L 344.825,560.75707 L 335.798,560.75707 L 335.798,575.82754 L 344.825,575.82754 L 344.825,572.80582 L 338.81975,572.80582 L 338.81975,569.82232 L 341.8415,569.82232 z" />
    <path
       id="path2537"
       style="fill:#ffffff;fill-opacity:1;fill-rule:evenodd;stroke:none;display:inline"
       d="M 338.81975,566.80057 L 341.84149,566.80057 L 341.84149,563.77883 L 338.81975,563.77883 L 338.81975,566.80057 z" />
    <path
       id="path2539"
       style="fill:none;stroke:#000000;stroke-width:0.03825;stroke-linecap:butt;stroke-linejoin:miter;stroke-miterlimit:10;stroke-dasharray:none;stroke-opacity:1;display:inline"
       d="M 338.81975,566.80057 L 341.84149,566.80057 L 341.84149,563.77883 L 338.81975,563.77883 L 338.81975,566.80057 z" />
    <path
       id="path2541"
       style="fill:#ffff00;fill-opacity:1;fill-rule:evenodd;stroke:none;display:inline"
       d="M 335.798,563.77882 L 338.81975,563.77882 L 338.81975,566.80057 L 341.8415,566.80057 L 341.8415,569.82221 L 338.81975,569.82221 L 338.81975,572.80571 L 335.798,572.80571 L 335.798,563.77871" />
    <path
       id="path2543"
       style="fill:none;stroke:#000000;stroke-width:0.03825;stroke-linecap:butt;stroke-linejoin:miter;stroke-miterlimit:10;stroke-dasharray:none;stroke-opacity:1;display:inline"
       d="M 335.798,563.77882 L 338.81975,563.77882 L 338.81975,566.80057 L 341.8415,566.80057 L 341.8415,569.82221 L 338.81975,569.82221 L 338.81975,572.80571 L 335.798,572.80571 L 335.798,563.77871 L 335.798,563.77882 z" />
    <path
       id="path2545"
       style="fill:#ff0000;fill-opacity:1;fill-rule:evenodd;stroke:none;display:inline"
       d="M 335.798,575.82754 L 344.825,575.82754 L 344.825,572.8058 L 335.798,572.8058 L 335.798,575.82754 z" />
    <path
       id="path2547"
       style="fill:none;stroke:#000000;stroke-width:0.03825;stroke-linecap:butt;stroke-linejoin:miter;stroke-miterlimit:10;stroke-dasharray:none;stroke-opacity:1;display:inline"
       d="M 335.798,575.82754 L 344.825,575.82754 L 344.825,572.8058 L 335.798,572.8058 L 335.798,575.82754 z" />
    <path
       id="path2549"
       style="fill:#ff0000;fill-opacity:1;fill-rule:evenodd;stroke:none;display:inline"
       d="M 335.798,560.75707 L 344.825,560.75707 L 344.825,569.82221 L 341.8415,569.82221 L 341.8415,563.77882 L 335.798,563.77882 L 335.798,560.75707" />
    <path
       id="path2551"
       style="fill:none;stroke:#000000;stroke-width:0.03825;stroke-linecap:butt;stroke-linejoin:miter;stroke-miterlimit:10;stroke-dasharray:none;stroke-opacity:1;display:inline"
       d="M 335.798,560.75707 L 344.825,560.75707 L 344.825,569.82221 L 341.8415,569.82221 L 341.8415,563.77882 L 335.798,563.77882 L 335.798,560.75707 z" />
    <path
       id="path2553"
       style="fill:#bfbfbf;fill-opacity:1;fill-rule:evenodd;stroke:none;display:inline"
       d="M 278.576,503.53507 L 284.6195,503.53507 L 284.6195,500.55157 L 275.55425,500.55157 L 275.55425,509.57857 L 281.59775,509.57857 L 281.59775,512.60032 L 275.55425,512.60032 L 275.55425,515.58382 L 284.6195,515.58382 L 284.6195,506.55682 L 278.576,506.55682 L 278.576,503.53507" />
    <path
       id="path2555"
       style="fill:none;stroke:#000000;stroke-width:0.03825;stroke-linecap:butt;stroke-linejoin:miter;stroke-miterlimit:10;stroke-dasharray:none;stroke-opacity:1;display:inline"
       d="M 278.576,503.53507 L 284.6195,503.53507 L 284.6195,500.55157 L 275.55425,500.55157 L 275.55425,509.57857 L 281.59775,509.57857 L 281.59775,512.60032 L 275.55425,512.60032 L 275.55425,515.58382 L 284.6195,515.58382 L 284.6195,506.55682 L 278.576,506.55682 L 278.576,503.53507 z" />
    <path
       id="path2557"
       style="fill:#ffff00;fill-opacity:1;fill-rule:evenodd;stroke:none;display:inline"
       d="M 275.55425,509.57857 L 275.55425,503.53507 L 278.576,503.53507 L 278.576,506.55682 L 284.6195,506.55682 L 284.6195,512.60032 L 281.59775,512.60032 L 281.59775,509.57857 L 275.55425,509.57857" />
    <path
       id="path2559"
       style="fill:none;stroke:#000000;stroke-width:0.03825;stroke-linecap:butt;stroke-linejoin:miter;stroke-miterlimit:10;stroke-dasharray:none;stroke-opacity:1;display:inline"
       d="M 275.55425,509.57857 L 275.55425,503.53507 L 278.576,503.53507 L 278.576,506.55682 L 284.6195,506.55682 L 284.6195,512.60032 L 281.59775,512.60032 L 281.59775,509.57857 L 275.55425,509.57857 z" />
    <path
       id="path2561"
       style="fill:#ff0000;fill-opacity:1;fill-rule:evenodd;stroke:none;display:inline"
       d="M 275.55425,503.53507 L 284.61948,503.53507 L 284.61948,500.55159 L 275.55425,500.55159 L 275.55425,503.53507 z" />
    <path
       id="path2563"
       style="fill:none;stroke:#000000;stroke-width:0.03825;stroke-linecap:butt;stroke-linejoin:miter;stroke-miterlimit:10;stroke-dasharray:none;stroke-opacity:1;display:inline"
       d="M 275.55425,503.53507 L 284.61948,503.53507 L 284.61948,500.55159 L 275.55425,500.55159 L 275.55425,503.53507 z" />
    <path
       id="path2565"
       style="fill:#ff0000;fill-opacity:1;fill-rule:evenodd;stroke:none;display:inline"
       d="M 275.55425,515.58371 L 284.61948,515.58371 L 284.61948,512.60023 L 275.55425,512.60023 L 275.55425,515.58371 z" />
    <path
       id="path2567"
       style="fill:none;stroke:#000000;stroke-width:0.03825;stroke-linecap:butt;stroke-linejoin:miter;stroke-miterlimit:10;stroke-dasharray:none;stroke-opacity:1;display:inline"
       d="M 275.55425,515.58371 L 284.61948,515.58371 L 284.61948,512.60023 L 275.55425,512.60023 L 275.55425,515.58371 z" />
    <path
       id="path2569"
       style="fill:#bfbfbf;fill-opacity:1;fill-rule:evenodd;stroke:none;display:inline"
       d="M 350.8685,524.64907 L 353.89025,524.64907 L 353.89025,515.58382 L 344.825,515.58382 L 344.825,530.65432 L 353.89025,530.65432 L 353.89025,527.63257 L 347.84675,527.63257 L 347.84675,524.64907 L 350.8685,524.64907" />
    <path
       id="path2571"
       style="fill:none;stroke:#000000;stroke-width:0.03825;stroke-linecap:butt;stroke-linejoin:miter;stroke-miterlimit:10;stroke-dasharray:none;stroke-opacity:1;display:inline"
       d="M 350.8685,524.64907 L 353.89025,524.64907 L 353.89025,515.58382 L 344.825,515.58382 L 344.825,530.65432 L 353.89025,530.65432 L 353.89025,527.63257 L 347.84675,527.63257 L 347.84675,524.64907 L 350.8685,524.64907 z" />
    <path
       id="path2573"
       style="fill:#ffffff;fill-opacity:1;fill-rule:evenodd;stroke:none;display:inline"
       d="M 347.84675,521.62732 L 350.86849,521.62732 L 350.86849,518.60558 L 347.84675,518.60558 L 347.84675,521.62732 z" />
    <path
       id="path2575"
       style="fill:none;stroke:#000000;stroke-width:0.03825;stroke-linecap:butt;stroke-linejoin:miter;stroke-miterlimit:10;stroke-dasharray:none;stroke-opacity:1;display:inline"
       d="M 347.84675,521.62732 L 350.86849,521.62732 L 350.86849,518.60558 L 347.84675,518.60558 L 347.84675,521.62732 z" />
    <path
       id="path2577"
       style="fill:#ffff00;fill-opacity:1;fill-rule:evenodd;stroke:none;display:inline"
       d="M 344.825,530.65432 L 347.84674,530.65432 L 347.84674,524.64909 L 344.825,524.64909 L 344.825,530.65432 z" />
    <path
       id="path2579"
       style="fill:none;stroke:#000000;stroke-width:0.03825;stroke-linecap:butt;stroke-linejoin:miter;stroke-miterlimit:10;stroke-dasharray:none;stroke-opacity:1;display:inline"
       d="M 344.825,530.65432 L 347.84674,530.65432 L 347.84674,524.64909 L 344.825,524.64909 L 344.825,530.65432 z" />
    <path
       id="path2581"
       style="fill:#ff0000;fill-opacity:1;fill-rule:evenodd;stroke:none;display:inline"
       d="M 344.825,518.60557 L 353.89023,518.60557 L 353.89023,515.58383 L 344.825,515.58383 L 344.825,518.60557 z" />
    <path
       id="path2583"
       style="fill:none;stroke:#000000;stroke-width:0.03825;stroke-linecap:butt;stroke-linejoin:miter;stroke-miterlimit:10;stroke-dasharray:none;stroke-opacity:1;display:inline"
       d="M 344.825,518.60557 L 353.89023,518.60557 L 353.89023,515.58383 L 344.825,515.58383 L 344.825,518.60557 z" />
    <path
       id="path2585"
       style="fill:#ff0000;fill-opacity:1;fill-rule:evenodd;stroke:none;display:inline"
       d="M 347.84675,530.65432 L 353.89024,530.65432 L 353.89024,527.63258 L 347.84675,527.63258 L 347.84675,530.65432 z" />
    <path
       id="path2587"
       style="fill:none;stroke:#000000;stroke-width:0.03825;stroke-linecap:butt;stroke-linejoin:miter;stroke-miterlimit:10;stroke-dasharray:none;stroke-opacity:1;display:inline"
       d="M 347.84675,530.65432 L 353.89024,530.65432 L 353.89024,527.63258 L 347.84675,527.63258 L 347.84675,530.65432 z" />
    <path
       id="path2589"
       style="fill:#ff0000;fill-opacity:1;fill-rule:evenodd;stroke:none;display:inline"
       d="M 347.84675,524.64907 L 350.86849,524.64907 L 350.86849,521.62733 L 347.84675,521.62733 L 347.84675,524.64907 z" />
    <path
       id="path2591"
       style="fill:none;stroke:#000000;stroke-width:0.03825;stroke-linecap:butt;stroke-linejoin:miter;stroke-miterlimit:10;stroke-dasharray:none;stroke-opacity:1;display:inline"
       d="M 347.84675,524.64907 L 350.86849,524.64907 L 350.86849,521.62733 L 347.84675,521.62733 L 347.84675,524.64907 z" />
    <path
       id="path2593"
       style="fill:#ff7f00;fill-opacity:1;fill-rule:evenodd;stroke:none;display:inline"
       d="M 350.8685,524.64907 L 353.89024,524.64907 L 353.89024,518.60558 L 350.8685,518.60558 L 350.8685,524.64907 z" />
    <path
       id="path2595"
       style="fill:none;stroke:#000000;stroke-width:0.03825;stroke-linecap:butt;stroke-linejoin:miter;stroke-miterlimit:10;stroke-dasharray:none;stroke-opacity:1;display:inline"
       d="M 350.8685,524.64907 L 353.89024,524.64907 L 353.89024,518.60558 L 350.8685,518.60558 L 350.8685,524.64907 z" />
    <path
       id="path2597"
       style="fill:#ff7f00;fill-opacity:1;fill-rule:evenodd;stroke:none;display:inline"
       d="M 344.825,524.64907 L 347.84674,524.64907 L 347.84674,518.60558 L 344.825,518.60558 L 344.825,524.64907 z" />
    <path
       id="path2599"
       style="fill:none;stroke:#000000;stroke-width:0.03825;stroke-linecap:butt;stroke-linejoin:miter;stroke-miterlimit:10;stroke-dasharray:none;stroke-opacity:1;display:inline"
       d="M 344.825,524.64907 L 347.84674,524.64907 L 347.84674,518.60558 L 344.825,518.60558 L 344.825,524.64907 z" />
    <path
       id="path2601"
       style="fill:#bfbfbf;fill-opacity:1;fill-rule:evenodd;stroke:none;display:inline"
       d="M 335.798,509.57857 L 338.81975,509.57857 L 338.81975,527.63257 L 341.8415,527.63257 L 341.8415,530.65432 L 335.798,530.65432 L 335.798,509.57857" />
    <path
       id="path2603"
       style="fill:none;stroke:#000000;stroke-width:0.03825;stroke-linecap:butt;stroke-linejoin:miter;stroke-miterlimit:10;stroke-dasharray:none;stroke-opacity:1;display:inline"
       d="M 335.798,509.57857 L 338.81975,509.57857 L 338.81975,527.63257 L 341.8415,527.63257 L 341.8415,530.65432 L 335.798,530.65432 L 335.798,509.57857 z" />
    <path
       id="path2605"
       style="fill:#ffff00;fill-opacity:1;fill-rule:evenodd;stroke:none;display:inline"
       d="M 335.798,521.62732 L 338.81974,521.62732 L 338.81974,512.60032 L 335.798,512.60032 L 335.798,521.62732 z" />
    <path
       id="path2607"
       style="fill:none;stroke:#000000;stroke-width:0.03825;stroke-linecap:butt;stroke-linejoin:miter;stroke-miterlimit:10;stroke-dasharray:none;stroke-opacity:1;display:inline"
       d="M 335.798,521.62732 L 338.81974,521.62732 L 338.81974,512.60032 L 335.798,512.60032 L 335.798,521.62732 z" />
    <path
       id="path2609"
       style="fill:#ff0000;fill-opacity:1;fill-rule:evenodd;stroke:none;display:inline"
       d="M 335.798,530.65432 L 341.84149,530.65432 L 341.84149,527.63258 L 335.798,527.63258 L 335.798,530.65432 z" />
    <path
       id="path2611"
       style="fill:none;stroke:#000000;stroke-width:0.03825;stroke-linecap:butt;stroke-linejoin:miter;stroke-miterlimit:10;stroke-dasharray:none;stroke-opacity:1;display:inline"
       d="M 335.798,530.65432 L 341.84149,530.65432 L 341.84149,527.63258 L 335.798,527.63258 L 335.798,530.65432 z" />
    <path
       id="path2613"
       style="fill:#ff7f00;fill-opacity:1;fill-rule:evenodd;stroke:none;display:inline"
       d="M 335.798,527.63246 L 338.81974,527.63246 L 338.81974,521.62724 L 335.798,521.62724 L 335.798,527.63246 z" />
    <path
       id="path2615"
       style="fill:none;stroke:#000000;stroke-width:0.03825;stroke-linecap:butt;stroke-linejoin:miter;stroke-miterlimit:10;stroke-dasharray:none;stroke-opacity:1;display:inline"
       d="M 335.798,527.63246 L 338.81974,527.63246 L 338.81974,521.62724 L 335.798,521.62724 L 335.798,527.63246 z" />
    <path
       id="path2617"
       style="fill:#ff7f00;fill-opacity:1;fill-rule:evenodd;stroke:none;display:inline"
       d="M 335.798,512.60032 L 338.81974,512.60032 L 338.81974,509.57858 L 335.798,509.57858 L 335.798,512.60032 z" />
    <path
       id="path2619"
       style="fill:none;stroke:#000000;stroke-width:0.03825;stroke-linecap:butt;stroke-linejoin:miter;stroke-miterlimit:10;stroke-dasharray:none;stroke-opacity:1;display:inline"
       d="M 335.798,512.60032 L 338.81974,512.60032 L 338.81974,509.57858 L 335.798,509.57858 L 335.798,512.60032 z" />
    <path
       id="path2621"
       style="fill:#bfbfbf;fill-opacity:1;fill-rule:evenodd;stroke:none;display:inline"
       d="M 335.798,488.50282 L 335.798,503.53507 L 338.81975,503.53507 L 338.81975,491.48632 L 341.8415,491.48632 L 341.8415,503.53507 L 344.825,503.53507 L 344.825,491.48632 L 347.84664,491.48632 L 347.84664,503.53507 L 350.86839,503.53507 L 350.86839,488.50282 L 335.798,488.50282" />
    <path
       id="path2623"
       style="fill:none;stroke:#000000;stroke-width:0.03825;stroke-linecap:butt;stroke-linejoin:miter;stroke-miterlimit:10;stroke-dasharray:none;stroke-opacity:1;display:inline"
       d="M 335.798,488.50282 L 335.798,503.53507 L 338.81975,503.53507 L 338.81975,491.48632 L 341.8415,491.48632 L 341.8415,503.53507 L 344.825,503.53507 L 344.825,491.48632 L 347.84664,491.48632 L 347.84664,503.53507 L 350.86839,503.53507 L 350.86839,488.50282 L 335.798,488.50282 z" />
    <path
       id="path2625"
       style="fill:#ffff00;fill-opacity:1;fill-rule:evenodd;stroke:none;display:inline"
       d="M 341.8415,503.53507 L 344.82498,503.53507 L 344.82498,494.50807 L 341.8415,494.50807 L 341.8415,503.53507 z" />
    <path
       id="path2627"
       style="fill:none;stroke:#000000;stroke-width:0.03825;stroke-linecap:butt;stroke-linejoin:miter;stroke-miterlimit:10;stroke-dasharray:none;stroke-opacity:1;display:inline"
       d="M 341.8415,503.53507 L 344.82498,503.53507 L 344.82498,494.50807 L 341.8415,494.50807 L 341.8415,503.53507 z" />
    <path
       id="path2629"
       style="fill:#ff0000;fill-opacity:1;fill-rule:evenodd;stroke:none;display:inline"
       d="M 335.798,491.48621 L 350.8685,491.48621 L 350.8685,488.50274 L 335.798,488.50274 L 335.798,491.48621 z" />
    <path
       id="path2631"
       style="fill:none;stroke:#000000;stroke-width:0.03825;stroke-linecap:butt;stroke-linejoin:miter;stroke-miterlimit:10;stroke-dasharray:none;stroke-opacity:1;display:inline"
       d="M 335.798,491.48621 L 350.8685,491.48621 L 350.8685,488.50274 L 335.798,488.50274 L 335.798,491.48621 z" />
    <path
       id="path2633"
       style="fill:#ff0000;fill-opacity:1;fill-rule:evenodd;stroke:none;display:inline"
       d="M 347.84675,503.53507 L 350.86849,503.53507 L 350.86849,494.50807 L 347.84675,494.50807 L 347.84675,503.53507 z" />
    <path
       id="path2635"
       style="fill:none;stroke:#000000;stroke-width:0.03825;stroke-linecap:butt;stroke-linejoin:miter;stroke-miterlimit:10;stroke-dasharray:none;stroke-opacity:1;display:inline"
       d="M 347.84675,503.53507 L 350.86849,503.53507 L 350.86849,494.50807 L 347.84675,494.50807 L 347.84675,503.53507 z" />
    <path
       id="path2637"
       style="fill:#ff0000;fill-opacity:1;fill-rule:evenodd;stroke:none;display:inline"
       d="M 335.798,503.53507 L 338.81974,503.53507 L 338.81974,497.52984 L 335.798,497.52984 L 335.798,503.53507 z" />
    <path
       id="path2639"
       style="fill:none;stroke:#000000;stroke-width:0.03825;stroke-linecap:butt;stroke-linejoin:miter;stroke-miterlimit:10;stroke-dasharray:none;stroke-opacity:1;display:inline"
       d="M 335.798,503.53507 L 338.81974,503.53507 L 338.81974,497.52984 L 335.798,497.52984 L 335.798,503.53507 z" />
    <path
       id="path2641"
       style="fill:#ff7f00;fill-opacity:1;fill-rule:evenodd;stroke:none;display:inline"
       d="M 335.798,497.52982 L 338.81974,497.52982 L 338.81974,491.48633 L 335.798,491.48633 L 335.798,497.52982 z" />
    <path
       id="path2643"
       style="fill:none;stroke:#000000;stroke-width:0.03825;stroke-linecap:butt;stroke-linejoin:miter;stroke-miterlimit:10;stroke-dasharray:none;stroke-opacity:1;display:inline"
       d="M 335.798,497.52982 L 338.81974,497.52982 L 338.81974,491.48633 L 335.798,491.48633 L 335.798,497.52982 z" />
    <path
       id="path2645"
       style="fill:#ff7f00;fill-opacity:1;fill-rule:evenodd;stroke:none;display:inline"
       d="M 341.8415,494.50807 L 344.82498,494.50807 L 344.82498,491.48633 L 341.8415,491.48633 L 341.8415,494.50807 z" />
    <path
       id="path2647"
       style="fill:none;stroke:#000000;stroke-width:0.03825;stroke-linecap:butt;stroke-linejoin:miter;stroke-miterlimit:10;stroke-dasharray:none;stroke-opacity:1;display:inline"
       d="M 341.8415,494.50807 L 344.82498,494.50807 L 344.82498,491.48633 L 341.8415,491.48633 L 341.8415,494.50807 z" />
    <path
       id="path2649"
       style="fill:#ff7f00;fill-opacity:1;fill-rule:evenodd;stroke:none;display:inline"
       d="M 347.84675,494.50807 L 350.86849,494.50807 L 350.86849,491.48633 L 347.84675,491.48633 L 347.84675,494.50807 z" />
    <path
       id="path2651"
       style="fill:none;stroke:#000000;stroke-width:0.03825;stroke-linecap:butt;stroke-linejoin:miter;stroke-miterlimit:10;stroke-dasharray:none;stroke-opacity:1;display:inline"
       d="M 347.84675,494.50807 L 350.86849,494.50807 L 350.86849,491.48633 L 347.84675,491.48633 L 347.84675,494.50807 z" />
    <path
       id="path2653"
       style="fill:#bfbfbf;fill-opacity:1;fill-rule:evenodd;stroke:none;display:inline"
       d="M 302.6735,572.80582 L 305.69525,572.80582 L 305.69525,563.77882 L 296.66825,563.77882 L 296.66825,578.84929 L 305.69525,578.84929 L 305.69525,575.82754 L 299.65175,575.82754 L 299.65175,572.80582 L 302.6735,572.80582" />
    <path
       id="path2655"
       style="fill:none;stroke:#000000;stroke-width:0.03825;stroke-linecap:butt;stroke-linejoin:miter;stroke-miterlimit:10;stroke-dasharray:none;stroke-opacity:1;display:inline"
       d="M 302.6735,572.80582 L 305.69525,572.80582 L 305.69525,563.77882 L 296.66825,563.77882 L 296.66825,578.84929 L 305.69525,578.84929 L 305.69525,575.82754 L 299.65175,575.82754 L 299.65175,572.80582 L 302.6735,572.80582 z" />
    <path
       id="path2657"
       style="fill:#ffffff;fill-opacity:1;fill-rule:evenodd;stroke:none;display:inline"
       d="M 299.65175,569.82232 L 302.67349,569.82232 L 302.67349,566.80058 L 299.65175,566.80058 L 299.65175,569.82232 z" />
    <path
       id="path2659"
       style="fill:none;stroke:#000000;stroke-width:0.03825;stroke-linecap:butt;stroke-linejoin:miter;stroke-miterlimit:10;stroke-dasharray:none;stroke-opacity:1;display:inline"
       d="M 299.65175,569.82232 L 302.67349,569.82232 L 302.67349,566.80058 L 299.65175,566.80058 L 299.65175,569.82232 z" />
    <path
       id="path2661"
       style="fill:#ffff00;fill-opacity:1;fill-rule:evenodd;stroke:none;display:inline"
       d="M 299.65175,566.80057 L 299.65175,563.77882 L 305.69525,563.77882 L 305.69525,572.80582 L 302.6735,572.80582 L 302.6735,566.80057 L 299.65175,566.80057" />
    <path
       id="path2663"
       style="fill:none;stroke:#000000;stroke-width:0.03825;stroke-linecap:butt;stroke-linejoin:miter;stroke-miterlimit:10;stroke-dasharray:none;stroke-opacity:1;display:inline"
       d="M 299.65175,566.80057 L 299.65175,563.77882 L 305.69525,563.77882 L 305.69525,572.80582 L 302.6735,572.80582 L 302.6735,566.80057 L 299.65175,566.80057 z" />
    <path
       id="path2665"
       style="fill:#ff0000;fill-opacity:1;fill-rule:evenodd;stroke:none;display:inline"
       d="M 296.66825,575.82752 L 299.65173,575.82752 L 299.65173,563.77877 L 296.66825,563.77877 L 296.66825,575.82752 z" />
    <path
       id="path2667"
       style="fill:none;stroke:#000000;stroke-width:0.03825;stroke-linecap:butt;stroke-linejoin:miter;stroke-miterlimit:10;stroke-dasharray:none;stroke-opacity:1;display:inline"
       d="M 296.66825,575.82752 L 299.65173,575.82752 L 299.65173,563.77877 L 296.66825,563.77877 L 296.66825,575.82752 z" />
    <path
       id="path2669"
       style="fill:#ff7f00;fill-opacity:1;fill-rule:evenodd;stroke:none;display:inline"
       d="M 299.65175,572.80582 L 302.67349,572.80582 L 302.67349,569.82234 L 299.65175,569.82234 L 299.65175,572.80582 z" />
    <path
       id="path2671"
       style="fill:none;stroke:#000000;stroke-width:0.03825;stroke-linecap:butt;stroke-linejoin:miter;stroke-miterlimit:10;stroke-dasharray:none;stroke-opacity:1;display:inline"
       d="M 299.65175,572.80582 L 302.67349,572.80582 L 302.67349,569.82234 L 299.65175,569.82234 L 299.65175,572.80582 z" />
    <path
       id="path2673"
       style="fill:#ff7f00;fill-opacity:1;fill-rule:evenodd;stroke:none;display:inline"
       d="M 296.66825,578.84929 L 305.69525,578.84929 L 305.69525,575.82755 L 296.66825,575.82755 L 296.66825,578.84929 z" />
    <path
       id="path2675"
       style="fill:none;stroke:#000000;stroke-width:0.03825;stroke-linecap:butt;stroke-linejoin:miter;stroke-miterlimit:10;stroke-dasharray:none;stroke-opacity:1;display:inline"
       d="M 296.66825,578.84929 L 305.69525,578.84929 L 305.69525,575.82755 L 296.66825,575.82755 L 296.66825,578.84929 z" />
    <path
       id="path2677"
       style="fill:#bfbfbf;fill-opacity:1;fill-rule:evenodd;stroke:none;display:inline"
       d="M 323.74925,521.62732 L 323.74925,509.57857 L 314.72225,509.57857 L 314.72225,530.65432 L 317.744,530.65432 L 317.744,521.62732 L 323.74925,521.62732" />
    <path
       id="path2679"
       style="fill:none;stroke:#000000;stroke-width:0.03825;stroke-linecap:butt;stroke-linejoin:miter;stroke-miterlimit:10;stroke-dasharray:none;stroke-opacity:1;display:inline"
       d="M 323.74925,521.62732 L 323.74925,509.57857 L 314.72225,509.57857 L 314.72225,530.65432 L 317.744,530.65432 L 317.744,521.62732 L 323.74925,521.62732 z" />
    <path
       id="path2681"
       style="fill:#ffffff;fill-opacity:1;fill-rule:evenodd;stroke:none;display:inline"
       d="M 317.744,518.60546 L 320.72748,518.60546 L 320.72748,512.60023 L 317.744,512.60023 L 317.744,518.60546 z" />
    <path
       id="path2683"
       style="fill:none;stroke:#000000;stroke-width:0.03825;stroke-linecap:butt;stroke-linejoin:miter;stroke-miterlimit:10;stroke-dasharray:none;stroke-opacity:1;display:inline"
       d="M 317.744,518.60546 L 320.72748,518.60546 L 320.72748,512.60023 L 317.744,512.60023 L 317.744,518.60546 z" />
    <path
       id="path2685"
       style="fill:#ffff00;fill-opacity:1;fill-rule:evenodd;stroke:none;display:inline"
       d="M 314.72225,530.65432 L 317.74399,530.65432 L 317.74399,521.62732 L 314.72225,521.62732 L 314.72225,530.65432 z" />
    <path
       id="path2687"
       style="fill:none;stroke:#000000;stroke-width:0.03825;stroke-linecap:butt;stroke-linejoin:miter;stroke-miterlimit:10;stroke-dasharray:none;stroke-opacity:1;display:inline"
       d="M 314.72225,530.65432 L 317.74399,530.65432 L 317.74399,521.62732 L 314.72225,521.62732 L 314.72225,530.65432 z" />
    <path
       id="path2689"
       style="fill:#ff0000;fill-opacity:1;fill-rule:evenodd;stroke:none;display:inline"
       d="M 320.7275,521.62732 L 323.74924,521.62732 L 323.74924,509.57857 L 320.7275,509.57857 L 320.7275,521.62732 z" />
    <path
       id="path2691"
       style="fill:none;stroke:#000000;stroke-width:0.03825;stroke-linecap:butt;stroke-linejoin:miter;stroke-miterlimit:10;stroke-dasharray:none;stroke-opacity:1;display:inline"
       d="M 320.7275,521.62732 L 323.74924,521.62732 L 323.74924,509.57857 L 320.7275,509.57857 L 320.7275,521.62732 z" />
    <path
       id="path2693"
       style="fill:#ff0000;fill-opacity:1;fill-rule:evenodd;stroke:none;display:inline"
       d="M 314.72225,518.60546 L 317.74399,518.60546 L 317.74399,512.60023 L 314.72225,512.60023 L 314.72225,518.60546 z" />
    <path
       id="path2695"
       style="fill:none;stroke:#000000;stroke-width:0.03825;stroke-linecap:butt;stroke-linejoin:miter;stroke-miterlimit:10;stroke-dasharray:none;stroke-opacity:1;display:inline"
       d="M 314.72225,518.60546 L 317.74399,518.60546 L 317.74399,512.60023 L 314.72225,512.60023 L 314.72225,518.60546 z" />
    <path
       id="path2697"
       style="fill:#ff7f00;fill-opacity:1;fill-rule:evenodd;stroke:none;display:inline"
       d="M 314.72225,512.60032 L 320.72748,512.60032 L 320.72748,509.57858 L 314.72225,509.57858 L 314.72225,512.60032 z" />
    <path
       id="path2699"
       style="fill:none;stroke:#000000;stroke-width:0.03825;stroke-linecap:butt;stroke-linejoin:miter;stroke-miterlimit:10;stroke-dasharray:none;stroke-opacity:1;display:inline"
       d="M 314.72225,512.60032 L 320.72748,512.60032 L 320.72748,509.57858 L 314.72225,509.57858 L 314.72225,512.60032 z" />
    <path
       id="path2701"
       style="fill:#ff7f00;fill-opacity:1;fill-rule:evenodd;stroke:none;display:inline"
       d="M 314.72225,521.62732 L 320.72748,521.62732 L 320.72748,518.60558 L 314.72225,518.60558 L 314.72225,521.62732 z" />
    <path
       id="path2703"
       style="fill:none;stroke:#000000;stroke-width:0.03825;stroke-linecap:butt;stroke-linejoin:miter;stroke-miterlimit:10;stroke-dasharray:none;stroke-opacity:1;display:inline"
       d="M 314.72225,521.62732 L 320.72748,521.62732 L 320.72748,518.60558 L 314.72225,518.60558 L 314.72225,521.62732 z" />
    <path
       id="path2705"
       style="fill:#bfbfbf;fill-opacity:1;fill-rule:evenodd;stroke:none;display:inline"
       d="M 266.52725,533.67607 L 269.549,533.67607 L 269.549,551.73007 L 272.57075,554.75182 L 266.52725,554.75182 L 266.52725,533.67607" />
    <path
       id="path2707"
       style="fill:none;stroke:#000000;stroke-width:0.03825;stroke-linecap:butt;stroke-linejoin:miter;stroke-miterlimit:10;stroke-dasharray:none;stroke-opacity:1;display:inline"
       d="M 266.52725,533.67607 L 269.549,533.67607 L 269.549,551.73007 L 272.57075,554.75182 L 266.52725,554.75182 L 266.52725,533.67607 z" />
    <path
       id="path2709"
       style="fill:#bfbfbf;fill-opacity:1;fill-rule:evenodd;stroke:none;display:inline"
       d="M 263.50549,542.70307 L 272.57072,542.70307 L 272.57072,539.68133 L 263.50549,539.68133 L 263.50549,542.70307 z" />
    <path
       id="path2711"
       style="fill:none;stroke:#000000;stroke-width:0.03825;stroke-linecap:butt;stroke-linejoin:miter;stroke-miterlimit:10;stroke-dasharray:none;stroke-opacity:1;display:inline"
       d="M 263.50549,542.70307 L 272.57072,542.70307 L 272.57072,539.68133 L 263.50549,539.68133 L 263.50549,542.70307 z" />
    <path
       id="path2713"
       style="fill:#ffff00;fill-opacity:1;fill-rule:evenodd;stroke:none;display:inline"
       d="M 263.50549,542.70307 L 272.57072,542.70307 L 272.57072,539.68133 L 263.50549,539.68133 L 263.50549,542.70307 z" />
    <path
       id="path2715"
       style="fill:none;stroke:#000000;stroke-width:0.03825;stroke-linecap:butt;stroke-linejoin:miter;stroke-miterlimit:10;stroke-dasharray:none;stroke-opacity:1;display:inline"
       d="M 263.50549,542.70307 L 272.57072,542.70307 L 272.57072,539.68133 L 263.50549,539.68133 L 263.50549,542.70307 z" />
    <path
       id="path2717"
       style="fill:#ff0000;fill-opacity:1;fill-rule:evenodd;stroke:none;display:inline"
       d="M 266.52725,554.75182 L 269.54899,554.75182 L 269.54899,542.70307 L 266.52725,542.70307 L 266.52725,554.75182 z" />
    <path
       id="path2719"
       style="fill:none;stroke:#000000;stroke-width:0.03825;stroke-linecap:butt;stroke-linejoin:miter;stroke-miterlimit:10;stroke-dasharray:none;stroke-opacity:1;display:inline"
       d="M 266.52725,554.75182 L 269.54899,554.75182 L 269.54899,542.70307 L 266.52725,542.70307 L 266.52725,554.75182 z" />
    <path
       id="path2721"
       style="fill:#ff7f00;fill-opacity:1;fill-rule:evenodd;stroke:none;display:inline"
       d="M 266.52725,539.68132 L 269.54899,539.68132 L 269.54899,533.67609 L 266.52725,533.67609 L 266.52725,539.68132 z" />
    <path
       id="path2723"
       style="fill:none;stroke:#000000;stroke-width:0.03825;stroke-linecap:butt;stroke-linejoin:miter;stroke-miterlimit:10;stroke-dasharray:none;stroke-opacity:1;display:inline"
       d="M 266.52725,539.68132 L 269.54899,539.68132 L 269.54899,533.67609 L 266.52725,533.67609 L 266.52725,539.68132 z" />
    <path
       id="path2725"
       style="fill:#ff7f00;fill-opacity:1;fill-rule:evenodd;stroke:none;display:inline"
       d="M 269.549,554.75182 L 269.549,551.73007 L 272.57075,554.75182 L 269.549,554.75182" />
    <path
       id="path2727"
       style="fill:none;stroke:#000000;stroke-width:0.03825;stroke-linecap:butt;stroke-linejoin:miter;stroke-miterlimit:10;stroke-dasharray:none;stroke-opacity:1;display:inline"
       d="M 269.549,554.75182 L 269.549,551.73007 L 272.57075,554.75182 L 269.549,554.75182 z" />
    <path
       id="path2729"
       style="fill:#bfbfbf;fill-opacity:1;fill-rule:evenodd;stroke:none;display:inline"
       d="M 284.6195,563.77882 L 284.6195,578.84926 L 287.603,578.84926 L 287.603,569.82221 L 293.6465,563.77882 L 290.62475,563.77882 L 287.603,566.80057 L 287.603,563.77882 L 284.6195,563.77882" />
    <path
       id="path2731"
       style="fill:none;stroke:#000000;stroke-width:0.03825;stroke-linecap:butt;stroke-linejoin:miter;stroke-miterlimit:10;stroke-dasharray:none;stroke-opacity:1;display:inline"
       d="M 284.6195,563.77882 L 284.6195,578.84926 L 287.603,578.84926 L 287.603,569.82221 L 293.6465,563.77882 L 290.62475,563.77882 L 287.603,566.80057 L 287.603,563.77882 L 284.6195,563.77882 z" />
    <path
       id="path2733"
       style="fill:#ffff00;fill-opacity:1;fill-rule:evenodd;stroke:none;display:inline"
       d="M 284.6195,569.82232 L 287.603,569.82232 L 287.603,575.82752 L 284.6195,575.82752 L 284.6195,569.82232" />
    <path
       id="path2735"
       style="fill:none;stroke:#000000;stroke-width:0.03825;stroke-linecap:butt;stroke-linejoin:miter;stroke-miterlimit:10;stroke-dasharray:none;stroke-opacity:1;display:inline"
       d="M 284.6195,569.82232 L 287.603,569.82232 L 287.603,575.82752 L 284.6195,575.82752 L 284.6195,569.82232 z" />
    <path
       id="path2737"
       style="fill:#ff0000;fill-opacity:1;fill-rule:evenodd;stroke:none;display:inline"
       d="M 284.6195,569.82221 L 287.60298,569.82221 L 287.60298,563.77872 L 284.6195,563.77872 L 284.6195,569.82221 z" />
    <path
       id="path2739"
       style="fill:none;stroke:#000000;stroke-width:0.03825;stroke-linecap:butt;stroke-linejoin:miter;stroke-miterlimit:10;stroke-dasharray:none;stroke-opacity:1;display:inline"
       d="M 284.6195,569.82221 L 287.60298,569.82221 L 287.60298,563.77872 L 284.6195,563.77872 L 284.6195,569.82221 z" />
    <path
       id="path2741"
       style="fill:#ff7f00;fill-opacity:1;fill-rule:evenodd;stroke:none;display:inline"
       d="M 284.6195,578.84929 L 287.60298,578.84929 L 287.60298,575.82755 L 284.6195,575.82755 L 284.6195,578.84929 z" />
    <path
       id="path2743"
       style="fill:none;stroke:#000000;stroke-width:0.03825;stroke-linecap:butt;stroke-linejoin:miter;stroke-miterlimit:10;stroke-dasharray:none;stroke-opacity:1;display:inline"
       d="M 284.6195,578.84929 L 287.60298,578.84929 L 287.60298,575.82755 L 284.6195,575.82755 L 284.6195,578.84929 z" />
    <path
       id="path2745"
       style="fill:#ff7f00;fill-opacity:1;fill-rule:evenodd;stroke:none;display:inline"
       d="M 287.603,569.82232 L 293.6465,563.77882 L 290.62475,563.77882 L 287.603,566.80057 L 287.603,569.82232" />
    <path
       id="path2747"
       style="fill:none;stroke:#000000;stroke-width:0.03825;stroke-linecap:butt;stroke-linejoin:miter;stroke-miterlimit:10;stroke-dasharray:none;stroke-opacity:1;display:inline"
       d="M 287.603,569.82232 L 293.6465,563.77882 L 290.62475,563.77882 L 287.603,566.80057 L 287.603,569.82232 z" />
    <path
       id="path2749"
       style="fill:#bfbfbf;fill-opacity:1;fill-rule:evenodd;stroke:none;display:inline"
       d="M 314.72225,491.48632 L 317.744,488.50282 L 323.74914,488.50282 L 323.74914,500.55157 L 326.77089,503.53507 L 317.74389,503.53507 L 314.72214,500.55157 L 314.72214,491.48632" />
    <path
       id="path2751"
       style="fill:none;stroke:#000000;stroke-width:0.03825;stroke-linecap:butt;stroke-linejoin:miter;stroke-miterlimit:10;stroke-dasharray:none;stroke-opacity:1;display:inline"
       d="M 314.72225,491.48632 L 317.744,488.50282 L 323.74914,488.50282 L 323.74914,500.55157 L 326.77089,503.53507 L 317.74389,503.53507 L 314.72214,500.55157 L 314.72214,491.48632 L 314.72225,491.48632 z" />
    <path
       id="path2753"
       style="fill:#ffffff;fill-opacity:1;fill-rule:evenodd;stroke:none;display:inline"
       d="M 317.744,500.55157 L 320.72748,500.55157 L 320.72748,491.48634 L 317.744,491.48634 L 317.744,500.55157 z" />
    <path
       id="path2755"
       style="fill:none;stroke:#000000;stroke-width:0.03825;stroke-linecap:butt;stroke-linejoin:miter;stroke-miterlimit:10;stroke-dasharray:none;stroke-opacity:1;display:inline"
       d="M 317.744,500.55157 L 320.72748,500.55157 L 320.72748,491.48634 L 317.744,491.48634 L 317.744,500.55157 z" />
    <path
       id="path2757"
       style="fill:#ffff00;fill-opacity:1;fill-rule:evenodd;stroke:none;display:inline"
       d="M 314.72225,491.48632 L 323.74925,491.48632 L 323.74925,488.50282 L 317.744,488.50282 L 314.72225,491.48632" />
    <path
       id="path2759"
       style="fill:none;stroke:#000000;stroke-width:0.03825;stroke-linecap:butt;stroke-linejoin:miter;stroke-miterlimit:10;stroke-dasharray:none;stroke-opacity:1;display:inline"
       d="M 314.72225,491.48632 L 323.74925,491.48632 L 323.74925,488.50282 L 317.744,488.50282 L 314.72225,491.48632 z" />
    <path
       id="path2761"
       style="fill:#ff0000;fill-opacity:1;fill-rule:evenodd;stroke:none;display:inline"
       d="M 314.72225,500.55157 L 317.74399,500.55157 L 317.74399,491.48634 L 314.72225,491.48634 L 314.72225,500.55157 z" />
    <path
       id="path2763"
       style="fill:none;stroke:#000000;stroke-width:0.03825;stroke-linecap:butt;stroke-linejoin:miter;stroke-miterlimit:10;stroke-dasharray:none;stroke-opacity:1;display:inline"
       d="M 314.72225,500.55157 L 317.74399,500.55157 L 317.74399,491.48634 L 314.72225,491.48634 L 314.72225,500.55157 z" />
    <path
       id="path2765"
       style="fill:#ff7f00;fill-opacity:1;fill-rule:evenodd;stroke:none;display:inline"
       d="M 314.72225,500.55157 L 320.72739,500.55157 L 320.72739,491.48632 L 323.74914,491.48632 L 323.74914,500.55157 L 326.77089,503.53507 L 317.74389,503.53507 L 314.72214,500.55157" />
    <path
       id="path2767"
       style="fill:none;stroke:#000000;stroke-width:0.03825;stroke-linecap:butt;stroke-linejoin:miter;stroke-miterlimit:10;stroke-dasharray:none;stroke-opacity:1;display:inline"
       d="M 314.72225,500.55157 L 320.72739,500.55157 L 320.72739,491.48632 L 323.74914,491.48632 L 323.74914,500.55157 L 326.77089,503.53507 L 317.74389,503.53507 L 314.72214,500.55157 L 314.72225,500.55157 z" />
    <path
       id="path2769"
       style="fill:none;stroke:#000000;stroke-width:0.03825;stroke-linecap:butt;stroke-linejoin:miter;stroke-miterlimit:10;stroke-dasharray:none;stroke-opacity:1;display:inline"
       d="M 329.79275,551.73007 L 341.8415,560.75707" />
    <text
       xml:space="preserve"
       style="font-size:7px;font-style:normal;font-variant:normal;font-weight:bold;font-stretch:normal;text-align:start;line-height:100%;writing-mode:lr-tb;text-anchor:start;fill:#000000;fill-opacity:1;stroke:none;stroke-width:1px;stroke-linecap:butt;stroke-linejoin:miter;stroke-opacity:1;font-family:Arial;-inkscape-font-specification:Arial Bold"
       x="258.04758"
       y="489.54968"
       id="text5651"
       sodipodi:linespacing="100%"><tspan
         sodipodi:role="line"
         x="258.04758"
         y="489.54968"
         id="tspan5655">Quadtree Zelle</tspan></text>
    <text
       xml:space="preserve"
       style="font-size:7px;font-style:normal;font-weight:normal;fill:#000000;fill-opacity:1;stroke:none;stroke-width:1px;stroke-linecap:butt;stroke-linejoin:miter;stroke-opacity:1;font-family:Bitstream Vera Sans"
       x="311.35715"
       y="549.07648"
       id="text5659"><tspan
         sodipodi:role="line"
         id="tspan5661"
         x="311.35715"
         y="549.07648"
         style="font-weight:bold;-inkscape-font-specification:Bitstream Vera Sans Bold">Polygon</tspan></text>
    <text
       xml:space="preserve"
       style="font-size:7px;font-style:normal;font-weight:normal;fill:#000000;fill-opacity:1;stroke:none;stroke-width:1px;stroke-linecap:butt;stroke-linejoin:miter;stroke-opacity:1;font-family:Bitstream Vera Sans"
       x="420.06131"
       y="500.2193"
       id="text5663"><tspan
         sodipodi:role="line"
         id="tspan5665"
         x="420.06131"
         y="500.2193"
         style="font-weight:bold;-inkscape-font-specification:Bitstream Vera Sans Bold">Sampletree</tspan></text>
  </g>
</svg>
