<?xml version="1.0" encoding="UTF-8" standalone="no"?>
<!-- Created with Inkscape (http://www.inkscape.org/) -->
<svg
   xmlns:dc="http://purl.org/dc/elements/1.1/"
   xmlns:cc="http://creativecommons.org/ns#"
   xmlns:rdf="http://www.w3.org/1999/02/22-rdf-syntax-ns#"
   xmlns:svg="http://www.w3.org/2000/svg"
   xmlns="http://www.w3.org/2000/svg"
   xmlns:sodipodi="http://sodipodi.sourceforge.net/DTD/sodipodi-0.dtd"
   xmlns:inkscape="http://www.inkscape.org/namespaces/inkscape"
   width="264.86386"
   height="219.99042"
   id="svg6327"
   sodipodi:version="0.32"
   inkscape:version="0.46"
   sodipodi:docname="sort-middle.svg"
   inkscape:output_extension="org.inkscape.output.svg.inkscape"
   version="1.0">
  <defs
     id="defs6329">
    <inkscape:perspective
       sodipodi:type="inkscape:persp3d"
       inkscape:vp_x="0 : 526.18109 : 1"
       inkscape:vp_y="0 : 1000 : 0"
       inkscape:vp_z="744.09448 : 526.18109 : 1"
       inkscape:persp3d-origin="372.04724 : 350.78739 : 1"
       id="perspective6335" />
  </defs>
  <sodipodi:namedview
     id="base"
     pagecolor="#ffffff"
     bordercolor="#666666"
     borderopacity="1.0"
     gridtolerance="10000"
     guidetolerance="10"
     objecttolerance="10"
     inkscape:pageopacity="0.0"
     inkscape:pageshadow="2"
     inkscape:zoom="1.979899"
     inkscape:cx="138.97569"
     inkscape:cy="102.8008"
     inkscape:document-units="px"
     inkscape:current-layer="layer1"
     showgrid="false"
     inkscape:window-width="829"
     inkscape:window-height="771"
     inkscape:window-x="390"
     inkscape:window-y="186" />
  <metadata
     id="metadata6332">
    <rdf:RDF>
      <cc:Work
         rdf:about="">
        <dc:format>image/svg+xml</dc:format>
        <dc:type
           rdf:resource="http://purl.org/dc/dcmitype/StillImage" />
      </cc:Work>
    </rdf:RDF>
  </metadata>
  <g
     inkscape:label="Layer 1"
     inkscape:groupmode="layer"
     id="layer1"
     transform="translate(-245.98986,-423.93423)">
    <path
       id="path3269"
       style="fill:#000000;fill-opacity:1;fill-rule:nonzero;stroke:none"
       d="M 266.47264,511.96218 L 267.72264,511.96218 L 267.72264,529.46218 L 266.47264,529.46218 L 266.47264,528.21218" />
    <path
       id="path3271"
       style="fill:#000000;fill-opacity:1;fill-rule:nonzero;stroke:none"
       d="M 300.22264,511.96218 L 301.47264,511.96218 L 301.47264,524.46218 L 300.22264,524.46218 L 300.22264,523.21218" />
    <path
       id="path3273"
       style="fill:#000000;fill-opacity:1;fill-rule:nonzero;stroke:none"
       d="M 367.72264,511.96218 L 368.97264,511.96218 L 368.97264,524.46218 L 367.72264,524.46218 L 367.72264,523.21218" />
    <path
       id="path3275"
       style="fill:#000000;fill-opacity:1;fill-rule:nonzero;stroke:none"
       d="M 401.47264,511.96218 L 402.72264,511.96218 L 402.72264,529.46218 L 401.47264,529.46218 L 401.47264,528.21218" />
    <path
       id="path3277"
       style="fill:#000000;fill-opacity:1;fill-rule:nonzero;stroke:none"
       d="M 266.47264,559.46218 L 267.72264,559.46218 L 267.72264,574.46218 L 266.47264,574.46218 L 266.47264,573.21218" />
    <path
       id="path3279"
       style="fill:#000000;fill-opacity:1;fill-rule:nonzero;stroke:none"
       d="M 300.22264,559.46218 L 301.47264,559.46218 L 301.47264,574.46218 L 300.22264,574.46218 L 300.22264,573.21218" />
    <path
       id="path3281"
       style="fill:#000000;fill-opacity:1;fill-rule:nonzero;stroke:none"
       d="M 367.72264,559.46218 L 368.97264,559.46218 L 368.97264,574.46218 L 367.72264,574.46218 L 367.72264,573.21218" />
    <path
       id="path3283"
       style="fill:#000000;fill-opacity:1;fill-rule:nonzero;stroke:none"
       d="M 401.47264,559.46218 L 402.72264,559.46218 L 402.72264,574.46218 L 401.47264,574.46218 L 401.47264,573.21218" />
    <path
       id="path3293"
       style="fill:#000000;fill-opacity:1;fill-rule:evenodd;stroke:none"
       d="M 248.97264,524.46218 L 250.22264,523.21218 L 253.97264,520.71218 L 256.47264,520.71218 L 257.72264,521.96218 L 258.97264,523.21218 L 266.47264,523.21218 L 268.97264,521.96218 L 271.47264,520.71218 L 278.97264,520.71218 L 280.22264,521.96218 L 281.47264,523.21218 L 288.97264,523.21218 L 291.47264,521.96218 L 293.97264,520.71218 L 301.47264,520.71218 L 302.72264,521.96218 L 303.97264,523.21218 L 311.47264,523.21218 L 313.97264,521.96218 L 316.47264,520.71218 L 323.97264,520.71218 L 325.22264,521.96218 L 326.47264,523.21218 L 333.97264,523.21218 L 336.47264,521.96218 L 338.97264,520.71218 L 346.47264,520.71218 L 347.72264,521.96218 L 348.97264,523.21218 L 356.47264,523.21218 L 358.97264,521.96218 L 361.47264,520.71218 L 368.97264,520.71218 L 370.22264,521.96218 L 371.47264,523.21218 L 378.97264,523.21218 L 381.47264,521.96218 L 383.97264,520.71218 L 391.47264,520.71218 L 392.72264,521.96218 L 393.97264,523.21218 L 401.47264,523.21218 L 403.97264,521.96218 L 406.47264,520.71218 L 413.97264,520.71218 L 415.22264,521.96218 L 416.47264,523.21218 L 416.47264,525.71218 L 415.22264,526.96218 L 413.97264,528.21218 L 413.97264,529.46218 L 415.22264,530.71218 L 416.47264,531.96218 L 417.72264,533.21218 L 417.72264,533.21218 L 420.22264,534.46218 L 420.22264,534.46218 L 421.47264,535.71218 L 421.47264,535.71218 L 420.22264,536.96218 L 420.22264,536.96218 L 417.72264,538.21218 L 417.72264,538.21218 L 416.47264,539.46218 L 415.22264,540.71218 L 415.22264,541.96218 L 416.47264,543.21218 L 417.72264,544.46218 L 417.72264,544.46218 L 420.22264,545.71218 L 420.22264,546.96218 L 418.97264,548.21218 L 418.97264,548.21218 L 415.22264,549.46218 L 415.22264,549.46218 L 411.47264,550.71218 L 411.47264,550.71218 L 410.22264,551.96218 L 410.22264,553.21218 L 411.47264,554.46218 L 412.72264,555.71218 L 412.72264,555.71218 L 415.22264,556.96218 L 413.97264,556.96218 L 413.97264,558.21218 L 411.47264,559.46218 L 410.22264,559.46218 L 407.72264,560.71218 L 406.47264,560.71218 L 402.72264,561.96218 L 393.97264,561.96218 L 392.72264,560.71218 L 392.72264,560.71218 L 390.22264,559.46218 L 387.72264,559.46218 L 382.72264,560.71218 L 381.47264,560.71218 L 378.97264,561.96218 L 371.47264,561.96218 L 370.22264,560.71218 L 370.22264,560.71218 L 367.72264,559.46218 L 365.22264,559.46218 L 360.22264,560.71218 L 358.97264,560.71218 L 356.47264,561.96218 L 348.97264,561.96218 L 347.72264,560.71218 L 347.72264,560.71218 L 345.22264,559.46218 L 342.72264,559.46218 L 337.72264,560.71218 L 336.47264,560.71218 L 333.97264,561.96218 L 326.47264,561.96218 L 325.22264,560.71218 L 325.22264,560.71218 L 322.72264,559.46218 L 320.22264,559.46218 L 315.22264,560.71218 L 313.97264,560.71218 L 311.47264,561.96218 L 303.97264,561.96218 L 302.72264,560.71218 L 302.72264,560.71218 L 300.22264,559.46218 L 297.72264,559.46218 L 292.72264,560.71218 L 291.47264,560.71218 L 288.97264,561.96218 L 281.47264,561.96218 L 280.22264,560.71218 L 280.22264,560.71218 L 277.72264,559.46218 L 275.22264,559.46218 L 270.22264,560.71218 L 268.97264,560.71218 L 266.47264,561.96218 L 258.97264,561.96218 L 257.72264,560.71218 L 257.72264,560.71218 L 256.47264,559.46218 L 252.72264,558.21218 L 247.72264,558.21218 L 246.47264,556.96218 L 246.47264,555.71218 L 247.72264,553.21218 L 248.97264,551.96218 L 248.97264,551.96218 L 250.22264,550.71218 L 251.47264,549.46218 L 252.72264,546.96218 L 252.72264,548.21218 L 251.47264,545.71218 L 251.47264,545.71218 L 248.97264,544.46218 L 248.97264,544.46218 L 247.72264,543.21218 L 246.47264,541.96218 L 246.47264,540.71218 L 247.72264,539.46218 L 248.97264,538.21218 L 248.97264,538.21218 L 251.47264,536.96218 L 251.47264,536.96218 L 252.72264,535.71218 L 252.72264,535.71218 L 251.47264,534.46218 L 251.47264,534.46218 L 248.97264,533.21218 L 248.97264,533.21218 L 247.72264,531.96218 L 246.47264,530.71218 L 246.47264,528.21218 L 247.72264,525.71218 L 248.97264,524.46218" />
    <path
       id="path3295"
       style="fill:#f8f8f8;fill-opacity:1;fill-rule:evenodd;stroke:none"
       d="M 248.97264,524.46218 C 253.13264,520.28718 256.04889,519.24593 257.72264,521.33718 C 259.38264,523.41218 263.13264,523.41218 268.97264,521.33718 C 274.79889,519.24593 278.54889,519.24593 280.22264,521.33718 C 281.88264,523.41218 285.63264,523.41218 291.47264,521.33718 C 297.29889,519.24593 301.04889,519.24593 302.72264,521.33718 C 304.38264,523.41218 308.13139,523.41218 313.97264,521.33718 C 319.79889,519.24593 323.54889,519.24593 325.22264,521.33718 C 326.88139,523.41218 330.63139,523.41218 336.47264,521.33718 C 342.29764,519.24593 346.04764,519.24593 347.72264,521.33718 C 349.38139,523.41218 353.13139,523.41218 358.97264,521.33718 C 364.79764,519.24593 368.54764,519.24593 370.22264,521.33718 C 371.88139,523.41218 375.63139,523.41218 381.47264,521.33718 C 387.29764,519.24593 391.04764,519.24593 392.72264,521.33718 C 394.38014,523.41218 398.13014,523.41218 403.97264,521.33718 C 409.79764,519.24593 413.54639,519.24593 415.22264,521.33718 C 416.88014,523.41218 416.88014,525.28718 415.22264,526.96218 C 413.54639,528.62093 414.58889,530.49593 418.34764,532.58718 C 422.08889,534.66218 422.08889,536.53718 418.34764,538.21218 C 414.58889,539.87093 414.58889,541.74468 418.34764,543.83718 C 422.08889,545.91218 421.04764,547.78718 415.22264,549.46218 C 409.38014,551.11968 408.33889,552.99468 412.09764,555.08718 C 415.83889,557.16218 413.96389,559.03718 406.47264,560.71218 C 398.96389,562.36968 394.38014,562.36968 392.72264,560.71218 C 391.04764,559.03718 387.29764,559.03718 381.47264,560.71218 C 375.63139,562.36968 371.88139,562.36968 370.22264,560.71218 C 368.54764,559.03718 364.79764,559.03718 358.97264,560.71218 C 353.13139,562.36968 349.38139,562.36968 347.72264,560.71218 C 346.04764,559.03718 342.29764,559.03718 336.47264,560.71218 C 330.63139,562.36968 326.88139,562.36968 325.22264,560.71218 C 323.54889,559.03718 319.79889,559.03718 313.97264,560.71218 C 308.13139,562.36968 304.38264,562.36968 302.72264,560.71218 C 301.04889,559.03718 297.29889,559.03718 291.47264,560.71218 C 285.63264,562.36968 281.88264,562.36968 280.22264,560.71218 C 278.54889,559.03718 274.79889,559.03718 268.97264,560.71218 C 263.13264,562.36968 259.38264,562.36968 257.72264,560.71218 C 256.04889,559.03718 253.34139,558.21218 249.59764,558.21218 C 245.84139,558.21218 245.84139,556.32843 249.59764,552.58718 C 253.34139,548.82843 253.34139,545.91218 249.59764,543.83718 C 245.84139,541.74468 245.84139,539.87093 249.59764,538.21218 C 253.34139,536.53718 253.34139,534.66218 249.59764,532.58718 C 245.84139,530.49593 245.63264,527.78718 248.97264,524.46218" />
    <path
       id="path3297"
       style="fill:none;stroke:#000000;stroke-width:1.25;stroke-linecap:butt;stroke-linejoin:miter;stroke-miterlimit:10;stroke-dasharray:none;stroke-opacity:1"
       d="M 248.97264,524.46218 C 253.13264,520.28718 256.04889,519.24593 257.72264,521.33718 C 259.38264,523.41218 263.13264,523.41218 268.97264,521.33718 C 274.79889,519.24593 278.54889,519.24593 280.22264,521.33718 C 281.88264,523.41218 285.63264,523.41218 291.47264,521.33718 C 297.29889,519.24593 301.04889,519.24593 302.72264,521.33718 C 304.38264,523.41218 308.13139,523.41218 313.97264,521.33718 C 319.79889,519.24593 323.54889,519.24593 325.22264,521.33718 C 326.88139,523.41218 330.63139,523.41218 336.47264,521.33718 C 342.29764,519.24593 346.04764,519.24593 347.72264,521.33718 C 349.38139,523.41218 353.13139,523.41218 358.97264,521.33718 C 364.79764,519.24593 368.54764,519.24593 370.22264,521.33718 C 371.88139,523.41218 375.63139,523.41218 381.47264,521.33718 C 387.29764,519.24593 391.04764,519.24593 392.72264,521.33718 C 394.38014,523.41218 398.13014,523.41218 403.97264,521.33718 C 409.79764,519.24593 413.54639,519.24593 415.22264,521.33718 C 416.88014,523.41218 416.88014,525.28718 415.22264,526.96218 C 413.54639,528.62093 414.58889,530.49593 418.34764,532.58718 C 422.08889,534.66218 422.08889,536.53718 418.34764,538.21218 C 414.58889,539.87093 414.58889,541.74468 418.34764,543.83718 C 422.08889,545.91218 421.04764,547.78718 415.22264,549.46218 C 409.38014,551.11968 408.33889,552.99468 412.09764,555.08718 C 415.83889,557.16218 413.96389,559.03718 406.47264,560.71218 C 398.96389,562.36968 394.38014,562.36968 392.72264,560.71218 C 391.04764,559.03718 387.29764,559.03718 381.47264,560.71218 C 375.63139,562.36968 371.88139,562.36968 370.22264,560.71218 C 368.54764,559.03718 364.79764,559.03718 358.97264,560.71218 C 353.13139,562.36968 349.38139,562.36968 347.72264,560.71218 C 346.04764,559.03718 342.29764,559.03718 336.47264,560.71218 C 330.63139,562.36968 326.88139,562.36968 325.22264,560.71218 C 323.54889,559.03718 319.79889,559.03718 313.97264,560.71218 C 308.13139,562.36968 304.38264,562.36968 302.72264,560.71218 C 301.04889,559.03718 297.29889,559.03718 291.47264,560.71218 C 285.63264,562.36968 281.88264,562.36968 280.22264,560.71218 C 278.54889,559.03718 274.79889,559.03718 268.97264,560.71218 C 263.13264,562.36968 259.38264,562.36968 257.72264,560.71218 C 256.04889,559.03718 253.34139,558.21218 249.59764,558.21218 C 245.84139,558.21218 245.84139,556.32843 249.59764,552.58718 C 253.34139,548.82843 253.34139,545.91218 249.59764,543.83718 C 245.84139,541.74468 245.84139,539.87093 249.59764,538.21218 C 253.34139,536.53718 253.34139,534.66218 249.59764,532.58718 C 245.84139,530.49593 245.63264,527.78718 248.97264,524.46218" />
    <path
       id="path3323"
       style="fill:#000000;fill-opacity:1;fill-rule:evenodd;stroke:none"
       d="M 266.47264,471.96218 L 261.47264,463.21218 L 270.22264,463.21218 L 266.47264,471.96218" />
    <path
       id="path3325"
       style="fill:#000000;fill-opacity:1;fill-rule:nonzero;stroke:none"
       d="M 265.71502,455.71218 L 266.96502,455.71218 L 266.96502,464.46218 L 265.71502,464.46218 L 265.71502,463.21218" />
    <path
       id="path3327"
       style="fill:#000000;fill-opacity:1;fill-rule:evenodd;stroke:none"
       d="M 300.22264,471.96218 L 295.22264,463.21218 L 303.97264,463.21218 L 300.22264,471.96218" />
    <path
       id="path3329"
       style="fill:#000000;fill-opacity:1;fill-rule:nonzero;stroke:none"
       d="M 299.21248,455.71218 L 300.46248,455.71218 L 300.46248,464.46218 L 299.21248,464.46218 L 299.21248,463.21218" />
    <path
       id="path3331"
       style="fill:#000000;fill-opacity:1;fill-rule:evenodd;stroke:none"
       d="M 367.72264,471.96218 L 362.72264,463.21218 L 371.47264,463.21218 L 367.72264,471.96218" />
    <path
       id="path3333"
       style="fill:#000000;fill-opacity:1;fill-rule:nonzero;stroke:none"
       d="M 366.71248,455.71218 L 367.96248,455.71218 L 367.96248,464.46218 L 366.71248,464.46218 L 366.71248,463.21218" />
    <path
       id="path3335"
       style="fill:#000000;fill-opacity:1;fill-rule:evenodd;stroke:none"
       d="M 401.47264,471.96218 L 396.47264,463.21218 L 405.22264,463.21218 L 401.47264,471.96218" />
    <path
       id="path3337"
       style="fill:#000000;fill-opacity:1;fill-rule:nonzero;stroke:none"
       d="M 400.46248,455.71218 L 401.71248,455.71218 L 401.71248,464.46218 L 400.46248,464.46218 L 400.46248,463.21218" />
    <path
       id="path3363"
       style="fill:#ffffff;fill-opacity:1;fill-rule:nonzero;stroke:none"
       d="M 255.22264,609.46218 L 278.97264,609.46218 L 278.97264,571.96218 L 255.22264,571.96218 L 255.22264,609.46218 z" />
    <path
       id="path3365"
       style="fill:none;stroke:#000000;stroke-width:1.25;stroke-linecap:butt;stroke-linejoin:miter;stroke-miterlimit:10;stroke-dasharray:none;stroke-opacity:1"
       d="M 255.84764,608.83718 L 278.34764,608.83718 L 278.34764,572.58718 L 255.84764,572.58718 L 255.84764,608.83718 z" />
    <path
       id="path3367"
       style="fill:#ffffff;fill-opacity:1;fill-rule:nonzero;stroke:none"
       d="M 288.97264,609.46218 L 312.72264,609.46218 L 312.72264,571.96218 L 288.97264,571.96218 L 288.97264,609.46218 z" />
    <path
       id="path3369"
       style="fill:none;stroke:#000000;stroke-width:1.25;stroke-linecap:butt;stroke-linejoin:miter;stroke-miterlimit:10;stroke-dasharray:none;stroke-opacity:1"
       d="M 289.59764,608.83718 L 312.09764,608.83718 L 312.09764,572.58718 L 289.59764,572.58718 L 289.59764,608.83718 z" />
    <path
       id="path3371"
       style="fill:#ffffff;fill-opacity:1;fill-rule:nonzero;stroke:none"
       d="M 356.47264,609.46218 L 380.22264,609.46218 L 380.22264,571.96218 L 356.47264,571.96218 L 356.47264,609.46218 z" />
    <path
       id="path3373"
       style="fill:none;stroke:#000000;stroke-width:1.25;stroke-linecap:butt;stroke-linejoin:miter;stroke-miterlimit:10;stroke-dasharray:none;stroke-opacity:1"
       d="M 357.09764,608.83718 L 379.59764,608.83718 L 379.59764,572.58718 L 357.09764,572.58718 L 357.09764,608.83718 z" />
    <path
       id="path3375"
       style="fill:#ffffff;fill-opacity:1;fill-rule:nonzero;stroke:none"
       d="M 390.22264,609.46218 L 413.97264,609.46218 L 413.97264,571.96218 L 390.22264,571.96218 L 390.22264,609.46218 z" />
    <path
       id="path3377"
       style="fill:none;stroke:#000000;stroke-width:1.25;stroke-linecap:butt;stroke-linejoin:miter;stroke-miterlimit:10;stroke-dasharray:none;stroke-opacity:1"
       d="M 390.84764,608.83718 L 413.34764,608.83718 L 413.34764,572.58718 L 390.84764,572.58718 L 390.84764,608.83718 z" />
    <text
       id="text3389"
       x="262.72266"
       y="593.21216"
       style="font-size:15px">
      <tspan
         style="font-size:11.25px;font-variant:normal;font-weight:bold;writing-mode:lr-tb;fill:#000000;fill-opacity:1;fill-rule:nonzero;stroke:none;font-family:Helvetica;-inkscape-font-specification:Helvetica-Bold"
         x="262.72266"
         y="593.21216"
         id="tspan3391">R</tspan>
    </text>
    <text
       id="text3403"
       x="296.47266"
       y="593.21216"
       style="font-size:15px">
      <tspan
         style="font-size:11.25px;font-variant:normal;font-weight:bold;writing-mode:lr-tb;fill:#000000;fill-opacity:1;fill-rule:nonzero;stroke:none;font-family:Helvetica;-inkscape-font-specification:Helvetica-Bold"
         x="296.47266"
         y="593.21216"
         id="tspan3405">R</tspan>
    </text>
    <text
       id="text3417"
       x="363.97266"
       y="593.21216"
       style="font-size:15px">
      <tspan
         style="font-size:11.25px;font-variant:normal;font-weight:bold;writing-mode:lr-tb;fill:#000000;fill-opacity:1;fill-rule:nonzero;stroke:none;font-family:Helvetica;-inkscape-font-specification:Helvetica-Bold"
         x="363.97266"
         y="593.21216"
         id="tspan3419">R</tspan>
    </text>
    <text
       id="text3431"
       x="397.72266"
       y="593.21216"
       style="font-size:15px">
      <tspan
         style="font-size:11.25px;font-variant:normal;font-weight:bold;writing-mode:lr-tb;fill:#000000;fill-opacity:1;fill-rule:nonzero;stroke:none;font-family:Helvetica;-inkscape-font-specification:Helvetica-Bold"
         x="397.72266"
         y="593.21216"
         id="tspan3433">R</tspan>
    </text>
    <path
       id="path3443"
       style="fill:#000000;fill-opacity:1;fill-rule:evenodd;stroke:none"
       d="M 267.4828,625.71218 L 262.4828,616.96218 L 271.2328,616.96218 L 267.4828,625.71218" />
    <path
       id="path3445"
       style="fill:#000000;fill-opacity:1;fill-rule:nonzero;stroke:none"
       d="M 266.47264,608.21218 L 267.72264,608.21218 L 267.72264,618.21218 L 266.47264,618.21218 L 266.47264,616.96218" />
    <path
       id="path3447"
       style="fill:#000000;fill-opacity:1;fill-rule:evenodd;stroke:none"
       d="M 301.2328,625.71218 L 296.2328,616.96218 L 304.9828,616.96218 L 301.2328,625.71218" />
    <path
       id="path3449"
       style="fill:#000000;fill-opacity:1;fill-rule:nonzero;stroke:none"
       d="M 300.22264,608.21218 L 301.47264,608.21218 L 301.47264,618.21218 L 300.22264,618.21218 L 300.22264,616.96218" />
    <path
       id="path3451"
       style="fill:#000000;fill-opacity:1;fill-rule:evenodd;stroke:none"
       d="M 368.7328,625.71218 L 363.7328,616.96218 L 372.4828,616.96218 L 368.7328,625.71218" />
    <path
       id="path3453"
       style="fill:#000000;fill-opacity:1;fill-rule:nonzero;stroke:none"
       d="M 367.72264,608.21218 L 368.97264,608.21218 L 368.97264,618.21218 L 367.72264,618.21218 L 367.72264,616.96218" />
    <path
       id="path3455"
       style="fill:#000000;fill-opacity:1;fill-rule:evenodd;stroke:none"
       d="M 402.4828,625.71218 L 397.4828,616.96218 L 406.2328,616.96218 L 402.4828,625.71218" />
    <path
       id="path3457"
       style="fill:#000000;fill-opacity:1;fill-rule:nonzero;stroke:none"
       d="M 401.47264,608.21218 L 402.72264,608.21218 L 402.72264,618.21218 L 401.47264,618.21218 L 401.47264,616.96218" />
    <text
       id="text3469"
       x="317.72266"
       y="639.46216"
       style="font-size:15px">
      <tspan
         style="font-size:12.5px;font-variant:normal;font-weight:normal;writing-mode:lr-tb;fill:#000000;fill-opacity:1;fill-rule:nonzero;stroke:none;font-family:Helvetica;-inkscape-font-specification:Helvetica"
         sodipodi:role="line"
         id="tspan3471"
         x="317.72266"
         y="639.46216">Anzeige</tspan>
    </text>
    <text
       id="text3483"
       x="468.22266"
       y="488.21219"
       style="font-size:15px;text-align:center;text-anchor:middle">
      <tspan
         style="font-size:12.5px;font-variant:normal;font-weight:normal;text-align:center;writing-mode:lr-tb;text-anchor:middle;fill:#000000;fill-opacity:1;fill-rule:nonzero;stroke:none;font-family:Helvetica;-inkscape-font-specification:Helvetica"
         sodipodi:role="line"
         id="tspan3487"
         x="468.22266"
         y="488.21219">Geometrie-</tspan>
      <tspan
         style="font-size:12.5px;font-variant:normal;font-weight:normal;text-align:center;writing-mode:lr-tb;text-anchor:middle;fill:#000000;fill-opacity:1;fill-rule:nonzero;stroke:none;font-family:Helvetica;-inkscape-font-specification:Helvetica"
         sodipodi:role="line"
         x="468.22266"
         y="503.83719"
         id="tspan11884">verarbeitung</tspan>
    </text>
    <text
       id="text3499"
       x="430.22266"
       y="594.46216"
       style="font-size:15px">
      <tspan
         style="font-size:12.5px;font-variant:normal;font-weight:normal;writing-mode:lr-tb;fill:#000000;fill-opacity:1;fill-rule:nonzero;stroke:none;font-family:Helvetica;-inkscape-font-specification:Helvetica"
         sodipodi:role="line"
         id="tspan3501"
         x="430.22266"
         y="594.46216">Rasterisierung</tspan>
    </text>
    <path
       id="path3511"
       style="fill:#000000;fill-opacity:1;fill-rule:nonzero;stroke:none"
       d="M 325.22264,590.71218 C 325.22264,592.09218 324.10264,593.21218 322.72264,593.21218 C 321.34264,593.21218 320.22264,592.09218 320.22264,590.71218 C 320.22264,589.33218 321.34264,588.21218 322.72264,588.21218 C 324.10264,588.21218 325.22264,589.33218 325.22264,590.71218" />
    <path
       id="path3513"
       style="fill:none;stroke:#000000;stroke-width:1.25;stroke-linecap:butt;stroke-linejoin:miter;stroke-miterlimit:10;stroke-dasharray:none;stroke-opacity:1"
       d="M 324.59764,590.71218 C 324.59764,591.74718 323.75764,592.58718 322.72264,592.58718 C 321.68764,592.58718 320.84764,591.74718 320.84764,590.71218 C 320.84764,589.67718 321.68764,588.83718 322.72264,588.83718 C 323.75764,588.83718 324.59764,589.67718 324.59764,590.71218 z" />
    <path
       id="path3515"
       style="fill:#000000;fill-opacity:1;fill-rule:nonzero;stroke:none"
       d="M 336.47264,590.71218 C 336.47264,592.09218 335.35264,593.21218 333.97264,593.21218 C 332.59264,593.21218 331.47264,592.09218 331.47264,590.71218 C 331.47264,589.33218 332.59264,588.21218 333.97264,588.21218 C 335.35264,588.21218 336.47264,589.33218 336.47264,590.71218" />
    <path
       id="path3517"
       style="fill:none;stroke:#000000;stroke-width:1.25;stroke-linecap:butt;stroke-linejoin:miter;stroke-miterlimit:10;stroke-dasharray:none;stroke-opacity:1"
       d="M 335.84764,590.71218 C 335.84764,591.74718 335.00764,592.58718 333.97264,592.58718 C 332.93764,592.58718 332.09764,591.74718 332.09764,590.71218 C 332.09764,589.67718 332.93764,588.83718 333.97264,588.83718 C 335.00764,588.83718 335.84764,589.67718 335.84764,590.71218 z" />
    <path
       id="path3519"
       style="fill:#000000;fill-opacity:1;fill-rule:nonzero;stroke:none"
       d="M 347.72264,590.71218 C 347.72264,592.09218 346.60264,593.21218 345.22264,593.21218 C 343.84264,593.21218 342.72264,592.09218 342.72264,590.71218 C 342.72264,589.33218 343.84264,588.21218 345.22264,588.21218 C 346.60264,588.21218 347.72264,589.33218 347.72264,590.71218" />
    <path
       id="path3521"
       style="fill:none;stroke:#000000;stroke-width:1.25;stroke-linecap:butt;stroke-linejoin:miter;stroke-miterlimit:10;stroke-dasharray:none;stroke-opacity:1"
       d="M 347.09764,590.71218 C 347.09764,591.74718 346.25764,592.58718 345.22264,592.58718 C 344.18764,592.58718 343.34764,591.74718 343.34764,590.71218 C 343.34764,589.67718 344.18764,588.83718 345.22264,588.83718 C 346.25764,588.83718 347.09764,589.67718 347.09764,590.71218 z" />
    <path
       id="path3523"
       style="fill:#ffffff;fill-opacity:1;fill-rule:nonzero;stroke:none"
       d="M 255.22264,511.96218 L 278.97264,511.96218 L 278.97264,473.21218 L 255.22264,473.21218 L 255.22264,511.96218 z" />
    <path
       id="path3525"
       style="fill:none;stroke:#000000;stroke-width:1.25;stroke-linecap:butt;stroke-linejoin:miter;stroke-miterlimit:10;stroke-dasharray:none;stroke-opacity:1"
       d="M 255.84764,511.33718 L 278.34764,511.33718 L 278.34764,473.83718 L 255.84764,473.83718 L 255.84764,511.33718 z" />
    <path
       id="path3527"
       style="fill:#ffffff;fill-opacity:1;fill-rule:nonzero;stroke:none"
       d="M 288.97264,511.96218 L 312.72264,511.96218 L 312.72264,473.21218 L 288.97264,473.21218 L 288.97264,511.96218 z" />
    <path
       id="path3529"
       style="fill:none;stroke:#000000;stroke-width:1.25;stroke-linecap:butt;stroke-linejoin:miter;stroke-miterlimit:10;stroke-dasharray:none;stroke-opacity:1"
       d="M 289.59764,511.33718 L 312.09764,511.33718 L 312.09764,473.83718 L 289.59764,473.83718 L 289.59764,511.33718 z" />
    <path
       id="path3531"
       style="fill:#ffffff;fill-opacity:1;fill-rule:nonzero;stroke:none"
       d="M 356.47264,511.96218 L 380.22264,511.96218 L 380.22264,473.21218 L 356.47264,473.21218 L 356.47264,511.96218 z" />
    <path
       id="path3533"
       style="fill:none;stroke:#000000;stroke-width:1.25;stroke-linecap:butt;stroke-linejoin:miter;stroke-miterlimit:10;stroke-dasharray:none;stroke-opacity:1"
       d="M 357.09764,511.33718 L 379.59764,511.33718 L 379.59764,473.83718 L 357.09764,473.83718 L 357.09764,511.33718 z" />
    <path
       id="path3535"
       style="fill:#ffffff;fill-opacity:1;fill-rule:nonzero;stroke:none"
       d="M 390.22264,511.96218 L 413.97264,511.96218 L 413.97264,473.21218 L 390.22264,473.21218 L 390.22264,511.96218 z" />
    <path
       id="path3537"
       style="fill:none;stroke:#000000;stroke-width:1.25;stroke-linecap:butt;stroke-linejoin:miter;stroke-miterlimit:10;stroke-dasharray:none;stroke-opacity:1"
       d="M 390.84764,511.33718 L 413.34764,511.33718 L 413.34764,473.83718 L 390.84764,473.83718 L 390.84764,511.33718 z" />
    <text
       id="text3549"
       x="262.72266"
       y="494.46219"
       style="font-size:15px">
      <tspan
         style="font-size:11.25px;font-variant:normal;font-weight:bold;writing-mode:lr-tb;fill:#000000;fill-opacity:1;fill-rule:nonzero;stroke:none;font-family:Helvetica;-inkscape-font-specification:Helvetica-Bold"
         x="262.72266"
         y="494.46219"
         id="tspan3551">G</tspan>
    </text>
    <text
       id="text3563"
       x="296.47266"
       y="494.46219"
       style="font-size:15px">
      <tspan
         style="font-size:11.25px;font-variant:normal;font-weight:bold;writing-mode:lr-tb;fill:#000000;fill-opacity:1;fill-rule:nonzero;stroke:none;font-family:Helvetica;-inkscape-font-specification:Helvetica-Bold"
         x="296.47266"
         y="494.46219"
         id="tspan3565">G</tspan>
    </text>
    <text
       id="text3577"
       x="363.97266"
       y="494.46219"
       style="font-size:15px">
      <tspan
         style="font-size:11.25px;font-variant:normal;font-weight:bold;writing-mode:lr-tb;fill:#000000;fill-opacity:1;fill-rule:nonzero;stroke:none;font-family:Helvetica;-inkscape-font-specification:Helvetica-Bold"
         x="363.97266"
         y="494.46219"
         id="tspan3579">G</tspan>
    </text>
    <text
       id="text3591"
       x="397.72266"
       y="494.46219"
       style="font-size:15px">
      <tspan
         style="font-size:11.25px;font-variant:normal;font-weight:bold;writing-mode:lr-tb;fill:#000000;fill-opacity:1;fill-rule:nonzero;stroke:none;font-family:Helvetica;-inkscape-font-specification:Helvetica-Bold"
         x="397.72266"
         y="494.46219"
         id="tspan3593">G</tspan>
    </text>
    <path
       id="path3603"
       style="fill:#000000;fill-opacity:1;fill-rule:nonzero;stroke:none"
       d="M 325.22264,491.96218 C 325.22264,493.34218 324.10264,494.46218 322.72264,494.46218 C 321.34264,494.46218 320.22264,493.34218 320.22264,491.96218 C 320.22264,490.58218 321.34264,489.46218 322.72264,489.46218 C 324.10264,489.46218 325.22264,490.58218 325.22264,491.96218" />
    <path
       id="path3605"
       style="fill:none;stroke:#000000;stroke-width:1.25;stroke-linecap:butt;stroke-linejoin:miter;stroke-miterlimit:10;stroke-dasharray:none;stroke-opacity:1"
       d="M 324.59764,491.96218 C 324.59764,492.99718 323.75764,493.83718 322.72264,493.83718 C 321.68764,493.83718 320.84764,492.99718 320.84764,491.96218 C 320.84764,490.92718 321.68764,490.08718 322.72264,490.08718 C 323.75764,490.08718 324.59764,490.92718 324.59764,491.96218 z" />
    <path
       id="path3607"
       style="fill:#000000;fill-opacity:1;fill-rule:nonzero;stroke:none"
       d="M 336.47264,491.96218 C 336.47264,493.34218 335.35264,494.46218 333.97264,494.46218 C 332.59264,494.46218 331.47264,493.34218 331.47264,491.96218 C 331.47264,490.58218 332.59264,489.46218 333.97264,489.46218 C 335.35264,489.46218 336.47264,490.58218 336.47264,491.96218" />
    <path
       id="path3609"
       style="fill:none;stroke:#000000;stroke-width:1.25;stroke-linecap:butt;stroke-linejoin:miter;stroke-miterlimit:10;stroke-dasharray:none;stroke-opacity:1"
       d="M 335.84764,491.96218 C 335.84764,492.99718 335.00764,493.83718 333.97264,493.83718 C 332.93764,493.83718 332.09764,492.99718 332.09764,491.96218 C 332.09764,490.92718 332.93764,490.08718 333.97264,490.08718 C 335.00764,490.08718 335.84764,490.92718 335.84764,491.96218 z" />
    <path
       id="path3611"
       style="fill:#000000;fill-opacity:1;fill-rule:nonzero;stroke:none"
       d="M 347.72264,491.96218 C 347.72264,493.34218 346.60264,494.46218 345.22264,494.46218 C 343.84264,494.46218 342.72264,493.34218 342.72264,491.96218 C 342.72264,490.58218 343.84264,489.46218 345.22264,489.46218 C 346.60264,489.46218 347.72264,490.58218 347.72264,491.96218" />
    <path
       id="path3613"
       style="fill:none;stroke:#000000;stroke-width:1.25;stroke-linecap:butt;stroke-linejoin:miter;stroke-miterlimit:10;stroke-dasharray:none;stroke-opacity:1"
       d="M 347.09764,491.96218 C 347.09764,492.99718 346.25764,493.83718 345.22264,493.83718 C 344.18764,493.83718 343.34764,492.99718 343.34764,491.96218 C 343.34764,490.92718 344.18764,490.08718 345.22264,490.08718 C 346.25764,490.08718 347.09764,490.92718 347.09764,491.96218 z" />
    <text
       xml:space="preserve"
       style="font-size:7px;font-style:normal;font-weight:normal;fill:#000000;fill-opacity:1;stroke:none;stroke-width:1px;stroke-linecap:butt;stroke-linejoin:miter;stroke-opacity:1;font-family:Bitstream Vera Sans"
       x="301.53055"
       y="383.6412"
       id="text11890"><tspan
         sodipodi:role="line"
         id="tspan11892"
         x="301.53055"
         y="383.6412" /></text>
    <text
       xml:space="preserve"
       style="font-size:12.5px;font-style:normal;font-variant:normal;font-weight:normal;font-stretch:normal;text-align:center;text-anchor:middle;fill:#000000;fill-opacity:1;stroke:none;stroke-width:1px;stroke-linecap:butt;stroke-linejoin:miter;stroke-opacity:1;font-family:Arial;-inkscape-font-specification:Arial"
       x="342.46838"
       y="435.03458"
       id="text11894"><tspan
         sodipodi:role="line"
         id="tspan11896"
         x="342.46838"
         y="435.03458">Grafische Datenbank</tspan><tspan
         sodipodi:role="line"
         x="342.46838"
         y="450.65958"
         id="tspan11898">(beliebig partitioniert)</tspan></text>
    <text
       xml:space="preserve"
       style="font-size:12.5px;font-style:normal;font-variant:normal;font-weight:normal;font-stretch:normal;text-align:center;text-anchor:middle;fill:#000000;fill-opacity:1;stroke:none;stroke-width:1px;stroke-linecap:butt;stroke-linejoin:miter;stroke-opacity:1;font-family:Arial;-inkscape-font-specification:Arial"
       x="330.28571"
       y="537.36218"
       id="text11902"><tspan
         sodipodi:role="line"
         id="tspan11904"
         x="330.28571"
         y="537.36218">Umverteilung der</tspan><tspan
         sodipodi:role="line"
         x="330.28571"
         y="552.98718"
         id="tspan11906">screen-space Primitiven</tspan></text>
  </g>
</svg>
